G04 Layer_Color=15132400*
%FSLAX25Y25*%
%MOIN*%
G70*
G01*
G75*
%ADD15C,0.00787*%
%ADD39C,0.00500*%
%ADD40R,0.05118X0.00803*%
D15*
X95866Y391732D02*
X100984D01*
Y396063D01*
X95866Y391732D02*
Y396063D01*
X57087Y393110D02*
Y394291D01*
X61024Y393110D02*
Y394291D01*
X57087Y393110D02*
X61024D01*
X372047Y78150D02*
Y79331D01*
X375984Y78150D02*
Y79331D01*
X372047Y78150D02*
X375984D01*
X293307D02*
Y79331D01*
X297244Y78150D02*
Y79331D01*
X293307Y78150D02*
X297244D01*
X214567D02*
Y79331D01*
X218504Y78150D02*
Y79331D01*
X214567Y78150D02*
X218504D01*
X135827D02*
Y79331D01*
X139764Y78150D02*
Y79331D01*
X135827Y78150D02*
X139764D01*
X57087D02*
Y79331D01*
X61024Y78150D02*
Y79331D01*
X57087Y78150D02*
X61024D01*
X372047Y156890D02*
Y158071D01*
X375984Y156890D02*
Y158071D01*
X372047Y156890D02*
X375984D01*
X293307D02*
Y158071D01*
X297244Y156890D02*
Y158071D01*
X293307Y156890D02*
X297244D01*
X214567D02*
Y158071D01*
X218504Y156890D02*
Y158071D01*
X214567Y156890D02*
X218504D01*
X135827D02*
Y158071D01*
X139764Y156890D02*
Y158071D01*
X135827Y156890D02*
X139764D01*
X57087D02*
Y158071D01*
X61024Y156890D02*
Y158071D01*
X57087Y156890D02*
X61024D01*
X372047Y235630D02*
Y236811D01*
X375984Y235630D02*
Y236811D01*
X372047Y235630D02*
X375984D01*
X293307D02*
Y236811D01*
X297244Y235630D02*
Y236811D01*
X293307Y235630D02*
X297244D01*
X214567D02*
Y236811D01*
X218504Y235630D02*
Y236811D01*
X214567Y235630D02*
X218504D01*
X135827D02*
Y236811D01*
X139764Y235630D02*
Y236811D01*
X135827Y235630D02*
X139764D01*
X57087D02*
Y236811D01*
X61024Y235630D02*
Y236811D01*
X57087Y235630D02*
X61024D01*
X372047Y314370D02*
Y315551D01*
X375984Y314370D02*
Y315551D01*
X372047Y314370D02*
X375984D01*
X293307D02*
Y315551D01*
X297244Y314370D02*
Y315551D01*
X293307Y314370D02*
X297244D01*
X214567D02*
Y315551D01*
X218504Y314370D02*
Y315551D01*
X214567Y314370D02*
X218504D01*
X135827D02*
Y315551D01*
X139764Y314370D02*
Y315551D01*
X135827Y314370D02*
X139764D01*
X57087D02*
Y315551D01*
X61024Y314370D02*
Y315551D01*
X57087Y314370D02*
X61024D01*
X372047Y393110D02*
Y394291D01*
X375984Y393110D02*
Y394291D01*
X372047Y393110D02*
X375984D01*
X293307D02*
Y394291D01*
X297244Y393110D02*
Y394291D01*
X293307Y393110D02*
X297244D01*
X214567D02*
Y394291D01*
X218504Y393110D02*
Y394291D01*
X214567Y393110D02*
X218504D01*
X135827D02*
Y394291D01*
X139764Y393110D02*
Y394291D01*
X135827Y393110D02*
X139764D01*
X410827Y76772D02*
X415945D01*
Y81102D01*
X410827Y76772D02*
Y81102D01*
X332087Y76772D02*
X337205D01*
Y81102D01*
X332087Y76772D02*
Y81102D01*
X253346Y76772D02*
X258465D01*
Y81102D01*
X253346Y76772D02*
Y81102D01*
X174606Y76772D02*
X179724D01*
Y81102D01*
X174606Y76772D02*
Y81102D01*
X95866Y76772D02*
X100984D01*
Y81102D01*
X95866Y76772D02*
Y81102D01*
X410827Y155512D02*
X415945D01*
Y159843D01*
X410827Y155512D02*
Y159843D01*
X332087Y155512D02*
X337205D01*
Y159843D01*
X332087Y155512D02*
Y159843D01*
X253346Y155512D02*
X258465D01*
Y159843D01*
X253346Y155512D02*
Y159843D01*
X174606Y155512D02*
X179724D01*
Y159843D01*
X174606Y155512D02*
Y159843D01*
X95866Y155512D02*
X100984D01*
Y159843D01*
X95866Y155512D02*
Y159843D01*
X410827Y234252D02*
X415945D01*
Y238583D01*
X410827Y234252D02*
Y238583D01*
X332087Y234252D02*
X337205D01*
Y238583D01*
X332087Y234252D02*
Y238583D01*
X253346Y234252D02*
X258465D01*
Y238583D01*
X253346Y234252D02*
Y238583D01*
X174606Y234252D02*
X179724D01*
Y238583D01*
X174606Y234252D02*
Y238583D01*
X95866Y234252D02*
X100984D01*
Y238583D01*
X95866Y234252D02*
Y238583D01*
X410827Y312992D02*
X415945D01*
Y317323D01*
X410827Y312992D02*
Y317323D01*
X332087Y312992D02*
X337205D01*
Y317323D01*
X332087Y312992D02*
Y317323D01*
X253346Y312992D02*
X258465D01*
Y317323D01*
X253346Y312992D02*
Y317323D01*
X174606Y312992D02*
X179724D01*
Y317323D01*
X174606Y312992D02*
Y317323D01*
X95866Y312992D02*
X100984D01*
Y317323D01*
X95866Y312992D02*
Y317323D01*
X410827Y391732D02*
X415945D01*
Y396063D01*
X410827Y391732D02*
Y396063D01*
X332087Y391732D02*
X337205D01*
Y396063D01*
X332087Y391732D02*
Y396063D01*
X253346Y391732D02*
X258465D01*
Y396063D01*
X253346Y391732D02*
Y396063D01*
X174606Y391732D02*
X179724D01*
Y396063D01*
X174606Y391732D02*
Y396063D01*
X72506Y421587D02*
X71850Y422243D01*
X70538D01*
X69882Y421587D01*
Y418963D01*
X70538Y418307D01*
X71850D01*
X72506Y418963D01*
X73818Y418307D02*
X75129D01*
X74474D01*
Y422243D01*
X73818Y421587D01*
X77097Y417651D02*
X79721D01*
X81033Y418307D02*
Y420931D01*
X82345Y422243D01*
X83657Y420931D01*
Y418307D01*
Y420275D01*
X81033D01*
X84969Y418307D02*
X86281D01*
X85625D01*
Y422243D01*
X84969Y421587D01*
X151246D02*
X150590Y422243D01*
X149278D01*
X148622Y421587D01*
Y418963D01*
X149278Y418307D01*
X150590D01*
X151246Y418963D01*
X152558Y418307D02*
X153870D01*
X153214D01*
Y422243D01*
X152558Y421587D01*
X155838Y417651D02*
X158461D01*
X159773Y418307D02*
Y420931D01*
X161085Y422243D01*
X162397Y420931D01*
Y418307D01*
Y420275D01*
X159773D01*
X166333Y418307D02*
X163709D01*
X166333Y420931D01*
Y421587D01*
X165677Y422243D01*
X164365D01*
X163709Y421587D01*
X230024Y422095D02*
X229368Y422752D01*
X228056D01*
X227400Y422095D01*
Y419472D01*
X228056Y418816D01*
X229368D01*
X230024Y419472D01*
X231336Y418816D02*
X232648D01*
X231992D01*
Y422752D01*
X231336Y422095D01*
X234615Y418160D02*
X237239D01*
X238551Y418816D02*
Y421440D01*
X239863Y422752D01*
X241175Y421440D01*
Y418816D01*
Y420784D01*
X238551D01*
X242487Y422095D02*
X243143Y422752D01*
X244455D01*
X245111Y422095D01*
Y421440D01*
X244455Y420784D01*
X243799D01*
X244455D01*
X245111Y420128D01*
Y419472D01*
X244455Y418816D01*
X243143D01*
X242487Y419472D01*
X308724Y422095D02*
X308068Y422752D01*
X306756D01*
X306100Y422095D01*
Y419472D01*
X306756Y418816D01*
X308068D01*
X308724Y419472D01*
X310036Y418816D02*
X311348D01*
X310692D01*
Y422752D01*
X310036Y422095D01*
X313316Y418160D02*
X315939D01*
X317251Y418816D02*
Y421440D01*
X318563Y422752D01*
X319875Y421440D01*
Y418816D01*
Y420784D01*
X317251D01*
X323155Y418816D02*
Y422752D01*
X321187Y420784D01*
X323811D01*
X387424Y422095D02*
X386768Y422752D01*
X385456D01*
X384800Y422095D01*
Y419472D01*
X385456Y418816D01*
X386768D01*
X387424Y419472D01*
X388736Y418816D02*
X390048D01*
X389392D01*
Y422752D01*
X388736Y422095D01*
X392016Y418160D02*
X394639D01*
X395951Y418816D02*
Y421440D01*
X397263Y422752D01*
X398575Y421440D01*
Y418816D01*
Y420784D01*
X395951D01*
X402511Y422752D02*
X399887D01*
Y420784D01*
X401199Y421440D01*
X401855D01*
X402511Y420784D01*
Y419472D01*
X401855Y418816D01*
X400543D01*
X399887Y419472D01*
X73124Y343395D02*
X72468Y344052D01*
X71156D01*
X70500Y343395D01*
Y340772D01*
X71156Y340116D01*
X72468D01*
X73124Y340772D01*
X74436Y340116D02*
X75748D01*
X75092D01*
Y344052D01*
X74436Y343395D01*
X77715Y339460D02*
X80339D01*
X81651Y344052D02*
Y340116D01*
X83619D01*
X84275Y340772D01*
Y341428D01*
X83619Y342084D01*
X81651D01*
X83619D01*
X84275Y342740D01*
Y343395D01*
X83619Y344052D01*
X81651D01*
X85587Y340116D02*
X86899D01*
X86243D01*
Y344052D01*
X85587Y343395D01*
X151224D02*
X150568Y344052D01*
X149256D01*
X148600Y343395D01*
Y340772D01*
X149256Y340116D01*
X150568D01*
X151224Y340772D01*
X152536Y340116D02*
X153848D01*
X153192D01*
Y344052D01*
X152536Y343395D01*
X155815Y339460D02*
X158439D01*
X159751Y344052D02*
Y340116D01*
X161719D01*
X162375Y340772D01*
Y341428D01*
X161719Y342084D01*
X159751D01*
X161719D01*
X162375Y342740D01*
Y343395D01*
X161719Y344052D01*
X159751D01*
X166311Y340116D02*
X163687D01*
X166311Y342740D01*
Y343395D01*
X165655Y344052D01*
X164343D01*
X163687Y343395D01*
X230024D02*
X229368Y344052D01*
X228056D01*
X227400Y343395D01*
Y340772D01*
X228056Y340116D01*
X229368D01*
X230024Y340772D01*
X231336Y340116D02*
X232648D01*
X231992D01*
Y344052D01*
X231336Y343395D01*
X234615Y339460D02*
X237239D01*
X238551Y344052D02*
Y340116D01*
X240519D01*
X241175Y340772D01*
Y341428D01*
X240519Y342084D01*
X238551D01*
X240519D01*
X241175Y342740D01*
Y343395D01*
X240519Y344052D01*
X238551D01*
X242487Y343395D02*
X243143Y344052D01*
X244455D01*
X245111Y343395D01*
Y342740D01*
X244455Y342084D01*
X243799D01*
X244455D01*
X245111Y341428D01*
Y340772D01*
X244455Y340116D01*
X243143D01*
X242487Y340772D01*
X308724Y343395D02*
X308068Y344052D01*
X306756D01*
X306100Y343395D01*
Y340772D01*
X306756Y340116D01*
X308068D01*
X308724Y340772D01*
X310036Y340116D02*
X311348D01*
X310692D01*
Y344052D01*
X310036Y343395D01*
X313316Y339460D02*
X315939D01*
X317251Y344052D02*
Y340116D01*
X319219D01*
X319875Y340772D01*
Y341428D01*
X319219Y342084D01*
X317251D01*
X319219D01*
X319875Y342740D01*
Y343395D01*
X319219Y344052D01*
X317251D01*
X323155Y340116D02*
Y344052D01*
X321187Y342084D01*
X323811D01*
X387424Y343395D02*
X386768Y344052D01*
X385456D01*
X384800Y343395D01*
Y340772D01*
X385456Y340116D01*
X386768D01*
X387424Y340772D01*
X388736Y340116D02*
X390048D01*
X389392D01*
Y344052D01*
X388736Y343395D01*
X392016Y339460D02*
X394639D01*
X395951Y344052D02*
Y340116D01*
X397919D01*
X398575Y340772D01*
Y341428D01*
X397919Y342084D01*
X395951D01*
X397919D01*
X398575Y342740D01*
Y343395D01*
X397919Y344052D01*
X395951D01*
X402511D02*
X399887D01*
Y342084D01*
X401199Y342740D01*
X401855D01*
X402511Y342084D01*
Y340772D01*
X401855Y340116D01*
X400543D01*
X399887Y340772D01*
X73124Y264696D02*
X72468Y265352D01*
X71156D01*
X70500Y264696D01*
Y262072D01*
X71156Y261416D01*
X72468D01*
X73124Y262072D01*
X74436Y261416D02*
X75748D01*
X75092D01*
Y265352D01*
X74436Y264696D01*
X77715Y260760D02*
X80339D01*
X84275Y264696D02*
X83619Y265352D01*
X82307D01*
X81651Y264696D01*
Y262072D01*
X82307Y261416D01*
X83619D01*
X84275Y262072D01*
X85587Y261416D02*
X86899D01*
X86243D01*
Y265352D01*
X85587Y264696D01*
X151224D02*
X150568Y265352D01*
X149256D01*
X148600Y264696D01*
Y262072D01*
X149256Y261416D01*
X150568D01*
X151224Y262072D01*
X152536Y261416D02*
X153848D01*
X153192D01*
Y265352D01*
X152536Y264696D01*
X155815Y260760D02*
X158439D01*
X162375Y264696D02*
X161719Y265352D01*
X160407D01*
X159751Y264696D01*
Y262072D01*
X160407Y261416D01*
X161719D01*
X162375Y262072D01*
X166311Y261416D02*
X163687D01*
X166311Y264040D01*
Y264696D01*
X165655Y265352D01*
X164343D01*
X163687Y264696D01*
X230024D02*
X229368Y265352D01*
X228056D01*
X227400Y264696D01*
Y262072D01*
X228056Y261416D01*
X229368D01*
X230024Y262072D01*
X231336Y261416D02*
X232648D01*
X231992D01*
Y265352D01*
X231336Y264696D01*
X234615Y260760D02*
X237239D01*
X241175Y264696D02*
X240519Y265352D01*
X239207D01*
X238551Y264696D01*
Y262072D01*
X239207Y261416D01*
X240519D01*
X241175Y262072D01*
X242487Y264696D02*
X243143Y265352D01*
X244455D01*
X245111Y264696D01*
Y264040D01*
X244455Y263384D01*
X243799D01*
X244455D01*
X245111Y262728D01*
Y262072D01*
X244455Y261416D01*
X243143D01*
X242487Y262072D01*
X308724Y264696D02*
X308068Y265352D01*
X306756D01*
X306100Y264696D01*
Y262072D01*
X306756Y261416D01*
X308068D01*
X308724Y262072D01*
X310036Y261416D02*
X311348D01*
X310692D01*
Y265352D01*
X310036Y264696D01*
X313316Y260760D02*
X315939D01*
X319875Y264696D02*
X319219Y265352D01*
X317907D01*
X317251Y264696D01*
Y262072D01*
X317907Y261416D01*
X319219D01*
X319875Y262072D01*
X323155Y261416D02*
Y265352D01*
X321187Y263384D01*
X323811D01*
X387424Y264696D02*
X386768Y265352D01*
X385456D01*
X384800Y264696D01*
Y262072D01*
X385456Y261416D01*
X386768D01*
X387424Y262072D01*
X388736Y261416D02*
X390048D01*
X389392D01*
Y265352D01*
X388736Y264696D01*
X392016Y260760D02*
X394639D01*
X398575Y264696D02*
X397919Y265352D01*
X396607D01*
X395951Y264696D01*
Y262072D01*
X396607Y261416D01*
X397919D01*
X398575Y262072D01*
X402511Y265352D02*
X399887D01*
Y263384D01*
X401199Y264040D01*
X401855D01*
X402511Y263384D01*
Y262072D01*
X401855Y261416D01*
X400543D01*
X399887Y262072D01*
X73124Y185896D02*
X72468Y186551D01*
X71156D01*
X70500Y185896D01*
Y183272D01*
X71156Y182616D01*
X72468D01*
X73124Y183272D01*
X74436Y182616D02*
X75748D01*
X75092D01*
Y186551D01*
X74436Y185896D01*
X77715Y181960D02*
X80339D01*
X81651Y186551D02*
Y182616D01*
X83619D01*
X84275Y183272D01*
Y185896D01*
X83619Y186551D01*
X81651D01*
X85587Y182616D02*
X86899D01*
X86243D01*
Y186551D01*
X85587Y185896D01*
X151224D02*
X150568Y186551D01*
X149256D01*
X148600Y185896D01*
Y183272D01*
X149256Y182616D01*
X150568D01*
X151224Y183272D01*
X152536Y182616D02*
X153848D01*
X153192D01*
Y186551D01*
X152536Y185896D01*
X155815Y181960D02*
X158439D01*
X159751Y186551D02*
Y182616D01*
X161719D01*
X162375Y183272D01*
Y185896D01*
X161719Y186551D01*
X159751D01*
X166311Y182616D02*
X163687D01*
X166311Y185240D01*
Y185896D01*
X165655Y186551D01*
X164343D01*
X163687Y185896D01*
X230024D02*
X229368Y186551D01*
X228056D01*
X227400Y185896D01*
Y183272D01*
X228056Y182616D01*
X229368D01*
X230024Y183272D01*
X231336Y182616D02*
X232648D01*
X231992D01*
Y186551D01*
X231336Y185896D01*
X234615Y181960D02*
X237239D01*
X238551Y186551D02*
Y182616D01*
X240519D01*
X241175Y183272D01*
Y185896D01*
X240519Y186551D01*
X238551D01*
X242487Y185896D02*
X243143Y186551D01*
X244455D01*
X245111Y185896D01*
Y185240D01*
X244455Y184584D01*
X243799D01*
X244455D01*
X245111Y183928D01*
Y183272D01*
X244455Y182616D01*
X243143D01*
X242487Y183272D01*
X308724Y185896D02*
X308068Y186551D01*
X306756D01*
X306100Y185896D01*
Y183272D01*
X306756Y182616D01*
X308068D01*
X308724Y183272D01*
X310036Y182616D02*
X311348D01*
X310692D01*
Y186551D01*
X310036Y185896D01*
X313316Y181960D02*
X315939D01*
X317251Y186551D02*
Y182616D01*
X319219D01*
X319875Y183272D01*
Y185896D01*
X319219Y186551D01*
X317251D01*
X323155Y182616D02*
Y186551D01*
X321187Y184584D01*
X323811D01*
X387424Y185896D02*
X386768Y186551D01*
X385456D01*
X384800Y185896D01*
Y183272D01*
X385456Y182616D01*
X386768D01*
X387424Y183272D01*
X388736Y182616D02*
X390048D01*
X389392D01*
Y186551D01*
X388736Y185896D01*
X392016Y181960D02*
X394639D01*
X395951Y186551D02*
Y182616D01*
X397919D01*
X398575Y183272D01*
Y185896D01*
X397919Y186551D01*
X395951D01*
X402511D02*
X399887D01*
Y184584D01*
X401199Y185240D01*
X401855D01*
X402511Y184584D01*
Y183272D01*
X401855Y182616D01*
X400543D01*
X399887Y183272D01*
X73124Y107195D02*
X72468Y107852D01*
X71156D01*
X70500Y107195D01*
Y104572D01*
X71156Y103916D01*
X72468D01*
X73124Y104572D01*
X74436Y103916D02*
X75748D01*
X75092D01*
Y107852D01*
X74436Y107195D01*
X77715Y103260D02*
X80339D01*
X84275Y107852D02*
X81651D01*
Y103916D01*
X84275D01*
X81651Y105884D02*
X82963D01*
X85587Y103916D02*
X86899D01*
X86243D01*
Y107852D01*
X85587Y107195D01*
X151224D02*
X150568Y107852D01*
X149256D01*
X148600Y107195D01*
Y104572D01*
X149256Y103916D01*
X150568D01*
X151224Y104572D01*
X152536Y103916D02*
X153848D01*
X153192D01*
Y107852D01*
X152536Y107195D01*
X155815Y103260D02*
X158439D01*
X162375Y107852D02*
X159751D01*
Y103916D01*
X162375D01*
X159751Y105884D02*
X161063D01*
X166311Y103916D02*
X163687D01*
X166311Y106540D01*
Y107195D01*
X165655Y107852D01*
X164343D01*
X163687Y107195D01*
X230024D02*
X229368Y107852D01*
X228056D01*
X227400Y107195D01*
Y104572D01*
X228056Y103916D01*
X229368D01*
X230024Y104572D01*
X231336Y103916D02*
X232648D01*
X231992D01*
Y107852D01*
X231336Y107195D01*
X234615Y103260D02*
X237239D01*
X241175Y107852D02*
X238551D01*
Y103916D01*
X241175D01*
X238551Y105884D02*
X239863D01*
X242487Y107195D02*
X243143Y107852D01*
X244455D01*
X245111Y107195D01*
Y106540D01*
X244455Y105884D01*
X243799D01*
X244455D01*
X245111Y105228D01*
Y104572D01*
X244455Y103916D01*
X243143D01*
X242487Y104572D01*
X308724Y107195D02*
X308068Y107852D01*
X306756D01*
X306100Y107195D01*
Y104572D01*
X306756Y103916D01*
X308068D01*
X308724Y104572D01*
X310036Y103916D02*
X311348D01*
X310692D01*
Y107852D01*
X310036Y107195D01*
X313316Y103260D02*
X315939D01*
X319875Y107852D02*
X317251D01*
Y103916D01*
X319875D01*
X317251Y105884D02*
X318563D01*
X323155Y103916D02*
Y107852D01*
X321187Y105884D01*
X323811D01*
X387424Y107195D02*
X386768Y107852D01*
X385456D01*
X384800Y107195D01*
Y104572D01*
X385456Y103916D01*
X386768D01*
X387424Y104572D01*
X388736Y103916D02*
X390048D01*
X389392D01*
Y107852D01*
X388736Y107195D01*
X392016Y103260D02*
X394639D01*
X398575Y107852D02*
X395951D01*
Y103916D01*
X398575D01*
X395951Y105884D02*
X397263D01*
X402511Y107852D02*
X399887D01*
Y105884D01*
X401199Y106540D01*
X401855D01*
X402511Y105884D01*
Y104572D01*
X401855Y103916D01*
X400543D01*
X399887Y104572D01*
X107282Y401575D02*
X103347D01*
Y399607D01*
X104002Y398951D01*
X106626D01*
X107282Y399607D01*
Y401575D01*
X103347Y397639D02*
Y396327D01*
Y396983D01*
X107282D01*
X106626Y397639D01*
X102690Y394359D02*
Y391736D01*
X103347Y390423D02*
X105970D01*
X107282Y389112D01*
X105970Y387800D01*
X103347D01*
X105314D01*
Y390423D01*
X103347Y386488D02*
Y385176D01*
Y385832D01*
X107282D01*
X106626Y386488D01*
X186022Y402559D02*
X182087D01*
Y400591D01*
X182743Y399935D01*
X185366D01*
X186022Y400591D01*
Y402559D01*
X182087Y398623D02*
Y397311D01*
Y397967D01*
X186022D01*
X185366Y398623D01*
X181431Y395343D02*
Y392720D01*
X182087Y391408D02*
X184710D01*
X186022Y390096D01*
X184710Y388784D01*
X182087D01*
X184055D01*
Y391408D01*
X182087Y384848D02*
Y387472D01*
X184710Y384848D01*
X185366D01*
X186022Y385504D01*
Y386816D01*
X185366Y387472D01*
X265125Y402831D02*
X261190D01*
Y400863D01*
X261846Y400207D01*
X264470D01*
X265125Y400863D01*
Y402831D01*
X261190Y398895D02*
Y397583D01*
Y398239D01*
X265125D01*
X264470Y398895D01*
X260534Y395615D02*
Y392991D01*
X261190Y391680D02*
X263814D01*
X265125Y390368D01*
X263814Y389056D01*
X261190D01*
X263158D01*
Y391680D01*
X264470Y387744D02*
X265125Y387088D01*
Y385776D01*
X264470Y385120D01*
X263814D01*
X263158Y385776D01*
Y386432D01*
Y385776D01*
X262502Y385120D01*
X261846D01*
X261190Y385776D01*
Y387088D01*
X261846Y387744D01*
X343826Y402831D02*
X339890D01*
Y400863D01*
X340546Y400207D01*
X343169D01*
X343826Y400863D01*
Y402831D01*
X339890Y398895D02*
Y397583D01*
Y398239D01*
X343826D01*
X343169Y398895D01*
X339234Y395615D02*
Y392991D01*
X339890Y391680D02*
X342514D01*
X343826Y390368D01*
X342514Y389056D01*
X339890D01*
X341858D01*
Y391680D01*
X339890Y385776D02*
X343826D01*
X341858Y387744D01*
Y385120D01*
X422526Y402831D02*
X418590D01*
Y400863D01*
X419246Y400207D01*
X421870D01*
X422526Y400863D01*
Y402831D01*
X418590Y398895D02*
Y397583D01*
Y398239D01*
X422526D01*
X421870Y398895D01*
X417934Y395615D02*
Y392991D01*
X418590Y391680D02*
X421214D01*
X422526Y390368D01*
X421214Y389056D01*
X418590D01*
X420558D01*
Y391680D01*
X422526Y385120D02*
Y387744D01*
X420558D01*
X421214Y386432D01*
Y385776D01*
X420558Y385120D01*
X419246D01*
X418590Y385776D01*
Y387088D01*
X419246Y387744D01*
X107625Y322731D02*
X103690D01*
Y320763D01*
X104346Y320107D01*
X106969D01*
X107625Y320763D01*
Y322731D01*
X103690Y318795D02*
Y317483D01*
Y318139D01*
X107625D01*
X106969Y318795D01*
X103034Y315515D02*
Y312891D01*
X107625Y311579D02*
X103690D01*
Y309612D01*
X104346Y308956D01*
X105002D01*
X105658Y309612D01*
Y311579D01*
Y309612D01*
X106314Y308956D01*
X106969D01*
X107625Y309612D01*
Y311579D01*
X103690Y307644D02*
Y306332D01*
Y306988D01*
X107625D01*
X106969Y307644D01*
X186326Y324031D02*
X182390D01*
Y322063D01*
X183046Y321407D01*
X185670D01*
X186326Y322063D01*
Y324031D01*
X182390Y320095D02*
Y318783D01*
Y319439D01*
X186326D01*
X185670Y320095D01*
X181734Y316815D02*
Y314191D01*
X186326Y312879D02*
X182390D01*
Y310912D01*
X183046Y310256D01*
X183702D01*
X184358Y310912D01*
Y312879D01*
Y310912D01*
X185014Y310256D01*
X185670D01*
X186326Y310912D01*
Y312879D01*
X182390Y306320D02*
Y308944D01*
X185014Y306320D01*
X185670D01*
X186326Y306976D01*
Y308288D01*
X185670Y308944D01*
X265125Y324031D02*
X261190D01*
Y322063D01*
X261846Y321407D01*
X264470D01*
X265125Y322063D01*
Y324031D01*
X261190Y320095D02*
Y318783D01*
Y319439D01*
X265125D01*
X264470Y320095D01*
X260534Y316815D02*
Y314191D01*
X265125Y312879D02*
X261190D01*
Y310912D01*
X261846Y310256D01*
X262502D01*
X263158Y310912D01*
Y312879D01*
Y310912D01*
X263814Y310256D01*
X264470D01*
X265125Y310912D01*
Y312879D01*
X264470Y308944D02*
X265125Y308288D01*
Y306976D01*
X264470Y306320D01*
X263814D01*
X263158Y306976D01*
Y307632D01*
Y306976D01*
X262502Y306320D01*
X261846D01*
X261190Y306976D01*
Y308288D01*
X261846Y308944D01*
X343826Y324031D02*
X339890D01*
Y322063D01*
X340546Y321407D01*
X343169D01*
X343826Y322063D01*
Y324031D01*
X339890Y320095D02*
Y318783D01*
Y319439D01*
X343826D01*
X343169Y320095D01*
X339234Y316815D02*
Y314191D01*
X343826Y312879D02*
X339890D01*
Y310912D01*
X340546Y310256D01*
X341202D01*
X341858Y310912D01*
Y312879D01*
Y310912D01*
X342514Y310256D01*
X343169D01*
X343826Y310912D01*
Y312879D01*
X339890Y306976D02*
X343826D01*
X341858Y308944D01*
Y306320D01*
X422526Y324031D02*
X418590D01*
Y322063D01*
X419246Y321407D01*
X421870D01*
X422526Y322063D01*
Y324031D01*
X418590Y320095D02*
Y318783D01*
Y319439D01*
X422526D01*
X421870Y320095D01*
X417934Y316815D02*
Y314191D01*
X422526Y312879D02*
X418590D01*
Y310912D01*
X419246Y310256D01*
X419902D01*
X420558Y310912D01*
Y312879D01*
Y310912D01*
X421214Y310256D01*
X421870D01*
X422526Y310912D01*
Y312879D01*
Y306320D02*
Y308944D01*
X420558D01*
X421214Y307632D01*
Y306976D01*
X420558Y306320D01*
X419246D01*
X418590Y306976D01*
Y308288D01*
X419246Y308944D01*
X107625Y244031D02*
X103690D01*
Y242063D01*
X104346Y241407D01*
X106969D01*
X107625Y242063D01*
Y244031D01*
X103690Y240095D02*
Y238783D01*
Y239439D01*
X107625D01*
X106969Y240095D01*
X103034Y236815D02*
Y234191D01*
X106969Y230256D02*
X107625Y230912D01*
Y232224D01*
X106969Y232879D01*
X104346D01*
X103690Y232224D01*
Y230912D01*
X104346Y230256D01*
X103690Y228944D02*
Y227632D01*
Y228288D01*
X107625D01*
X106969Y228944D01*
X186326Y245331D02*
X182390D01*
Y243363D01*
X183046Y242707D01*
X185670D01*
X186326Y243363D01*
Y245331D01*
X182390Y241395D02*
Y240083D01*
Y240739D01*
X186326D01*
X185670Y241395D01*
X181734Y238115D02*
Y235491D01*
X185670Y231556D02*
X186326Y232212D01*
Y233524D01*
X185670Y234179D01*
X183046D01*
X182390Y233524D01*
Y232212D01*
X183046Y231556D01*
X182390Y227620D02*
Y230244D01*
X185014Y227620D01*
X185670D01*
X186326Y228276D01*
Y229588D01*
X185670Y230244D01*
X265125Y245331D02*
X261190D01*
Y243363D01*
X261846Y242707D01*
X264470D01*
X265125Y243363D01*
Y245331D01*
X261190Y241395D02*
Y240083D01*
Y240739D01*
X265125D01*
X264470Y241395D01*
X260534Y238115D02*
Y235491D01*
X264470Y231556D02*
X265125Y232212D01*
Y233524D01*
X264470Y234179D01*
X261846D01*
X261190Y233524D01*
Y232212D01*
X261846Y231556D01*
X264470Y230244D02*
X265125Y229588D01*
Y228276D01*
X264470Y227620D01*
X263814D01*
X263158Y228276D01*
Y228932D01*
Y228276D01*
X262502Y227620D01*
X261846D01*
X261190Y228276D01*
Y229588D01*
X261846Y230244D01*
X343826Y245331D02*
X339890D01*
Y243363D01*
X340546Y242707D01*
X343169D01*
X343826Y243363D01*
Y245331D01*
X339890Y241395D02*
Y240083D01*
Y240739D01*
X343826D01*
X343169Y241395D01*
X339234Y238115D02*
Y235491D01*
X343169Y231556D02*
X343826Y232212D01*
Y233524D01*
X343169Y234179D01*
X340546D01*
X339890Y233524D01*
Y232212D01*
X340546Y231556D01*
X339890Y228276D02*
X343826D01*
X341858Y230244D01*
Y227620D01*
X422526Y245331D02*
X418590D01*
Y243363D01*
X419246Y242707D01*
X421870D01*
X422526Y243363D01*
Y245331D01*
X418590Y241395D02*
Y240083D01*
Y240739D01*
X422526D01*
X421870Y241395D01*
X417934Y238115D02*
Y235491D01*
X421870Y231556D02*
X422526Y232212D01*
Y233524D01*
X421870Y234179D01*
X419246D01*
X418590Y233524D01*
Y232212D01*
X419246Y231556D01*
X422526Y227620D02*
Y230244D01*
X420558D01*
X421214Y228932D01*
Y228276D01*
X420558Y227620D01*
X419246D01*
X418590Y228276D01*
Y229588D01*
X419246Y230244D01*
X107625Y165231D02*
X103690D01*
Y163263D01*
X104346Y162607D01*
X106969D01*
X107625Y163263D01*
Y165231D01*
X103690Y161295D02*
Y159983D01*
Y160639D01*
X107625D01*
X106969Y161295D01*
X103034Y158015D02*
Y155391D01*
X107625Y154079D02*
X103690D01*
Y152112D01*
X104346Y151456D01*
X106969D01*
X107625Y152112D01*
Y154079D01*
X103690Y150144D02*
Y148832D01*
Y149488D01*
X107625D01*
X106969Y150144D01*
X186326Y166531D02*
X182390D01*
Y164563D01*
X183046Y163907D01*
X185670D01*
X186326Y164563D01*
Y166531D01*
X182390Y162595D02*
Y161283D01*
Y161939D01*
X186326D01*
X185670Y162595D01*
X181734Y159315D02*
Y156691D01*
X186326Y155379D02*
X182390D01*
Y153412D01*
X183046Y152756D01*
X185670D01*
X186326Y153412D01*
Y155379D01*
X182390Y148820D02*
Y151444D01*
X185014Y148820D01*
X185670D01*
X186326Y149476D01*
Y150788D01*
X185670Y151444D01*
X265125Y166531D02*
X261190D01*
Y164563D01*
X261846Y163907D01*
X264470D01*
X265125Y164563D01*
Y166531D01*
X261190Y162595D02*
Y161283D01*
Y161939D01*
X265125D01*
X264470Y162595D01*
X260534Y159315D02*
Y156691D01*
X265125Y155379D02*
X261190D01*
Y153412D01*
X261846Y152756D01*
X264470D01*
X265125Y153412D01*
Y155379D01*
X264470Y151444D02*
X265125Y150788D01*
Y149476D01*
X264470Y148820D01*
X263814D01*
X263158Y149476D01*
Y150132D01*
Y149476D01*
X262502Y148820D01*
X261846D01*
X261190Y149476D01*
Y150788D01*
X261846Y151444D01*
X343826Y166531D02*
X339890D01*
Y164563D01*
X340546Y163907D01*
X343169D01*
X343826Y164563D01*
Y166531D01*
X339890Y162595D02*
Y161283D01*
Y161939D01*
X343826D01*
X343169Y162595D01*
X339234Y159315D02*
Y156691D01*
X343826Y155379D02*
X339890D01*
Y153412D01*
X340546Y152756D01*
X343169D01*
X343826Y153412D01*
Y155379D01*
X339890Y149476D02*
X343826D01*
X341858Y151444D01*
Y148820D01*
X422526Y166531D02*
X418590D01*
Y164563D01*
X419246Y163907D01*
X421870D01*
X422526Y164563D01*
Y166531D01*
X418590Y162595D02*
Y161283D01*
Y161939D01*
X422526D01*
X421870Y162595D01*
X417934Y159315D02*
Y156691D01*
X422526Y155379D02*
X418590D01*
Y153412D01*
X419246Y152756D01*
X421870D01*
X422526Y153412D01*
Y155379D01*
Y148820D02*
Y151444D01*
X420558D01*
X421214Y150132D01*
Y149476D01*
X420558Y148820D01*
X419246D01*
X418590Y149476D01*
Y150788D01*
X419246Y151444D01*
X107625Y86531D02*
X103690D01*
Y84563D01*
X104346Y83907D01*
X106969D01*
X107625Y84563D01*
Y86531D01*
X103690Y82595D02*
Y81283D01*
Y81939D01*
X107625D01*
X106969Y82595D01*
X103034Y79315D02*
Y76691D01*
X107625Y72756D02*
Y75380D01*
X103690D01*
Y72756D01*
X105658Y75380D02*
Y74068D01*
X103690Y71444D02*
Y70132D01*
Y70788D01*
X107625D01*
X106969Y71444D01*
X186326Y87831D02*
X182390D01*
Y85863D01*
X183046Y85207D01*
X185670D01*
X186326Y85863D01*
Y87831D01*
X182390Y83895D02*
Y82583D01*
Y83239D01*
X186326D01*
X185670Y83895D01*
X181734Y80615D02*
Y77991D01*
X186326Y74056D02*
Y76679D01*
X182390D01*
Y74056D01*
X184358Y76679D02*
Y75368D01*
X182390Y70120D02*
Y72744D01*
X185014Y70120D01*
X185670D01*
X186326Y70776D01*
Y72088D01*
X185670Y72744D01*
X265125Y87831D02*
X261190D01*
Y85863D01*
X261846Y85207D01*
X264470D01*
X265125Y85863D01*
Y87831D01*
X261190Y83895D02*
Y82583D01*
Y83239D01*
X265125D01*
X264470Y83895D01*
X260534Y80615D02*
Y77991D01*
X265125Y74056D02*
Y76679D01*
X261190D01*
Y74056D01*
X263158Y76679D02*
Y75368D01*
X264470Y72744D02*
X265125Y72088D01*
Y70776D01*
X264470Y70120D01*
X263814D01*
X263158Y70776D01*
Y71432D01*
Y70776D01*
X262502Y70120D01*
X261846D01*
X261190Y70776D01*
Y72088D01*
X261846Y72744D01*
X343826Y88815D02*
X339890D01*
Y86847D01*
X340546Y86191D01*
X343169D01*
X343826Y86847D01*
Y88815D01*
X339890Y84879D02*
Y83567D01*
Y84223D01*
X343826D01*
X343169Y84879D01*
X339234Y81599D02*
Y78976D01*
X343826Y75040D02*
Y77664D01*
X339890D01*
Y75040D01*
X341858Y77664D02*
Y76352D01*
X339890Y71760D02*
X343826D01*
X341858Y73728D01*
Y71104D01*
X422526Y88815D02*
X418590D01*
Y86847D01*
X419246Y86191D01*
X421870D01*
X422526Y86847D01*
Y88815D01*
X418590Y84879D02*
Y83567D01*
Y84223D01*
X422526D01*
X421870Y84879D01*
X417934Y81599D02*
Y78976D01*
X422526Y75040D02*
Y77664D01*
X418590D01*
Y75040D01*
X420558Y77664D02*
Y76352D01*
X422526Y71104D02*
Y73728D01*
X420558D01*
X421214Y72416D01*
Y71760D01*
X420558Y71104D01*
X419246D01*
X418590Y71760D01*
Y73072D01*
X419246Y73728D01*
X93503Y401575D02*
X89567D01*
Y398951D01*
Y397639D02*
Y396327D01*
Y396983D01*
X93503D01*
X92847Y397639D01*
X88911Y394359D02*
Y391736D01*
X89567Y390423D02*
X92191D01*
X93503Y389112D01*
X92191Y387800D01*
X89567D01*
X91535D01*
Y390423D01*
X89567Y386488D02*
Y385176D01*
Y385832D01*
X93503D01*
X92847Y386488D01*
X172243Y402559D02*
X168307D01*
Y399935D01*
Y398623D02*
Y397311D01*
Y397967D01*
X172243D01*
X171587Y398623D01*
X167651Y395343D02*
Y392720D01*
X168307Y391408D02*
X170931D01*
X172243Y390096D01*
X170931Y388784D01*
X168307D01*
X170275D01*
Y391408D01*
X168307Y384848D02*
Y387472D01*
X170931Y384848D01*
X171587D01*
X172243Y385504D01*
Y386816D01*
X171587Y387472D01*
X251331Y402694D02*
X247395D01*
Y400070D01*
Y398758D02*
Y397446D01*
Y398102D01*
X251331D01*
X250675Y398758D01*
X246739Y395478D02*
Y392854D01*
X247395Y391542D02*
X250019D01*
X251331Y390230D01*
X250019Y388919D01*
X247395D01*
X249363D01*
Y391542D01*
X250675Y387607D02*
X251331Y386951D01*
Y385639D01*
X250675Y384983D01*
X250019D01*
X249363Y385639D01*
Y386295D01*
Y385639D01*
X248707Y384983D01*
X248051D01*
X247395Y385639D01*
Y386951D01*
X248051Y387607D01*
X330031Y402694D02*
X326095D01*
Y400070D01*
Y398758D02*
Y397446D01*
Y398102D01*
X330031D01*
X329375Y398758D01*
X325439Y395478D02*
Y392854D01*
X326095Y391542D02*
X328719D01*
X330031Y390230D01*
X328719Y388919D01*
X326095D01*
X328063D01*
Y391542D01*
X326095Y385639D02*
X330031D01*
X328063Y387607D01*
Y384983D01*
X408731Y402694D02*
X404795D01*
Y400070D01*
Y398758D02*
Y397446D01*
Y398102D01*
X408731D01*
X408075Y398758D01*
X404139Y395478D02*
Y392854D01*
X404795Y391542D02*
X407419D01*
X408731Y390230D01*
X407419Y388919D01*
X404795D01*
X406763D01*
Y391542D01*
X408731Y384983D02*
Y387607D01*
X406763D01*
X407419Y386295D01*
Y385639D01*
X406763Y384983D01*
X405451D01*
X404795Y385639D01*
Y386951D01*
X405451Y387607D01*
X93831Y322594D02*
X89895D01*
Y319970D01*
Y318658D02*
Y317346D01*
Y318002D01*
X93831D01*
X93175Y318658D01*
X89239Y315378D02*
Y312754D01*
X93831Y311442D02*
X89895D01*
Y309475D01*
X90551Y308819D01*
X91207D01*
X91863Y309475D01*
Y311442D01*
Y309475D01*
X92519Y308819D01*
X93175D01*
X93831Y309475D01*
Y311442D01*
X89895Y307507D02*
Y306195D01*
Y306851D01*
X93831D01*
X93175Y307507D01*
X172531Y323994D02*
X168595D01*
Y321370D01*
Y320058D02*
Y318746D01*
Y319402D01*
X172531D01*
X171875Y320058D01*
X167939Y316778D02*
Y314154D01*
X172531Y312842D02*
X168595D01*
Y310875D01*
X169251Y310219D01*
X169907D01*
X170563Y310875D01*
Y312842D01*
Y310875D01*
X171219Y310219D01*
X171875D01*
X172531Y310875D01*
Y312842D01*
X168595Y306283D02*
Y308907D01*
X171219Y306283D01*
X171875D01*
X172531Y306939D01*
Y308251D01*
X171875Y308907D01*
X251331Y323994D02*
X247395D01*
Y321370D01*
Y320058D02*
Y318746D01*
Y319402D01*
X251331D01*
X250675Y320058D01*
X246739Y316778D02*
Y314154D01*
X251331Y312842D02*
X247395D01*
Y310875D01*
X248051Y310219D01*
X248707D01*
X249363Y310875D01*
Y312842D01*
Y310875D01*
X250019Y310219D01*
X250675D01*
X251331Y310875D01*
Y312842D01*
X250675Y308907D02*
X251331Y308251D01*
Y306939D01*
X250675Y306283D01*
X250019D01*
X249363Y306939D01*
Y307595D01*
Y306939D01*
X248707Y306283D01*
X248051D01*
X247395Y306939D01*
Y308251D01*
X248051Y308907D01*
X330031Y323994D02*
X326095D01*
Y321370D01*
Y320058D02*
Y318746D01*
Y319402D01*
X330031D01*
X329375Y320058D01*
X325439Y316778D02*
Y314154D01*
X330031Y312842D02*
X326095D01*
Y310875D01*
X326751Y310219D01*
X327407D01*
X328063Y310875D01*
Y312842D01*
Y310875D01*
X328719Y310219D01*
X329375D01*
X330031Y310875D01*
Y312842D01*
X326095Y306939D02*
X330031D01*
X328063Y308907D01*
Y306283D01*
X408731Y323994D02*
X404795D01*
Y321370D01*
Y320058D02*
Y318746D01*
Y319402D01*
X408731D01*
X408075Y320058D01*
X404139Y316778D02*
Y314154D01*
X408731Y312842D02*
X404795D01*
Y310875D01*
X405451Y310219D01*
X406107D01*
X406763Y310875D01*
Y312842D01*
Y310875D01*
X407419Y310219D01*
X408075D01*
X408731Y310875D01*
Y312842D01*
Y306283D02*
Y308907D01*
X406763D01*
X407419Y307595D01*
Y306939D01*
X406763Y306283D01*
X405451D01*
X404795Y306939D01*
Y308251D01*
X405451Y308907D01*
X93831Y243894D02*
X89895D01*
Y241270D01*
Y239958D02*
Y238646D01*
Y239302D01*
X93831D01*
X93175Y239958D01*
X89239Y236678D02*
Y234054D01*
X93175Y230119D02*
X93831Y230775D01*
Y232086D01*
X93175Y232742D01*
X90551D01*
X89895Y232086D01*
Y230775D01*
X90551Y230119D01*
X89895Y228807D02*
Y227495D01*
Y228151D01*
X93831D01*
X93175Y228807D01*
X172531Y245194D02*
X168595D01*
Y242570D01*
Y241258D02*
Y239946D01*
Y240602D01*
X172531D01*
X171875Y241258D01*
X167939Y237978D02*
Y235354D01*
X171875Y231419D02*
X172531Y232075D01*
Y233386D01*
X171875Y234042D01*
X169251D01*
X168595Y233386D01*
Y232075D01*
X169251Y231419D01*
X168595Y227483D02*
Y230107D01*
X171219Y227483D01*
X171875D01*
X172531Y228139D01*
Y229451D01*
X171875Y230107D01*
X251331Y245194D02*
X247395D01*
Y242570D01*
Y241258D02*
Y239946D01*
Y240602D01*
X251331D01*
X250675Y241258D01*
X246739Y237978D02*
Y235354D01*
X250675Y231419D02*
X251331Y232075D01*
Y233386D01*
X250675Y234042D01*
X248051D01*
X247395Y233386D01*
Y232075D01*
X248051Y231419D01*
X250675Y230107D02*
X251331Y229451D01*
Y228139D01*
X250675Y227483D01*
X250019D01*
X249363Y228139D01*
Y228795D01*
Y228139D01*
X248707Y227483D01*
X248051D01*
X247395Y228139D01*
Y229451D01*
X248051Y230107D01*
X330031Y245194D02*
X326095D01*
Y242570D01*
Y241258D02*
Y239946D01*
Y240602D01*
X330031D01*
X329375Y241258D01*
X325439Y237978D02*
Y235354D01*
X329375Y231419D02*
X330031Y232075D01*
Y233386D01*
X329375Y234042D01*
X326751D01*
X326095Y233386D01*
Y232075D01*
X326751Y231419D01*
X326095Y228139D02*
X330031D01*
X328063Y230107D01*
Y227483D01*
X408731Y245194D02*
X404795D01*
Y242570D01*
Y241258D02*
Y239946D01*
Y240602D01*
X408731D01*
X408075Y241258D01*
X404139Y237978D02*
Y235354D01*
X408075Y231419D02*
X408731Y232075D01*
Y233386D01*
X408075Y234042D01*
X405451D01*
X404795Y233386D01*
Y232075D01*
X405451Y231419D01*
X408731Y227483D02*
Y230107D01*
X406763D01*
X407419Y228795D01*
Y228139D01*
X406763Y227483D01*
X405451D01*
X404795Y228139D01*
Y229451D01*
X405451Y230107D01*
X93831Y165194D02*
X89895D01*
Y162570D01*
Y161258D02*
Y159946D01*
Y160602D01*
X93831D01*
X93175Y161258D01*
X89239Y157978D02*
Y155354D01*
X93831Y154042D02*
X89895D01*
Y152075D01*
X90551Y151419D01*
X93175D01*
X93831Y152075D01*
Y154042D01*
X89895Y150107D02*
Y148795D01*
Y149451D01*
X93831D01*
X93175Y150107D01*
X172531Y166494D02*
X168595D01*
Y163870D01*
Y162558D02*
Y161246D01*
Y161902D01*
X172531D01*
X171875Y162558D01*
X167939Y159278D02*
Y156654D01*
X172531Y155342D02*
X168595D01*
Y153375D01*
X169251Y152719D01*
X171875D01*
X172531Y153375D01*
Y155342D01*
X168595Y148783D02*
Y151407D01*
X171219Y148783D01*
X171875D01*
X172531Y149439D01*
Y150751D01*
X171875Y151407D01*
X251331Y166494D02*
X247395D01*
Y163870D01*
Y162558D02*
Y161246D01*
Y161902D01*
X251331D01*
X250675Y162558D01*
X246739Y159278D02*
Y156654D01*
X251331Y155342D02*
X247395D01*
Y153375D01*
X248051Y152719D01*
X250675D01*
X251331Y153375D01*
Y155342D01*
X250675Y151407D02*
X251331Y150751D01*
Y149439D01*
X250675Y148783D01*
X250019D01*
X249363Y149439D01*
Y150095D01*
Y149439D01*
X248707Y148783D01*
X248051D01*
X247395Y149439D01*
Y150751D01*
X248051Y151407D01*
X330031Y166494D02*
X326095D01*
Y163870D01*
Y162558D02*
Y161246D01*
Y161902D01*
X330031D01*
X329375Y162558D01*
X325439Y159278D02*
Y156654D01*
X330031Y155342D02*
X326095D01*
Y153375D01*
X326751Y152719D01*
X329375D01*
X330031Y153375D01*
Y155342D01*
X326095Y149439D02*
X330031D01*
X328063Y151407D01*
Y148783D01*
X408731Y166494D02*
X404795D01*
Y163870D01*
Y162558D02*
Y161246D01*
Y161902D01*
X408731D01*
X408075Y162558D01*
X404139Y159278D02*
Y156654D01*
X408731Y155342D02*
X404795D01*
Y153375D01*
X405451Y152719D01*
X408075D01*
X408731Y153375D01*
Y155342D01*
Y148783D02*
Y151407D01*
X406763D01*
X407419Y150095D01*
Y149439D01*
X406763Y148783D01*
X405451D01*
X404795Y149439D01*
Y150751D01*
X405451Y151407D01*
X93831Y86394D02*
X89895D01*
Y83770D01*
Y82458D02*
Y81146D01*
Y81802D01*
X93831D01*
X93175Y82458D01*
X89239Y79178D02*
Y76554D01*
X93831Y72619D02*
Y75242D01*
X89895D01*
Y72619D01*
X91863Y75242D02*
Y73931D01*
X89895Y71307D02*
Y69995D01*
Y70651D01*
X93831D01*
X93175Y71307D01*
X172531Y87694D02*
X168595D01*
Y85070D01*
Y83758D02*
Y82446D01*
Y83102D01*
X172531D01*
X171875Y83758D01*
X167939Y80478D02*
Y77854D01*
X172531Y73919D02*
Y76542D01*
X168595D01*
Y73919D01*
X170563Y76542D02*
Y75230D01*
X168595Y69983D02*
Y72607D01*
X171219Y69983D01*
X171875D01*
X172531Y70639D01*
Y71951D01*
X171875Y72607D01*
X251331Y87694D02*
X247395D01*
Y85070D01*
Y83758D02*
Y82446D01*
Y83102D01*
X251331D01*
X250675Y83758D01*
X246739Y80478D02*
Y77854D01*
X251331Y73919D02*
Y76542D01*
X247395D01*
Y73919D01*
X249363Y76542D02*
Y75230D01*
X250675Y72607D02*
X251331Y71951D01*
Y70639D01*
X250675Y69983D01*
X250019D01*
X249363Y70639D01*
Y71295D01*
Y70639D01*
X248707Y69983D01*
X248051D01*
X247395Y70639D01*
Y71951D01*
X248051Y72607D01*
X330031Y87694D02*
X326095D01*
Y85070D01*
Y83758D02*
Y82446D01*
Y83102D01*
X330031D01*
X329375Y83758D01*
X325439Y80478D02*
Y77854D01*
X330031Y73919D02*
Y76542D01*
X326095D01*
Y73919D01*
X328063Y76542D02*
Y75230D01*
X326095Y70639D02*
X330031D01*
X328063Y72607D01*
Y69983D01*
X408731Y87694D02*
X404795D01*
Y85070D01*
Y83758D02*
Y82446D01*
Y83102D01*
X408731D01*
X408075Y83758D01*
X404139Y80478D02*
Y77854D01*
X408731Y73919D02*
Y76542D01*
X404795D01*
Y73919D01*
X406763Y76542D02*
Y75230D01*
X408731Y69983D02*
Y72607D01*
X406763D01*
X407419Y71295D01*
Y70639D01*
X406763Y69983D01*
X405451D01*
X404795Y70639D01*
Y71951D01*
X405451Y72607D01*
X63648Y398951D02*
X66272D01*
X66928Y399607D01*
Y400919D01*
X66272Y401575D01*
X63648D01*
X62992Y400919D01*
Y399607D01*
X64304Y400263D02*
X62992Y398951D01*
Y399607D02*
X63648Y398951D01*
X62992Y397639D02*
Y396327D01*
Y396983D01*
X66928D01*
X66272Y397639D01*
X62336Y394359D02*
Y391736D01*
X62992Y390423D02*
X65616D01*
X66928Y389112D01*
X65616Y387800D01*
X62992D01*
X64960D01*
Y390423D01*
X62992Y386488D02*
Y385176D01*
Y385832D01*
X66928D01*
X66272Y386488D01*
X142388Y398951D02*
X145012D01*
X145668Y399607D01*
Y400919D01*
X145012Y401575D01*
X142388D01*
X141732Y400919D01*
Y399607D01*
X143044Y400263D02*
X141732Y398951D01*
Y399607D02*
X142388Y398951D01*
X141732Y397639D02*
Y396327D01*
Y396983D01*
X145668D01*
X145012Y397639D01*
X141076Y394359D02*
Y391736D01*
X141732Y390423D02*
X144356D01*
X145668Y389112D01*
X144356Y387800D01*
X141732D01*
X143700D01*
Y390423D01*
X141732Y383864D02*
Y386488D01*
X144356Y383864D01*
X145012D01*
X145668Y384520D01*
Y385832D01*
X145012Y386488D01*
X221462Y398891D02*
X224085D01*
X224741Y399547D01*
Y400859D01*
X224085Y401515D01*
X221462D01*
X220806Y400859D01*
Y399547D01*
X222117Y400203D02*
X220806Y398891D01*
Y399547D02*
X221462Y398891D01*
X220806Y397579D02*
Y396267D01*
Y396923D01*
X224741D01*
X224085Y397579D01*
X220149Y394299D02*
Y391676D01*
X220806Y390364D02*
X223429D01*
X224741Y389052D01*
X223429Y387740D01*
X220806D01*
X222773D01*
Y390364D01*
X224085Y386428D02*
X224741Y385772D01*
Y384460D01*
X224085Y383804D01*
X223429D01*
X222773Y384460D01*
Y385116D01*
Y384460D01*
X222117Y383804D01*
X221462D01*
X220806Y384460D01*
Y385772D01*
X221462Y386428D01*
X300162Y398891D02*
X302785D01*
X303441Y399547D01*
Y400859D01*
X302785Y401515D01*
X300162D01*
X299505Y400859D01*
Y399547D01*
X300817Y400203D02*
X299505Y398891D01*
Y399547D02*
X300162Y398891D01*
X299505Y397579D02*
Y396267D01*
Y396923D01*
X303441D01*
X302785Y397579D01*
X298850Y394299D02*
Y391676D01*
X299505Y390364D02*
X302129D01*
X303441Y389052D01*
X302129Y387740D01*
X299505D01*
X301473D01*
Y390364D01*
X299505Y384460D02*
X303441D01*
X301473Y386428D01*
Y383804D01*
X378961Y398891D02*
X381585D01*
X382241Y399547D01*
Y400859D01*
X381585Y401515D01*
X378961D01*
X378306Y400859D01*
Y399547D01*
X379617Y400203D02*
X378306Y398891D01*
Y399547D02*
X378961Y398891D01*
X378306Y397579D02*
Y396267D01*
Y396923D01*
X382241D01*
X381585Y397579D01*
X377649Y394299D02*
Y391676D01*
X378306Y390364D02*
X380929D01*
X382241Y389052D01*
X380929Y387740D01*
X378306D01*
X380273D01*
Y390364D01*
X382241Y383804D02*
Y386428D01*
X380273D01*
X380929Y385116D01*
Y384460D01*
X380273Y383804D01*
X378961D01*
X378306Y384460D01*
Y385772D01*
X378961Y386428D01*
X63961Y318791D02*
X66585D01*
X67241Y319447D01*
Y320759D01*
X66585Y321415D01*
X63961D01*
X63305Y320759D01*
Y319447D01*
X64617Y320103D02*
X63305Y318791D01*
Y319447D02*
X63961Y318791D01*
X63305Y317479D02*
Y316167D01*
Y316823D01*
X67241D01*
X66585Y317479D01*
X62650Y314199D02*
Y311576D01*
X67241Y310264D02*
X63305D01*
Y308296D01*
X63961Y307640D01*
X64617D01*
X65273Y308296D01*
Y310264D01*
Y308296D01*
X65929Y307640D01*
X66585D01*
X67241Y308296D01*
Y310264D01*
X63305Y306328D02*
Y305016D01*
Y305672D01*
X67241D01*
X66585Y306328D01*
X142762Y320091D02*
X145385D01*
X146041Y320747D01*
Y322059D01*
X145385Y322715D01*
X142762D01*
X142105Y322059D01*
Y320747D01*
X143417Y321403D02*
X142105Y320091D01*
Y320747D02*
X142762Y320091D01*
X142105Y318779D02*
Y317467D01*
Y318123D01*
X146041D01*
X145385Y318779D01*
X141449Y315499D02*
Y312876D01*
X146041Y311564D02*
X142105D01*
Y309596D01*
X142762Y308940D01*
X143417D01*
X144073Y309596D01*
Y311564D01*
Y309596D01*
X144729Y308940D01*
X145385D01*
X146041Y309596D01*
Y311564D01*
X142105Y305004D02*
Y307628D01*
X144729Y305004D01*
X145385D01*
X146041Y305660D01*
Y306972D01*
X145385Y307628D01*
X221462Y320091D02*
X224085D01*
X224741Y320747D01*
Y322059D01*
X224085Y322715D01*
X221462D01*
X220806Y322059D01*
Y320747D01*
X222117Y321403D02*
X220806Y320091D01*
Y320747D02*
X221462Y320091D01*
X220806Y318779D02*
Y317467D01*
Y318123D01*
X224741D01*
X224085Y318779D01*
X220149Y315499D02*
Y312876D01*
X224741Y311564D02*
X220806D01*
Y309596D01*
X221462Y308940D01*
X222117D01*
X222773Y309596D01*
Y311564D01*
Y309596D01*
X223429Y308940D01*
X224085D01*
X224741Y309596D01*
Y311564D01*
X224085Y307628D02*
X224741Y306972D01*
Y305660D01*
X224085Y305004D01*
X223429D01*
X222773Y305660D01*
Y306316D01*
Y305660D01*
X222117Y305004D01*
X221462D01*
X220806Y305660D01*
Y306972D01*
X221462Y307628D01*
X300162Y320091D02*
X302785D01*
X303441Y320747D01*
Y322059D01*
X302785Y322715D01*
X300162D01*
X299505Y322059D01*
Y320747D01*
X300817Y321403D02*
X299505Y320091D01*
Y320747D02*
X300162Y320091D01*
X299505Y318779D02*
Y317467D01*
Y318123D01*
X303441D01*
X302785Y318779D01*
X298850Y315499D02*
Y312876D01*
X303441Y311564D02*
X299505D01*
Y309596D01*
X300162Y308940D01*
X300817D01*
X301473Y309596D01*
Y311564D01*
Y309596D01*
X302129Y308940D01*
X302785D01*
X303441Y309596D01*
Y311564D01*
X299505Y305660D02*
X303441D01*
X301473Y307628D01*
Y305004D01*
X378961Y320091D02*
X381585D01*
X382241Y320747D01*
Y322059D01*
X381585Y322715D01*
X378961D01*
X378306Y322059D01*
Y320747D01*
X379617Y321403D02*
X378306Y320091D01*
Y320747D02*
X378961Y320091D01*
X378306Y318779D02*
Y317467D01*
Y318123D01*
X382241D01*
X381585Y318779D01*
X377649Y315499D02*
Y312876D01*
X382241Y311564D02*
X378306D01*
Y309596D01*
X378961Y308940D01*
X379617D01*
X380273Y309596D01*
Y311564D01*
Y309596D01*
X380929Y308940D01*
X381585D01*
X382241Y309596D01*
Y311564D01*
Y305004D02*
Y307628D01*
X380273D01*
X380929Y306316D01*
Y305660D01*
X380273Y305004D01*
X378961D01*
X378306Y305660D01*
Y306972D01*
X378961Y307628D01*
X63961Y240091D02*
X66585D01*
X67241Y240747D01*
Y242059D01*
X66585Y242715D01*
X63961D01*
X63305Y242059D01*
Y240747D01*
X64617Y241403D02*
X63305Y240091D01*
Y240747D02*
X63961Y240091D01*
X63305Y238779D02*
Y237467D01*
Y238123D01*
X67241D01*
X66585Y238779D01*
X62650Y235499D02*
Y232876D01*
X66585Y228940D02*
X67241Y229596D01*
Y230908D01*
X66585Y231564D01*
X63961D01*
X63305Y230908D01*
Y229596D01*
X63961Y228940D01*
X63305Y227628D02*
Y226316D01*
Y226972D01*
X67241D01*
X66585Y227628D01*
X142762Y241391D02*
X145385D01*
X146041Y242047D01*
Y243359D01*
X145385Y244015D01*
X142762D01*
X142105Y243359D01*
Y242047D01*
X143417Y242703D02*
X142105Y241391D01*
Y242047D02*
X142762Y241391D01*
X142105Y240079D02*
Y238767D01*
Y239423D01*
X146041D01*
X145385Y240079D01*
X141449Y236799D02*
Y234176D01*
X145385Y230240D02*
X146041Y230896D01*
Y232208D01*
X145385Y232864D01*
X142762D01*
X142105Y232208D01*
Y230896D01*
X142762Y230240D01*
X142105Y226304D02*
Y228928D01*
X144729Y226304D01*
X145385D01*
X146041Y226960D01*
Y228272D01*
X145385Y228928D01*
X221462Y241391D02*
X224085D01*
X224741Y242047D01*
Y243359D01*
X224085Y244015D01*
X221462D01*
X220806Y243359D01*
Y242047D01*
X222117Y242703D02*
X220806Y241391D01*
Y242047D02*
X221462Y241391D01*
X220806Y240079D02*
Y238767D01*
Y239423D01*
X224741D01*
X224085Y240079D01*
X220149Y236799D02*
Y234176D01*
X224085Y230240D02*
X224741Y230896D01*
Y232208D01*
X224085Y232864D01*
X221462D01*
X220806Y232208D01*
Y230896D01*
X221462Y230240D01*
X224085Y228928D02*
X224741Y228272D01*
Y226960D01*
X224085Y226304D01*
X223429D01*
X222773Y226960D01*
Y227616D01*
Y226960D01*
X222117Y226304D01*
X221462D01*
X220806Y226960D01*
Y228272D01*
X221462Y228928D01*
X300162Y241391D02*
X302785D01*
X303441Y242047D01*
Y243359D01*
X302785Y244015D01*
X300162D01*
X299505Y243359D01*
Y242047D01*
X300817Y242703D02*
X299505Y241391D01*
Y242047D02*
X300162Y241391D01*
X299505Y240079D02*
Y238767D01*
Y239423D01*
X303441D01*
X302785Y240079D01*
X298850Y236799D02*
Y234176D01*
X302785Y230240D02*
X303441Y230896D01*
Y232208D01*
X302785Y232864D01*
X300162D01*
X299505Y232208D01*
Y230896D01*
X300162Y230240D01*
X299505Y226960D02*
X303441D01*
X301473Y228928D01*
Y226304D01*
X378961Y241391D02*
X381585D01*
X382241Y242047D01*
Y243359D01*
X381585Y244015D01*
X378961D01*
X378306Y243359D01*
Y242047D01*
X379617Y242703D02*
X378306Y241391D01*
Y242047D02*
X378961Y241391D01*
X378306Y240079D02*
Y238767D01*
Y239423D01*
X382241D01*
X381585Y240079D01*
X377649Y236799D02*
Y234176D01*
X381585Y230240D02*
X382241Y230896D01*
Y232208D01*
X381585Y232864D01*
X378961D01*
X378306Y232208D01*
Y230896D01*
X378961Y230240D01*
X382241Y226304D02*
Y228928D01*
X380273D01*
X380929Y227616D01*
Y226960D01*
X380273Y226304D01*
X378961D01*
X378306Y226960D01*
Y228272D01*
X378961Y228928D01*
X63961Y161391D02*
X66585D01*
X67241Y162047D01*
Y163359D01*
X66585Y164015D01*
X63961D01*
X63305Y163359D01*
Y162047D01*
X64617Y162703D02*
X63305Y161391D01*
Y162047D02*
X63961Y161391D01*
X63305Y160079D02*
Y158767D01*
Y159423D01*
X67241D01*
X66585Y160079D01*
X62650Y156799D02*
Y154176D01*
X67241Y152864D02*
X63305D01*
Y150896D01*
X63961Y150240D01*
X66585D01*
X67241Y150896D01*
Y152864D01*
X63305Y148928D02*
Y147616D01*
Y148272D01*
X67241D01*
X66585Y148928D01*
X142762Y162691D02*
X145385D01*
X146041Y163347D01*
Y164659D01*
X145385Y165315D01*
X142762D01*
X142105Y164659D01*
Y163347D01*
X143417Y164003D02*
X142105Y162691D01*
Y163347D02*
X142762Y162691D01*
X142105Y161379D02*
Y160067D01*
Y160723D01*
X146041D01*
X145385Y161379D01*
X141449Y158099D02*
Y155476D01*
X146041Y154164D02*
X142105D01*
Y152196D01*
X142762Y151540D01*
X145385D01*
X146041Y152196D01*
Y154164D01*
X142105Y147604D02*
Y150228D01*
X144729Y147604D01*
X145385D01*
X146041Y148260D01*
Y149572D01*
X145385Y150228D01*
X221462Y162691D02*
X224085D01*
X224741Y163347D01*
Y164659D01*
X224085Y165315D01*
X221462D01*
X220806Y164659D01*
Y163347D01*
X222117Y164003D02*
X220806Y162691D01*
Y163347D02*
X221462Y162691D01*
X220806Y161379D02*
Y160067D01*
Y160723D01*
X224741D01*
X224085Y161379D01*
X220149Y158099D02*
Y155476D01*
X224741Y154164D02*
X220806D01*
Y152196D01*
X221462Y151540D01*
X224085D01*
X224741Y152196D01*
Y154164D01*
X224085Y150228D02*
X224741Y149572D01*
Y148260D01*
X224085Y147604D01*
X223429D01*
X222773Y148260D01*
Y148916D01*
Y148260D01*
X222117Y147604D01*
X221462D01*
X220806Y148260D01*
Y149572D01*
X221462Y150228D01*
X300162Y162691D02*
X302785D01*
X303441Y163347D01*
Y164659D01*
X302785Y165315D01*
X300162D01*
X299505Y164659D01*
Y163347D01*
X300817Y164003D02*
X299505Y162691D01*
Y163347D02*
X300162Y162691D01*
X299505Y161379D02*
Y160067D01*
Y160723D01*
X303441D01*
X302785Y161379D01*
X298850Y158099D02*
Y155476D01*
X303441Y154164D02*
X299505D01*
Y152196D01*
X300162Y151540D01*
X302785D01*
X303441Y152196D01*
Y154164D01*
X299505Y148260D02*
X303441D01*
X301473Y150228D01*
Y147604D01*
X378961Y162691D02*
X381585D01*
X382241Y163347D01*
Y164659D01*
X381585Y165315D01*
X378961D01*
X378306Y164659D01*
Y163347D01*
X379617Y164003D02*
X378306Y162691D01*
Y163347D02*
X378961Y162691D01*
X378306Y161379D02*
Y160067D01*
Y160723D01*
X382241D01*
X381585Y161379D01*
X377649Y158099D02*
Y155476D01*
X382241Y154164D02*
X378306D01*
Y152196D01*
X378961Y151540D01*
X381585D01*
X382241Y152196D01*
Y154164D01*
Y147604D02*
Y150228D01*
X380273D01*
X380929Y148916D01*
Y148260D01*
X380273Y147604D01*
X378961D01*
X378306Y148260D01*
Y149572D01*
X378961Y150228D01*
X63961Y82591D02*
X66585D01*
X67241Y83247D01*
Y84559D01*
X66585Y85215D01*
X63961D01*
X63305Y84559D01*
Y83247D01*
X64617Y83903D02*
X63305Y82591D01*
Y83247D02*
X63961Y82591D01*
X63305Y81279D02*
Y79967D01*
Y80623D01*
X67241D01*
X66585Y81279D01*
X62650Y77999D02*
Y75376D01*
X67241Y71440D02*
Y74064D01*
X63305D01*
Y71440D01*
X65273Y74064D02*
Y72752D01*
X63305Y70128D02*
Y68816D01*
Y69472D01*
X67241D01*
X66585Y70128D01*
X142762Y83891D02*
X145385D01*
X146041Y84547D01*
Y85859D01*
X145385Y86515D01*
X142762D01*
X142105Y85859D01*
Y84547D01*
X143417Y85203D02*
X142105Y83891D01*
Y84547D02*
X142762Y83891D01*
X142105Y82579D02*
Y81267D01*
Y81923D01*
X146041D01*
X145385Y82579D01*
X141449Y79299D02*
Y76676D01*
X146041Y72740D02*
Y75364D01*
X142105D01*
Y72740D01*
X144073Y75364D02*
Y74052D01*
X142105Y68804D02*
Y71428D01*
X144729Y68804D01*
X145385D01*
X146041Y69460D01*
Y70772D01*
X145385Y71428D01*
X221462Y83891D02*
X224085D01*
X224741Y84547D01*
Y85859D01*
X224085Y86515D01*
X221462D01*
X220806Y85859D01*
Y84547D01*
X222117Y85203D02*
X220806Y83891D01*
Y84547D02*
X221462Y83891D01*
X220806Y82579D02*
Y81267D01*
Y81923D01*
X224741D01*
X224085Y82579D01*
X220149Y79299D02*
Y76676D01*
X224741Y72740D02*
Y75364D01*
X220806D01*
Y72740D01*
X222773Y75364D02*
Y74052D01*
X224085Y71428D02*
X224741Y70772D01*
Y69460D01*
X224085Y68804D01*
X223429D01*
X222773Y69460D01*
Y70116D01*
Y69460D01*
X222117Y68804D01*
X221462D01*
X220806Y69460D01*
Y70772D01*
X221462Y71428D01*
X300162Y84875D02*
X302785D01*
X303441Y85531D01*
Y86843D01*
X302785Y87499D01*
X300162D01*
X299505Y86843D01*
Y85531D01*
X300817Y86187D02*
X299505Y84875D01*
Y85531D02*
X300162Y84875D01*
X299505Y83564D02*
Y82252D01*
Y82907D01*
X303441D01*
X302785Y83564D01*
X298850Y80284D02*
Y77660D01*
X303441Y73724D02*
Y76348D01*
X299505D01*
Y73724D01*
X301473Y76348D02*
Y75036D01*
X299505Y70444D02*
X303441D01*
X301473Y72412D01*
Y69788D01*
X378961Y84875D02*
X381585D01*
X382241Y85531D01*
Y86843D01*
X381585Y87499D01*
X378961D01*
X378306Y86843D01*
Y85531D01*
X379617Y86187D02*
X378306Y84875D01*
Y85531D02*
X378961Y84875D01*
X378306Y83564D02*
Y82252D01*
Y82907D01*
X382241D01*
X381585Y83564D01*
X377649Y80284D02*
Y77660D01*
X382241Y73724D02*
Y76348D01*
X378306D01*
Y73724D01*
X380273Y76348D02*
Y75036D01*
X382241Y69788D02*
Y72412D01*
X380273D01*
X380929Y71100D01*
Y70444D01*
X380273Y69788D01*
X378961D01*
X378306Y70444D01*
Y71756D01*
X378961Y72412D01*
X47244Y387795D02*
X51180D01*
Y385827D01*
X50524Y385172D01*
X49212D01*
X48556Y385827D01*
Y387795D01*
Y386483D02*
X47244Y385172D01*
Y381236D02*
Y383859D01*
X49868Y381236D01*
X50524D01*
X51180Y381892D01*
Y383204D01*
X50524Y383859D01*
X46588Y379924D02*
Y377300D01*
X47244Y375988D02*
X49868D01*
X51180Y374676D01*
X49868Y373364D01*
X47244D01*
X49212D01*
Y375988D01*
X47244Y372052D02*
Y370740D01*
Y371396D01*
X51180D01*
X50524Y372052D01*
X141732Y422244D02*
X145668D01*
Y420276D01*
X145012Y419620D01*
X143700D01*
X143044Y420276D01*
Y422244D01*
Y420932D02*
X141732Y419620D01*
Y415685D02*
Y418308D01*
X144356Y415685D01*
X145012D01*
X145668Y416340D01*
Y417652D01*
X145012Y418308D01*
X141076Y414373D02*
Y411749D01*
X141732Y410437D02*
X144356D01*
X145668Y409125D01*
X144356Y407813D01*
X141732D01*
X143700D01*
Y410437D01*
X141732Y403877D02*
Y406501D01*
X144356Y403877D01*
X145012D01*
X145668Y404533D01*
Y405845D01*
X145012Y406501D01*
X220806Y422084D02*
X224741D01*
Y420116D01*
X224085Y419460D01*
X222773D01*
X222117Y420116D01*
Y422084D01*
Y420772D02*
X220806Y419460D01*
Y415524D02*
Y418148D01*
X223429Y415524D01*
X224085D01*
X224741Y416180D01*
Y417492D01*
X224085Y418148D01*
X220149Y414212D02*
Y411588D01*
X220806Y410276D02*
X223429D01*
X224741Y408964D01*
X223429Y407652D01*
X220806D01*
X222773D01*
Y410276D01*
X224085Y406341D02*
X224741Y405685D01*
Y404373D01*
X224085Y403717D01*
X223429D01*
X222773Y404373D01*
Y405029D01*
Y404373D01*
X222117Y403717D01*
X221462D01*
X220806Y404373D01*
Y405685D01*
X221462Y406341D01*
X299505Y422084D02*
X303441D01*
Y420116D01*
X302785Y419460D01*
X301473D01*
X300817Y420116D01*
Y422084D01*
Y420772D02*
X299505Y419460D01*
Y415524D02*
Y418148D01*
X302129Y415524D01*
X302785D01*
X303441Y416180D01*
Y417492D01*
X302785Y418148D01*
X298850Y414212D02*
Y411588D01*
X299505Y410276D02*
X302129D01*
X303441Y408964D01*
X302129Y407652D01*
X299505D01*
X301473D01*
Y410276D01*
X299505Y404373D02*
X303441D01*
X301473Y406341D01*
Y403717D01*
X378306Y422084D02*
X382241D01*
Y420116D01*
X381585Y419460D01*
X380273D01*
X379617Y420116D01*
Y422084D01*
Y420772D02*
X378306Y419460D01*
Y415524D02*
Y418148D01*
X380929Y415524D01*
X381585D01*
X382241Y416180D01*
Y417492D01*
X381585Y418148D01*
X377649Y414212D02*
Y411588D01*
X378306Y410276D02*
X380929D01*
X382241Y408964D01*
X380929Y407652D01*
X378306D01*
X380273D01*
Y410276D01*
X382241Y403717D02*
Y406341D01*
X380273D01*
X380929Y405029D01*
Y404373D01*
X380273Y403717D01*
X378961D01*
X378306Y404373D01*
Y405685D01*
X378961Y406341D01*
X63305Y341984D02*
X67241D01*
Y340016D01*
X66585Y339360D01*
X65273D01*
X64617Y340016D01*
Y341984D01*
Y340671D02*
X63305Y339360D01*
Y335424D02*
Y338048D01*
X65929Y335424D01*
X66585D01*
X67241Y336080D01*
Y337392D01*
X66585Y338048D01*
X62650Y334112D02*
Y331488D01*
X67241Y330176D02*
X63305D01*
Y328208D01*
X63961Y327552D01*
X64617D01*
X65273Y328208D01*
Y330176D01*
Y328208D01*
X65929Y327552D01*
X66585D01*
X67241Y328208D01*
Y330176D01*
X63305Y326240D02*
Y324929D01*
Y325585D01*
X67241D01*
X66585Y326240D01*
X142105Y343284D02*
X146041D01*
Y341316D01*
X145385Y340660D01*
X144073D01*
X143417Y341316D01*
Y343284D01*
Y341971D02*
X142105Y340660D01*
Y336724D02*
Y339348D01*
X144729Y336724D01*
X145385D01*
X146041Y337380D01*
Y338692D01*
X145385Y339348D01*
X141449Y335412D02*
Y332788D01*
X146041Y331476D02*
X142105D01*
Y329508D01*
X142762Y328852D01*
X143417D01*
X144073Y329508D01*
Y331476D01*
Y329508D01*
X144729Y328852D01*
X145385D01*
X146041Y329508D01*
Y331476D01*
X142105Y324917D02*
Y327540D01*
X144729Y324917D01*
X145385D01*
X146041Y325573D01*
Y326885D01*
X145385Y327540D01*
X220806Y343284D02*
X224741D01*
Y341316D01*
X224085Y340660D01*
X222773D01*
X222117Y341316D01*
Y343284D01*
Y341971D02*
X220806Y340660D01*
Y336724D02*
Y339348D01*
X223429Y336724D01*
X224085D01*
X224741Y337380D01*
Y338692D01*
X224085Y339348D01*
X220149Y335412D02*
Y332788D01*
X224741Y331476D02*
X220806D01*
Y329508D01*
X221462Y328852D01*
X222117D01*
X222773Y329508D01*
Y331476D01*
Y329508D01*
X223429Y328852D01*
X224085D01*
X224741Y329508D01*
Y331476D01*
X224085Y327540D02*
X224741Y326885D01*
Y325573D01*
X224085Y324917D01*
X223429D01*
X222773Y325573D01*
Y326229D01*
Y325573D01*
X222117Y324917D01*
X221462D01*
X220806Y325573D01*
Y326885D01*
X221462Y327540D01*
X299505Y343284D02*
X303441D01*
Y341316D01*
X302785Y340660D01*
X301473D01*
X300817Y341316D01*
Y343284D01*
Y341971D02*
X299505Y340660D01*
Y336724D02*
Y339348D01*
X302129Y336724D01*
X302785D01*
X303441Y337380D01*
Y338692D01*
X302785Y339348D01*
X298850Y335412D02*
Y332788D01*
X303441Y331476D02*
X299505D01*
Y329508D01*
X300162Y328852D01*
X300817D01*
X301473Y329508D01*
Y331476D01*
Y329508D01*
X302129Y328852D01*
X302785D01*
X303441Y329508D01*
Y331476D01*
X299505Y325573D02*
X303441D01*
X301473Y327540D01*
Y324917D01*
X378306Y343284D02*
X382241D01*
Y341316D01*
X381585Y340660D01*
X380273D01*
X379617Y341316D01*
Y343284D01*
Y341971D02*
X378306Y340660D01*
Y336724D02*
Y339348D01*
X380929Y336724D01*
X381585D01*
X382241Y337380D01*
Y338692D01*
X381585Y339348D01*
X377649Y335412D02*
Y332788D01*
X382241Y331476D02*
X378306D01*
Y329508D01*
X378961Y328852D01*
X379617D01*
X380273Y329508D01*
Y331476D01*
Y329508D01*
X380929Y328852D01*
X381585D01*
X382241Y329508D01*
Y331476D01*
Y324917D02*
Y327540D01*
X380273D01*
X380929Y326229D01*
Y325573D01*
X380273Y324917D01*
X378961D01*
X378306Y325573D01*
Y326885D01*
X378961Y327540D01*
X63305Y263283D02*
X67241D01*
Y261316D01*
X66585Y260660D01*
X65273D01*
X64617Y261316D01*
Y263283D01*
Y261971D02*
X63305Y260660D01*
Y256724D02*
Y259348D01*
X65929Y256724D01*
X66585D01*
X67241Y257380D01*
Y258692D01*
X66585Y259348D01*
X62650Y255412D02*
Y252788D01*
X66585Y248852D02*
X67241Y249508D01*
Y250820D01*
X66585Y251476D01*
X63961D01*
X63305Y250820D01*
Y249508D01*
X63961Y248852D01*
X63305Y247540D02*
Y246229D01*
Y246884D01*
X67241D01*
X66585Y247540D01*
X142105Y264583D02*
X146041D01*
Y262616D01*
X145385Y261960D01*
X144073D01*
X143417Y262616D01*
Y264583D01*
Y263271D02*
X142105Y261960D01*
Y258024D02*
Y260648D01*
X144729Y258024D01*
X145385D01*
X146041Y258680D01*
Y259992D01*
X145385Y260648D01*
X141449Y256712D02*
Y254088D01*
X145385Y250152D02*
X146041Y250808D01*
Y252120D01*
X145385Y252776D01*
X142762D01*
X142105Y252120D01*
Y250808D01*
X142762Y250152D01*
X142105Y246217D02*
Y248840D01*
X144729Y246217D01*
X145385D01*
X146041Y246873D01*
Y248184D01*
X145385Y248840D01*
X220806Y264583D02*
X224741D01*
Y262616D01*
X224085Y261960D01*
X222773D01*
X222117Y262616D01*
Y264583D01*
Y263271D02*
X220806Y261960D01*
Y258024D02*
Y260648D01*
X223429Y258024D01*
X224085D01*
X224741Y258680D01*
Y259992D01*
X224085Y260648D01*
X220149Y256712D02*
Y254088D01*
X224085Y250152D02*
X224741Y250808D01*
Y252120D01*
X224085Y252776D01*
X221462D01*
X220806Y252120D01*
Y250808D01*
X221462Y250152D01*
X224085Y248840D02*
X224741Y248184D01*
Y246873D01*
X224085Y246217D01*
X223429D01*
X222773Y246873D01*
Y247529D01*
Y246873D01*
X222117Y246217D01*
X221462D01*
X220806Y246873D01*
Y248184D01*
X221462Y248840D01*
X299505Y264583D02*
X303441D01*
Y262616D01*
X302785Y261960D01*
X301473D01*
X300817Y262616D01*
Y264583D01*
Y263271D02*
X299505Y261960D01*
Y258024D02*
Y260648D01*
X302129Y258024D01*
X302785D01*
X303441Y258680D01*
Y259992D01*
X302785Y260648D01*
X298850Y256712D02*
Y254088D01*
X302785Y250152D02*
X303441Y250808D01*
Y252120D01*
X302785Y252776D01*
X300162D01*
X299505Y252120D01*
Y250808D01*
X300162Y250152D01*
X299505Y246873D02*
X303441D01*
X301473Y248840D01*
Y246217D01*
X378306Y264583D02*
X382241D01*
Y262616D01*
X381585Y261960D01*
X380273D01*
X379617Y262616D01*
Y264583D01*
Y263271D02*
X378306Y261960D01*
Y258024D02*
Y260648D01*
X380929Y258024D01*
X381585D01*
X382241Y258680D01*
Y259992D01*
X381585Y260648D01*
X377649Y256712D02*
Y254088D01*
X381585Y250152D02*
X382241Y250808D01*
Y252120D01*
X381585Y252776D01*
X378961D01*
X378306Y252120D01*
Y250808D01*
X378961Y250152D01*
X382241Y246217D02*
Y248840D01*
X380273D01*
X380929Y247529D01*
Y246873D01*
X380273Y246217D01*
X378961D01*
X378306Y246873D01*
Y248184D01*
X378961Y248840D01*
X63305Y184484D02*
X67241D01*
Y182516D01*
X66585Y181860D01*
X65273D01*
X64617Y182516D01*
Y184484D01*
Y183172D02*
X63305Y181860D01*
Y177924D02*
Y180548D01*
X65929Y177924D01*
X66585D01*
X67241Y178580D01*
Y179892D01*
X66585Y180548D01*
X62650Y176612D02*
Y173988D01*
X67241Y172676D02*
X63305D01*
Y170708D01*
X63961Y170052D01*
X66585D01*
X67241Y170708D01*
Y172676D01*
X63305Y168740D02*
Y167429D01*
Y168085D01*
X67241D01*
X66585Y168740D01*
X142105Y185784D02*
X146041D01*
Y183816D01*
X145385Y183160D01*
X144073D01*
X143417Y183816D01*
Y185784D01*
Y184472D02*
X142105Y183160D01*
Y179224D02*
Y181848D01*
X144729Y179224D01*
X145385D01*
X146041Y179880D01*
Y181192D01*
X145385Y181848D01*
X141449Y177912D02*
Y175288D01*
X146041Y173976D02*
X142105D01*
Y172008D01*
X142762Y171352D01*
X145385D01*
X146041Y172008D01*
Y173976D01*
X142105Y167417D02*
Y170041D01*
X144729Y167417D01*
X145385D01*
X146041Y168073D01*
Y169385D01*
X145385Y170041D01*
X220806Y185784D02*
X224741D01*
Y183816D01*
X224085Y183160D01*
X222773D01*
X222117Y183816D01*
Y185784D01*
Y184472D02*
X220806Y183160D01*
Y179224D02*
Y181848D01*
X223429Y179224D01*
X224085D01*
X224741Y179880D01*
Y181192D01*
X224085Y181848D01*
X220149Y177912D02*
Y175288D01*
X224741Y173976D02*
X220806D01*
Y172008D01*
X221462Y171352D01*
X224085D01*
X224741Y172008D01*
Y173976D01*
X224085Y170041D02*
X224741Y169385D01*
Y168073D01*
X224085Y167417D01*
X223429D01*
X222773Y168073D01*
Y168729D01*
Y168073D01*
X222117Y167417D01*
X221462D01*
X220806Y168073D01*
Y169385D01*
X221462Y170041D01*
X299505Y185784D02*
X303441D01*
Y183816D01*
X302785Y183160D01*
X301473D01*
X300817Y183816D01*
Y185784D01*
Y184472D02*
X299505Y183160D01*
Y179224D02*
Y181848D01*
X302129Y179224D01*
X302785D01*
X303441Y179880D01*
Y181192D01*
X302785Y181848D01*
X298850Y177912D02*
Y175288D01*
X303441Y173976D02*
X299505D01*
Y172008D01*
X300162Y171352D01*
X302785D01*
X303441Y172008D01*
Y173976D01*
X299505Y168073D02*
X303441D01*
X301473Y170041D01*
Y167417D01*
X378306Y185784D02*
X382241D01*
Y183816D01*
X381585Y183160D01*
X380273D01*
X379617Y183816D01*
Y185784D01*
Y184472D02*
X378306Y183160D01*
Y179224D02*
Y181848D01*
X380929Y179224D01*
X381585D01*
X382241Y179880D01*
Y181192D01*
X381585Y181848D01*
X377649Y177912D02*
Y175288D01*
X382241Y173976D02*
X378306D01*
Y172008D01*
X378961Y171352D01*
X381585D01*
X382241Y172008D01*
Y173976D01*
Y167417D02*
Y170041D01*
X380273D01*
X380929Y168729D01*
Y168073D01*
X380273Y167417D01*
X378961D01*
X378306Y168073D01*
Y169385D01*
X378961Y170041D01*
X63305Y105783D02*
X67241D01*
Y103816D01*
X66585Y103160D01*
X65273D01*
X64617Y103816D01*
Y105783D01*
Y104472D02*
X63305Y103160D01*
Y99224D02*
Y101848D01*
X65929Y99224D01*
X66585D01*
X67241Y99880D01*
Y101192D01*
X66585Y101848D01*
X62650Y97912D02*
Y95288D01*
X67241Y91352D02*
Y93976D01*
X63305D01*
Y91352D01*
X65273Y93976D02*
Y92664D01*
X63305Y90040D02*
Y88729D01*
Y89385D01*
X67241D01*
X66585Y90040D01*
X142105Y107083D02*
X146041D01*
Y105116D01*
X145385Y104460D01*
X144073D01*
X143417Y105116D01*
Y107083D01*
Y105772D02*
X142105Y104460D01*
Y100524D02*
Y103148D01*
X144729Y100524D01*
X145385D01*
X146041Y101180D01*
Y102492D01*
X145385Y103148D01*
X141449Y99212D02*
Y96588D01*
X146041Y92652D02*
Y95276D01*
X142105D01*
Y92652D01*
X144073Y95276D02*
Y93964D01*
X142105Y88717D02*
Y91341D01*
X144729Y88717D01*
X145385D01*
X146041Y89373D01*
Y90684D01*
X145385Y91341D01*
X220806Y107083D02*
X224741D01*
Y105116D01*
X224085Y104460D01*
X222773D01*
X222117Y105116D01*
Y107083D01*
Y105772D02*
X220806Y104460D01*
Y100524D02*
Y103148D01*
X223429Y100524D01*
X224085D01*
X224741Y101180D01*
Y102492D01*
X224085Y103148D01*
X220149Y99212D02*
Y96588D01*
X224741Y92652D02*
Y95276D01*
X220806D01*
Y92652D01*
X222773Y95276D02*
Y93964D01*
X224085Y91341D02*
X224741Y90684D01*
Y89373D01*
X224085Y88717D01*
X223429D01*
X222773Y89373D01*
Y90029D01*
Y89373D01*
X222117Y88717D01*
X221462D01*
X220806Y89373D01*
Y90684D01*
X221462Y91341D01*
X299505Y108068D02*
X303441D01*
Y106100D01*
X302785Y105444D01*
X301473D01*
X300817Y106100D01*
Y108068D01*
Y106756D02*
X299505Y105444D01*
Y101508D02*
Y104132D01*
X302129Y101508D01*
X302785D01*
X303441Y102164D01*
Y103476D01*
X302785Y104132D01*
X298850Y100196D02*
Y97572D01*
X303441Y93637D02*
Y96260D01*
X299505D01*
Y93637D01*
X301473Y96260D02*
Y94949D01*
X299505Y90357D02*
X303441D01*
X301473Y92325D01*
Y89701D01*
X378306Y108068D02*
X382241D01*
Y106100D01*
X381585Y105444D01*
X380273D01*
X379617Y106100D01*
Y108068D01*
Y106756D02*
X378306Y105444D01*
Y101508D02*
Y104132D01*
X380929Y101508D01*
X381585D01*
X382241Y102164D01*
Y103476D01*
X381585Y104132D01*
X377649Y100196D02*
Y97572D01*
X382241Y93637D02*
Y96260D01*
X378306D01*
Y93637D01*
X380273Y96260D02*
Y94949D01*
X382241Y89701D02*
Y92325D01*
X380273D01*
X380929Y91013D01*
Y90357D01*
X380273Y89701D01*
X378961D01*
X378306Y90357D01*
Y91669D01*
X378961Y92325D01*
D39*
X85540Y393701D02*
G03*
X85540Y393701I-6800J0D01*
G01*
X400501Y78740D02*
G03*
X400501Y78740I-6800J0D01*
G01*
X321761D02*
G03*
X321761Y78740I-6800J0D01*
G01*
X243021D02*
G03*
X243021Y78740I-6800J0D01*
G01*
X164280D02*
G03*
X164280Y78740I-6800J0D01*
G01*
X85540D02*
G03*
X85540Y78740I-6800J0D01*
G01*
X400501Y157480D02*
G03*
X400501Y157480I-6800J0D01*
G01*
X321761D02*
G03*
X321761Y157480I-6800J0D01*
G01*
X243021D02*
G03*
X243021Y157480I-6800J0D01*
G01*
X164280D02*
G03*
X164280Y157480I-6800J0D01*
G01*
X85540D02*
G03*
X85540Y157480I-6800J0D01*
G01*
X400501Y236221D02*
G03*
X400501Y236221I-6800J0D01*
G01*
X321761D02*
G03*
X321761Y236221I-6800J0D01*
G01*
X243021D02*
G03*
X243021Y236221I-6800J0D01*
G01*
X164280D02*
G03*
X164280Y236221I-6800J0D01*
G01*
X85540D02*
G03*
X85540Y236221I-6800J0D01*
G01*
X400501Y314961D02*
G03*
X400501Y314961I-6800J0D01*
G01*
X321761D02*
G03*
X321761Y314961I-6800J0D01*
G01*
X243021D02*
G03*
X243021Y314961I-6800J0D01*
G01*
X164280D02*
G03*
X164280Y314961I-6800J0D01*
G01*
X85540D02*
G03*
X85540Y314961I-6800J0D01*
G01*
X400501Y393701D02*
G03*
X400501Y393701I-6800J0D01*
G01*
X321761D02*
G03*
X321761Y393701I-6800J0D01*
G01*
X243021D02*
G03*
X243021Y393701I-6800J0D01*
G01*
X164280D02*
G03*
X164280Y393701I-6800J0D01*
G01*
X39370Y433071D02*
X433071D01*
Y39370D02*
Y433071D01*
X39370Y39370D02*
X433071D01*
X39370D02*
Y433071D01*
X68840Y387402D02*
X72440Y383858D01*
X68840Y403601D02*
X88583D01*
X68840Y387402D02*
Y403601D01*
Y383858D02*
Y387402D01*
Y383858D02*
X72440D01*
X88583D01*
Y403601D01*
X75590Y416142D02*
X81890D01*
X75590Y410630D02*
X81890D01*
X383801Y72441D02*
X387401Y68898D01*
X383801Y88640D02*
X403543D01*
X383801Y72441D02*
Y88640D01*
Y68898D02*
Y72441D01*
Y68898D02*
X387401D01*
X403543D01*
Y88640D01*
X305061Y72441D02*
X308661Y68898D01*
X305061Y88640D02*
X324803D01*
X305061Y72441D02*
Y88640D01*
Y68898D02*
Y72441D01*
Y68898D02*
X308661D01*
X324803D01*
Y88640D01*
X226321Y72441D02*
X229921Y68898D01*
X226321Y88640D02*
X246063D01*
X226321Y72441D02*
Y88640D01*
Y68898D02*
Y72441D01*
Y68898D02*
X229921D01*
X246063D01*
Y88640D01*
X147580Y72441D02*
X151180Y68898D01*
X147580Y88640D02*
X167323D01*
X147580Y72441D02*
Y88640D01*
Y68898D02*
Y72441D01*
Y68898D02*
X151180D01*
X167323D01*
Y88640D01*
X68840Y72441D02*
X72440Y68898D01*
X68840Y88640D02*
X88583D01*
X68840Y72441D02*
Y88640D01*
Y68898D02*
Y72441D01*
Y68898D02*
X72440D01*
X88583D01*
Y88640D01*
X383801Y151181D02*
X387401Y147638D01*
X383801Y167380D02*
X403543D01*
X383801Y151181D02*
Y167380D01*
Y147638D02*
Y151181D01*
Y147638D02*
X387401D01*
X403543D01*
Y167380D01*
X305061Y151181D02*
X308661Y147638D01*
X305061Y167380D02*
X324803D01*
X305061Y151181D02*
Y167380D01*
Y147638D02*
Y151181D01*
Y147638D02*
X308661D01*
X324803D01*
Y167380D01*
X226321Y151181D02*
X229921Y147638D01*
X226321Y167380D02*
X246063D01*
X226321Y151181D02*
Y167380D01*
Y147638D02*
Y151181D01*
Y147638D02*
X229921D01*
X246063D01*
Y167380D01*
X147580Y151181D02*
X151180Y147638D01*
X147580Y167380D02*
X167323D01*
X147580Y151181D02*
Y167380D01*
Y147638D02*
Y151181D01*
Y147638D02*
X151180D01*
X167323D01*
Y167380D01*
X68840Y151181D02*
X72440Y147638D01*
X68840Y167380D02*
X88583D01*
X68840Y151181D02*
Y167380D01*
Y147638D02*
Y151181D01*
Y147638D02*
X72440D01*
X88583D01*
Y167380D01*
X383801Y229921D02*
X387401Y226378D01*
X383801Y246121D02*
X403543D01*
X383801Y229921D02*
Y246121D01*
Y226378D02*
Y229921D01*
Y226378D02*
X387401D01*
X403543D01*
Y246121D01*
X305061Y229921D02*
X308661Y226378D01*
X305061Y246121D02*
X324803D01*
X305061Y229921D02*
Y246121D01*
Y226378D02*
Y229921D01*
Y226378D02*
X308661D01*
X324803D01*
Y246121D01*
X226321Y229921D02*
X229921Y226378D01*
X226321Y246121D02*
X246063D01*
X226321Y229921D02*
Y246121D01*
Y226378D02*
Y229921D01*
Y226378D02*
X229921D01*
X246063D01*
Y246121D01*
X147580Y229921D02*
X151180Y226378D01*
X147580Y246121D02*
X167323D01*
X147580Y229921D02*
Y246121D01*
Y226378D02*
Y229921D01*
Y226378D02*
X151180D01*
X167323D01*
Y246121D01*
X68840Y229921D02*
X72440Y226378D01*
X68840Y246121D02*
X88583D01*
X68840Y229921D02*
Y246121D01*
Y226378D02*
Y229921D01*
Y226378D02*
X72440D01*
X88583D01*
Y246121D01*
X383801Y308661D02*
X387401Y305118D01*
X383801Y324861D02*
X403543D01*
X383801Y308661D02*
Y324861D01*
Y305118D02*
Y308661D01*
Y305118D02*
X387401D01*
X403543D01*
Y324861D01*
X305061Y308661D02*
X308661Y305118D01*
X305061Y324861D02*
X324803D01*
X305061Y308661D02*
Y324861D01*
Y305118D02*
Y308661D01*
Y305118D02*
X308661D01*
X324803D01*
Y324861D01*
X226321Y308661D02*
X229921Y305118D01*
X226321Y324861D02*
X246063D01*
X226321Y308661D02*
Y324861D01*
Y305118D02*
Y308661D01*
Y305118D02*
X229921D01*
X246063D01*
Y324861D01*
X147580Y308661D02*
X151180Y305118D01*
X147580Y324861D02*
X167323D01*
X147580Y308661D02*
Y324861D01*
Y305118D02*
Y308661D01*
Y305118D02*
X151180D01*
X167323D01*
Y324861D01*
X68840Y308661D02*
X72440Y305118D01*
X68840Y324861D02*
X88583D01*
X68840Y308661D02*
Y324861D01*
Y305118D02*
Y308661D01*
Y305118D02*
X72440D01*
X88583D01*
Y324861D01*
X383801Y387402D02*
X387401Y383858D01*
X383801Y403601D02*
X403543D01*
X383801Y387402D02*
Y403601D01*
Y383858D02*
Y387402D01*
Y383858D02*
X387401D01*
X403543D01*
Y403601D01*
X305061Y387402D02*
X308661Y383858D01*
X305061Y403601D02*
X324803D01*
X305061Y387402D02*
Y403601D01*
Y383858D02*
Y387402D01*
Y383858D02*
X308661D01*
X324803D01*
Y403601D01*
X226321Y387402D02*
X229921Y383858D01*
X226321Y403601D02*
X246063D01*
X226321Y387402D02*
Y403601D01*
Y383858D02*
Y387402D01*
Y383858D02*
X229921D01*
X246063D01*
Y403601D01*
X147580Y387402D02*
X151180Y383858D01*
X147580Y403601D02*
X167323D01*
X147580Y387402D02*
Y403601D01*
Y383858D02*
Y387402D01*
Y383858D02*
X151180D01*
X167323D01*
Y403601D01*
X390551Y101181D02*
X396850D01*
X390551Y95669D02*
X396850D01*
X311811Y101181D02*
X318110D01*
X311811Y95669D02*
X318110D01*
X233071Y101181D02*
X239370D01*
X233071Y95669D02*
X239370D01*
X154331Y101181D02*
X160630D01*
X154331Y95669D02*
X160630D01*
X75590Y101181D02*
X81890D01*
X75590Y95669D02*
X81890D01*
X390551Y179921D02*
X396850D01*
X390551Y174409D02*
X396850D01*
X311811Y179921D02*
X318110D01*
X311811Y174409D02*
X318110D01*
X233071Y179921D02*
X239370D01*
X233071Y174409D02*
X239370D01*
X154331Y179921D02*
X160630D01*
X154331Y174409D02*
X160630D01*
X75590Y179921D02*
X81890D01*
X75590Y174409D02*
X81890D01*
X390551Y258661D02*
X396850D01*
X390551Y253150D02*
X396850D01*
X311811Y258661D02*
X318110D01*
X311811Y253150D02*
X318110D01*
X233071Y258661D02*
X239370D01*
X233071Y253150D02*
X239370D01*
X154331Y258661D02*
X160630D01*
X154331Y253150D02*
X160630D01*
X75590Y258661D02*
X81890D01*
X75590Y253150D02*
X81890D01*
X390551Y337402D02*
X396850D01*
X390551Y331890D02*
X396850D01*
X311811Y337402D02*
X318110D01*
X311811Y331890D02*
X318110D01*
X233071Y337402D02*
X239370D01*
X233071Y331890D02*
X239370D01*
X154331Y337402D02*
X160630D01*
X154331Y331890D02*
X160630D01*
X75590Y337402D02*
X81890D01*
X75590Y331890D02*
X81890D01*
X390551Y416142D02*
X396850D01*
X390551Y410630D02*
X396850D01*
X311811Y416142D02*
X318110D01*
X311811Y410630D02*
X318110D01*
X233071Y416142D02*
X239370D01*
X233071Y410630D02*
X239370D01*
X154331Y416142D02*
X160630D01*
X154331Y410630D02*
X160630D01*
D40*
X98484Y392299D02*
D03*
X413445Y77339D02*
D03*
X334705D02*
D03*
X255965D02*
D03*
X177224D02*
D03*
X98484D02*
D03*
X413445Y156079D02*
D03*
X334705D02*
D03*
X255965D02*
D03*
X177224D02*
D03*
X98484D02*
D03*
X413445Y234819D02*
D03*
X334705D02*
D03*
X255965D02*
D03*
X177224D02*
D03*
X98484D02*
D03*
X413445Y313559D02*
D03*
X334705D02*
D03*
X255965D02*
D03*
X177224D02*
D03*
X98484D02*
D03*
X413445Y392299D02*
D03*
X334705D02*
D03*
X255965D02*
D03*
X177224D02*
D03*
M02*
