M48
;Layer_Color=6321
;FILE_FORMAT=2:5
INCH
;TYPE=PLATED
T1F00S00C0.01575
T2F00S00C0.01968
T3F00S00C0.02800
T4F00S00C0.02953
T5F00S00C0.03150
;TYPE=NON_PLATED
T6F00S00C0.11811
%
T01
X0053150Y0078709
X0059055Y0088583
X0068898Y0096457
X0098425Y0093504
X0137795Y0088583
X0078740Y0061024
Y0139764
X0053150Y0135827
X0157480Y0139764
X0200787Y0122047
X0205511Y0125984
X0216535Y0129921
X0220472Y0125984
X0224410Y0122047
X0212598Y0114173
X0216535Y0088583
X0236221Y0061024
X0255906Y0066929
X0258858Y0106299
Y0112205
X0253937Y0118110
Y0124016
Y0129921
X0255906Y0145669
X0236221Y0139764
X0285433Y0124016
X0281496Y0112205
X0300197Y0121260
X0307087Y0129921
X0295276Y0088583
X0157480Y0061024
X0314961
X0334646Y0065945
Y0097441
X0342028Y0105807
X0319882
X0314961Y0139764
X0334646Y0144685
X0349410Y0129921
X0393701Y0139764
X0413386Y0144685
X0423228Y0134252
X0413386Y0097441
X0405512Y0078740
X0393701Y0061024
X0374016Y0088583
Y0167323
X0362598Y0204724
X0344488Y0204675
X0349410Y0196850
X0334646Y0222441
X0322835Y0210630
X0314961Y0218504
X0334646Y0254921
X0349410Y0275590
X0342126Y0294882
X0334646Y0301181
X0327559Y0297638
X0314961Y0297244
X0374016Y0294882
X0393701Y0297244
X0413386Y0301181
X0423228Y0291732
X0413386Y0254921
X0423228Y0236221
Y0212992
X0413386Y0222441
X0393701Y0218504
X0367126Y0230315
X0374016Y0247244
Y0265748
X0423228Y0157480
X0300394Y0160630
X0300197Y0180315
X0297835Y0193799
X0300394Y0200000
X0307087Y0196850
X0280512Y0182087
X0278740Y0162205
X0273622Y0165354
X0265748Y0165847
X0250000Y0161417
Y0175197
X0258858Y0188976
X0273130Y0206693
X0281496Y0221457
X0255906Y0224410
X0270669Y0241142
Y0255906
X0259842Y0267717
X0248819Y0260236
X0218504Y0269685
X0211811Y0275590
X0205512Y0283465
X0200787Y0279480
X0224410Y0279528
X0220866Y0283465
X0223917Y0297244
X0255906Y0303150
X0274016Y0296850
X0280512Y0300197
X0281496Y0285433
X0309055Y0283465
X0307087Y0275590
X0311024Y0271654
X0309055Y0265748
X0300197Y0259055
X0291339Y0253445
X0223917Y0218504
X0216535Y0208661
X0220472Y0203937
X0224410Y0200787
X0218504Y0192913
X0208465Y0196653
X0205512Y0204331
X0200787Y0200787
X0192913Y0196850
X0216535Y0167323
X0157480Y0218504
Y0297244
X0137795Y0282677
Y0247244
X0141732Y0210630
X0137795Y0167323
X0098425Y0172244
X0059055Y0168504
X0053150Y0157449
Y0214567
Y0236189
X0059055Y0247244
Y0287402
X0062992Y0283465
X0053150Y0292126
X0078740Y0297244
X0098425Y0250984
X0078740Y0218504
X0053181Y0314929
X0059055Y0326378
X0098425Y0328740
X0089567Y0343504
X0078740Y0375984
Y0387795
X0059055Y0368110
X0053159Y0371663
X0129921Y0375984
X0137795Y0404380
X0098425Y0413386
X0137795Y0325984
X0157480Y0375984
X0181102Y0360236
X0214567Y0356299
X0216535Y0350394
Y0325984
X0248228Y0319882
Y0334646
X0259842Y0346457
X0271654Y0318898
X0300197Y0337795
X0297835Y0350984
X0310236Y0354331
X0280512Y0378937
X0275590Y0396457
X0271654Y0399213
X0263779Y0417323
X0221260
X0242618Y0375984
X0255906Y0381890
X0314961Y0375984
X0326772Y0375984
X0334646Y0379921
X0349606Y0375984
X0349410Y0354331
X0363779Y0334646
X0374016Y0325984
X0334646Y0328740
X0325197Y0334646
X0314961Y0340551
X0324803Y0366142
X0334646Y0413386
X0374016Y0405118
X0405512Y0396654
X0423228Y0393701
X0413386Y0380906
X0423228Y0370472
X0393701Y0375984
X0413386Y0333661
X0423228Y0314961
T02
X0366142Y0163386
X0405512Y0163386
T03
X0275590Y0106299
Y0118110
Y0129921
X0276378Y0240945
Y0266142
X0265748Y0318898
Y0333858
X0196850Y0342520
Y0354331
X0196850Y0366142
X0196850Y0377953
T04
X0159941Y0363681
T05
X0196850Y0051181
X0275590
X0421260Y0196850
Y0275590
X0048228Y0280512
X0048228Y0201772
X0196850Y0421260
X0275590
T06
X0059055Y0059055
X0413386
X0059055Y0413386
X0413386
M30
