G04 Layer_Color=20142*
%FSLAX25Y25*%
%MOIN*%
G70*
G01*
G75*
%ADD41R,0.04624X0.07024*%
G04:AMPARAMS|DCode=42|XSize=41.73mil|YSize=45.67mil|CornerRadius=6.69mil|HoleSize=0mil|Usage=FLASHONLY|Rotation=0.000|XOffset=0mil|YOffset=0mil|HoleType=Round|Shape=RoundedRectangle|*
%AMROUNDEDRECTD42*
21,1,0.04173,0.03228,0,0,0.0*
21,1,0.02835,0.04567,0,0,0.0*
1,1,0.01339,0.01417,-0.01614*
1,1,0.01339,-0.01417,-0.01614*
1,1,0.01339,-0.01417,0.01614*
1,1,0.01339,0.01417,0.01614*
%
%ADD42ROUNDEDRECTD42*%
%ADD43R,0.06929X0.06535*%
%ADD44R,0.05748X0.05354*%
%ADD45R,0.04764X0.04173*%
%ADD46C,0.16772*%
%ADD47C,0.04173*%
%ADD48C,0.03976*%
%ADD49C,0.06024*%
%ADD50C,0.04961*%
%ADD51C,0.06929*%
D41*
X72240Y384055D02*
D03*
X85236D02*
D03*
X72240Y403401D02*
D03*
X85236D02*
D03*
X387201Y69095D02*
D03*
X400197D02*
D03*
X387201Y88440D02*
D03*
X400197D02*
D03*
X308461Y69095D02*
D03*
X321457D02*
D03*
X308461Y88440D02*
D03*
X321457D02*
D03*
X229720Y69095D02*
D03*
X242717D02*
D03*
X229720Y88440D02*
D03*
X242717D02*
D03*
X150980Y69095D02*
D03*
X163976D02*
D03*
X150980Y88440D02*
D03*
X163976D02*
D03*
X72240Y69095D02*
D03*
X85236D02*
D03*
X72240Y88440D02*
D03*
X85236D02*
D03*
X387201Y147835D02*
D03*
X400197D02*
D03*
X387201Y167180D02*
D03*
X400197D02*
D03*
X308461Y147835D02*
D03*
X321457D02*
D03*
X308461Y167180D02*
D03*
X321457D02*
D03*
X229720Y147835D02*
D03*
X242717D02*
D03*
X229720Y167180D02*
D03*
X242717D02*
D03*
X150980Y147835D02*
D03*
X163976D02*
D03*
X150980Y167180D02*
D03*
X163976D02*
D03*
X72240Y147835D02*
D03*
X85236D02*
D03*
X72240Y167180D02*
D03*
X85236D02*
D03*
X387201Y226575D02*
D03*
X400197D02*
D03*
X387201Y245920D02*
D03*
X400197D02*
D03*
X308461Y226575D02*
D03*
X321457D02*
D03*
X308461Y245920D02*
D03*
X321457D02*
D03*
X229720Y226575D02*
D03*
X242717D02*
D03*
X229720Y245920D02*
D03*
X242717D02*
D03*
X150980Y226575D02*
D03*
X163976D02*
D03*
X150980Y245920D02*
D03*
X163976D02*
D03*
X72240Y226575D02*
D03*
X85236D02*
D03*
X72240Y245920D02*
D03*
X85236D02*
D03*
X387201Y305315D02*
D03*
X400197D02*
D03*
X387201Y324661D02*
D03*
X400197D02*
D03*
X308461Y305315D02*
D03*
X321457D02*
D03*
X308461Y324661D02*
D03*
X321457D02*
D03*
X229720Y305315D02*
D03*
X242717D02*
D03*
X229720Y324661D02*
D03*
X242717D02*
D03*
X150980Y305315D02*
D03*
X163976D02*
D03*
X150980Y324661D02*
D03*
X163976D02*
D03*
X72240Y305315D02*
D03*
X85236D02*
D03*
X72240Y324661D02*
D03*
X85236D02*
D03*
X387201Y384055D02*
D03*
X400197D02*
D03*
X387201Y403401D02*
D03*
X400197D02*
D03*
X308461Y384055D02*
D03*
X321457D02*
D03*
X308461Y403401D02*
D03*
X321457D02*
D03*
X229720Y384055D02*
D03*
X242717D02*
D03*
X229720Y403401D02*
D03*
X242717D02*
D03*
X150980Y384055D02*
D03*
X163976D02*
D03*
X150980Y403401D02*
D03*
X163976D02*
D03*
D42*
X75590Y413386D02*
D03*
X81890D02*
D03*
X390551Y98425D02*
D03*
X396850D02*
D03*
X311811D02*
D03*
X318110D02*
D03*
X233071D02*
D03*
X239370D02*
D03*
X154331D02*
D03*
X160630D02*
D03*
X75590D02*
D03*
X81890D02*
D03*
X390551Y177165D02*
D03*
X396850D02*
D03*
X311811D02*
D03*
X318110D02*
D03*
X233071D02*
D03*
X239370D02*
D03*
X154331D02*
D03*
X160630D02*
D03*
X75590D02*
D03*
X81890D02*
D03*
X390551Y255906D02*
D03*
X396850D02*
D03*
X311811D02*
D03*
X318110D02*
D03*
X233071D02*
D03*
X239370D02*
D03*
X154331D02*
D03*
X160630D02*
D03*
X75590D02*
D03*
X81890D02*
D03*
X390551Y334646D02*
D03*
X396850D02*
D03*
X311811D02*
D03*
X318110D02*
D03*
X233071D02*
D03*
X239370D02*
D03*
X154331D02*
D03*
X160630D02*
D03*
X75590D02*
D03*
X81890D02*
D03*
X390551Y413386D02*
D03*
X396850D02*
D03*
X311811D02*
D03*
X318110D02*
D03*
X233071D02*
D03*
X239370D02*
D03*
X154331D02*
D03*
X160630D02*
D03*
D43*
X98425Y399606D02*
D03*
Y387795D02*
D03*
X413386Y84646D02*
D03*
Y72835D02*
D03*
X334646Y84646D02*
D03*
Y72835D02*
D03*
X255906Y84646D02*
D03*
Y72835D02*
D03*
X177165Y84646D02*
D03*
Y72835D02*
D03*
X98425Y84646D02*
D03*
Y72835D02*
D03*
X413386Y163386D02*
D03*
Y151575D02*
D03*
X334646Y163386D02*
D03*
Y151575D02*
D03*
X255906Y163386D02*
D03*
Y151575D02*
D03*
X177165Y163386D02*
D03*
Y151575D02*
D03*
X98425Y163386D02*
D03*
Y151575D02*
D03*
X413386Y242126D02*
D03*
Y230315D02*
D03*
X334646Y242126D02*
D03*
Y230315D02*
D03*
X255906Y242126D02*
D03*
Y230315D02*
D03*
X177165Y242126D02*
D03*
Y230315D02*
D03*
X98425Y242126D02*
D03*
Y230315D02*
D03*
X413386Y320866D02*
D03*
Y309055D02*
D03*
X334646Y320866D02*
D03*
Y309055D02*
D03*
X255906Y320866D02*
D03*
Y309055D02*
D03*
X177165Y320866D02*
D03*
Y309055D02*
D03*
X98425Y320866D02*
D03*
Y309055D02*
D03*
X413386Y399606D02*
D03*
Y387795D02*
D03*
X334646Y399606D02*
D03*
Y387795D02*
D03*
X255906Y399606D02*
D03*
Y387795D02*
D03*
X177165Y399606D02*
D03*
Y387795D02*
D03*
D44*
X59055Y389567D02*
D03*
Y397835D02*
D03*
X374016Y74606D02*
D03*
Y82874D02*
D03*
X295276Y74606D02*
D03*
Y82874D02*
D03*
X216535Y74606D02*
D03*
Y82874D02*
D03*
X137795Y74606D02*
D03*
Y82874D02*
D03*
X59055Y74606D02*
D03*
Y82874D02*
D03*
X374016Y153347D02*
D03*
Y161614D02*
D03*
X295276Y153347D02*
D03*
Y161614D02*
D03*
X216535Y153347D02*
D03*
Y161614D02*
D03*
X137795Y153347D02*
D03*
Y161614D02*
D03*
X59055Y153347D02*
D03*
Y161614D02*
D03*
X374016Y232087D02*
D03*
Y240354D02*
D03*
X295276Y232087D02*
D03*
Y240354D02*
D03*
X216535Y232087D02*
D03*
Y240354D02*
D03*
X137795Y232087D02*
D03*
Y240354D02*
D03*
X59055Y232087D02*
D03*
Y240354D02*
D03*
X374016Y310827D02*
D03*
Y319094D02*
D03*
X295276Y310827D02*
D03*
Y319094D02*
D03*
X216535Y310827D02*
D03*
Y319094D02*
D03*
X137795Y310827D02*
D03*
Y319094D02*
D03*
X59055Y310827D02*
D03*
Y319094D02*
D03*
X374016Y389567D02*
D03*
Y397835D02*
D03*
X295276Y389567D02*
D03*
Y397835D02*
D03*
X216535Y389567D02*
D03*
Y397835D02*
D03*
X137795Y389567D02*
D03*
Y397835D02*
D03*
D45*
X374016Y100886D02*
D03*
Y95965D02*
D03*
X295276Y100886D02*
D03*
Y95965D02*
D03*
X216535Y100886D02*
D03*
Y95965D02*
D03*
X137795Y100886D02*
D03*
Y95965D02*
D03*
X59055Y100886D02*
D03*
Y95965D02*
D03*
X374016Y179626D02*
D03*
Y174705D02*
D03*
X295276Y179626D02*
D03*
Y174705D02*
D03*
X216535Y179626D02*
D03*
Y174705D02*
D03*
X137795Y179626D02*
D03*
Y174705D02*
D03*
X59055Y179626D02*
D03*
Y174705D02*
D03*
X374016Y258366D02*
D03*
Y253445D02*
D03*
X295276Y258366D02*
D03*
Y253445D02*
D03*
X216535Y258366D02*
D03*
Y253445D02*
D03*
X137795Y258366D02*
D03*
Y253445D02*
D03*
X59055Y258366D02*
D03*
Y253445D02*
D03*
X374016Y337106D02*
D03*
Y332185D02*
D03*
X295276Y337106D02*
D03*
Y332185D02*
D03*
X216535Y337106D02*
D03*
Y332185D02*
D03*
X137795Y337106D02*
D03*
Y332185D02*
D03*
X59055Y337106D02*
D03*
Y332185D02*
D03*
X374016Y415846D02*
D03*
Y410925D02*
D03*
X295276Y415846D02*
D03*
Y410925D02*
D03*
X216535Y415846D02*
D03*
Y410925D02*
D03*
X137795Y415846D02*
D03*
Y410925D02*
D03*
X49213Y391240D02*
D03*
Y396161D02*
D03*
D46*
X413386Y59055D02*
D03*
X59055D02*
D03*
Y413386D02*
D03*
X413386D02*
D03*
D47*
X423228Y157480D02*
D03*
Y236221D02*
D03*
Y393701D02*
D03*
Y314961D02*
D03*
X334646Y379921D02*
D03*
X59055Y88583D02*
D03*
X68898Y96457D02*
D03*
X242618Y375984D02*
D03*
X223917Y297244D02*
D03*
Y218504D02*
D03*
X137795Y167323D02*
D03*
X216535D02*
D03*
X374016D02*
D03*
Y88583D02*
D03*
X295276D02*
D03*
X216535D02*
D03*
X137795D02*
D03*
X258858Y188976D02*
D03*
Y112205D02*
D03*
X216535Y129921D02*
D03*
X270669Y255906D02*
D03*
Y241142D02*
D03*
X216535Y208661D02*
D03*
X248228Y319882D02*
D03*
Y334646D02*
D03*
X280512Y182087D02*
D03*
X281496Y221457D02*
D03*
X280512Y300197D02*
D03*
X349410Y275590D02*
D03*
X367126Y230315D02*
D03*
X300197Y180315D02*
D03*
Y121260D02*
D03*
X259842Y346457D02*
D03*
X224410Y279528D02*
D03*
X334646Y222441D02*
D03*
X253937Y129921D02*
D03*
Y118110D02*
D03*
X255906Y303150D02*
D03*
Y224410D02*
D03*
X224410Y200787D02*
D03*
X205512Y204331D02*
D03*
X224410Y122047D02*
D03*
X129921Y375984D02*
D03*
X255906Y145669D02*
D03*
Y66929D02*
D03*
X78740Y375984D02*
D03*
X157480D02*
D03*
X314961D02*
D03*
X393701D02*
D03*
Y297244D02*
D03*
X314961D02*
D03*
X157480D02*
D03*
X78740D02*
D03*
Y218504D02*
D03*
X157480D02*
D03*
X314961D02*
D03*
X393701D02*
D03*
Y139764D02*
D03*
X314961D02*
D03*
X236221D02*
D03*
X157480D02*
D03*
X78740D02*
D03*
X393701Y61024D02*
D03*
X314961D02*
D03*
X236221D02*
D03*
X78740D02*
D03*
X157480D02*
D03*
X405512Y78740D02*
D03*
X334646Y65945D02*
D03*
Y97441D02*
D03*
Y144685D02*
D03*
X413386Y144685D02*
D03*
Y97441D02*
D03*
Y222441D02*
D03*
Y254921D02*
D03*
Y301181D02*
D03*
Y333661D02*
D03*
Y380906D02*
D03*
X405512Y396654D02*
D03*
X334646Y413386D02*
D03*
X98425D02*
D03*
X334646Y254921D02*
D03*
X89567Y343504D02*
D03*
X98425Y328740D02*
D03*
Y250984D02*
D03*
Y172244D02*
D03*
Y93504D02*
D03*
X319882Y105807D02*
D03*
X342028D02*
D03*
X250000Y175197D02*
D03*
X307087Y275590D02*
D03*
Y129921D02*
D03*
X349410D02*
D03*
X307087Y196850D02*
D03*
X349410D02*
D03*
X280512Y378937D02*
D03*
X255906Y381890D02*
D03*
X374016Y325984D02*
D03*
X53181Y314929D02*
D03*
X53159Y371663D02*
D03*
X59055Y368110D02*
D03*
Y326378D02*
D03*
X53150Y135827D02*
D03*
Y78709D02*
D03*
Y157449D02*
D03*
Y214567D02*
D03*
X59055Y247244D02*
D03*
Y168504D02*
D03*
X220472Y203937D02*
D03*
Y125984D02*
D03*
X205511Y125984D02*
D03*
X212598Y114173D02*
D03*
X218504Y192913D02*
D03*
Y269685D02*
D03*
X216535Y350394D02*
D03*
X208465Y196653D02*
D03*
X300197Y259055D02*
D03*
X211811Y275590D02*
D03*
X259842Y267717D02*
D03*
X263779Y417323D02*
D03*
X221260D02*
D03*
X205512Y283465D02*
D03*
X220866D02*
D03*
X200787Y279480D02*
D03*
Y200787D02*
D03*
X192913Y196850D02*
D03*
X200787Y122047D02*
D03*
X78740Y387795D02*
D03*
X334646Y328740D02*
D03*
X300197Y337795D02*
D03*
X327559Y297638D02*
D03*
X334646Y301181D02*
D03*
X374016Y294882D02*
D03*
X362598Y204724D02*
D03*
X344488Y204675D02*
D03*
D48*
X423228Y134252D02*
D03*
Y212992D02*
D03*
Y370472D02*
D03*
X274016Y296850D02*
D03*
X423228Y291732D02*
D03*
X310236Y354331D02*
D03*
X363779Y334646D02*
D03*
X349606Y375984D02*
D03*
X326772Y375984D02*
D03*
X278740Y162205D02*
D03*
X325197Y334646D02*
D03*
X300394Y200000D02*
D03*
X291339Y253445D02*
D03*
X273130Y206693D02*
D03*
X258858Y106299D02*
D03*
X285433Y124016D02*
D03*
X253937D02*
D03*
X300394Y160630D02*
D03*
X265748Y165847D02*
D03*
X250000Y161417D02*
D03*
X141732Y210630D02*
D03*
X322835D02*
D03*
X297835Y193799D02*
D03*
X273622Y165354D02*
D03*
X281496Y112205D02*
D03*
X137795Y404380D02*
D03*
X374016Y405118D02*
D03*
X271654Y318898D02*
D03*
X53150Y236189D02*
D03*
X59055Y287402D02*
D03*
X62992Y283465D02*
D03*
X309055D02*
D03*
X311024Y271654D02*
D03*
X248819Y260236D02*
D03*
X309055Y265748D02*
D03*
X374016D02*
D03*
Y247244D02*
D03*
X281496Y285433D02*
D03*
X137795Y247244D02*
D03*
X137795Y325984D02*
D03*
X181102Y360236D02*
D03*
X297835Y350984D02*
D03*
X216535Y325984D02*
D03*
X214567Y356299D02*
D03*
X275590Y396457D02*
D03*
X271654Y399213D02*
D03*
X314961Y340551D02*
D03*
X324803Y366142D02*
D03*
X349410Y354331D02*
D03*
X137795Y282677D02*
D03*
X53150Y292126D02*
D03*
X342126Y294882D02*
D03*
D49*
X196850Y366142D02*
D03*
X275590Y106299D02*
D03*
X196850Y342520D02*
D03*
Y377953D02*
D03*
X275590Y129921D02*
D03*
Y118110D02*
D03*
X196850Y354331D02*
D03*
X265748Y333858D02*
D03*
X276378Y240945D02*
D03*
Y266142D02*
D03*
X265748Y318898D02*
D03*
D50*
X405512Y163386D02*
D03*
X366142Y163386D02*
D03*
D51*
X159941Y363681D02*
D03*
X48228Y280512D02*
D03*
X48228Y201772D02*
D03*
X421260Y275590D02*
D03*
Y196850D02*
D03*
X275590Y51181D02*
D03*
X196850D02*
D03*
Y421260D02*
D03*
X275590D02*
D03*
M02*
