M48
;Layer_Color=6321
;FILE_FORMAT=2:5
INCH
;TYPE=PLATED
T1F00S00C0.01575
T2F00S00C0.01968
T3F00S00C0.02800
T4F00S00C0.02953
T5F00S00C0.03150
;TYPE=NON_PLATED
T6F00S00C0.11811
%
T01
X0078740Y0061024
X0068898Y0096457
X0059055Y0090551
X0060039Y0126969
X0078740Y0139764
X0098425Y0093504
X0137795Y0089567
X0157480Y0061024
X0171260Y0119095
X0157480Y0139764
X0205512Y0127165
X0202756Y0122047
X0211614Y0119095
X0219488Y0115157
X0224410Y0122047
X0222441Y0127165
X0213583Y0131890
X0236221Y0139764
X0255906Y0145669
X0253937Y0129921
Y0124016
Y0118110
X0286417Y0119095
X0255906Y0066929
X0236221Y0061024
X0314961
X0334646Y0065945
Y0097441
X0323819Y0124016
X0314961Y0139764
X0334646Y0144685
X0393701Y0139764
X0413386Y0144685
Y0097441
X0393701Y0090551
X0374016Y0089567
X0405512Y0078740
X0393701Y0061024
Y0218504
X0413386Y0222441
Y0254921
Y0301181
X0393701Y0297244
X0374016Y0289370
Y0247047
X0334646Y0254921
Y0222441
X0314961Y0218504
Y0297244
X0334646Y0302165
X0255906Y0303150
X0258858Y0287402
X0256890Y0282480
X0250984
X0254921Y0277559
X0257874Y0273622
X0262795Y0268701
X0267717Y0277559
X0269685Y0282480
X0224410Y0279528
X0222441Y0284646
X0214567Y0289370
X0212598Y0277559
X0219488Y0272638
X0202756Y0279528
X0205512Y0284646
X0212598Y0304134
X0222441Y0297244
X0199803Y0310039
X0157480Y0297244
Y0218504
X0205512Y0205906
X0202756Y0200787
X0198622Y0196653
X0208465
X0224410Y0200787
X0222441Y0205906
X0223425Y0218504
X0221457Y0187992
X0224410Y0178150
X0232283Y0193898
X0243110
X0249016Y0187992
X0251969Y0198819
X0256890Y0206693
X0266732Y0211614
X0255906Y0224410
X0216535Y0246063
X0210630Y0256890
X0198819Y0161417
X0137795Y0168307
X0098425Y0172244
X0059055Y0168307
X0067913Y0211614
X0078740Y0218504
X0098425Y0250984
X0137795Y0246900
X0137795Y0278543
X0078740Y0297244
X0059203Y0325787
X0098425Y0328740
X0089567Y0343504
X0078740Y0375984
X0076772Y0391732
X0098425Y0413386
X0137795Y0403543
X0129921Y0375984
X0137795Y0325787
X0199803Y0319882
X0212598Y0324803
X0222441Y0317913
X0212598Y0358268
X0202756
X0244094Y0375984
X0255906Y0381890
X0270669Y0368110
Y0357283
X0259842Y0346457
X0269685Y0325787
X0295276Y0403543
X0216535
X0157480Y0375984
X0314961
X0318898Y0369094
Y0355315
X0324803Y0344488
X0334646Y0375984
Y0413386
X0374016Y0403543
X0405512Y0396654
X0413386Y0380906
X0393701Y0375984
X0413386Y0333661
X0374016Y0325787
T02
X0366142Y0163386
X0405512Y0163386
T03
X0275590Y0106299
Y0118110
Y0129921
Y0141732
X0196850Y0342520
Y0354331
X0196850Y0366142
X0196850Y0377953
T04
X0159941Y0363681
X0396161
T05
X0196850Y0051181
X0275590
X0421260Y0196850
Y0275590
X0048228Y0280512
X0048228Y0201772
X0196850Y0421260
X0275590
T06
X0059055Y0059055
X0413386
X0059055Y0413386
X0413386
M30
