G04 Layer_Color=13813960*
%FSLAX25Y25*%
%MOIN*%
G70*
G01*
G75*
%ADD15C,0.01000*%
%ADD16C,0.00787*%
%ADD17C,0.00984*%
%ADD35C,0.00500*%
%ADD56C,0.02362*%
D15*
X341732Y348031D02*
Y360630D01*
X327559Y348031D02*
X341732D01*
X327559D02*
Y360630D01*
X341732D01*
X105512Y348031D02*
Y360630D01*
X91339Y348031D02*
X105512D01*
X91339D02*
Y360630D01*
X105512D01*
X123031Y385919D02*
X121032D01*
X122032D01*
Y379921D01*
X123031D01*
X121032D01*
X118033D02*
Y385919D01*
X115034D01*
X114034Y384920D01*
Y382920D01*
X115034Y381921D01*
X118033D01*
X116034D02*
X114034Y379921D01*
X112035Y378922D02*
X108036D01*
X106037Y385919D02*
Y381921D01*
X104038Y379921D01*
X102038Y381921D01*
Y385919D01*
X96040Y384920D02*
X97040Y385919D01*
X99039D01*
X100039Y384920D01*
Y380921D01*
X99039Y379921D01*
X97040D01*
X96040Y380921D01*
X90042Y384920D02*
X91042Y385919D01*
X93041D01*
X94041Y384920D01*
Y380921D01*
X93041Y379921D01*
X91042D01*
X90042Y380921D01*
X357222Y384920D02*
X358221Y385919D01*
X360221D01*
X361221Y384920D01*
Y383920D01*
X360221Y382920D01*
X358221D01*
X357222Y381921D01*
Y380921D01*
X358221Y379921D01*
X360221D01*
X361221Y380921D01*
X355222Y379921D02*
Y385919D01*
X352223D01*
X351224Y384920D01*
Y382920D01*
X352223Y381921D01*
X355222D01*
X353223D02*
X351224Y379921D01*
X349224Y378922D02*
X345226D01*
X343226Y385919D02*
Y381921D01*
X341227Y379921D01*
X339228Y381921D01*
Y385919D01*
X333229Y384920D02*
X334229Y385919D01*
X336228D01*
X337228Y384920D01*
Y380921D01*
X336228Y379921D01*
X334229D01*
X333229Y380921D01*
X327232Y384920D02*
X328231Y385919D01*
X330230D01*
X331230Y384920D01*
Y380921D01*
X330230Y379921D01*
X328231D01*
X327232Y380921D01*
D16*
X226181Y124016D02*
X246260D01*
X226181Y112205D02*
X246260D01*
X226181D02*
Y124016D01*
X246260Y112205D02*
Y124016D01*
X352953Y360236D02*
X355709D01*
X352953Y348425D02*
X355709D01*
Y360236D01*
X352953Y348425D02*
Y360236D01*
X298425Y342126D02*
Y366535D01*
X311811Y342126D02*
Y366535D01*
X298425D02*
X299016D01*
X298425Y342126D02*
X299016D01*
X311221Y366535D02*
X311811D01*
X311221Y342126D02*
X311811D01*
X226181Y360236D02*
X246260D01*
X226181Y348425D02*
X246260D01*
X226181D02*
Y360236D01*
X246260Y348425D02*
Y360236D01*
X226181Y281496D02*
X246260D01*
X226181Y269685D02*
X246260D01*
X226181D02*
Y281496D01*
X246260Y269685D02*
Y281496D01*
X226181Y202756D02*
X246260D01*
X226181Y190945D02*
X246260D01*
X226181D02*
Y202756D01*
X246260Y190945D02*
Y202756D01*
X116732Y360236D02*
X119488D01*
X116732Y348425D02*
X119488D01*
Y360236D01*
X116732Y348425D02*
Y360236D01*
X140945Y342126D02*
Y366535D01*
X154331Y342126D02*
Y366535D01*
X140945D02*
X141535D01*
X140945Y342126D02*
X141535D01*
X153740Y366535D02*
X154331D01*
X153740Y342126D02*
X154331D01*
X62205D02*
Y366535D01*
X75590Y342126D02*
Y366535D01*
X62205D02*
X62795D01*
X62205Y342126D02*
X62795D01*
X75000Y366535D02*
X75590D01*
X75000Y342126D02*
X75590D01*
X377165D02*
Y366535D01*
X390551Y342126D02*
Y366535D01*
X377165D02*
X377756D01*
X377165Y342126D02*
X377756D01*
X389961Y366535D02*
X390551D01*
X389961Y342126D02*
X390551D01*
X220085Y121278D02*
X223364D01*
X224021Y120622D01*
Y119310D01*
X223364Y118654D01*
X220085D01*
X224021Y114718D02*
Y117342D01*
X221397Y114718D01*
X220741D01*
X220085Y115374D01*
Y116686D01*
X220741Y117342D01*
X357600Y369236D02*
Y365956D01*
X356944Y365300D01*
X355632D01*
X354976Y365956D01*
Y369236D01*
X351040D02*
X352352Y368580D01*
X353664Y367268D01*
Y365956D01*
X353008Y365300D01*
X351696D01*
X351040Y365956D01*
Y366612D01*
X351696Y367268D01*
X353664D01*
X325787Y342520D02*
Y346455D01*
X323819D01*
X323164Y345799D01*
Y344488D01*
X323819Y343832D01*
X325787D01*
X324476D02*
X323164Y342520D01*
X321852D02*
X320540D01*
X321196D01*
Y346455D01*
X321852Y345799D01*
X315948Y346455D02*
X317260Y345799D01*
X318572Y344488D01*
Y343176D01*
X317916Y342520D01*
X316604D01*
X315948Y343176D01*
Y343832D01*
X316604Y344488D01*
X318572D01*
X325787Y362205D02*
Y366141D01*
X323819D01*
X323164Y365484D01*
Y364173D01*
X323819Y363517D01*
X325787D01*
X324476D02*
X323164Y362205D01*
X321852D02*
X320540D01*
X321196D01*
Y366141D01*
X321852Y365484D01*
X316604Y362205D02*
Y366141D01*
X318572Y364173D01*
X315948D01*
X325787Y352362D02*
Y356298D01*
X323819D01*
X323164Y355642D01*
Y354330D01*
X323819Y353674D01*
X325787D01*
X324476D02*
X323164Y352362D01*
X321852D02*
X320540D01*
X321196D01*
Y356298D01*
X321852Y355642D01*
X315948Y356298D02*
X318572D01*
Y354330D01*
X317260Y354986D01*
X316604D01*
X315948Y354330D01*
Y353018D01*
X316604Y352362D01*
X317916D01*
X318572Y353018D01*
X397000Y66836D02*
Y62900D01*
X395032D01*
X394376Y63556D01*
Y66180D01*
X395032Y66836D01*
X397000D01*
X393064Y66180D02*
X392408Y66836D01*
X391096D01*
X390440Y66180D01*
Y65524D01*
X391096Y64868D01*
X391752D01*
X391096D01*
X390440Y64212D01*
Y63556D01*
X391096Y62900D01*
X392408D01*
X393064Y63556D01*
X191929Y352362D02*
Y356298D01*
X189961D01*
X189305Y355642D01*
Y354330D01*
X189961Y353674D01*
X191929D01*
X185370Y352362D02*
X187993D01*
X185370Y354986D01*
Y355642D01*
X186026Y356298D01*
X187337D01*
X187993Y355642D01*
X184058D02*
X183402Y356298D01*
X182090D01*
X181434Y355642D01*
Y353018D01*
X182090Y352362D01*
X183402D01*
X184058Y353018D01*
Y355642D01*
X305776Y376180D02*
X306432Y376836D01*
X307744D01*
X308400Y376180D01*
Y373556D01*
X307744Y372900D01*
X306432D01*
X305776Y373556D01*
X301840Y376836D02*
X304464D01*
Y374868D01*
X303152Y375524D01*
X302496D01*
X301840Y374868D01*
Y373556D01*
X302496Y372900D01*
X303808D01*
X304464Y373556D01*
X212318Y351580D02*
X212974Y352236D01*
X214286D01*
X214942Y351580D01*
Y348956D01*
X214286Y348300D01*
X212974D01*
X212318Y348956D01*
X211006D02*
X210350Y348300D01*
X209038D01*
X208382Y348956D01*
Y351580D01*
X209038Y352236D01*
X210350D01*
X211006Y351580D01*
Y350924D01*
X210350Y350268D01*
X208382D01*
X212255Y272880D02*
X212911Y273536D01*
X214223D01*
X214879Y272880D01*
Y270256D01*
X214223Y269600D01*
X212911D01*
X212255Y270256D01*
X210943Y272880D02*
X210287Y273536D01*
X208975D01*
X208319Y272880D01*
Y272224D01*
X208975Y271568D01*
X208319Y270912D01*
Y270256D01*
X208975Y269600D01*
X210287D01*
X210943Y270256D01*
Y270912D01*
X210287Y271568D01*
X210943Y272224D01*
Y272880D01*
X210287Y271568D02*
X208975D01*
X212255Y194080D02*
X212911Y194736D01*
X214223D01*
X214879Y194080D01*
Y191456D01*
X214223Y190800D01*
X212911D01*
X212255Y191456D01*
X210943Y194736D02*
X208319D01*
Y194080D01*
X210943Y191456D01*
Y190800D01*
X212255Y115380D02*
X212911Y116036D01*
X214223D01*
X214879Y115380D01*
Y112756D01*
X214223Y112100D01*
X212911D01*
X212255Y112756D01*
X208319Y116036D02*
X209631Y115380D01*
X210943Y114068D01*
Y112756D01*
X210287Y112100D01*
X208975D01*
X208319Y112756D01*
Y113412D01*
X208975Y114068D01*
X210943D01*
X230315Y41339D02*
Y45274D01*
X228347D01*
X227691Y44618D01*
Y43306D01*
X228347Y42650D01*
X230315D01*
X226379Y41339D02*
X225067D01*
X225723D01*
Y45274D01*
X226379Y44618D01*
X221132Y41339D02*
Y45274D01*
X223099Y43306D01*
X220476D01*
X269685Y41339D02*
Y45274D01*
X267717D01*
X267061Y44618D01*
Y43306D01*
X267717Y42650D01*
X269685D01*
X265749Y41339D02*
X264437D01*
X265093D01*
Y45274D01*
X265749Y44618D01*
X262470D02*
X261814Y45274D01*
X260502D01*
X259846Y44618D01*
Y43962D01*
X260502Y43306D01*
X261158D01*
X260502D01*
X259846Y42650D01*
Y41995D01*
X260502Y41339D01*
X261814D01*
X262470Y41995D01*
X431102Y242126D02*
Y246062D01*
X429135D01*
X428478Y245406D01*
Y244094D01*
X429135Y243438D01*
X431102D01*
X427167Y242126D02*
X425855D01*
X426511D01*
Y246062D01*
X427167Y245406D01*
X421263Y242126D02*
X423887D01*
X421263Y244750D01*
Y245406D01*
X421919Y246062D01*
X423231D01*
X423887Y245406D01*
X431102Y281496D02*
Y285432D01*
X429135D01*
X428478Y284776D01*
Y283464D01*
X429135Y282808D01*
X431102D01*
X427167Y281496D02*
X425855D01*
X426511D01*
Y285432D01*
X427167Y284776D01*
X423887Y281496D02*
X422575D01*
X423231D01*
Y285432D01*
X423887Y284776D01*
X230315Y427165D02*
Y431101D01*
X228347D01*
X227691Y430445D01*
Y429133D01*
X228347Y428477D01*
X230315D01*
X226379Y427165D02*
X225067D01*
X225723D01*
Y431101D01*
X226379Y430445D01*
X223099D02*
X222444Y431101D01*
X221132D01*
X220476Y430445D01*
Y427821D01*
X221132Y427165D01*
X222444D01*
X223099Y427821D01*
Y430445D01*
X269685Y427165D02*
Y431101D01*
X267717D01*
X267061Y430445D01*
Y429133D01*
X267717Y428477D01*
X269685D01*
X265749Y427821D02*
X265093Y427165D01*
X263781D01*
X263125Y427821D01*
Y430445D01*
X263781Y431101D01*
X265093D01*
X265749Y430445D01*
Y429789D01*
X265093Y429133D01*
X263125D01*
X220085Y357478D02*
X223364D01*
X224021Y356822D01*
Y355510D01*
X223364Y354854D01*
X220085D01*
Y350918D02*
Y353542D01*
X222053D01*
X221397Y352230D01*
Y351574D01*
X222053Y350918D01*
X223364D01*
X224021Y351574D01*
Y352886D01*
X223364Y353542D01*
X220085Y278778D02*
X223364D01*
X224021Y278122D01*
Y276810D01*
X223364Y276154D01*
X220085D01*
X224021Y272874D02*
X220085D01*
X222053Y274842D01*
Y272218D01*
X220085Y199978D02*
X223364D01*
X224021Y199322D01*
Y198010D01*
X223364Y197354D01*
X220085D01*
X220741Y196042D02*
X220085Y195386D01*
Y194074D01*
X220741Y193418D01*
X221397D01*
X222053Y194074D01*
Y194730D01*
Y194074D01*
X222709Y193418D01*
X223364D01*
X224021Y194074D01*
Y195386D01*
X223364Y196042D01*
X318200Y66836D02*
Y62900D01*
X316232D01*
X315576Y63556D01*
Y66180D01*
X316232Y66836D01*
X318200D01*
X311640Y62900D02*
X314264D01*
X311640Y65524D01*
Y66180D01*
X312296Y66836D01*
X313608D01*
X314264Y66180D01*
X251010Y375805D02*
X247075D01*
Y373837D01*
X247730Y373181D01*
X249042D01*
X249698Y373837D01*
Y375805D01*
Y374493D02*
X251010Y373181D01*
Y371869D02*
Y370557D01*
Y371213D01*
X247075D01*
X247730Y371869D01*
X251010Y298405D02*
X247075D01*
Y296437D01*
X247730Y295781D01*
X249042D01*
X249698Y296437D01*
Y298405D01*
Y297093D02*
X251010Y295781D01*
X247730Y294469D02*
X247075Y293813D01*
Y292501D01*
X247730Y291845D01*
X248386D01*
X249042Y292501D01*
Y293157D01*
Y292501D01*
X249698Y291845D01*
X250354D01*
X251010Y292501D01*
Y293813D01*
X250354Y294469D01*
X251010Y219705D02*
X247075D01*
Y217737D01*
X247730Y217081D01*
X249042D01*
X249698Y217737D01*
Y219705D01*
Y218393D02*
X251010Y217081D01*
Y213801D02*
X247075D01*
X249042Y215769D01*
Y213145D01*
X329724Y209646D02*
X325789D01*
Y207678D01*
X326445Y207022D01*
X327757D01*
X328413Y207678D01*
Y209646D01*
Y208334D02*
X329724Y207022D01*
X325789Y203086D02*
Y205710D01*
X327757D01*
X327101Y204398D01*
Y203742D01*
X327757Y203086D01*
X329068D01*
X329724Y203742D01*
Y205054D01*
X329068Y205710D01*
X408465Y209646D02*
X404529D01*
Y207678D01*
X405185Y207022D01*
X406497D01*
X407153Y207678D01*
Y209646D01*
Y208334D02*
X408465Y207022D01*
X404529Y203086D02*
X405185Y204398D01*
X406497Y205710D01*
X407809D01*
X408465Y205054D01*
Y203742D01*
X407809Y203086D01*
X407153D01*
X406497Y203742D01*
Y205710D01*
X251010Y140905D02*
X247075D01*
Y138937D01*
X247730Y138281D01*
X249042D01*
X249698Y138937D01*
Y140905D01*
Y139593D02*
X251010Y138281D01*
X247075Y136969D02*
Y134345D01*
X247730D01*
X250354Y136969D01*
X251010D01*
Y62205D02*
X247075D01*
Y60237D01*
X247730Y59581D01*
X249042D01*
X249698Y60237D01*
Y62205D01*
Y60893D02*
X251010Y59581D01*
X247730Y58269D02*
X247075Y57613D01*
Y56301D01*
X247730Y55645D01*
X248386D01*
X249042Y56301D01*
X249698Y55645D01*
X250354D01*
X251010Y56301D01*
Y57613D01*
X250354Y58269D01*
X249698D01*
X249042Y57613D01*
X248386Y58269D01*
X247730D01*
X249042Y57613D02*
Y56301D01*
X299213Y62992D02*
Y66928D01*
X297245D01*
X296589Y66272D01*
Y64960D01*
X297245Y64304D01*
X299213D01*
X297901D02*
X296589Y62992D01*
X295277Y63648D02*
X294621Y62992D01*
X293309D01*
X292653Y63648D01*
Y66272D01*
X293309Y66928D01*
X294621D01*
X295277Y66272D01*
Y65616D01*
X294621Y64960D01*
X292653D01*
X378937Y62992D02*
Y66928D01*
X376969D01*
X376313Y66272D01*
Y64960D01*
X376969Y64304D01*
X378937D01*
X377625D02*
X376313Y62992D01*
X375001D02*
X373689D01*
X374345D01*
Y66928D01*
X375001Y66272D01*
X371722D02*
X371065Y66928D01*
X369754D01*
X369098Y66272D01*
Y63648D01*
X369754Y62992D01*
X371065D01*
X371722Y63648D01*
Y66272D01*
X120700Y369236D02*
Y365956D01*
X120044Y365300D01*
X118732D01*
X118076Y365956D01*
Y369236D01*
X116764Y365300D02*
X115452D01*
X116108D01*
Y369236D01*
X116764Y368580D01*
X191929Y375984D02*
Y379920D01*
X189961D01*
X189305Y379264D01*
Y377952D01*
X189961Y377296D01*
X191929D01*
X187993Y375984D02*
X186681D01*
X187337D01*
Y379920D01*
X187993Y379264D01*
X270024Y140063D02*
Y143999D01*
X268057D01*
X267401Y143343D01*
Y142031D01*
X268057Y141375D01*
X270024D01*
X263465Y140063D02*
X266089D01*
X263465Y142687D01*
Y143343D01*
X264121Y143999D01*
X265433D01*
X266089Y143343D01*
X270024Y128194D02*
Y132130D01*
X268057D01*
X267401Y131474D01*
Y130162D01*
X268057Y129506D01*
X270024D01*
X266089Y131474D02*
X265433Y132130D01*
X264121D01*
X263465Y131474D01*
Y130818D01*
X264121Y130162D01*
X264777D01*
X264121D01*
X263465Y129506D01*
Y128850D01*
X264121Y128194D01*
X265433D01*
X266089Y128850D01*
X270024Y116426D02*
Y120362D01*
X268057D01*
X267401Y119706D01*
Y118394D01*
X268057Y117738D01*
X270024D01*
X264121Y116426D02*
Y120362D01*
X266089Y118394D01*
X263465D01*
X55118Y273622D02*
Y277558D01*
X53150D01*
X52494Y276902D01*
Y275590D01*
X53150Y274934D01*
X55118D01*
X48559Y277558D02*
X51182D01*
Y275590D01*
X49870Y276246D01*
X49215D01*
X48559Y275590D01*
Y274278D01*
X49215Y273622D01*
X50526D01*
X51182Y274278D01*
X55118Y234252D02*
Y238188D01*
X53150D01*
X52494Y237532D01*
Y236220D01*
X53150Y235564D01*
X55118D01*
X48559Y238188D02*
X49870Y237532D01*
X51182Y236220D01*
Y234908D01*
X50526Y234252D01*
X49215D01*
X48559Y234908D01*
Y235564D01*
X49215Y236220D01*
X51182D01*
X270024Y104558D02*
Y108493D01*
X268057D01*
X267401Y107837D01*
Y106525D01*
X268057Y105869D01*
X270024D01*
X266089Y108493D02*
X263465D01*
Y107837D01*
X266089Y105213D01*
Y104558D01*
X191929Y340551D02*
Y344487D01*
X189961D01*
X189305Y343831D01*
Y342519D01*
X189961Y341863D01*
X191929D01*
X187993Y343831D02*
X187337Y344487D01*
X186026D01*
X185370Y343831D01*
Y343175D01*
X186026Y342519D01*
X185370Y341863D01*
Y341207D01*
X186026Y340551D01*
X187337D01*
X187993Y341207D01*
Y341863D01*
X187337Y342519D01*
X187993Y343175D01*
Y343831D01*
X187337Y342519D02*
X186026D01*
X88583Y362205D02*
Y366141D01*
X86615D01*
X85959Y365484D01*
Y364173D01*
X86615Y363517D01*
X88583D01*
X87271D02*
X85959Y362205D01*
X84647D02*
X83335D01*
X83991D01*
Y366141D01*
X84647Y365484D01*
X81367Y362205D02*
X80055D01*
X80711D01*
Y366141D01*
X81367Y365484D01*
X88583Y352362D02*
Y356298D01*
X86615D01*
X85959Y355642D01*
Y354330D01*
X86615Y353674D01*
X88583D01*
X87271D02*
X85959Y352362D01*
X84647D02*
X83335D01*
X83991D01*
Y356298D01*
X84647Y355642D01*
X78743Y352362D02*
X81367D01*
X78743Y354986D01*
Y355642D01*
X79399Y356298D01*
X80711D01*
X81367Y355642D01*
X88583Y342520D02*
Y346455D01*
X86615D01*
X85959Y345799D01*
Y344488D01*
X86615Y343832D01*
X88583D01*
X87271D02*
X85959Y342520D01*
X84647D02*
X83335D01*
X83991D01*
Y346455D01*
X84647Y345799D01*
X81367D02*
X80711Y346455D01*
X79399D01*
X78743Y345799D01*
Y345144D01*
X79399Y344488D01*
X80055D01*
X79399D01*
X78743Y343832D01*
Y343176D01*
X79399Y342520D01*
X80711D01*
X81367Y343176D01*
X148276Y376180D02*
X148932Y376836D01*
X150244D01*
X150900Y376180D01*
Y373556D01*
X150244Y372900D01*
X148932D01*
X148276Y373556D01*
X144340Y372900D02*
X146964D01*
X144340Y375524D01*
Y376180D01*
X144996Y376836D01*
X146308D01*
X146964Y376180D01*
X69576D02*
X70232Y376836D01*
X71544D01*
X72200Y376180D01*
Y373556D01*
X71544Y372900D01*
X70232D01*
X69576Y373556D01*
X68264Y376180D02*
X67608Y376836D01*
X66296D01*
X65640Y376180D01*
Y375524D01*
X66296Y374868D01*
X66952D01*
X66296D01*
X65640Y374212D01*
Y373556D01*
X66296Y372900D01*
X67608D01*
X68264Y373556D01*
X384476Y376180D02*
X385132Y376836D01*
X386444D01*
X387100Y376180D01*
Y373556D01*
X386444Y372900D01*
X385132D01*
X384476Y373556D01*
X381196Y372900D02*
Y376836D01*
X383164Y374868D01*
X380540D01*
X190945Y427165D02*
Y431101D01*
X188977D01*
X188321Y430445D01*
Y429133D01*
X188977Y428477D01*
X190945D01*
X187009Y427165D02*
X185697D01*
X186353D01*
Y431101D01*
X187009Y430445D01*
X181105Y431101D02*
X183729D01*
Y429133D01*
X182418Y429789D01*
X181762D01*
X181105Y429133D01*
Y427821D01*
X181762Y427165D01*
X183073D01*
X183729Y427821D01*
X191929Y364173D02*
Y368109D01*
X189961D01*
X189305Y367453D01*
Y366141D01*
X189961Y365485D01*
X191929D01*
X187993Y364173D02*
X186681D01*
X187337D01*
Y368109D01*
X187993Y367453D01*
X182090Y368109D02*
X183402Y367453D01*
X184714Y366141D01*
Y364829D01*
X184058Y364173D01*
X182746D01*
X182090Y364829D01*
Y365485D01*
X182746Y366141D01*
X184714D01*
X431102Y202756D02*
Y206692D01*
X429135D01*
X428478Y206036D01*
Y204724D01*
X429135Y204068D01*
X431102D01*
X427167Y202756D02*
X425855D01*
X426511D01*
Y206692D01*
X427167Y206036D01*
X423887Y206692D02*
X421263D01*
Y206036D01*
X423887Y203412D01*
Y202756D01*
X59055Y194882D02*
Y198818D01*
X57087D01*
X56431Y198162D01*
Y196850D01*
X57087Y196194D01*
X59055D01*
X55119Y194882D02*
X53807D01*
X54463D01*
Y198818D01*
X55119Y198162D01*
X51840D02*
X51184Y198818D01*
X49872D01*
X49216Y198162D01*
Y197506D01*
X49872Y196850D01*
X49216Y196194D01*
Y195538D01*
X49872Y194882D01*
X51184D01*
X51840Y195538D01*
Y196194D01*
X51184Y196850D01*
X51840Y197506D01*
Y198162D01*
X51184Y196850D02*
X49872D01*
X190945Y41339D02*
Y45274D01*
X188977D01*
X188321Y44618D01*
Y43306D01*
X188977Y42650D01*
X190945D01*
X187009Y41339D02*
X185697D01*
X186353D01*
Y45274D01*
X187009Y44618D01*
X183729Y41995D02*
X183073Y41339D01*
X181762D01*
X181105Y41995D01*
Y44618D01*
X181762Y45274D01*
X183073D01*
X183729Y44618D01*
Y43962D01*
X183073Y43306D01*
X181105D01*
D17*
X224902Y129528D02*
G03*
X224902Y129528I-492J0D01*
G01*
X359547Y361516D02*
G03*
X359547Y361516I-492J0D01*
G01*
X298917Y369094D02*
G03*
X298917Y369094I-492J0D01*
G01*
X224902Y365748D02*
G03*
X224902Y365748I-492J0D01*
G01*
Y287008D02*
G03*
X224902Y287008I-492J0D01*
G01*
Y208268D02*
G03*
X224902Y208268I-492J0D01*
G01*
X123327Y361516D02*
G03*
X123327Y361516I-492J0D01*
G01*
X141437Y369094D02*
G03*
X141437Y369094I-492J0D01*
G01*
X62697D02*
G03*
X62697Y369094I-492J0D01*
G01*
X377658D02*
G03*
X377658Y369094I-492J0D01*
G01*
D35*
X208465Y339764D02*
X214764D01*
X208465Y345276D02*
X214764D01*
X208465Y261024D02*
X214764D01*
X208465Y266535D02*
X214764D01*
X208465Y182283D02*
X214764D01*
X208465Y187795D02*
X214764D01*
X208465Y103543D02*
X214764D01*
X208465Y109055D02*
X214764D01*
D56*
X231299Y120079D02*
G03*
X231299Y120079I-1181J0D01*
G01*
Y356299D02*
G03*
X231299Y356299I-1181J0D01*
G01*
Y277559D02*
G03*
X231299Y277559I-1181J0D01*
G01*
Y198819D02*
G03*
X231299Y198819I-1181J0D01*
G01*
M02*
