G04 Layer_Physical_Order=1*
G04 Layer_Color=25308*
%FSLAX25Y25*%
%MOIN*%
G70*
G01*
G75*
%ADD10R,0.03600X0.06000*%
G04:AMPARAMS|DCode=11|XSize=31.5mil|YSize=35.43mil|CornerRadius=1.58mil|HoleSize=0mil|Usage=FLASHONLY|Rotation=0.000|XOffset=0mil|YOffset=0mil|HoleType=Round|Shape=RoundedRectangle|*
%AMROUNDEDRECTD11*
21,1,0.03150,0.03228,0,0,0.0*
21,1,0.02835,0.03543,0,0,0.0*
1,1,0.00315,0.01417,-0.01614*
1,1,0.00315,-0.01417,-0.01614*
1,1,0.00315,-0.01417,0.01614*
1,1,0.00315,0.01417,0.01614*
%
%ADD11ROUNDEDRECTD11*%
%ADD12R,0.05906X0.05512*%
%ADD13R,0.04724X0.04331*%
%ADD14R,0.03740X0.03150*%
%ADD15C,0.01000*%
%ADD16C,0.00787*%
%ADD17C,0.00984*%
%ADD18C,0.01969*%
%ADD19C,0.15748*%
%ADD20C,0.03150*%
%ADD21C,0.05000*%
%ADD22C,0.03937*%
%ADD23C,0.05906*%
G36*
X432087Y40354D02*
X40354D01*
Y432087D01*
X211301D01*
X211508Y431587D01*
X205906Y425984D01*
X205664Y425623D01*
X205579Y425197D01*
Y409910D01*
X184578Y388909D01*
X180718D01*
Y391151D01*
X173613D01*
Y384439D01*
X180718D01*
Y386682D01*
X185039D01*
X185466Y386767D01*
X185827Y387008D01*
X207480Y408661D01*
X207480Y408662D01*
X207722Y409023D01*
X207806Y409449D01*
Y424736D01*
X213060Y429989D01*
X247570D01*
X254792Y422767D01*
Y402962D01*
X252353D01*
Y396250D01*
X259458D01*
Y402962D01*
X257019D01*
Y423228D01*
X256934Y423655D01*
X256693Y424016D01*
X249122Y431587D01*
X249329Y432087D01*
X432087D01*
Y40354D01*
D02*
G37*
%LPC*%
G36*
X238870Y176665D02*
X236773D01*
Y175551D01*
X236862Y175100D01*
X237118Y174717D01*
X237501Y174461D01*
X237953Y174371D01*
X238870D01*
Y176665D01*
D02*
G37*
G36*
X317610D02*
X315513D01*
Y175551D01*
X315603Y175100D01*
X315858Y174717D01*
X316241Y174461D01*
X316693Y174371D01*
X317610D01*
Y176665D01*
D02*
G37*
G36*
X160130D02*
X158032D01*
Y175551D01*
X158122Y175100D01*
X158378Y174717D01*
X158761Y174461D01*
X159213Y174371D01*
X160130D01*
Y176665D01*
D02*
G37*
G36*
X81390D02*
X79292D01*
Y175551D01*
X79382Y175100D01*
X79638Y174717D01*
X80021Y174461D01*
X80472Y174371D01*
X81390D01*
Y176665D01*
D02*
G37*
G36*
X396350D02*
X394253D01*
Y175551D01*
X394343Y175100D01*
X394599Y174717D01*
X394981Y174461D01*
X395433Y174371D01*
X396350D01*
Y176665D01*
D02*
G37*
G36*
X421760Y200771D02*
Y197350D01*
X425181D01*
X425111Y197882D01*
X424713Y198844D01*
X424079Y199670D01*
X423253Y200303D01*
X422292Y200701D01*
X421760Y200771D01*
D02*
G37*
G36*
X208465Y198871D02*
X207616Y198702D01*
X206897Y198222D01*
X206526Y197667D01*
X200561D01*
X200190Y198222D01*
X199471Y198702D01*
X198622Y198871D01*
X197774Y198702D01*
X197054Y198222D01*
X196573Y197502D01*
X196405Y196653D01*
X196573Y195805D01*
X197054Y195086D01*
X197774Y194605D01*
X198622Y194436D01*
X199471Y194605D01*
X200190Y195086D01*
X200561Y195640D01*
X206526D01*
X206897Y195086D01*
X207616Y194605D01*
X208465Y194436D01*
X209313Y194605D01*
X210033Y195086D01*
X210513Y195805D01*
X210682Y196653D01*
X210513Y197502D01*
X210033Y198222D01*
X209313Y198702D01*
X208465Y198871D01*
D02*
G37*
G36*
X420760Y200771D02*
X420228Y200701D01*
X419266Y200303D01*
X418441Y199670D01*
X417807Y198844D01*
X417409Y197882D01*
X417339Y197350D01*
X420760D01*
Y200771D01*
D02*
G37*
G36*
Y196350D02*
X417339D01*
X417409Y195818D01*
X417807Y194857D01*
X418441Y194031D01*
X419266Y193398D01*
X420228Y192999D01*
X420760Y192929D01*
Y196350D01*
D02*
G37*
G36*
X425181D02*
X421760D01*
Y192929D01*
X422292Y192999D01*
X423253Y193398D01*
X424079Y194031D01*
X424713Y194857D01*
X425111Y195818D01*
X425181Y196350D01*
D02*
G37*
G36*
X393701Y192066D02*
X393701Y192066D01*
X374016D01*
X373587Y191981D01*
X373223Y191738D01*
X372980Y191374D01*
X372894Y190945D01*
Y182201D01*
X371146D01*
Y180126D01*
X376886D01*
Y182201D01*
X375137D01*
Y189823D01*
X393236D01*
X395729Y187331D01*
Y179960D01*
X395433D01*
X394981Y179870D01*
X394599Y179614D01*
X394343Y179231D01*
X394253Y178779D01*
Y177665D01*
X396850D01*
Y177165D01*
X397350D01*
Y174371D01*
X398268D01*
X398575Y174432D01*
X399075Y174143D01*
Y171180D01*
X397397D01*
Y167680D01*
X402997D01*
Y171180D01*
X401318D01*
Y176575D01*
X401233Y177004D01*
X400990Y177368D01*
X400990Y177368D01*
X400399Y177958D01*
X400035Y178201D01*
X399606Y178287D01*
X399448Y178737D01*
Y178779D01*
X399358Y179231D01*
X399102Y179614D01*
X398719Y179870D01*
X398268Y179960D01*
X397972D01*
Y187795D01*
X397972Y187795D01*
X397887Y188224D01*
X397643Y188588D01*
X397643Y188588D01*
X394494Y191738D01*
X394130Y191981D01*
X393701Y192066D01*
D02*
G37*
G36*
X242216Y166680D02*
X239916D01*
Y163180D01*
X242216D01*
Y166680D01*
D02*
G37*
G36*
X245516D02*
X243216D01*
Y163180D01*
X245516D01*
Y166680D01*
D02*
G37*
G36*
X166776D02*
X164476D01*
Y163180D01*
X166776D01*
Y166680D01*
D02*
G37*
G36*
X88036D02*
X85736D01*
Y163180D01*
X88036D01*
Y166680D01*
D02*
G37*
G36*
X163476D02*
X161176D01*
Y163180D01*
X163476D01*
Y166680D01*
D02*
G37*
G36*
X320957D02*
X318657D01*
Y163180D01*
X320957D01*
Y166680D01*
D02*
G37*
G36*
X78740Y192066D02*
X78740Y192066D01*
X59055D01*
X58626Y191981D01*
X58262Y191738D01*
X58019Y191374D01*
X57934Y190945D01*
Y182201D01*
X56185D01*
Y180126D01*
X61925D01*
Y182201D01*
X60177D01*
Y189823D01*
X78276D01*
X80768Y187331D01*
Y179960D01*
X80472D01*
X80021Y179870D01*
X79638Y179614D01*
X79382Y179231D01*
X79292Y178779D01*
Y177665D01*
X81890D01*
Y177165D01*
X82390D01*
Y174371D01*
X83307D01*
X83615Y174432D01*
X84115Y174143D01*
Y171180D01*
X82436D01*
Y167680D01*
X88036D01*
Y171180D01*
X86358D01*
Y176575D01*
X86272Y177004D01*
X86029Y177368D01*
X86029Y177368D01*
X85439Y177958D01*
X85075Y178201D01*
X84646Y178287D01*
X84487Y178737D01*
Y178779D01*
X84397Y179231D01*
X84142Y179614D01*
X83759Y179870D01*
X83307Y179960D01*
X83011D01*
Y187795D01*
X83011Y187795D01*
X82926Y188224D01*
X82683Y188588D01*
X82683Y188588D01*
X79533Y191738D01*
X79169Y191981D01*
X78740Y192066D01*
D02*
G37*
G36*
X157480D02*
X157480Y192066D01*
X137795D01*
X137366Y191981D01*
X137002Y191738D01*
X136759Y191374D01*
X136674Y190945D01*
Y182201D01*
X134925D01*
Y180126D01*
X140665D01*
Y182201D01*
X138917D01*
Y189823D01*
X157016D01*
X159508Y187331D01*
Y179960D01*
X159213D01*
X158761Y179870D01*
X158378Y179614D01*
X158122Y179231D01*
X158032Y178779D01*
Y177665D01*
X160630D01*
Y177165D01*
X161130D01*
Y174371D01*
X162047D01*
X162355Y174432D01*
X162855Y174143D01*
Y171180D01*
X161176D01*
Y167680D01*
X166776D01*
Y171180D01*
X165098D01*
Y176575D01*
X165013Y177004D01*
X164769Y177368D01*
X164769Y177368D01*
X164179Y177958D01*
X163815Y178201D01*
X163386Y178287D01*
X163227Y178737D01*
Y178779D01*
X163138Y179231D01*
X162882Y179614D01*
X162499Y179870D01*
X162047Y179960D01*
X161751D01*
Y187795D01*
X161751Y187795D01*
X161666Y188224D01*
X161423Y188588D01*
X161423Y188588D01*
X158273Y191738D01*
X157910Y191981D01*
X157480Y192066D01*
D02*
G37*
G36*
X416939Y166742D02*
X409833D01*
Y164499D01*
X407831D01*
X407755Y164681D01*
X407344Y165218D01*
X406807Y165629D01*
X406182Y165888D01*
X405512Y165977D01*
X404841Y165888D01*
X404216Y165629D01*
X403680Y165218D01*
X403497Y164979D01*
X402997Y165149D01*
Y166680D01*
X400697D01*
Y163180D01*
X402948D01*
X403009Y162715D01*
X403268Y162091D01*
X403680Y161554D01*
X404216Y161142D01*
X404841Y160883D01*
X405512Y160795D01*
X406182Y160883D01*
X406807Y161142D01*
X407344Y161554D01*
X407755Y162091D01*
X407831Y162272D01*
X409833D01*
Y160030D01*
X416939D01*
Y166742D01*
D02*
G37*
G36*
X324257Y166680D02*
X321957D01*
Y163180D01*
X324257D01*
Y166680D01*
D02*
G37*
G36*
X399697D02*
X397397D01*
Y163180D01*
X399697D01*
Y166680D01*
D02*
G37*
G36*
X245516Y245421D02*
X243216D01*
Y241920D01*
X245516D01*
Y245421D01*
D02*
G37*
G36*
X320957D02*
X318657D01*
Y241920D01*
X320957D01*
Y245421D01*
D02*
G37*
G36*
X242216D02*
X239916D01*
Y241920D01*
X242216D01*
Y245421D01*
D02*
G37*
G36*
X163476D02*
X161176D01*
Y241920D01*
X163476D01*
Y245421D01*
D02*
G37*
G36*
X166776D02*
X164476D01*
Y241920D01*
X166776D01*
Y245421D01*
D02*
G37*
G36*
X324257D02*
X321957D01*
Y241920D01*
X324257D01*
Y245421D01*
D02*
G37*
G36*
X314961Y270807D02*
X314961Y270807D01*
X295276D01*
X294846Y270721D01*
X294482Y270478D01*
X294239Y270114D01*
X294154Y269685D01*
Y260941D01*
X292406D01*
Y258866D01*
X298146D01*
Y260941D01*
X296397D01*
Y268564D01*
X314496D01*
X316989Y266071D01*
Y258700D01*
X316693D01*
X316241Y258610D01*
X315858Y258354D01*
X315603Y257971D01*
X315513Y257520D01*
Y256405D01*
X318110D01*
Y255906D01*
X318610D01*
Y253111D01*
X319528D01*
X319835Y253172D01*
X320335Y252883D01*
Y249921D01*
X318657D01*
Y246421D01*
X324257D01*
Y249921D01*
X322578D01*
Y255315D01*
X322493Y255744D01*
X322250Y256108D01*
X322250Y256108D01*
X321659Y256699D01*
X321295Y256942D01*
X320866Y257027D01*
X320708Y257477D01*
Y257520D01*
X320618Y257971D01*
X320362Y258354D01*
X319979Y258610D01*
X319528Y258700D01*
X319232D01*
Y266535D01*
X319232Y266535D01*
X319146Y266965D01*
X318903Y267329D01*
X318903Y267329D01*
X315754Y270478D01*
X315390Y270721D01*
X314961Y270807D01*
D02*
G37*
G36*
X393701D02*
X393701Y270807D01*
X374016D01*
X373587Y270721D01*
X373223Y270478D01*
X372980Y270114D01*
X372894Y269685D01*
Y260941D01*
X371146D01*
Y258866D01*
X376886D01*
Y260941D01*
X375137D01*
Y268564D01*
X393236D01*
X395729Y266071D01*
Y258700D01*
X395433D01*
X394981Y258610D01*
X394599Y258354D01*
X394343Y257971D01*
X394253Y257520D01*
Y256405D01*
X396850D01*
Y255906D01*
X397350D01*
Y253111D01*
X398268D01*
X398575Y253172D01*
X399075Y252883D01*
Y249921D01*
X397397D01*
Y246421D01*
X402997D01*
Y249921D01*
X401318D01*
Y255315D01*
X401233Y255744D01*
X400990Y256108D01*
X400990Y256108D01*
X400399Y256699D01*
X400035Y256942D01*
X399606Y257027D01*
X399448Y257477D01*
Y257520D01*
X399358Y257971D01*
X399102Y258354D01*
X398719Y258610D01*
X398268Y258700D01*
X397972D01*
Y266535D01*
X397972Y266535D01*
X397887Y266965D01*
X397643Y267329D01*
X397643Y267329D01*
X394494Y270478D01*
X394130Y270721D01*
X393701Y270807D01*
D02*
G37*
G36*
X157480D02*
X157480Y270807D01*
X137795D01*
X137366Y270721D01*
X137002Y270478D01*
X136759Y270114D01*
X136674Y269685D01*
Y260941D01*
X134925D01*
Y258866D01*
X140665D01*
Y260941D01*
X138917D01*
Y268564D01*
X157016D01*
X159508Y266071D01*
Y258700D01*
X159213D01*
X158761Y258610D01*
X158378Y258354D01*
X158122Y257971D01*
X158032Y257520D01*
Y256405D01*
X160630D01*
Y255906D01*
X161130D01*
Y253111D01*
X162047D01*
X162355Y253172D01*
X162855Y252883D01*
Y249921D01*
X161176D01*
Y246421D01*
X166776D01*
Y249921D01*
X165098D01*
Y255315D01*
X165013Y255744D01*
X164769Y256108D01*
X164769Y256108D01*
X164179Y256699D01*
X163815Y256942D01*
X163386Y257027D01*
X163227Y257477D01*
Y257520D01*
X163138Y257971D01*
X162882Y258354D01*
X162499Y258610D01*
X162047Y258700D01*
X161751D01*
Y266535D01*
X161751Y266535D01*
X161666Y266965D01*
X161423Y267329D01*
X161423Y267329D01*
X158273Y270478D01*
X157910Y270721D01*
X157480Y270807D01*
D02*
G37*
G36*
X399697Y245421D02*
X397397D01*
Y241920D01*
X399697D01*
Y245421D01*
D02*
G37*
G36*
X402997D02*
X400697D01*
Y241920D01*
X402997D01*
Y245421D01*
D02*
G37*
G36*
X88036D02*
X85736D01*
Y241920D01*
X88036D01*
Y245421D01*
D02*
G37*
G36*
X222441Y208123D02*
X221592Y207954D01*
X220873Y207473D01*
X220502Y206919D01*
X207451D01*
X207080Y207473D01*
X206360Y207954D01*
X205512Y208123D01*
X204663Y207954D01*
X203944Y207473D01*
X203463Y206754D01*
X203294Y205906D01*
X203463Y205057D01*
X203944Y204338D01*
X204663Y203857D01*
X205512Y203688D01*
X206360Y203857D01*
X207080Y204338D01*
X207451Y204892D01*
X220502D01*
X220873Y204338D01*
X221592Y203857D01*
X222441Y203688D01*
X223289Y203857D01*
X224009Y204338D01*
X224490Y205057D01*
X224658Y205906D01*
X224490Y206754D01*
X224009Y207473D01*
X223289Y207954D01*
X222441Y208123D01*
D02*
G37*
G36*
X338198Y233671D02*
X331093D01*
Y226959D01*
X333632D01*
Y224380D01*
X333078Y224009D01*
X332597Y223289D01*
X332428Y222441D01*
X332597Y221592D01*
X333078Y220873D01*
X333797Y220392D01*
X334646Y220223D01*
X335494Y220392D01*
X336214Y220873D01*
X336694Y221592D01*
X336863Y222441D01*
X336694Y223289D01*
X336214Y224009D01*
X335659Y224380D01*
Y226959D01*
X338198D01*
Y233671D01*
D02*
G37*
G36*
X47728Y205693D02*
X47196Y205623D01*
X46235Y205224D01*
X45409Y204591D01*
X44776Y203765D01*
X44377Y202803D01*
X44307Y202272D01*
X47728D01*
Y205693D01*
D02*
G37*
G36*
Y201272D02*
X44307D01*
X44377Y200740D01*
X44776Y199778D01*
X45409Y198952D01*
X46235Y198319D01*
X47196Y197921D01*
X47728Y197851D01*
Y201272D01*
D02*
G37*
G36*
X224410Y203005D02*
X223561Y202836D01*
X222842Y202355D01*
X222471Y201801D01*
X204695D01*
X204324Y202355D01*
X203605Y202836D01*
X202756Y203005D01*
X201907Y202836D01*
X201188Y202355D01*
X200707Y201636D01*
X200538Y200787D01*
X200707Y199939D01*
X201188Y199220D01*
X201907Y198739D01*
X202756Y198570D01*
X203605Y198739D01*
X204324Y199220D01*
X204695Y199774D01*
X222471D01*
X222842Y199220D01*
X223561Y198739D01*
X224410Y198570D01*
X225258Y198739D01*
X225977Y199220D01*
X226458Y199939D01*
X226627Y200787D01*
X226458Y201636D01*
X225977Y202355D01*
X225258Y202836D01*
X224410Y203005D01*
D02*
G37*
G36*
X416939Y233671D02*
X409833D01*
Y226959D01*
X412373D01*
Y224380D01*
X411818Y224009D01*
X411337Y223289D01*
X411168Y222441D01*
X411337Y221592D01*
X411818Y220873D01*
X412537Y220392D01*
X413386Y220223D01*
X414234Y220392D01*
X414954Y220873D01*
X415435Y221592D01*
X415603Y222441D01*
X415435Y223289D01*
X414954Y224009D01*
X414399Y224380D01*
Y226959D01*
X416939D01*
Y233671D01*
D02*
G37*
G36*
X413386Y257139D02*
X412537Y256970D01*
X411818Y256489D01*
X411337Y255770D01*
X411168Y254921D01*
X411337Y254073D01*
X411818Y253353D01*
X412373Y252983D01*
Y245482D01*
X409833D01*
Y238770D01*
X416939D01*
Y245482D01*
X414399D01*
Y252983D01*
X414954Y253353D01*
X415435Y254073D01*
X415603Y254921D01*
X415435Y255770D01*
X414954Y256489D01*
X414234Y256970D01*
X413386Y257139D01*
D02*
G37*
G36*
X84736Y245421D02*
X82436D01*
Y241920D01*
X84736D01*
Y245421D01*
D02*
G37*
G36*
X334646Y257139D02*
X333797Y256970D01*
X333078Y256489D01*
X332597Y255770D01*
X332428Y254921D01*
X332597Y254073D01*
X333078Y253353D01*
X333632Y252983D01*
Y245482D01*
X331093D01*
Y238770D01*
X338198D01*
Y245482D01*
X335659D01*
Y252983D01*
X336214Y253353D01*
X336694Y254073D01*
X336863Y254921D01*
X336694Y255770D01*
X336214Y256489D01*
X335494Y256970D01*
X334646Y257139D01*
D02*
G37*
G36*
X259458Y233671D02*
X252353D01*
Y226959D01*
X254892D01*
Y226348D01*
X254338Y225977D01*
X253857Y225258D01*
X253688Y224410D01*
X253857Y223561D01*
X254338Y222842D01*
X255057Y222361D01*
X255906Y222192D01*
X256754Y222361D01*
X257473Y222842D01*
X257954Y223561D01*
X258123Y224410D01*
X257954Y225258D01*
X257473Y225977D01*
X256919Y226348D01*
Y226959D01*
X259458D01*
Y233671D01*
D02*
G37*
G36*
X98425Y253202D02*
X97577Y253033D01*
X96857Y252552D01*
X96377Y251833D01*
X96208Y250984D01*
X96377Y250136D01*
X96810Y249487D01*
Y245482D01*
X94872D01*
Y238770D01*
X101978D01*
Y245482D01*
X100040D01*
Y249487D01*
X100474Y250136D01*
X100643Y250984D01*
X100474Y251833D01*
X99993Y252552D01*
X99274Y253033D01*
X98425Y253202D01*
D02*
G37*
G36*
X84736Y166680D02*
X82436D01*
Y163180D01*
X84736D01*
Y166680D01*
D02*
G37*
G36*
Y87940D02*
X82436D01*
Y84440D01*
X84736D01*
Y87940D01*
D02*
G37*
G36*
X88036D02*
X85736D01*
Y84440D01*
X88036D01*
Y87940D01*
D02*
G37*
G36*
X413386Y99658D02*
X412537Y99490D01*
X411818Y99009D01*
X411337Y98290D01*
X411168Y97441D01*
X411337Y96592D01*
X411818Y95873D01*
X412373Y95502D01*
Y88002D01*
X409833D01*
Y81290D01*
X416939D01*
Y88002D01*
X414399D01*
Y95502D01*
X414954Y95873D01*
X415435Y96592D01*
X415603Y97441D01*
X415435Y98290D01*
X414954Y99009D01*
X414234Y99490D01*
X413386Y99658D01*
D02*
G37*
G36*
X98425Y95721D02*
X97577Y95553D01*
X96857Y95072D01*
X96377Y94353D01*
X96208Y93504D01*
X96377Y92655D01*
X96810Y92007D01*
Y88002D01*
X94872D01*
Y81290D01*
X101978D01*
Y88002D01*
X100040D01*
Y92007D01*
X100474Y92655D01*
X100643Y93504D01*
X100474Y94353D01*
X99993Y95072D01*
X99274Y95553D01*
X98425Y95721D01*
D02*
G37*
G36*
X334646Y99658D02*
X333797Y99490D01*
X333078Y99009D01*
X332597Y98290D01*
X332428Y97441D01*
X332597Y96592D01*
X333078Y95873D01*
X333632Y95502D01*
Y88002D01*
X331093D01*
Y81290D01*
X338198D01*
Y88002D01*
X335659D01*
Y95502D01*
X336214Y95873D01*
X336694Y96592D01*
X336863Y97441D01*
X336694Y98290D01*
X336214Y99009D01*
X335494Y99490D01*
X334646Y99658D01*
D02*
G37*
G36*
X163476Y87940D02*
X161176D01*
Y84440D01*
X163476D01*
Y87940D01*
D02*
G37*
G36*
X320957D02*
X318657D01*
Y84440D01*
X320957D01*
Y87940D01*
D02*
G37*
G36*
X324257D02*
X321957D01*
Y84440D01*
X324257D01*
Y87940D01*
D02*
G37*
G36*
X245516D02*
X243216D01*
Y84440D01*
X245516D01*
Y87940D01*
D02*
G37*
G36*
X166776D02*
X164476D01*
Y84440D01*
X166776D01*
Y87940D01*
D02*
G37*
G36*
X242216D02*
X239916D01*
Y84440D01*
X242216D01*
Y87940D01*
D02*
G37*
G36*
X279512Y50681D02*
X276091D01*
Y47260D01*
X276622Y47330D01*
X277584Y47728D01*
X278410Y48362D01*
X279043Y49188D01*
X279442Y50149D01*
X279512Y50681D01*
D02*
G37*
G36*
X196350Y55102D02*
X195818Y55032D01*
X194857Y54634D01*
X194031Y54000D01*
X193398Y53175D01*
X192999Y52213D01*
X192929Y51681D01*
X196350D01*
Y55102D01*
D02*
G37*
G36*
X275091Y50681D02*
X271670D01*
X271740Y50149D01*
X272138Y49188D01*
X272771Y48362D01*
X273597Y47728D01*
X274559Y47330D01*
X275091Y47260D01*
Y50681D01*
D02*
G37*
G36*
X196350D02*
X192929D01*
X192999Y50149D01*
X193398Y49188D01*
X194031Y48362D01*
X194857Y47728D01*
X195818Y47330D01*
X196350Y47260D01*
Y50681D01*
D02*
G37*
G36*
X200771D02*
X197350D01*
Y47260D01*
X197882Y47330D01*
X198844Y47728D01*
X199670Y48362D01*
X200303Y49188D01*
X200701Y50149D01*
X200771Y50681D01*
D02*
G37*
G36*
X197350Y55102D02*
Y51681D01*
X200771D01*
X200701Y52213D01*
X200303Y53175D01*
X199670Y54000D01*
X198844Y54634D01*
X197882Y55032D01*
X197350Y55102D01*
D02*
G37*
G36*
X259458Y76191D02*
X252353D01*
Y69479D01*
X254892D01*
Y68868D01*
X254338Y68497D01*
X253857Y67778D01*
X253688Y66929D01*
X253857Y66081D01*
X254338Y65361D01*
X255057Y64881D01*
X255906Y64712D01*
X256754Y64881D01*
X257473Y65361D01*
X257954Y66081D01*
X258123Y66929D01*
X257954Y67778D01*
X257473Y68497D01*
X256919Y68868D01*
Y69479D01*
X259458D01*
Y76191D01*
D02*
G37*
G36*
X405512Y80958D02*
X404663Y80789D01*
X403944Y80308D01*
X403463Y79589D01*
X403294Y78740D01*
X403463Y77892D01*
X403944Y77172D01*
X404663Y76692D01*
X405512Y76523D01*
X406360Y76692D01*
X407080Y77172D01*
X407450Y77727D01*
X410998D01*
X412034Y76691D01*
X411827Y76191D01*
X409833D01*
Y69479D01*
X416939D01*
Y76191D01*
X414399D01*
Y76772D01*
X414322Y77159D01*
X414102Y77488D01*
X412134Y79457D01*
X411805Y79676D01*
X411417Y79753D01*
X407450D01*
X407080Y80308D01*
X406360Y80789D01*
X405512Y80958D01*
D02*
G37*
G36*
X338198Y76191D02*
X331093D01*
Y69479D01*
X333632D01*
Y67883D01*
X333078Y67513D01*
X332597Y66793D01*
X332428Y65945D01*
X332597Y65096D01*
X333078Y64377D01*
X333797Y63896D01*
X334646Y63727D01*
X335494Y63896D01*
X336214Y64377D01*
X336694Y65096D01*
X336863Y65945D01*
X336694Y66793D01*
X336214Y67513D01*
X335659Y67883D01*
Y69479D01*
X338198D01*
Y76191D01*
D02*
G37*
G36*
X275091Y55102D02*
X274559Y55032D01*
X273597Y54634D01*
X272771Y54000D01*
X272138Y53175D01*
X271740Y52213D01*
X271670Y51681D01*
X275091D01*
Y55102D01*
D02*
G37*
G36*
X276091D02*
Y51681D01*
X279512D01*
X279442Y52213D01*
X279043Y53175D01*
X278410Y54000D01*
X277584Y54634D01*
X276622Y55032D01*
X276091Y55102D01*
D02*
G37*
G36*
X399697Y87940D02*
X397397D01*
Y84440D01*
X399697D01*
Y87940D01*
D02*
G37*
G36*
X213583Y134107D02*
X212734Y133938D01*
X212015Y133458D01*
X211644Y132903D01*
X64961D01*
X64573Y132826D01*
X64244Y132606D01*
X60694Y129056D01*
X60039Y129186D01*
X59191Y129017D01*
X58471Y128536D01*
X57991Y127817D01*
X57822Y126969D01*
X57991Y126120D01*
X58471Y125400D01*
X59191Y124920D01*
X60039Y124751D01*
X60888Y124920D01*
X61607Y125400D01*
X62088Y126120D01*
X62257Y126969D01*
X62127Y127623D01*
X65380Y130877D01*
X211644D01*
X212015Y130322D01*
X212734Y129841D01*
X213583Y129672D01*
X214431Y129841D01*
X215151Y130322D01*
X215631Y131041D01*
X215800Y131890D01*
X215631Y132738D01*
X215151Y133458D01*
X214431Y133938D01*
X213583Y134107D01*
D02*
G37*
G36*
X275590Y144859D02*
X274781Y144753D01*
X274027Y144440D01*
X273380Y143943D01*
X272883Y143296D01*
X272570Y142542D01*
X272464Y141732D01*
X272570Y140923D01*
X272883Y140169D01*
X273380Y139521D01*
X274027Y139024D01*
X274781Y138712D01*
X275590Y138605D01*
X276400Y138712D01*
X277154Y139024D01*
X277801Y139521D01*
X278298Y140169D01*
X278611Y140923D01*
X278717Y141732D01*
X278611Y142542D01*
X278298Y143296D01*
X277801Y143943D01*
X277154Y144440D01*
X276400Y144753D01*
X275590Y144859D01*
D02*
G37*
G36*
X222441Y129383D02*
X221592Y129214D01*
X220873Y128733D01*
X220502Y128179D01*
X207451D01*
X207080Y128733D01*
X206360Y129214D01*
X205512Y129383D01*
X204663Y129214D01*
X203944Y128733D01*
X203463Y128014D01*
X203294Y127165D01*
X203463Y126317D01*
X203944Y125597D01*
X204663Y125117D01*
X205512Y124948D01*
X206360Y125117D01*
X207080Y125597D01*
X207451Y126152D01*
X220502D01*
X220873Y125597D01*
X221592Y125117D01*
X222441Y124948D01*
X223289Y125117D01*
X224009Y125597D01*
X224490Y126317D01*
X224658Y127165D01*
X224490Y128014D01*
X224009Y128733D01*
X223289Y129214D01*
X222441Y129383D01*
D02*
G37*
G36*
X275590Y109426D02*
X274781Y109319D01*
X274027Y109007D01*
X273380Y108510D01*
X272883Y107863D01*
X272570Y107108D01*
X272464Y106299D01*
X272570Y105490D01*
X272883Y104736D01*
X273380Y104088D01*
X274027Y103591D01*
X274781Y103279D01*
X275590Y103173D01*
X276400Y103279D01*
X277154Y103591D01*
X277801Y104088D01*
X278298Y104736D01*
X278611Y105490D01*
X278717Y106299D01*
X278611Y107108D01*
X278298Y107863D01*
X277801Y108510D01*
X277154Y109007D01*
X276400Y109319D01*
X275590Y109426D01*
D02*
G37*
G36*
Y121237D02*
X274781Y121130D01*
X274027Y120818D01*
X273380Y120321D01*
X272883Y119674D01*
X272655Y119123D01*
X255876D01*
X255505Y119678D01*
X254786Y120159D01*
X253937Y120328D01*
X253088Y120159D01*
X252369Y119678D01*
X251888Y118959D01*
X251720Y118110D01*
X251888Y117262D01*
X252369Y116542D01*
X253088Y116062D01*
X253937Y115893D01*
X254786Y116062D01*
X255505Y116542D01*
X255876Y117097D01*
X272655D01*
X272883Y116547D01*
X273380Y115899D01*
X274027Y115402D01*
X274781Y115090D01*
X275590Y114983D01*
X276400Y115090D01*
X277154Y115402D01*
X277801Y115899D01*
X278298Y116547D01*
X278611Y117301D01*
X278717Y118110D01*
X278611Y118920D01*
X278298Y119674D01*
X277801Y120321D01*
X277154Y120818D01*
X276400Y121130D01*
X275590Y121237D01*
D02*
G37*
G36*
X338198Y154931D02*
X331093D01*
Y148219D01*
X333632D01*
Y146624D01*
X333078Y146253D01*
X332597Y145534D01*
X332428Y144685D01*
X332597Y143836D01*
X333078Y143117D01*
X333797Y142636D01*
X334646Y142468D01*
X335494Y142636D01*
X336214Y143117D01*
X336694Y143836D01*
X336863Y144685D01*
X336694Y145534D01*
X336214Y146253D01*
X335659Y146624D01*
Y148219D01*
X338198D01*
Y154931D01*
D02*
G37*
G36*
X135827Y197964D02*
X135401Y197879D01*
X135281Y197799D01*
X135039Y197638D01*
X135039Y197638D01*
X127165Y189764D01*
X126924Y189402D01*
X126839Y188976D01*
Y173690D01*
X105838Y152688D01*
X101978D01*
Y154931D01*
X94872D01*
Y148219D01*
X101978D01*
Y150461D01*
X106299D01*
X106725Y150546D01*
X107087Y150787D01*
X128740Y172441D01*
X128740Y172441D01*
X128981Y172802D01*
X129066Y173228D01*
Y188515D01*
X136288Y195737D01*
X166862D01*
X176052Y186547D01*
Y166742D01*
X173613D01*
Y160030D01*
X180718D01*
Y166742D01*
X178279D01*
Y187008D01*
X178279Y187008D01*
X178194Y187434D01*
X178114Y187554D01*
X177953Y187795D01*
X177953Y187795D01*
X168110Y197638D01*
X167749Y197879D01*
X167323Y197964D01*
X135827D01*
X135827Y197964D01*
D02*
G37*
G36*
X338198Y166742D02*
X331093D01*
Y160030D01*
X338198D01*
Y162272D01*
X363823D01*
X363898Y162091D01*
X364310Y161554D01*
X364846Y161142D01*
X365471Y160883D01*
X366142Y160795D01*
X366812Y160883D01*
X367437Y161142D01*
X367974Y161554D01*
X368385Y162091D01*
X368644Y162715D01*
X368732Y163386D01*
X368644Y164056D01*
X368385Y164681D01*
X367974Y165218D01*
X367437Y165629D01*
X366812Y165888D01*
X366142Y165977D01*
X365471Y165888D01*
X364846Y165629D01*
X364310Y165218D01*
X363898Y164681D01*
X363823Y164499D01*
X338198D01*
Y166742D01*
D02*
G37*
G36*
X98425Y174461D02*
X97577Y174293D01*
X96857Y173812D01*
X96377Y173093D01*
X96208Y172244D01*
X96377Y171396D01*
X96810Y170747D01*
Y166742D01*
X94872D01*
Y160030D01*
X101978D01*
Y166742D01*
X100040D01*
Y170747D01*
X100474Y171396D01*
X100643Y172244D01*
X100474Y173093D01*
X99993Y173812D01*
X99274Y174293D01*
X98425Y174461D01*
D02*
G37*
G36*
X416939Y154931D02*
X409833D01*
Y148219D01*
X412373D01*
Y146624D01*
X411818Y146253D01*
X411337Y145534D01*
X411168Y144685D01*
X411337Y143836D01*
X411818Y143117D01*
X412537Y142636D01*
X413386Y142468D01*
X414234Y142636D01*
X414954Y143117D01*
X415435Y143836D01*
X415603Y144685D01*
X415435Y145534D01*
X414954Y146253D01*
X414399Y146624D01*
Y148219D01*
X416939D01*
Y154931D01*
D02*
G37*
G36*
X259458D02*
X252353D01*
Y148219D01*
X254892D01*
Y147608D01*
X254338Y147237D01*
X253857Y146518D01*
X253688Y145669D01*
X253857Y144821D01*
X254338Y144101D01*
X255057Y143621D01*
X255906Y143452D01*
X256754Y143621D01*
X257473Y144101D01*
X257954Y144821D01*
X258123Y145669D01*
X257954Y146518D01*
X257473Y147237D01*
X256919Y147608D01*
Y148219D01*
X259458D01*
Y154931D01*
D02*
G37*
G36*
X314961Y113326D02*
X314961Y113326D01*
X295276D01*
X294846Y113241D01*
X294482Y112998D01*
X294239Y112634D01*
X294154Y112205D01*
Y103461D01*
X292406D01*
Y101386D01*
X298146D01*
Y103461D01*
X296397D01*
Y111083D01*
X314496D01*
X316989Y108591D01*
Y101219D01*
X316693D01*
X316241Y101130D01*
X315858Y100874D01*
X315603Y100491D01*
X315513Y100039D01*
Y98925D01*
X318110D01*
Y98425D01*
X318610D01*
Y95631D01*
X319528D01*
X319835Y95692D01*
X320335Y95403D01*
Y92440D01*
X318657D01*
Y88940D01*
X324257D01*
Y92440D01*
X322578D01*
Y97835D01*
X322493Y98264D01*
X322250Y98628D01*
X322250Y98628D01*
X321659Y99218D01*
X321295Y99461D01*
X320866Y99547D01*
X320708Y99997D01*
Y100039D01*
X320618Y100491D01*
X320362Y100874D01*
X319979Y101130D01*
X319528Y101219D01*
X319232D01*
Y109055D01*
X319232Y109055D01*
X319146Y109484D01*
X318903Y109848D01*
X318903Y109848D01*
X315754Y112998D01*
X315390Y113241D01*
X314961Y113326D01*
D02*
G37*
G36*
X393701D02*
X393701Y113326D01*
X374016D01*
X373587Y113241D01*
X373223Y112998D01*
X372980Y112634D01*
X372894Y112205D01*
Y103461D01*
X371146D01*
Y101386D01*
X376886D01*
Y103461D01*
X375137D01*
Y111083D01*
X393236D01*
X395729Y108591D01*
Y101219D01*
X395433D01*
X394981Y101130D01*
X394599Y100874D01*
X394343Y100491D01*
X394253Y100039D01*
Y98925D01*
X396850D01*
Y98425D01*
X397350D01*
Y95631D01*
X398268D01*
X398575Y95692D01*
X399075Y95403D01*
Y92440D01*
X397397D01*
Y88940D01*
X402997D01*
Y92440D01*
X401318D01*
Y97835D01*
X401233Y98264D01*
X400990Y98628D01*
X400990Y98628D01*
X400399Y99218D01*
X400035Y99461D01*
X399606Y99547D01*
X399448Y99997D01*
Y100039D01*
X399358Y100491D01*
X399102Y100874D01*
X398719Y101130D01*
X398268Y101219D01*
X397972D01*
Y109055D01*
X397972Y109055D01*
X397887Y109484D01*
X397643Y109848D01*
X397643Y109848D01*
X394494Y112998D01*
X394130Y113241D01*
X393701Y113326D01*
D02*
G37*
G36*
X157480D02*
X157480Y113326D01*
X137795D01*
X137366Y113241D01*
X137002Y112998D01*
X136759Y112634D01*
X136674Y112205D01*
Y103461D01*
X134925D01*
Y101386D01*
X140665D01*
Y103461D01*
X138917D01*
Y111083D01*
X157016D01*
X159508Y108591D01*
Y101219D01*
X159213D01*
X158761Y101130D01*
X158378Y100874D01*
X158122Y100491D01*
X158032Y100039D01*
Y98925D01*
X160630D01*
Y98425D01*
X161130D01*
Y95631D01*
X162047D01*
X162355Y95692D01*
X162855Y95403D01*
Y92440D01*
X161176D01*
Y88940D01*
X166776D01*
Y92440D01*
X165098D01*
Y97835D01*
X165013Y98264D01*
X164769Y98628D01*
X164769Y98628D01*
X164179Y99218D01*
X163815Y99461D01*
X163386Y99547D01*
X163227Y99997D01*
Y100039D01*
X163138Y100491D01*
X162882Y100874D01*
X162499Y101130D01*
X162047Y101219D01*
X161751D01*
Y109055D01*
X161751Y109055D01*
X161666Y109484D01*
X161423Y109848D01*
X161423Y109848D01*
X158273Y112998D01*
X157910Y113241D01*
X157480Y113326D01*
D02*
G37*
G36*
X402997Y87940D02*
X400697D01*
Y84440D01*
X402997D01*
Y87940D01*
D02*
G37*
G36*
X78740Y113326D02*
X78740Y113326D01*
X59055D01*
X58626Y113241D01*
X58262Y112998D01*
X58019Y112634D01*
X57934Y112205D01*
Y103461D01*
X56185D01*
Y101386D01*
X61925D01*
Y103461D01*
X60177D01*
Y111083D01*
X78276D01*
X80768Y108591D01*
Y101219D01*
X80472D01*
X80021Y101130D01*
X79638Y100874D01*
X79382Y100491D01*
X79292Y100039D01*
Y98925D01*
X81890D01*
Y98425D01*
X82390D01*
Y95631D01*
X83307D01*
X83615Y95692D01*
X84115Y95403D01*
Y92440D01*
X82436D01*
Y88940D01*
X88036D01*
Y92440D01*
X86358D01*
Y97835D01*
X86272Y98264D01*
X86029Y98628D01*
X86029Y98628D01*
X85439Y99218D01*
X85075Y99461D01*
X84646Y99547D01*
X84487Y99997D01*
Y100039D01*
X84397Y100491D01*
X84142Y100874D01*
X83759Y101130D01*
X83307Y101219D01*
X83011D01*
Y109055D01*
X83011Y109055D01*
X82926Y109484D01*
X82683Y109848D01*
X82683Y109848D01*
X79533Y112998D01*
X79169Y113241D01*
X78740Y113326D01*
D02*
G37*
G36*
X393701Y92769D02*
X392852Y92600D01*
X392133Y92119D01*
X391652Y91400D01*
X391483Y90551D01*
X391614Y89897D01*
X391170Y89453D01*
X389601D01*
Y92040D01*
X384801D01*
Y84840D01*
X389601D01*
Y87427D01*
X391590D01*
X391978Y87504D01*
X392306Y87724D01*
X393046Y88464D01*
X393701Y88334D01*
X394549Y88503D01*
X395269Y88983D01*
X395749Y89703D01*
X395918Y90551D01*
X395749Y91400D01*
X395269Y92119D01*
X394549Y92600D01*
X393701Y92769D01*
D02*
G37*
G36*
X317610Y97925D02*
X315513D01*
Y96811D01*
X315603Y96359D01*
X315858Y95977D01*
X316241Y95721D01*
X316693Y95631D01*
X317610D01*
Y97925D01*
D02*
G37*
G36*
X396350D02*
X394253D01*
Y96811D01*
X394343Y96359D01*
X394599Y95977D01*
X394981Y95721D01*
X395433Y95631D01*
X396350D01*
Y97925D01*
D02*
G37*
G36*
X238870D02*
X236773D01*
Y96811D01*
X236862Y96359D01*
X237118Y95977D01*
X237501Y95721D01*
X237953Y95631D01*
X238870D01*
Y97925D01*
D02*
G37*
G36*
X81390D02*
X79292D01*
Y96811D01*
X79382Y96359D01*
X79638Y95977D01*
X80021Y95721D01*
X80472Y95631D01*
X81390D01*
Y97925D01*
D02*
G37*
G36*
X160130D02*
X158032D01*
Y96811D01*
X158122Y96359D01*
X158378Y95977D01*
X158761Y95721D01*
X159213Y95631D01*
X160130D01*
Y97925D01*
D02*
G37*
G36*
X81390Y255405D02*
X79292D01*
Y254291D01*
X79382Y253840D01*
X79638Y253457D01*
X80021Y253201D01*
X80472Y253111D01*
X81390D01*
Y255405D01*
D02*
G37*
G36*
X334646Y415603D02*
X333797Y415435D01*
X333078Y414954D01*
X332597Y414234D01*
X332428Y413386D01*
X332597Y412537D01*
X333030Y411889D01*
Y402962D01*
X331093D01*
Y396250D01*
X338198D01*
Y402962D01*
X336261D01*
Y411889D01*
X336694Y412537D01*
X336863Y413386D01*
X336694Y414234D01*
X336214Y414954D01*
X335494Y415435D01*
X334646Y415603D01*
D02*
G37*
G36*
X84736Y402901D02*
X82436D01*
Y399401D01*
X84736D01*
Y402901D01*
D02*
G37*
G36*
X170276Y431232D02*
X132874D01*
X132448Y431147D01*
X132087Y430905D01*
X127165Y425984D01*
X126924Y425623D01*
X126839Y425197D01*
Y409910D01*
X105838Y388909D01*
X101978D01*
Y391151D01*
X94872D01*
Y384439D01*
X101978D01*
Y386682D01*
X106299D01*
X106725Y386767D01*
X107087Y387008D01*
X128740Y408661D01*
X128740Y408662D01*
X128981Y409023D01*
X129066Y409449D01*
Y424736D01*
X133335Y429005D01*
X169814D01*
X176052Y422767D01*
Y402962D01*
X173613D01*
Y396250D01*
X180718D01*
Y402962D01*
X178279D01*
Y423228D01*
X178194Y423655D01*
X177953Y424016D01*
X171063Y430905D01*
X170702Y431147D01*
X170276Y431232D01*
D02*
G37*
G36*
X52083Y390740D02*
X49713D01*
Y388665D01*
X52083D01*
Y390740D01*
D02*
G37*
G36*
X98425Y415603D02*
X97577Y415435D01*
X96857Y414954D01*
X96377Y414234D01*
X96208Y413386D01*
X96377Y412537D01*
X96810Y411889D01*
Y402962D01*
X94872D01*
Y396250D01*
X101978D01*
Y402962D01*
X100040D01*
Y411889D01*
X100474Y412537D01*
X100643Y413386D01*
X100474Y414234D01*
X99993Y414954D01*
X99274Y415435D01*
X98425Y415603D01*
D02*
G37*
G36*
X88036Y402901D02*
X85736D01*
Y399401D01*
X88036D01*
Y402901D01*
D02*
G37*
G36*
X245516D02*
X243216D01*
Y399401D01*
X245516D01*
Y402901D01*
D02*
G37*
G36*
X320957D02*
X318657D01*
Y399401D01*
X320957D01*
Y402901D01*
D02*
G37*
G36*
X242216D02*
X239916D01*
Y399401D01*
X242216D01*
Y402901D01*
D02*
G37*
G36*
X163476D02*
X161176D01*
Y399401D01*
X163476D01*
Y402901D01*
D02*
G37*
G36*
X166776D02*
X164476D01*
Y399401D01*
X166776D01*
Y402901D01*
D02*
G37*
G36*
X159441Y367602D02*
X158909Y367532D01*
X157948Y367134D01*
X157122Y366500D01*
X156488Y365674D01*
X156090Y364713D01*
X156020Y364181D01*
X159441D01*
Y367602D01*
D02*
G37*
G36*
X160441D02*
Y364181D01*
X163862D01*
X163792Y364713D01*
X163394Y365674D01*
X162760Y366500D01*
X161934Y367134D01*
X160973Y367532D01*
X160441Y367602D01*
D02*
G37*
G36*
X400082Y363181D02*
X396661D01*
Y359760D01*
X397193Y359830D01*
X398155Y360228D01*
X398980Y360862D01*
X399614Y361688D01*
X400012Y362649D01*
X400082Y363181D01*
D02*
G37*
G36*
X163862D02*
X160441D01*
Y359760D01*
X160973Y359830D01*
X161934Y360228D01*
X162760Y360862D01*
X163394Y361688D01*
X163792Y362649D01*
X163862Y363181D01*
D02*
G37*
G36*
X395661D02*
X392240D01*
X392310Y362649D01*
X392709Y361688D01*
X393342Y360862D01*
X394168Y360228D01*
X395129Y359830D01*
X395661Y359760D01*
Y363181D01*
D02*
G37*
G36*
Y367602D02*
X395129Y367532D01*
X394168Y367134D01*
X393342Y366500D01*
X392709Y365674D01*
X392310Y364713D01*
X392240Y364181D01*
X395661D01*
Y367602D01*
D02*
G37*
G36*
X416939Y391151D02*
X409833D01*
Y384439D01*
X412373D01*
Y382844D01*
X411818Y382473D01*
X411337Y381754D01*
X411168Y380906D01*
X411337Y380057D01*
X411818Y379338D01*
X412537Y378857D01*
X413386Y378688D01*
X414234Y378857D01*
X414954Y379338D01*
X415435Y380057D01*
X415603Y380906D01*
X415435Y381754D01*
X414954Y382473D01*
X414399Y382844D01*
Y384439D01*
X416939D01*
Y391151D01*
D02*
G37*
G36*
X259458D02*
X252353D01*
Y384439D01*
X254892D01*
Y383828D01*
X254338Y383458D01*
X253857Y382738D01*
X253688Y381890D01*
X253857Y381041D01*
X254338Y380322D01*
X255057Y379841D01*
X255906Y379672D01*
X256754Y379841D01*
X257473Y380322D01*
X257954Y381041D01*
X258123Y381890D01*
X257954Y382738D01*
X257473Y383458D01*
X256919Y383828D01*
Y384439D01*
X259458D01*
Y391151D01*
D02*
G37*
G36*
X196850Y381080D02*
X196041Y380973D01*
X195287Y380661D01*
X194639Y380164D01*
X194143Y379516D01*
X193830Y378762D01*
X193724Y377953D01*
X193830Y377144D01*
X194143Y376389D01*
X194639Y375742D01*
X195287Y375245D01*
X196041Y374933D01*
X196850Y374826D01*
X197660Y374933D01*
X198414Y375245D01*
X199061Y375742D01*
X199558Y376389D01*
X199871Y377144D01*
X199977Y377953D01*
X199871Y378762D01*
X199558Y379516D01*
X199061Y380164D01*
X198414Y380661D01*
X197660Y380973D01*
X196850Y381080D01*
D02*
G37*
G36*
X396661Y367602D02*
Y364181D01*
X400082D01*
X400012Y364713D01*
X399614Y365674D01*
X398980Y366500D01*
X398155Y367134D01*
X397193Y367532D01*
X396661Y367602D01*
D02*
G37*
G36*
X338198Y391151D02*
X331093D01*
Y384439D01*
X333632D01*
Y377923D01*
X333078Y377552D01*
X332597Y376833D01*
X332428Y375984D01*
X332597Y375136D01*
X333078Y374416D01*
X333797Y373936D01*
X334646Y373767D01*
X335494Y373936D01*
X336214Y374416D01*
X336694Y375136D01*
X336863Y375984D01*
X336694Y376833D01*
X336214Y377552D01*
X335659Y377923D01*
Y384439D01*
X338198D01*
Y391151D01*
D02*
G37*
G36*
X324257Y402901D02*
X321957D01*
Y399401D01*
X324257D01*
Y402901D01*
D02*
G37*
G36*
X196350Y420760D02*
X192929D01*
X192999Y420228D01*
X193398Y419266D01*
X194031Y418441D01*
X194857Y417807D01*
X195818Y417409D01*
X196350Y417339D01*
Y420760D01*
D02*
G37*
G36*
X200771D02*
X197350D01*
Y417339D01*
X197882Y417409D01*
X198844Y417807D01*
X199670Y418441D01*
X200303Y419266D01*
X200701Y420228D01*
X200771Y420760D01*
D02*
G37*
G36*
X391968Y415772D02*
X389134D01*
X388838Y415714D01*
X388588Y415546D01*
X388420Y415296D01*
X388362Y415000D01*
Y414507D01*
X385827D01*
X385827Y414507D01*
X385398Y414422D01*
X385034Y414179D01*
X385034Y414179D01*
X381097Y410242D01*
X380854Y409878D01*
X380768Y409449D01*
X380768Y409449D01*
Y399606D01*
X380768Y399606D01*
X380854Y399177D01*
X381097Y398813D01*
X386386Y393524D01*
X386221Y392982D01*
X386044Y392948D01*
X384606Y394386D01*
X384278Y394605D01*
X383890Y394683D01*
X377251D01*
X376978Y395069D01*
X376978Y395182D01*
Y400600D01*
X375137D01*
Y401677D01*
X375584Y401975D01*
X376064Y402695D01*
X376233Y403543D01*
X376064Y404392D01*
X375584Y405111D01*
X375137Y405409D01*
Y408750D01*
X376486D01*
Y412772D01*
X376486Y413030D01*
X376513Y413047D01*
X376523Y413053D01*
X376886Y413272D01*
Y413272D01*
X376886Y413309D01*
X376886Y413312D01*
X376886Y413316D01*
Y413316D01*
Y413322D01*
X376886Y413323D01*
X376886Y413333D01*
Y413334D01*
Y413339D01*
Y413340D01*
Y413341D01*
Y413341D01*
D01*
X376886Y413812D01*
Y415346D01*
X371146D01*
Y413341D01*
X371146Y413341D01*
X371146D01*
Y413341D01*
Y413272D01*
X371518Y413047D01*
X371518Y413047D01*
X371524Y413043D01*
X371546Y413030D01*
X371546Y412772D01*
Y408750D01*
X372894D01*
Y405409D01*
X372448Y405111D01*
X371967Y404392D01*
X371798Y403543D01*
X371967Y402695D01*
X372448Y401975D01*
X372894Y401677D01*
Y400600D01*
X371054D01*
Y395182D01*
X371054Y395069D01*
X370780Y394683D01*
X325254D01*
X323551Y396386D01*
X323222Y396605D01*
X322835Y396683D01*
X311443D01*
X309474Y398652D01*
Y399801D01*
X310861D01*
Y407001D01*
X306061D01*
Y399801D01*
X307448D01*
Y398232D01*
X307525Y397845D01*
X307744Y397516D01*
X309628Y395632D01*
X309462Y395090D01*
X309286Y395056D01*
X304271Y400071D01*
Y408984D01*
X307551Y412264D01*
X309621D01*
Y411772D01*
X309680Y411476D01*
X309848Y411226D01*
X310098Y411058D01*
X310394Y410999D01*
X313228D01*
X313524Y411058D01*
X313774Y411226D01*
X313942Y411476D01*
X314001Y411772D01*
Y415000D01*
X313942Y415296D01*
X313774Y415546D01*
X313524Y415714D01*
X313228Y415772D01*
X310394D01*
X310098Y415714D01*
X309848Y415546D01*
X309680Y415296D01*
X309621Y415000D01*
Y414507D01*
X307087D01*
X307087Y414507D01*
X306657Y414422D01*
X306294Y414179D01*
X306294Y414179D01*
X302357Y410242D01*
X302113Y409878D01*
X302028Y409449D01*
X302028Y409449D01*
Y399606D01*
X302028Y399606D01*
X302113Y399177D01*
X302357Y398813D01*
X307646Y393524D01*
X307481Y392982D01*
X307304Y392948D01*
X305866Y394386D01*
X305537Y394605D01*
X305150Y394683D01*
X298511D01*
X298238Y395069D01*
X298238Y395182D01*
Y400600D01*
X296397D01*
Y401677D01*
X296844Y401975D01*
X297324Y402695D01*
X297493Y403543D01*
X297324Y404392D01*
X296844Y405111D01*
X296397Y405409D01*
Y408750D01*
X297746D01*
Y412772D01*
X297746Y413030D01*
X297773Y413047D01*
X297783Y413053D01*
X298146Y413272D01*
Y413272D01*
X298146Y413309D01*
X298146Y413312D01*
X298146Y413316D01*
Y413316D01*
Y413322D01*
X298146Y413323D01*
X298146Y413333D01*
Y413334D01*
Y413339D01*
Y413340D01*
Y413341D01*
Y413341D01*
D01*
X298146Y413812D01*
Y415346D01*
X292406D01*
Y413341D01*
X292406Y413341D01*
X292406D01*
Y413341D01*
Y413272D01*
X292778Y413047D01*
X292778Y413047D01*
X292784Y413043D01*
X292806Y413030D01*
X292806Y412772D01*
Y408750D01*
X294154D01*
Y405409D01*
X293708Y405111D01*
X293227Y404392D01*
X293058Y403543D01*
X293227Y402695D01*
X293708Y401975D01*
X294154Y401677D01*
Y400600D01*
X292313D01*
Y395182D01*
X292313Y395069D01*
X292040Y394683D01*
X246514D01*
X244811Y396386D01*
X244482Y396605D01*
X244094Y396683D01*
X232703D01*
X230734Y398652D01*
Y399801D01*
X232120D01*
Y407001D01*
X227321D01*
Y399801D01*
X228707D01*
Y398232D01*
X228784Y397845D01*
X229004Y397516D01*
X230888Y395632D01*
X230722Y395090D01*
X230546Y395056D01*
X225531Y400071D01*
Y408984D01*
X228811Y412264D01*
X230881D01*
Y411772D01*
X230940Y411476D01*
X231107Y411226D01*
X231358Y411058D01*
X231653Y410999D01*
X234488D01*
X234784Y411058D01*
X235034Y411226D01*
X235202Y411476D01*
X235261Y411772D01*
Y415000D01*
X235202Y415296D01*
X235034Y415546D01*
X234784Y415714D01*
X234488Y415772D01*
X231653D01*
X231358Y415714D01*
X231107Y415546D01*
X230940Y415296D01*
X230881Y415000D01*
Y414507D01*
X228346D01*
X228346Y414507D01*
X227917Y414422D01*
X227553Y414179D01*
X227553Y414179D01*
X223616Y410242D01*
X223373Y409878D01*
X223288Y409449D01*
X223288Y409449D01*
Y399606D01*
X223288Y399606D01*
X223373Y399177D01*
X223616Y398813D01*
X228906Y393524D01*
X228741Y392982D01*
X228564Y392948D01*
X227126Y394386D01*
X227107Y394398D01*
X227094Y394417D01*
X226766Y394637D01*
X226378Y394714D01*
X219847D01*
X219498Y395069D01*
X219498Y395214D01*
Y400600D01*
X217657D01*
Y401677D01*
X218103Y401975D01*
X218584Y402695D01*
X218753Y403543D01*
X218584Y404392D01*
X218103Y405111D01*
X217657Y405409D01*
Y408750D01*
X219005D01*
Y412772D01*
X219005Y413030D01*
X219033Y413047D01*
X219043Y413053D01*
X219406Y413272D01*
Y413272D01*
X219406Y413309D01*
X219406Y413312D01*
X219406Y413316D01*
Y413316D01*
Y413322D01*
X219406Y413323D01*
X219406Y413333D01*
Y413334D01*
Y413339D01*
Y413340D01*
Y413341D01*
Y413341D01*
D01*
X219406Y413812D01*
Y415346D01*
X213665D01*
Y413341D01*
X213665Y413341D01*
X213665D01*
Y413341D01*
Y413272D01*
X214038Y413047D01*
X214038Y413047D01*
X214044Y413043D01*
X214065Y413030D01*
X214065Y412772D01*
Y408750D01*
X215414D01*
Y405409D01*
X214967Y405111D01*
X214487Y404392D01*
X214318Y403543D01*
X214487Y402695D01*
X214967Y401975D01*
X215414Y401677D01*
Y400600D01*
X213573D01*
Y395214D01*
X213573Y395069D01*
X213224Y394714D01*
X198819D01*
X198431Y394637D01*
X198102Y394417D01*
X180683Y376997D01*
X173648D01*
X172273Y378372D01*
Y389764D01*
X172196Y390152D01*
X171976Y390480D01*
X166071Y396386D01*
X165742Y396605D01*
X165354Y396683D01*
X153963D01*
X151994Y398652D01*
Y399801D01*
X153380D01*
Y407001D01*
X148580D01*
Y399801D01*
X149967D01*
Y398232D01*
X150044Y397845D01*
X150264Y397516D01*
X152147Y395632D01*
X151982Y395090D01*
X151806Y395056D01*
X146791Y400071D01*
Y408984D01*
X150071Y412264D01*
X152141D01*
Y411772D01*
X152200Y411476D01*
X152367Y411226D01*
X152618Y411058D01*
X152913Y410999D01*
X155748D01*
X156044Y411058D01*
X156294Y411226D01*
X156462Y411476D01*
X156520Y411772D01*
Y415000D01*
X156462Y415296D01*
X156294Y415546D01*
X156044Y415714D01*
X155748Y415772D01*
X152913D01*
X152618Y415714D01*
X152367Y415546D01*
X152200Y415296D01*
X152141Y415000D01*
Y414507D01*
X149606D01*
X149606Y414507D01*
X149177Y414422D01*
X148813Y414179D01*
X148813Y414179D01*
X144876Y410242D01*
X144633Y409878D01*
X144548Y409449D01*
X144548Y409449D01*
Y399606D01*
X144548Y399606D01*
X144633Y399177D01*
X144876Y398813D01*
X150166Y393524D01*
X150000Y392982D01*
X149824Y392948D01*
X148386Y394386D01*
X148367Y394398D01*
X148354Y394417D01*
X148026Y394637D01*
X147638Y394714D01*
X141107D01*
X140758Y395069D01*
X140758Y395214D01*
Y400600D01*
X138808D01*
Y401605D01*
X139363Y401975D01*
X139844Y402695D01*
X140013Y403543D01*
X139844Y404392D01*
X139363Y405111D01*
X138808Y405482D01*
Y408750D01*
X140265D01*
Y412772D01*
X140265Y413030D01*
X140293Y413047D01*
X140303Y413053D01*
X140665Y413272D01*
Y413272D01*
X140665Y413309D01*
X140665Y413312D01*
X140665Y413316D01*
Y413316D01*
Y413322D01*
X140665Y413323D01*
X140665Y413333D01*
Y413334D01*
Y413339D01*
Y413340D01*
Y413341D01*
Y413341D01*
D01*
X140665Y413812D01*
Y415346D01*
X134925D01*
Y413341D01*
X134925Y413341D01*
X134925D01*
Y413341D01*
Y413272D01*
X135298Y413047D01*
X135298Y413047D01*
X135304Y413043D01*
X135325Y413030D01*
X135325Y412772D01*
Y408750D01*
X136782D01*
Y405482D01*
X136227Y405111D01*
X135747Y404392D01*
X135578Y403543D01*
X135747Y402695D01*
X136227Y401975D01*
X136782Y401605D01*
Y400600D01*
X134833D01*
Y395214D01*
X134833Y395069D01*
X134484Y394714D01*
X120079D01*
X119691Y394637D01*
X119362Y394417D01*
X101943Y376997D01*
X94908D01*
X93533Y378372D01*
Y389764D01*
X93456Y390152D01*
X93236Y390480D01*
X87331Y396386D01*
X87002Y396605D01*
X86614Y396683D01*
X75223D01*
X73253Y398652D01*
Y399801D01*
X74640D01*
Y407001D01*
X69840D01*
Y399801D01*
X71227D01*
Y398232D01*
X71304Y397845D01*
X71524Y397516D01*
X74087Y394953D01*
X74415Y394733D01*
X74803Y394656D01*
X86194D01*
X91506Y389344D01*
Y377953D01*
X91584Y377565D01*
X91803Y377236D01*
X93511Y375529D01*
X93304Y375029D01*
X89002D01*
X86249Y377782D01*
Y380455D01*
X87636D01*
Y387655D01*
X82836D01*
Y380455D01*
X84223D01*
Y377362D01*
X84300Y376975D01*
X84520Y376646D01*
X87866Y373299D01*
X88195Y373080D01*
X88583Y373003D01*
X127953D01*
X128340Y373080D01*
X128669Y373299D01*
X129267Y373897D01*
X129921Y373767D01*
X130770Y373936D01*
X131489Y374416D01*
X131970Y375136D01*
X132139Y375984D01*
X131970Y376833D01*
X131489Y377552D01*
X130770Y378033D01*
X129921Y378202D01*
X129073Y378033D01*
X128353Y377552D01*
X127873Y376833D01*
X127704Y375984D01*
X127818Y375411D01*
X127480Y375029D01*
X103547D01*
X103340Y375529D01*
X120498Y392688D01*
X134484D01*
X134833Y392332D01*
Y386802D01*
X136674D01*
Y375984D01*
X136759Y375555D01*
X137002Y375191D01*
X137366Y374948D01*
X137795Y374863D01*
X155614D01*
X155912Y374416D01*
X156632Y373936D01*
X157480Y373767D01*
X158329Y373936D01*
X159048Y374416D01*
X159346Y374863D01*
X169291D01*
X169720Y374948D01*
X170084Y375191D01*
X170327Y375555D01*
X170413Y375984D01*
Y376660D01*
X170913Y376867D01*
X172512Y375268D01*
X172841Y375048D01*
X173228Y374971D01*
X181102D01*
X181490Y375048D01*
X181819Y375268D01*
X199239Y392688D01*
X213224D01*
X213573Y392332D01*
Y386802D01*
X215414D01*
Y375984D01*
X215499Y375555D01*
X215742Y375191D01*
X216106Y374948D01*
X216535Y374863D01*
X242228D01*
X242527Y374416D01*
X243246Y373936D01*
X244094Y373767D01*
X244943Y373936D01*
X245662Y374416D01*
X245961Y374863D01*
X248031D01*
X248461Y374948D01*
X248825Y375191D01*
X249068Y375555D01*
X249153Y375984D01*
Y387795D01*
X249068Y388225D01*
X248825Y388588D01*
X248825Y388588D01*
X243567Y393846D01*
X243732Y394388D01*
X243908Y394423D01*
X245378Y392953D01*
X245707Y392733D01*
X246094Y392656D01*
X291948D01*
X292313Y392332D01*
Y386802D01*
X294154D01*
Y375984D01*
X294239Y375555D01*
X294482Y375191D01*
X294846Y374948D01*
X295276Y374863D01*
X313094D01*
X313393Y374416D01*
X314112Y373936D01*
X314961Y373767D01*
X315809Y373936D01*
X316529Y374416D01*
X316827Y374863D01*
X326772D01*
X327201Y374948D01*
X327565Y375191D01*
X327808Y375555D01*
X327893Y375984D01*
Y387795D01*
X327808Y388225D01*
X327565Y388588D01*
X327565Y388588D01*
X322307Y393846D01*
X322472Y394388D01*
X322649Y394423D01*
X324118Y392953D01*
X324447Y392733D01*
X324835Y392656D01*
X370688D01*
X371054Y392332D01*
Y386802D01*
X372894D01*
Y375984D01*
X372980Y375555D01*
X373223Y375191D01*
X373587Y374948D01*
X374016Y374863D01*
X391835D01*
X392133Y374416D01*
X392852Y373936D01*
X393701Y373767D01*
X394549Y373936D01*
X395269Y374416D01*
X395567Y374863D01*
X405512D01*
X405760Y374912D01*
X406190Y374631D01*
X406249Y374556D01*
X406284Y374252D01*
X403124Y371092D01*
X324239D01*
X322951Y372379D01*
X322622Y372599D01*
X322235Y372676D01*
X268317D01*
X267929Y372599D01*
X267600Y372379D01*
X266313Y371092D01*
X59094D01*
X59062Y371098D01*
X58674Y371021D01*
X58345Y370802D01*
X52433Y364890D01*
X52214Y364561D01*
X52136Y364173D01*
Y316929D01*
X52214Y316541D01*
X52433Y316213D01*
X54433Y314213D01*
X54762Y313993D01*
X55150Y313916D01*
X55727D01*
X56093Y313592D01*
Y308061D01*
X57934D01*
Y297244D01*
X58019Y296815D01*
X58262Y296451D01*
X58626Y296208D01*
X59055Y296123D01*
X76874D01*
X77172Y295676D01*
X77892Y295196D01*
X78740Y295027D01*
X79589Y295196D01*
X80308Y295676D01*
X80606Y296123D01*
X90551D01*
X90980Y296208D01*
X91344Y296451D01*
X91587Y296815D01*
X91673Y297244D01*
Y297920D01*
X92173Y298127D01*
X93772Y296528D01*
X94100Y296308D01*
X94488Y296231D01*
X102362D01*
X102750Y296308D01*
X103079Y296528D01*
X120498Y313948D01*
X134484D01*
X134833Y313592D01*
Y308061D01*
X136674D01*
Y297244D01*
X136759Y296815D01*
X137002Y296451D01*
X137366Y296208D01*
X137795Y296123D01*
X155614D01*
X155912Y295676D01*
X156632Y295196D01*
X157480Y295027D01*
X158329Y295196D01*
X159048Y295676D01*
X159346Y296123D01*
X169291D01*
X169720Y296208D01*
X170084Y296451D01*
X170327Y296815D01*
X170413Y297244D01*
Y297920D01*
X170913Y298127D01*
X172512Y296528D01*
X172841Y296308D01*
X173228Y296231D01*
X181102D01*
X181490Y296308D01*
X181819Y296528D01*
X199239Y313948D01*
X213224D01*
X213573Y313592D01*
Y308061D01*
X215414D01*
Y297244D01*
X215499Y296815D01*
X215742Y296451D01*
X216106Y296208D01*
X216535Y296123D01*
X220575D01*
X220873Y295676D01*
X221592Y295196D01*
X222441Y295027D01*
X223289Y295196D01*
X224009Y295676D01*
X224307Y296123D01*
X248031D01*
X248461Y296208D01*
X248825Y296451D01*
X249068Y296815D01*
X249153Y297244D01*
Y309055D01*
X249068Y309484D01*
X248825Y309848D01*
X248825Y309848D01*
X243567Y315106D01*
X243732Y315648D01*
X243908Y315682D01*
X245378Y314213D01*
X245707Y313993D01*
X246094Y313916D01*
X291948D01*
X292313Y313592D01*
Y308061D01*
X294154D01*
Y297244D01*
X294239Y296815D01*
X294482Y296451D01*
X294846Y296208D01*
X295276Y296123D01*
X313094D01*
X313393Y295676D01*
X314112Y295196D01*
X314961Y295027D01*
X315809Y295196D01*
X316529Y295676D01*
X316827Y296123D01*
X326772D01*
X327201Y296208D01*
X327565Y296451D01*
X327808Y296815D01*
X327893Y297244D01*
Y309055D01*
X327808Y309484D01*
X327565Y309848D01*
X327565Y309848D01*
X322307Y315106D01*
X322472Y315648D01*
X322649Y315682D01*
X324118Y314213D01*
X324447Y313993D01*
X324835Y313916D01*
X370688D01*
X371054Y313592D01*
Y308061D01*
X372894D01*
Y297244D01*
X372980Y296815D01*
X373223Y296451D01*
X373587Y296208D01*
X374016Y296123D01*
X391835D01*
X392133Y295676D01*
X392852Y295196D01*
X393701Y295027D01*
X394549Y295196D01*
X395269Y295676D01*
X395567Y296123D01*
X405512D01*
X405760Y296172D01*
X406190Y295890D01*
X406249Y295816D01*
X406284Y295512D01*
X405092Y294320D01*
X57087D01*
X56699Y294243D01*
X56370Y294023D01*
X52433Y290087D01*
X52214Y289758D01*
X52136Y289370D01*
Y282703D01*
X51840Y282575D01*
X51636Y282563D01*
X51047Y283331D01*
X50222Y283964D01*
X49260Y284363D01*
X48728Y284433D01*
Y280512D01*
Y276591D01*
X49260Y276661D01*
X50222Y277059D01*
X51047Y277693D01*
X51636Y278460D01*
X51840Y278449D01*
X52136Y278320D01*
Y238189D01*
X52214Y237801D01*
X52433Y237473D01*
X54433Y235473D01*
X54762Y235253D01*
X55150Y235176D01*
X55727D01*
X56093Y234852D01*
Y229321D01*
X57934D01*
Y218504D01*
X58019Y218075D01*
X58262Y217711D01*
X58626Y217468D01*
X59055Y217382D01*
X76874D01*
X77172Y216936D01*
X77892Y216455D01*
X78740Y216286D01*
X79589Y216455D01*
X80308Y216936D01*
X80606Y217382D01*
X90551D01*
X90980Y217468D01*
X91344Y217711D01*
X91587Y218075D01*
X91673Y218504D01*
Y219179D01*
X92173Y219387D01*
X93772Y217788D01*
X94100Y217568D01*
X94488Y217491D01*
X102362D01*
X102750Y217568D01*
X103079Y217788D01*
X120498Y235207D01*
X134484D01*
X134833Y234852D01*
Y229321D01*
X136674D01*
Y218504D01*
X136759Y218075D01*
X137002Y217711D01*
X137366Y217468D01*
X137795Y217382D01*
X155614D01*
X155912Y216936D01*
X156632Y216455D01*
X157480Y216286D01*
X158329Y216455D01*
X159048Y216936D01*
X159346Y217382D01*
X169291D01*
X169720Y217468D01*
X170084Y217711D01*
X170327Y218075D01*
X170413Y218504D01*
Y219179D01*
X170913Y219387D01*
X172512Y217788D01*
X172841Y217568D01*
X173228Y217491D01*
X181102D01*
X181490Y217568D01*
X181819Y217788D01*
X199239Y235207D01*
X213224D01*
X213573Y234852D01*
Y229321D01*
X215414D01*
Y218504D01*
X215499Y218075D01*
X215742Y217711D01*
X216106Y217468D01*
X216535Y217382D01*
X221559D01*
X221857Y216936D01*
X222577Y216455D01*
X223425Y216286D01*
X224274Y216455D01*
X224993Y216936D01*
X225291Y217382D01*
X248031D01*
X248461Y217468D01*
X248825Y217711D01*
X249068Y218075D01*
X249153Y218504D01*
Y230315D01*
X249068Y230744D01*
X248825Y231108D01*
X248825Y231108D01*
X243567Y236366D01*
X243732Y236908D01*
X243908Y236942D01*
X245378Y235473D01*
X245707Y235253D01*
X246094Y235176D01*
X291948D01*
X292313Y234852D01*
Y229321D01*
X294154D01*
Y218504D01*
X294239Y218075D01*
X294482Y217711D01*
X294846Y217468D01*
X295276Y217382D01*
X313094D01*
X313393Y216936D01*
X314112Y216455D01*
X314961Y216286D01*
X315809Y216455D01*
X316529Y216936D01*
X316827Y217382D01*
X326772D01*
X327201Y217468D01*
X327565Y217711D01*
X327808Y218075D01*
X327893Y218504D01*
Y230315D01*
X327808Y230744D01*
X327565Y231108D01*
X327565Y231108D01*
X322307Y236366D01*
X322472Y236908D01*
X322649Y236942D01*
X324118Y235473D01*
X324447Y235253D01*
X324835Y235176D01*
X370688D01*
X371054Y234852D01*
Y229321D01*
X372894D01*
Y218504D01*
X372980Y218075D01*
X373223Y217711D01*
X373587Y217468D01*
X374016Y217382D01*
X391835D01*
X392133Y216936D01*
X392852Y216455D01*
X393701Y216286D01*
X394549Y216455D01*
X395269Y216936D01*
X395567Y217382D01*
X405512D01*
X405760Y217432D01*
X406190Y217150D01*
X406249Y217075D01*
X406284Y216772D01*
X405092Y215580D01*
X57087D01*
X56699Y215503D01*
X56370Y215283D01*
X52433Y211346D01*
X52214Y211018D01*
X52136Y210630D01*
Y203963D01*
X51840Y203834D01*
X51636Y203823D01*
X51047Y204591D01*
X50222Y205224D01*
X49260Y205623D01*
X48728Y205693D01*
Y201772D01*
Y197851D01*
X49260Y197921D01*
X50222Y198319D01*
X51047Y198952D01*
X51636Y199720D01*
X51840Y199709D01*
X52136Y199580D01*
Y159449D01*
X52214Y159061D01*
X52433Y158732D01*
X54433Y156732D01*
X54762Y156513D01*
X55150Y156436D01*
X55727D01*
X56093Y156112D01*
Y150581D01*
X57934D01*
Y139764D01*
X58019Y139335D01*
X58262Y138971D01*
X58626Y138728D01*
X59055Y138642D01*
X76874D01*
X77172Y138196D01*
X77892Y137715D01*
X78740Y137546D01*
X79589Y137715D01*
X80308Y138196D01*
X80606Y138642D01*
X90551D01*
X90980Y138728D01*
X91344Y138971D01*
X91587Y139335D01*
X91673Y139764D01*
Y140439D01*
X92173Y140646D01*
X93772Y139047D01*
X94100Y138828D01*
X94488Y138751D01*
X102362D01*
X102750Y138828D01*
X103079Y139047D01*
X120498Y156467D01*
X134484D01*
X134833Y156112D01*
Y150581D01*
X136674D01*
Y139764D01*
X136759Y139335D01*
X137002Y138971D01*
X137366Y138728D01*
X137795Y138642D01*
X155614D01*
X155912Y138196D01*
X156632Y137715D01*
X157480Y137546D01*
X158329Y137715D01*
X159048Y138196D01*
X159346Y138642D01*
X169291D01*
X169720Y138728D01*
X170084Y138971D01*
X170327Y139335D01*
X170413Y139764D01*
Y140439D01*
X170913Y140646D01*
X172512Y139047D01*
X172841Y138828D01*
X173228Y138751D01*
X181102D01*
X181490Y138828D01*
X181819Y139047D01*
X199239Y156467D01*
X213224D01*
X213573Y156112D01*
Y150581D01*
X215414D01*
Y139764D01*
X215499Y139335D01*
X215742Y138971D01*
X216106Y138728D01*
X216535Y138642D01*
X234354D01*
X234652Y138196D01*
X235372Y137715D01*
X236221Y137546D01*
X237069Y137715D01*
X237788Y138196D01*
X238087Y138642D01*
X248031D01*
X248461Y138728D01*
X248825Y138971D01*
X249068Y139335D01*
X249153Y139764D01*
Y151575D01*
X249068Y152004D01*
X248825Y152368D01*
X248825Y152368D01*
X243567Y157626D01*
X243732Y158168D01*
X243908Y158202D01*
X245378Y156732D01*
X245707Y156513D01*
X246094Y156436D01*
X291948D01*
X292313Y156112D01*
Y150581D01*
X294154D01*
Y139764D01*
X294239Y139335D01*
X294482Y138971D01*
X294846Y138728D01*
X295276Y138642D01*
X313094D01*
X313393Y138196D01*
X314112Y137715D01*
X314961Y137546D01*
X315809Y137715D01*
X316529Y138196D01*
X316827Y138642D01*
X326772D01*
X327201Y138728D01*
X327565Y138971D01*
X327808Y139335D01*
X327893Y139764D01*
Y151575D01*
X327808Y152004D01*
X327565Y152368D01*
X327565Y152368D01*
X322307Y157626D01*
X322472Y158168D01*
X322649Y158202D01*
X324118Y156732D01*
X324447Y156513D01*
X324835Y156436D01*
X370688D01*
X371054Y156112D01*
Y150581D01*
X372894D01*
Y139764D01*
X372980Y139335D01*
X373223Y138971D01*
X373587Y138728D01*
X374016Y138642D01*
X391835D01*
X392133Y138196D01*
X392852Y137715D01*
X393701Y137546D01*
X394549Y137715D01*
X395269Y138196D01*
X395567Y138642D01*
X405512D01*
X405760Y138691D01*
X406190Y138410D01*
X406249Y138335D01*
X406284Y138032D01*
X405092Y136840D01*
X57087D01*
X56699Y136763D01*
X56370Y136543D01*
X52433Y132606D01*
X52214Y132278D01*
X52136Y131890D01*
Y80709D01*
X52214Y80321D01*
X52433Y79992D01*
X54433Y77992D01*
X54762Y77773D01*
X55150Y77696D01*
X55727D01*
X56093Y77372D01*
Y71841D01*
X57934D01*
Y70866D01*
X57934Y70866D01*
X58019Y70437D01*
X58262Y70073D01*
X60395Y67941D01*
X60167Y67461D01*
X59055Y67570D01*
X57394Y67406D01*
X55797Y66922D01*
X54324Y66135D01*
X53034Y65076D01*
X51975Y63786D01*
X51188Y62314D01*
X50704Y60716D01*
X50540Y59055D01*
X50704Y57394D01*
X51188Y55797D01*
X51975Y54324D01*
X53034Y53034D01*
X54324Y51975D01*
X55797Y51188D01*
X57394Y50704D01*
X59055Y50540D01*
X60716Y50704D01*
X62314Y51188D01*
X63786Y51975D01*
X65076Y53034D01*
X66135Y54324D01*
X66922Y55797D01*
X67406Y57394D01*
X67570Y59055D01*
X67406Y60716D01*
X66922Y62314D01*
X66508Y63089D01*
X66913Y63390D01*
X70073Y60231D01*
X70073Y60231D01*
X70437Y59987D01*
X70866Y59902D01*
X70866Y59902D01*
X76874D01*
X77172Y59456D01*
X77892Y58975D01*
X78740Y58806D01*
X79589Y58975D01*
X80308Y59456D01*
X80606Y59902D01*
X90551D01*
X90980Y59987D01*
X91344Y60231D01*
X91587Y60594D01*
X91673Y61024D01*
Y61699D01*
X92173Y61906D01*
X93772Y60307D01*
X94100Y60088D01*
X94488Y60010D01*
X102362D01*
X102750Y60088D01*
X103079Y60307D01*
X120498Y77727D01*
X134484D01*
X134833Y77372D01*
Y71841D01*
X136674D01*
Y61024D01*
X136759Y60594D01*
X137002Y60231D01*
X137366Y59987D01*
X137795Y59902D01*
X155614D01*
X155912Y59456D01*
X156632Y58975D01*
X157480Y58806D01*
X158329Y58975D01*
X159048Y59456D01*
X159346Y59902D01*
X169291D01*
X169720Y59987D01*
X170084Y60231D01*
X170327Y60594D01*
X170413Y61024D01*
Y61699D01*
X170913Y61906D01*
X172512Y60307D01*
X172841Y60088D01*
X173228Y60010D01*
X181102D01*
X181490Y60088D01*
X181819Y60307D01*
X199239Y77727D01*
X213224D01*
X213573Y77372D01*
Y71841D01*
X215414D01*
Y61024D01*
X215499Y60594D01*
X215742Y60231D01*
X216106Y59987D01*
X216535Y59902D01*
X234354D01*
X234652Y59456D01*
X235372Y58975D01*
X236221Y58806D01*
X237069Y58975D01*
X237788Y59456D01*
X238087Y59902D01*
X248031D01*
X248461Y59987D01*
X248825Y60231D01*
X249068Y60594D01*
X249153Y61024D01*
Y72835D01*
X249068Y73264D01*
X248825Y73628D01*
X248825Y73628D01*
X243567Y78886D01*
X243732Y79427D01*
X243908Y79462D01*
X245378Y77992D01*
X245707Y77773D01*
X246094Y77696D01*
X291948D01*
X292313Y77372D01*
Y71841D01*
X294154D01*
Y61024D01*
X294239Y60594D01*
X294482Y60231D01*
X294846Y59987D01*
X295276Y59902D01*
X313094D01*
X313393Y59456D01*
X314112Y58975D01*
X314961Y58806D01*
X315809Y58975D01*
X316529Y59456D01*
X316827Y59902D01*
X326772D01*
X327201Y59987D01*
X327565Y60231D01*
X327808Y60594D01*
X327893Y61024D01*
Y72835D01*
X327808Y73264D01*
X327565Y73628D01*
X327565Y73628D01*
X322307Y78886D01*
X322472Y79427D01*
X322649Y79462D01*
X324118Y77992D01*
X324447Y77773D01*
X324835Y77696D01*
X370688D01*
X371054Y77372D01*
Y71841D01*
X372894D01*
Y61024D01*
X372980Y60594D01*
X373223Y60231D01*
X373587Y59987D01*
X374016Y59902D01*
X391835D01*
X392133Y59456D01*
X392852Y58975D01*
X393701Y58806D01*
X394549Y58975D01*
X395269Y59456D01*
X395567Y59902D01*
X401575D01*
X401575Y59902D01*
X402004Y59987D01*
X402368Y60231D01*
X405527Y63390D01*
X405933Y63089D01*
X405519Y62314D01*
X405034Y60716D01*
X404871Y59055D01*
X405034Y57394D01*
X405519Y55797D01*
X406306Y54324D01*
X407365Y53034D01*
X408655Y51975D01*
X410127Y51188D01*
X411725Y50704D01*
X413386Y50540D01*
X415047Y50704D01*
X416644Y51188D01*
X418117Y51975D01*
X419407Y53034D01*
X420466Y54324D01*
X421253Y55797D01*
X421737Y57394D01*
X421901Y59055D01*
X421737Y60716D01*
X421253Y62314D01*
X420466Y63786D01*
X419407Y65076D01*
X418117Y66135D01*
X416644Y66922D01*
X415047Y67406D01*
X413386Y67570D01*
X411725Y67406D01*
X410127Y66922D01*
X408655Y66135D01*
X407365Y65076D01*
X407103Y64757D01*
X406657Y64951D01*
X406633Y64973D01*
Y72835D01*
X406548Y73264D01*
X406305Y73628D01*
X406305Y73628D01*
X400399Y79533D01*
X400035Y79776D01*
X399606Y79862D01*
X399606Y79862D01*
X388260D01*
X383011Y85110D01*
Y94024D01*
X386291Y97304D01*
X388362D01*
Y96811D01*
X388420Y96516D01*
X388588Y96265D01*
X388838Y96097D01*
X389134Y96039D01*
X391968D01*
X392264Y96097D01*
X392515Y96265D01*
X392682Y96516D01*
X392741Y96811D01*
Y100039D01*
X392682Y100335D01*
X392515Y100585D01*
X392264Y100753D01*
X391968Y100812D01*
X389134D01*
X388838Y100753D01*
X388588Y100585D01*
X388420Y100335D01*
X388362Y100039D01*
Y99547D01*
X385827D01*
X385827Y99547D01*
X385398Y99461D01*
X385034Y99218D01*
X385034Y99218D01*
X381097Y95281D01*
X380854Y94917D01*
X380768Y94488D01*
X380768Y94488D01*
Y84646D01*
X380768Y84646D01*
X380854Y84216D01*
X381097Y83853D01*
X386386Y78563D01*
X386221Y78021D01*
X386044Y77987D01*
X384606Y79425D01*
X384278Y79645D01*
X383890Y79722D01*
X377251D01*
X376978Y80109D01*
X376978Y80222D01*
Y85639D01*
X375137D01*
Y87701D01*
X375584Y87999D01*
X376064Y88718D01*
X376233Y89567D01*
X376064Y90416D01*
X375584Y91135D01*
X375137Y91433D01*
Y93790D01*
X376486D01*
Y97811D01*
X376486Y98070D01*
X376513Y98086D01*
X376523Y98092D01*
X376886Y98311D01*
Y98311D01*
X376886Y98348D01*
X376886Y98352D01*
X376886Y98355D01*
Y98355D01*
Y98361D01*
X376886Y98362D01*
X376886Y98372D01*
Y98373D01*
Y98378D01*
Y98380D01*
Y98381D01*
Y98381D01*
D01*
X376886Y98852D01*
Y100386D01*
X371146D01*
Y98381D01*
X371146Y98381D01*
X371146D01*
Y98381D01*
Y98311D01*
X371518Y98086D01*
X371518Y98086D01*
X371524Y98083D01*
X371546Y98070D01*
X371546Y97811D01*
Y93790D01*
X372894D01*
Y91433D01*
X372448Y91135D01*
X371967Y90416D01*
X371798Y89567D01*
X371967Y88718D01*
X372448Y87999D01*
X372894Y87701D01*
Y85639D01*
X371054D01*
Y80222D01*
X371054Y80109D01*
X370780Y79722D01*
X325254D01*
X323551Y81425D01*
X323222Y81645D01*
X322835Y81722D01*
X311443D01*
X309474Y83691D01*
Y84840D01*
X310861D01*
Y92040D01*
X306061D01*
Y84840D01*
X307448D01*
Y83272D01*
X307525Y82884D01*
X307744Y82555D01*
X309628Y80672D01*
X309462Y80130D01*
X309286Y80095D01*
X304271Y85110D01*
Y94024D01*
X307551Y97304D01*
X309621D01*
Y96811D01*
X309680Y96516D01*
X309848Y96265D01*
X310098Y96097D01*
X310394Y96039D01*
X313228D01*
X313524Y96097D01*
X313774Y96265D01*
X313942Y96516D01*
X314001Y96811D01*
Y100039D01*
X313942Y100335D01*
X313774Y100585D01*
X313524Y100753D01*
X313228Y100812D01*
X310394D01*
X310098Y100753D01*
X309848Y100585D01*
X309680Y100335D01*
X309621Y100039D01*
Y99547D01*
X307087D01*
X307087Y99547D01*
X306657Y99461D01*
X306294Y99218D01*
X306294Y99218D01*
X302357Y95281D01*
X302113Y94917D01*
X302028Y94488D01*
X302028Y94488D01*
Y84646D01*
X302028Y84646D01*
X302113Y84216D01*
X302357Y83853D01*
X307646Y78563D01*
X307481Y78021D01*
X307304Y77987D01*
X305866Y79425D01*
X305537Y79645D01*
X305150Y79722D01*
X298511D01*
X298238Y80109D01*
X298238Y80222D01*
Y85639D01*
X296397D01*
Y90551D01*
Y93790D01*
X297746D01*
Y97811D01*
X297746Y98070D01*
X297773Y98086D01*
X297783Y98092D01*
X298146Y98311D01*
Y98311D01*
X298146Y98348D01*
X298146Y98352D01*
X298146Y98355D01*
Y98355D01*
Y98361D01*
X298146Y98362D01*
X298146Y98372D01*
Y98373D01*
Y98378D01*
Y98380D01*
Y98381D01*
Y98381D01*
D01*
X298146Y98852D01*
Y100386D01*
X292406D01*
Y98381D01*
X292406Y98381D01*
X292406D01*
Y98381D01*
Y98311D01*
X292778Y98086D01*
X292778Y98086D01*
X292784Y98083D01*
X292806Y98070D01*
X292806Y97811D01*
Y93790D01*
X294154D01*
Y91673D01*
X291803D01*
X287539Y95937D01*
Y117228D01*
X287985Y117526D01*
X288466Y118246D01*
X288635Y119095D01*
X288466Y119943D01*
X287985Y120662D01*
X287266Y121143D01*
X286417Y121312D01*
X285569Y121143D01*
X284849Y120662D01*
X284369Y119943D01*
X284200Y119095D01*
X284369Y118246D01*
X284849Y117526D01*
X285296Y117228D01*
Y95473D01*
X285296Y95473D01*
X285381Y95043D01*
X285624Y94679D01*
X290546Y89758D01*
X290546Y89758D01*
X290909Y89515D01*
X291339Y89430D01*
X291339Y89430D01*
X294154D01*
Y85639D01*
X292313D01*
Y80222D01*
X292313Y80109D01*
X292040Y79722D01*
X246514D01*
X244811Y81425D01*
X244482Y81645D01*
X244094Y81722D01*
X232703D01*
X230734Y83691D01*
Y84840D01*
X232120D01*
Y92040D01*
X227321D01*
Y84840D01*
X228707D01*
Y83272D01*
X228784Y82884D01*
X229004Y82555D01*
X230888Y80672D01*
X230722Y80130D01*
X230546Y80095D01*
X225531Y85110D01*
Y94024D01*
X228811Y97304D01*
X230881D01*
Y96811D01*
X230940Y96516D01*
X231107Y96265D01*
X231358Y96097D01*
X231653Y96039D01*
X234488D01*
X234784Y96097D01*
X235034Y96265D01*
X235202Y96516D01*
X235261Y96811D01*
Y100039D01*
X235202Y100335D01*
X235034Y100585D01*
X234784Y100753D01*
X234488Y100812D01*
X231653D01*
X231358Y100753D01*
X231107Y100585D01*
X230940Y100335D01*
X230881Y100039D01*
Y99547D01*
X228346D01*
X228346Y99547D01*
X227917Y99461D01*
X227553Y99218D01*
X227553Y99218D01*
X223616Y95281D01*
X223373Y94917D01*
X223288Y94488D01*
X223288Y94488D01*
Y84646D01*
X223288Y84646D01*
X223373Y84216D01*
X223616Y83853D01*
X228906Y78563D01*
X228741Y78021D01*
X228564Y77987D01*
X227126Y79425D01*
X227107Y79438D01*
X227094Y79457D01*
X226766Y79676D01*
X226378Y79753D01*
X219847D01*
X219498Y80109D01*
X219498Y80253D01*
Y85639D01*
X217657D01*
Y89567D01*
Y93790D01*
X219005D01*
Y98070D01*
X219406Y98311D01*
X219406Y98311D01*
X219406D01*
X219406Y98311D01*
Y100386D01*
X213665D01*
Y98311D01*
X213665D01*
X214065Y98139D01*
Y93790D01*
X215414D01*
Y90580D01*
X214002D01*
X212627Y91955D01*
Y109817D01*
X214914Y112103D01*
X215414Y111896D01*
Y103461D01*
X213665D01*
Y101386D01*
X219406D01*
Y103461D01*
X217657D01*
Y111083D01*
X235756D01*
X238248Y108591D01*
Y101219D01*
X237953D01*
X237501Y101130D01*
X237118Y100874D01*
X236862Y100491D01*
X236773Y100039D01*
Y98925D01*
X239370D01*
Y98425D01*
X239870D01*
Y95631D01*
X240787D01*
X241095Y95692D01*
X241595Y95403D01*
Y92440D01*
X239916D01*
Y88940D01*
X245516D01*
Y92440D01*
X243838D01*
Y97835D01*
X243753Y98264D01*
X243510Y98628D01*
X243510Y98628D01*
X242919Y99218D01*
X242555Y99461D01*
X242126Y99547D01*
X241968Y99997D01*
Y100039D01*
X241878Y100491D01*
X241622Y100874D01*
X241239Y101130D01*
X240787Y101219D01*
X240492D01*
Y109055D01*
X240492Y109055D01*
X240406Y109484D01*
X240163Y109848D01*
X240163Y109848D01*
X237014Y112998D01*
X236650Y113241D01*
X236221Y113326D01*
X236220Y113326D01*
X221482D01*
X221214Y113826D01*
X221537Y114309D01*
X221706Y115157D01*
X221537Y116006D01*
X221209Y116497D01*
X221476Y116997D01*
X245602D01*
X254792Y107807D01*
Y88002D01*
X252353D01*
Y81290D01*
X259458D01*
Y88002D01*
X257019D01*
Y108268D01*
X257019Y108268D01*
X256934Y108694D01*
X256854Y108814D01*
X256693Y109055D01*
X256693Y109055D01*
X246850Y118898D01*
X246489Y119139D01*
X246063Y119224D01*
X214567D01*
X214567Y119224D01*
X214288Y119168D01*
X214136Y119144D01*
X213755Y119482D01*
X213663Y119943D01*
X213268Y120534D01*
X213457Y121034D01*
X222471D01*
X222842Y120479D01*
X223561Y119999D01*
X224410Y119830D01*
X225258Y119999D01*
X225977Y120479D01*
X226458Y121199D01*
X226627Y122047D01*
X226458Y122896D01*
X225977Y123615D01*
X225258Y124096D01*
X224410Y124265D01*
X223561Y124096D01*
X222842Y123615D01*
X222471Y123060D01*
X204695D01*
X204324Y123615D01*
X203605Y124096D01*
X202756Y124265D01*
X201907Y124096D01*
X201188Y123615D01*
X200707Y122896D01*
X200538Y122047D01*
X200707Y121199D01*
X201102Y120608D01*
X200913Y120108D01*
X173198D01*
X172828Y120662D01*
X172108Y121143D01*
X171260Y121312D01*
X170411Y121143D01*
X169692Y120662D01*
X169211Y119943D01*
X169042Y119095D01*
X169147Y118568D01*
X168686Y118321D01*
X168110Y118898D01*
X167749Y119139D01*
X167323Y119224D01*
X135827D01*
X135827Y119224D01*
X135401Y119139D01*
X135281Y119059D01*
X135039Y118898D01*
X135039Y118898D01*
X127165Y111024D01*
X126924Y110662D01*
X126839Y110236D01*
Y94949D01*
X105838Y73948D01*
X101978D01*
Y76191D01*
X94872D01*
Y69479D01*
X101978D01*
Y71721D01*
X106299D01*
X106725Y71806D01*
X107087Y72047D01*
X128740Y93701D01*
X128740Y93701D01*
X128981Y94062D01*
X129066Y94488D01*
Y109775D01*
X136288Y116997D01*
X166862D01*
X176052Y107807D01*
Y88002D01*
X173613D01*
Y81290D01*
X180718D01*
Y88002D01*
X178279D01*
Y108268D01*
X178279Y108268D01*
X178194Y108694D01*
X178114Y108814D01*
X177953Y109055D01*
X177953Y109055D01*
X170487Y116521D01*
X170733Y116982D01*
X171260Y116877D01*
X172108Y117046D01*
X172828Y117526D01*
X173198Y118081D01*
X209676D01*
X210046Y117526D01*
X210766Y117046D01*
X211145Y116970D01*
X211310Y116428D01*
X205906Y111024D01*
X205664Y110662D01*
X205579Y110236D01*
Y94949D01*
X184578Y73948D01*
X180718D01*
Y76191D01*
X173613D01*
Y69479D01*
X180718D01*
Y71721D01*
X185039D01*
X185466Y71806D01*
X185827Y72047D01*
X207480Y93701D01*
X207480Y93701D01*
X207722Y94062D01*
X207806Y94488D01*
Y109775D01*
X215028Y116997D01*
X217465D01*
X217692Y116576D01*
X217437Y116171D01*
X216535D01*
X216148Y116094D01*
X215819Y115874D01*
X210898Y110953D01*
X210678Y110624D01*
X210601Y110236D01*
Y91535D01*
X210678Y91148D01*
X210898Y90819D01*
X212866Y88850D01*
X213195Y88631D01*
X213583Y88554D01*
X215414D01*
Y85639D01*
X213573D01*
Y80253D01*
X213573Y80109D01*
X213224Y79753D01*
X198819D01*
X198431Y79676D01*
X198102Y79457D01*
X180683Y62037D01*
X173648D01*
X172273Y63412D01*
Y74803D01*
X172196Y75191D01*
X171976Y75520D01*
X166071Y81425D01*
X165742Y81645D01*
X165354Y81722D01*
X153963D01*
X151994Y83691D01*
Y84840D01*
X153380D01*
Y92040D01*
X148580D01*
Y84840D01*
X149967D01*
Y83272D01*
X150044Y82884D01*
X150264Y82555D01*
X152147Y80672D01*
X151982Y80130D01*
X151806Y80095D01*
X146791Y85110D01*
Y94024D01*
X150071Y97304D01*
X152141D01*
Y96811D01*
X152200Y96516D01*
X152367Y96265D01*
X152618Y96097D01*
X152913Y96039D01*
X155748D01*
X156044Y96097D01*
X156294Y96265D01*
X156462Y96516D01*
X156520Y96811D01*
Y100039D01*
X156462Y100335D01*
X156294Y100585D01*
X156044Y100753D01*
X155748Y100812D01*
X152913D01*
X152618Y100753D01*
X152367Y100585D01*
X152200Y100335D01*
X152141Y100039D01*
Y99547D01*
X149606D01*
X149606Y99547D01*
X149177Y99461D01*
X148813Y99218D01*
X148813Y99218D01*
X144876Y95281D01*
X144633Y94917D01*
X144548Y94488D01*
X144548Y94488D01*
Y84646D01*
X144548Y84646D01*
X144633Y84216D01*
X144876Y83853D01*
X150165Y78563D01*
X150000Y78021D01*
X149824Y77987D01*
X148386Y79425D01*
X148367Y79438D01*
X148354Y79457D01*
X148026Y79676D01*
X147638Y79753D01*
X141107D01*
X140758Y80109D01*
X140758Y80253D01*
Y85639D01*
X138917D01*
Y87701D01*
X139363Y87999D01*
X139844Y88718D01*
X140013Y89567D01*
X139844Y90416D01*
X139363Y91135D01*
X138917Y91433D01*
Y93790D01*
X140265D01*
Y97811D01*
X140265Y98070D01*
X140293Y98086D01*
X140303Y98092D01*
X140665Y98311D01*
Y98311D01*
X140665Y98348D01*
X140665Y98352D01*
X140665Y98355D01*
Y98355D01*
Y98361D01*
X140665Y98362D01*
X140665Y98372D01*
Y98373D01*
Y98378D01*
Y98380D01*
Y98381D01*
Y98381D01*
D01*
X140665Y98852D01*
Y100386D01*
X134925D01*
Y98381D01*
X134925Y98381D01*
X134925D01*
Y98381D01*
Y98311D01*
X135298Y98086D01*
X135298Y98086D01*
X135304Y98083D01*
X135325Y98070D01*
X135325Y97811D01*
Y93790D01*
X136674D01*
Y91433D01*
X136227Y91135D01*
X135747Y90416D01*
X135578Y89567D01*
X135747Y88718D01*
X136227Y87999D01*
X136674Y87701D01*
Y85639D01*
X134833D01*
Y80253D01*
X134833Y80109D01*
X134484Y79753D01*
X120079D01*
X119691Y79676D01*
X119362Y79457D01*
X101943Y62037D01*
X94908D01*
X93533Y63412D01*
Y74803D01*
X93456Y75191D01*
X93236Y75520D01*
X87331Y81425D01*
X87002Y81645D01*
X86614Y81722D01*
X75223D01*
X73253Y83691D01*
Y84840D01*
X74640D01*
Y92040D01*
X69840D01*
Y84840D01*
X71227D01*
Y83272D01*
X71304Y82884D01*
X71524Y82555D01*
X73407Y80672D01*
X73242Y80130D01*
X73066Y80095D01*
X68051Y85110D01*
Y94002D01*
X68422Y94334D01*
X68898Y94239D01*
X69746Y94408D01*
X70466Y94889D01*
X70946Y95608D01*
X71115Y96457D01*
X71021Y96932D01*
X71352Y97304D01*
X73401D01*
Y96811D01*
X73460Y96516D01*
X73627Y96265D01*
X73878Y96097D01*
X74173Y96039D01*
X77008D01*
X77303Y96097D01*
X77554Y96265D01*
X77721Y96516D01*
X77780Y96811D01*
Y100039D01*
X77721Y100335D01*
X77554Y100585D01*
X77303Y100753D01*
X77008Y100812D01*
X74173D01*
X73878Y100753D01*
X73627Y100585D01*
X73460Y100335D01*
X73401Y100039D01*
Y99547D01*
X70866D01*
X70437Y99461D01*
X70073Y99218D01*
X70073Y99218D01*
X69424Y98569D01*
X68898Y98674D01*
X68049Y98505D01*
X67330Y98025D01*
X66849Y97305D01*
X66680Y96457D01*
X66785Y95930D01*
X66136Y95281D01*
X65893Y94917D01*
X65808Y94488D01*
X65808Y94488D01*
Y84646D01*
X65808Y84646D01*
X65893Y84216D01*
X66136Y83853D01*
X71425Y78563D01*
X71260Y78021D01*
X71084Y77987D01*
X69646Y79425D01*
X69317Y79645D01*
X68929Y79722D01*
X62291D01*
X62017Y80109D01*
X62017Y80222D01*
Y85639D01*
X60177D01*
Y88685D01*
X60623Y88983D01*
X61104Y89703D01*
X61273Y90551D01*
X61104Y91400D01*
X60623Y92119D01*
X60177Y92417D01*
Y93790D01*
X61525D01*
Y97811D01*
X61525Y98070D01*
X61553Y98086D01*
X61563Y98092D01*
X61925Y98311D01*
Y98311D01*
X61925Y98348D01*
X61925Y98352D01*
X61925Y98355D01*
Y98355D01*
Y98361D01*
X61925Y98362D01*
X61925Y98372D01*
Y98373D01*
Y98378D01*
Y98380D01*
Y98381D01*
Y98381D01*
D01*
X61925Y98852D01*
Y100386D01*
X56185D01*
Y98381D01*
X56185Y98381D01*
X56185D01*
Y98381D01*
Y98311D01*
X56558Y98086D01*
X56558Y98086D01*
X56564Y98083D01*
X56585Y98070D01*
X56585Y97811D01*
Y93790D01*
X57934D01*
Y92417D01*
X57487Y92119D01*
X57007Y91400D01*
X56838Y90551D01*
X57007Y89703D01*
X57487Y88983D01*
X57934Y88685D01*
Y85639D01*
X56093D01*
Y80222D01*
X56093Y80109D01*
X55977Y79945D01*
X55387Y79904D01*
X54163Y81128D01*
Y131470D01*
X57506Y134814D01*
X249800D01*
X250007Y134314D01*
X247315Y131622D01*
X247095Y131293D01*
X247018Y130905D01*
Y127953D01*
X247095Y127565D01*
X247315Y127236D01*
X251252Y123299D01*
X251581Y123080D01*
X251969Y123003D01*
X251998D01*
X252369Y122448D01*
X253088Y121967D01*
X253937Y121798D01*
X254786Y121967D01*
X255505Y122448D01*
X255986Y123167D01*
X256154Y124016D01*
X255986Y124864D01*
X255505Y125584D01*
X254786Y126064D01*
X253937Y126233D01*
X253088Y126064D01*
X252369Y125584D01*
X251881Y125536D01*
X249045Y128372D01*
Y130486D01*
X251404Y132845D01*
X273487D01*
X273657Y132345D01*
X273380Y132132D01*
X272883Y131485D01*
X272655Y130934D01*
X255876D01*
X255505Y131489D01*
X254786Y131970D01*
X253937Y132139D01*
X253088Y131970D01*
X252369Y131489D01*
X251888Y130770D01*
X251720Y129921D01*
X251888Y129073D01*
X252369Y128353D01*
X253088Y127873D01*
X253937Y127704D01*
X254786Y127873D01*
X255505Y128353D01*
X255876Y128908D01*
X272655D01*
X272883Y128358D01*
X273380Y127710D01*
X274027Y127213D01*
X274781Y126901D01*
X275590Y126795D01*
X276400Y126901D01*
X277154Y127213D01*
X277801Y127710D01*
X278298Y128358D01*
X278611Y129112D01*
X278717Y129921D01*
X278611Y130730D01*
X278298Y131485D01*
X277801Y132132D01*
X277524Y132345D01*
X277694Y132845D01*
X286982D01*
X296528Y123299D01*
X296856Y123080D01*
X297244Y123003D01*
X321880D01*
X322251Y122448D01*
X322970Y121967D01*
X323819Y121798D01*
X324668Y121967D01*
X325387Y122448D01*
X325868Y123167D01*
X326036Y124016D01*
X325868Y124864D01*
X325387Y125584D01*
X324668Y126064D01*
X323819Y126233D01*
X322970Y126064D01*
X322251Y125584D01*
X321880Y125029D01*
X297664D01*
X288379Y134314D01*
X288586Y134814D01*
X405512D01*
X405899Y134891D01*
X406228Y135110D01*
X408197Y137079D01*
X408416Y137408D01*
X408494Y137795D01*
Y153543D01*
X408416Y153931D01*
X408197Y154260D01*
X402291Y160165D01*
X401963Y160385D01*
X401575Y160462D01*
X390183D01*
X388214Y162432D01*
Y163580D01*
X389601D01*
Y170780D01*
X384801D01*
Y163580D01*
X386188D01*
Y162012D01*
X386265Y161624D01*
X386484Y161295D01*
X388368Y159412D01*
X388203Y158870D01*
X388026Y158835D01*
X383011Y163850D01*
Y172764D01*
X386291Y176044D01*
X388362D01*
Y175551D01*
X388420Y175256D01*
X388588Y175005D01*
X388838Y174838D01*
X389134Y174779D01*
X391968D01*
X392264Y174838D01*
X392515Y175005D01*
X392682Y175256D01*
X392741Y175551D01*
Y178779D01*
X392682Y179075D01*
X392515Y179326D01*
X392264Y179493D01*
X391968Y179552D01*
X389134D01*
X388838Y179493D01*
X388588Y179326D01*
X388420Y179075D01*
X388362Y178779D01*
Y178287D01*
X385827D01*
X385827Y178287D01*
X385398Y178201D01*
X385034Y177958D01*
X385034Y177958D01*
X381097Y174021D01*
X380854Y173658D01*
X380768Y173228D01*
X380768Y173228D01*
Y163386D01*
X380768Y163386D01*
X380854Y162957D01*
X381097Y162593D01*
X386386Y157303D01*
X386221Y156762D01*
X386044Y156727D01*
X384606Y158165D01*
X384278Y158385D01*
X383890Y158462D01*
X377251D01*
X376978Y158849D01*
X376978Y158962D01*
Y164380D01*
X375137D01*
Y168159D01*
Y172530D01*
X376486D01*
Y176551D01*
X376486Y176810D01*
X376513Y176826D01*
X376523Y176832D01*
X376886Y177051D01*
Y177051D01*
X376886Y177088D01*
X376886Y177092D01*
X376886Y177095D01*
Y177095D01*
Y177101D01*
X376886Y177102D01*
X376886Y177112D01*
Y177113D01*
Y177119D01*
Y177120D01*
Y177121D01*
Y177121D01*
D01*
X376886Y177592D01*
Y179126D01*
X371146D01*
Y177121D01*
X371146Y177121D01*
X371146D01*
Y177121D01*
Y177051D01*
X371518Y176826D01*
X371518Y176826D01*
X371524Y176823D01*
X371546Y176810D01*
X371546Y176551D01*
Y172530D01*
X372894D01*
Y169173D01*
X341119D01*
X297960Y212331D01*
X297632Y212550D01*
X297244Y212627D01*
X274606D01*
X274219Y212550D01*
X273890Y212331D01*
X269265Y207706D01*
X258828D01*
X258458Y208261D01*
X257738Y208741D01*
X256890Y208910D01*
X256041Y208741D01*
X255322Y208261D01*
X254841Y207541D01*
X254672Y206693D01*
X254841Y205844D01*
X255322Y205125D01*
X256041Y204644D01*
X256890Y204475D01*
X257738Y204644D01*
X258458Y205125D01*
X258828Y205680D01*
X269685D01*
X270073Y205757D01*
X270402Y205977D01*
X275026Y210601D01*
X296824D01*
X314859Y192566D01*
X314652Y192066D01*
X295276D01*
X294846Y191981D01*
X294482Y191738D01*
X294239Y191374D01*
X294154Y190945D01*
Y182201D01*
X292406D01*
Y180126D01*
X298146D01*
Y182201D01*
X296397D01*
Y189823D01*
X314496D01*
X316989Y187331D01*
Y179960D01*
X316693D01*
X316241Y179870D01*
X315858Y179614D01*
X315603Y179231D01*
X315513Y178779D01*
Y177665D01*
X318110D01*
Y177165D01*
X318610D01*
Y174371D01*
X319528D01*
X319835Y174432D01*
X320335Y174143D01*
Y171180D01*
X318657D01*
Y167680D01*
X324257D01*
Y171180D01*
X322578D01*
Y176575D01*
X322493Y177004D01*
X322250Y177368D01*
X322250Y177368D01*
X321659Y177958D01*
X321295Y178201D01*
X320866Y178287D01*
X320708Y178737D01*
Y178779D01*
X320618Y179231D01*
X320362Y179614D01*
X319979Y179870D01*
X319528Y179960D01*
X319232D01*
Y187487D01*
X319732Y187694D01*
X339982Y167443D01*
X340311Y167223D01*
X340699Y167146D01*
X372894D01*
Y164380D01*
X371054D01*
Y158962D01*
X371054Y158849D01*
X370780Y158462D01*
X325254D01*
X323551Y160165D01*
X323222Y160385D01*
X322835Y160462D01*
X311443D01*
X309474Y162432D01*
Y163580D01*
X310861D01*
Y170780D01*
X306061D01*
Y163580D01*
X307448D01*
Y162012D01*
X307525Y161624D01*
X307744Y161295D01*
X309628Y159412D01*
X309462Y158870D01*
X309286Y158835D01*
X304271Y163850D01*
Y172764D01*
X307551Y176044D01*
X309621D01*
Y175551D01*
X309680Y175256D01*
X309848Y175005D01*
X310098Y174838D01*
X310394Y174779D01*
X313228D01*
X313524Y174838D01*
X313774Y175005D01*
X313942Y175256D01*
X314001Y175551D01*
Y178779D01*
X313942Y179075D01*
X313774Y179326D01*
X313524Y179493D01*
X313228Y179552D01*
X310394D01*
X310098Y179493D01*
X309848Y179326D01*
X309680Y179075D01*
X309621Y178779D01*
Y178287D01*
X307087D01*
X307087Y178287D01*
X306657Y178201D01*
X306294Y177958D01*
X306294Y177958D01*
X302357Y174021D01*
X302113Y173658D01*
X302028Y173228D01*
X302028Y173228D01*
Y163386D01*
X302028Y163386D01*
X302113Y162957D01*
X302357Y162593D01*
X307646Y157303D01*
X307481Y156762D01*
X307304Y156727D01*
X305866Y158165D01*
X305537Y158385D01*
X305150Y158462D01*
X298511D01*
X298238Y158849D01*
X298238Y158962D01*
Y164380D01*
X296397D01*
Y167323D01*
Y172530D01*
X297746D01*
Y176551D01*
X297746Y176810D01*
X297773Y176826D01*
X297783Y176832D01*
X298146Y177051D01*
Y177051D01*
X298146Y177088D01*
X298146Y177092D01*
X298146Y177095D01*
Y177095D01*
Y177101D01*
X298146Y177102D01*
X298146Y177112D01*
Y177113D01*
Y177119D01*
Y177120D01*
Y177121D01*
Y177121D01*
D01*
X298146Y177592D01*
Y179126D01*
X292406D01*
Y177121D01*
X292406Y177121D01*
X292406D01*
Y177121D01*
Y177051D01*
X292778Y176826D01*
X292778Y176826D01*
X292784Y176823D01*
X292806Y176810D01*
X292806Y176551D01*
Y172530D01*
X294154D01*
Y168336D01*
X283884D01*
X254056Y198164D01*
X254186Y198819D01*
X254017Y199668D01*
X253537Y200387D01*
X252817Y200868D01*
X251969Y201036D01*
X251120Y200868D01*
X250401Y200387D01*
X249920Y199668D01*
X249751Y198819D01*
X249920Y197970D01*
X250401Y197251D01*
X251120Y196770D01*
X251969Y196601D01*
X252623Y196732D01*
X282748Y166606D01*
X283077Y166387D01*
X283465Y166310D01*
X294154D01*
Y164380D01*
X292313D01*
Y158962D01*
X292313Y158849D01*
X292040Y158462D01*
X246514D01*
X244811Y160165D01*
X244482Y160385D01*
X244094Y160462D01*
X232703D01*
X230734Y162432D01*
Y163580D01*
X232120D01*
Y170780D01*
X227321D01*
Y163580D01*
X228707D01*
Y162012D01*
X228784Y161624D01*
X229004Y161295D01*
X230888Y159412D01*
X230722Y158870D01*
X230546Y158835D01*
X225531Y163850D01*
Y172764D01*
X226187Y173419D01*
X226187Y173419D01*
X228811Y176044D01*
X230881D01*
Y175551D01*
X230940Y175256D01*
X231107Y175005D01*
X231358Y174838D01*
X231653Y174779D01*
X234488D01*
X234784Y174838D01*
X235034Y175005D01*
X235202Y175256D01*
X235261Y175551D01*
Y178779D01*
X235202Y179075D01*
X235034Y179326D01*
X234784Y179493D01*
X234488Y179552D01*
X231653D01*
X231358Y179493D01*
X231107Y179326D01*
X230940Y179075D01*
X230881Y178779D01*
Y178287D01*
X228346D01*
X227917Y178201D01*
X227553Y177958D01*
X227553Y177958D01*
X226986Y177391D01*
X226525Y177637D01*
X226627Y178150D01*
X226458Y178998D01*
X225977Y179718D01*
X225258Y180198D01*
X224410Y180367D01*
X223561Y180198D01*
X222970Y179803D01*
X222470Y179993D01*
Y186054D01*
X223025Y186424D01*
X223505Y187144D01*
X223674Y187992D01*
X223505Y188841D01*
X223183Y189323D01*
X223450Y189823D01*
X235756D01*
X238248Y187331D01*
Y179960D01*
X237953D01*
X237501Y179870D01*
X237118Y179614D01*
X236862Y179231D01*
X236773Y178779D01*
Y177665D01*
X239370D01*
Y177165D01*
X239870D01*
Y174371D01*
X240787D01*
X241095Y174432D01*
X241595Y174143D01*
Y171180D01*
X239916D01*
Y167680D01*
X245516D01*
Y171180D01*
X243838D01*
Y176575D01*
X243753Y177004D01*
X243510Y177368D01*
X243510Y177368D01*
X242919Y177958D01*
X242555Y178201D01*
X242126Y178287D01*
X241968Y178737D01*
Y178779D01*
X241878Y179231D01*
X241622Y179614D01*
X241239Y179870D01*
X240787Y179960D01*
X240492D01*
Y187795D01*
X240492Y187795D01*
X240406Y188224D01*
X240163Y188588D01*
X240163Y188588D01*
X237014Y191738D01*
X236650Y191981D01*
X236221Y192066D01*
X236220Y192066D01*
X234277D01*
X234010Y192566D01*
X234332Y193049D01*
X234501Y193898D01*
X234332Y194746D01*
X234004Y195237D01*
X234272Y195737D01*
X241122D01*
X241389Y195237D01*
X241062Y194746D01*
X240893Y193898D01*
X241062Y193049D01*
X241542Y192330D01*
X242262Y191849D01*
X243110Y191680D01*
X243637Y191785D01*
X246903Y188519D01*
X246798Y187992D01*
X246967Y187144D01*
X247448Y186424D01*
X248167Y185943D01*
X249016Y185775D01*
X249864Y185943D01*
X250584Y186424D01*
X251064Y187144D01*
X251233Y187992D01*
X251064Y188841D01*
X250584Y189560D01*
X249864Y190041D01*
X249016Y190209D01*
X248489Y190105D01*
X245223Y193371D01*
X245328Y193898D01*
X245159Y194746D01*
X244831Y195237D01*
X245098Y195737D01*
X245602D01*
X254792Y186547D01*
Y166742D01*
X252353D01*
Y160030D01*
X259458D01*
Y166742D01*
X257019D01*
Y187008D01*
X257019Y187008D01*
X256934Y187434D01*
X256854Y187554D01*
X256693Y187795D01*
X256693Y187795D01*
X246850Y197638D01*
X246489Y197879D01*
X246063Y197964D01*
X214567D01*
X214567Y197964D01*
X214141Y197879D01*
X214021Y197799D01*
X213780Y197638D01*
X213779Y197638D01*
X205906Y189764D01*
X205664Y189402D01*
X205579Y188976D01*
Y173690D01*
X184578Y152688D01*
X180718D01*
Y154931D01*
X173613D01*
Y148219D01*
X180718D01*
Y150461D01*
X185039D01*
X185466Y150546D01*
X185827Y150787D01*
X196152Y161113D01*
X196695Y160948D01*
X196770Y160569D01*
X197251Y159849D01*
X197970Y159369D01*
X198819Y159200D01*
X199668Y159369D01*
X200387Y159849D01*
X200868Y160569D01*
X201036Y161417D01*
X200906Y162072D01*
X211346Y172512D01*
X211566Y172841D01*
Y172841D01*
X211566Y172841D01*
X211624Y173132D01*
X211643Y173228D01*
Y173228D01*
Y188557D01*
X215971Y192885D01*
X230217D01*
X230462Y192495D01*
X230229Y192066D01*
X216535D01*
X216106Y191981D01*
X215742Y191738D01*
X215499Y191374D01*
X215414Y190945D01*
Y182201D01*
X213665D01*
Y180126D01*
X219406D01*
Y182201D01*
X217657D01*
Y189823D01*
X219463D01*
X219730Y189323D01*
X219408Y188841D01*
X219239Y187992D01*
X219408Y187144D01*
X219889Y186424D01*
X220444Y186054D01*
Y173500D01*
X219506Y172562D01*
X219005Y172769D01*
Y176810D01*
X219406Y177051D01*
X219406Y177051D01*
X219406D01*
X219406Y177051D01*
Y179126D01*
X213665D01*
Y177051D01*
X213665D01*
X214065Y176880D01*
Y172530D01*
X215414D01*
Y168159D01*
Y164380D01*
X213573D01*
Y158849D01*
X213224Y158493D01*
X198819D01*
X198431Y158416D01*
X198102Y158197D01*
X180683Y140777D01*
X173648D01*
X172273Y142152D01*
Y153543D01*
X172196Y153931D01*
X171976Y154260D01*
X166071Y160165D01*
X165742Y160385D01*
X165354Y160462D01*
X153963D01*
X151994Y162432D01*
Y163580D01*
X153380D01*
Y170780D01*
X148580D01*
Y163580D01*
X149967D01*
Y162012D01*
X150044Y161624D01*
X150264Y161295D01*
X152147Y159412D01*
X151982Y158870D01*
X151806Y158835D01*
X146791Y163850D01*
Y172764D01*
X150071Y176044D01*
X152141D01*
Y175551D01*
X152200Y175256D01*
X152367Y175005D01*
X152618Y174838D01*
X152913Y174779D01*
X155748D01*
X156044Y174838D01*
X156294Y175005D01*
X156462Y175256D01*
X156520Y175551D01*
Y178779D01*
X156462Y179075D01*
X156294Y179326D01*
X156044Y179493D01*
X155748Y179552D01*
X152913D01*
X152618Y179493D01*
X152367Y179326D01*
X152200Y179075D01*
X152141Y178779D01*
Y178287D01*
X149606D01*
X149606Y178287D01*
X149177Y178201D01*
X148813Y177958D01*
X148813Y177958D01*
X144876Y174021D01*
X144633Y173658D01*
X144548Y173228D01*
X144548Y173228D01*
Y163386D01*
X144548Y163386D01*
X144633Y162957D01*
X144876Y162593D01*
X150165Y157303D01*
X150000Y156762D01*
X149824Y156727D01*
X148386Y158165D01*
X148367Y158178D01*
X148354Y158197D01*
X148026Y158416D01*
X147638Y158493D01*
X141107D01*
X140758Y158849D01*
X140758Y158993D01*
Y164380D01*
X138917D01*
Y166441D01*
X139363Y166739D01*
X139844Y167458D01*
X140013Y168307D01*
X139844Y169156D01*
X139363Y169875D01*
X138917Y170173D01*
Y172530D01*
X140265D01*
Y176551D01*
X140265Y176810D01*
X140293Y176826D01*
X140303Y176832D01*
X140665Y177051D01*
Y177051D01*
X140665Y177088D01*
X140665Y177092D01*
X140665Y177095D01*
Y177095D01*
Y177101D01*
X140665Y177102D01*
X140665Y177112D01*
Y177113D01*
Y177119D01*
Y177120D01*
Y177121D01*
Y177121D01*
D01*
X140665Y177592D01*
Y179126D01*
X134925D01*
Y177121D01*
X134925Y177121D01*
X134925D01*
Y177121D01*
Y177051D01*
X135298Y176826D01*
X135298Y176826D01*
X135304Y176823D01*
X135325Y176810D01*
X135325Y176551D01*
Y172530D01*
X136674D01*
Y170173D01*
X136227Y169875D01*
X135747Y169156D01*
X135578Y168307D01*
X135747Y167458D01*
X136227Y166739D01*
X136674Y166441D01*
Y164380D01*
X134833D01*
Y158993D01*
X134833Y158849D01*
X134484Y158493D01*
X120079D01*
X119691Y158416D01*
X119362Y158197D01*
X101943Y140777D01*
X94908D01*
X93533Y142152D01*
Y153543D01*
X93456Y153931D01*
X93236Y154260D01*
X87331Y160165D01*
X87002Y160385D01*
X86614Y160462D01*
X75223D01*
X73253Y162432D01*
Y163580D01*
X74640D01*
Y170780D01*
X69840D01*
Y163580D01*
X71227D01*
Y162012D01*
X71304Y161624D01*
X71524Y161295D01*
X73407Y159412D01*
X73242Y158870D01*
X73066Y158835D01*
X68051Y163850D01*
Y172764D01*
X71331Y176044D01*
X73401D01*
Y175551D01*
X73460Y175256D01*
X73627Y175005D01*
X73878Y174838D01*
X74173Y174779D01*
X77008D01*
X77303Y174838D01*
X77554Y175005D01*
X77721Y175256D01*
X77780Y175551D01*
Y178779D01*
X77721Y179075D01*
X77554Y179326D01*
X77303Y179493D01*
X77008Y179552D01*
X74173D01*
X73878Y179493D01*
X73627Y179326D01*
X73460Y179075D01*
X73401Y178779D01*
Y178287D01*
X70866D01*
X70866Y178287D01*
X70437Y178201D01*
X70073Y177958D01*
X70073Y177958D01*
X66136Y174021D01*
X65893Y173658D01*
X65808Y173228D01*
X65808Y173228D01*
Y163386D01*
X65808Y163386D01*
X65893Y162957D01*
X66136Y162593D01*
X71425Y157303D01*
X71260Y156762D01*
X71084Y156727D01*
X69646Y158165D01*
X69317Y158385D01*
X68929Y158462D01*
X62291D01*
X62017Y158849D01*
X62017Y158962D01*
Y164380D01*
X60177D01*
Y166441D01*
X60623Y166739D01*
X61104Y167458D01*
X61273Y168307D01*
X61104Y169156D01*
X60623Y169875D01*
X60177Y170173D01*
Y172530D01*
X61525D01*
Y176551D01*
X61525Y176810D01*
X61553Y176826D01*
X61563Y176832D01*
X61925Y177051D01*
Y177051D01*
X61925Y177088D01*
X61925Y177092D01*
X61925Y177095D01*
Y177095D01*
Y177101D01*
X61925Y177102D01*
X61925Y177112D01*
Y177113D01*
Y177119D01*
Y177120D01*
Y177121D01*
Y177121D01*
D01*
X61925Y177592D01*
Y179126D01*
X56185D01*
Y177121D01*
X56185Y177121D01*
X56185D01*
Y177121D01*
Y177051D01*
X56558Y176826D01*
X56558Y176826D01*
X56564Y176823D01*
X56585Y176810D01*
X56585Y176551D01*
Y172530D01*
X57934D01*
Y170173D01*
X57487Y169875D01*
X57007Y169156D01*
X56838Y168307D01*
X57007Y167458D01*
X57487Y166739D01*
X57934Y166441D01*
Y164380D01*
X56093D01*
Y158962D01*
X56093Y158849D01*
X55977Y158685D01*
X55387Y158644D01*
X54163Y159869D01*
Y210210D01*
X57506Y213554D01*
X66070D01*
X66260Y213054D01*
X65865Y212463D01*
X65696Y211614D01*
X65865Y210766D01*
X66345Y210046D01*
X67065Y209565D01*
X67913Y209397D01*
X68762Y209565D01*
X69481Y210046D01*
X69780Y210493D01*
X264866D01*
X265164Y210046D01*
X265884Y209565D01*
X266732Y209397D01*
X267581Y209565D01*
X268300Y210046D01*
X268781Y210766D01*
X268950Y211614D01*
X268781Y212463D01*
X268386Y213054D01*
X268576Y213554D01*
X405512D01*
X405899Y213631D01*
X406228Y213850D01*
X408197Y215819D01*
X408416Y216148D01*
X408494Y216535D01*
Y232283D01*
X408416Y232671D01*
X408197Y233000D01*
X402291Y238905D01*
X401963Y239125D01*
X401575Y239202D01*
X390183D01*
X388214Y241172D01*
Y242320D01*
X389601D01*
Y249520D01*
X384801D01*
Y242320D01*
X386188D01*
Y240752D01*
X386265Y240364D01*
X386484Y240036D01*
X388368Y238152D01*
X388203Y237610D01*
X388026Y237576D01*
X383011Y242590D01*
Y251504D01*
X386291Y254784D01*
X388362D01*
Y254291D01*
X388420Y253996D01*
X388588Y253745D01*
X388838Y253578D01*
X389134Y253519D01*
X391968D01*
X392264Y253578D01*
X392515Y253745D01*
X392682Y253996D01*
X392741Y254291D01*
Y257520D01*
X392682Y257815D01*
X392515Y258066D01*
X392264Y258233D01*
X391968Y258292D01*
X389134D01*
X388838Y258233D01*
X388588Y258066D01*
X388420Y257815D01*
X388362Y257520D01*
Y257027D01*
X385827D01*
X385827Y257027D01*
X385398Y256942D01*
X385034Y256699D01*
X385034Y256698D01*
X381097Y252762D01*
X380854Y252398D01*
X380768Y251969D01*
X380768Y251968D01*
Y242126D01*
X380768Y242126D01*
X380854Y241697D01*
X381097Y241333D01*
X386386Y236044D01*
X386221Y235502D01*
X386044Y235467D01*
X384606Y236905D01*
X384278Y237125D01*
X383890Y237202D01*
X377251D01*
X376978Y237589D01*
X376978Y237702D01*
Y243120D01*
X375137D01*
Y245181D01*
X375584Y245479D01*
X376064Y246199D01*
X376233Y247047D01*
X376064Y247896D01*
X375584Y248615D01*
X375137Y248914D01*
Y251270D01*
X376486D01*
Y255291D01*
X376486Y255550D01*
X376513Y255566D01*
X376523Y255573D01*
X376886Y255791D01*
Y255791D01*
X376886Y255828D01*
X376886Y255832D01*
X376886Y255836D01*
Y255836D01*
Y255841D01*
X376886Y255842D01*
X376886Y255852D01*
Y255853D01*
Y255859D01*
Y255860D01*
Y255861D01*
Y255861D01*
D01*
X376886Y256332D01*
Y257866D01*
X371146D01*
Y255861D01*
X371146Y255861D01*
X371146D01*
Y255861D01*
Y255791D01*
X371518Y255566D01*
X371518Y255566D01*
X371524Y255563D01*
X371546Y255550D01*
X371546Y255291D01*
Y251270D01*
X372894D01*
Y248914D01*
X372448Y248615D01*
X371967Y247896D01*
X371798Y247047D01*
X371967Y246199D01*
X372448Y245479D01*
X372894Y245181D01*
Y243120D01*
X371054D01*
Y237702D01*
X371054Y237589D01*
X370780Y237202D01*
X325254D01*
X323551Y238905D01*
X323222Y239125D01*
X322835Y239202D01*
X311443D01*
X309474Y241172D01*
Y242320D01*
X310861D01*
Y249520D01*
X306061D01*
Y242320D01*
X307448D01*
Y240752D01*
X307525Y240364D01*
X307744Y240036D01*
X309628Y238152D01*
X309462Y237610D01*
X309286Y237576D01*
X304271Y242590D01*
Y251504D01*
X307551Y254784D01*
X309621D01*
Y254291D01*
X309680Y253996D01*
X309848Y253745D01*
X310098Y253578D01*
X310394Y253519D01*
X313228D01*
X313524Y253578D01*
X313774Y253745D01*
X313942Y253996D01*
X314001Y254291D01*
Y257520D01*
X313942Y257815D01*
X313774Y258066D01*
X313524Y258233D01*
X313228Y258292D01*
X310394D01*
X310098Y258233D01*
X309848Y258066D01*
X309680Y257815D01*
X309621Y257520D01*
Y257027D01*
X307087D01*
X307087Y257027D01*
X306657Y256942D01*
X306294Y256699D01*
X306294Y256698D01*
X302357Y252762D01*
X302113Y252398D01*
X302028Y251969D01*
X302028Y251968D01*
Y242126D01*
X302028Y242126D01*
X302113Y241697D01*
X302357Y241333D01*
X307646Y236044D01*
X307481Y235502D01*
X307304Y235467D01*
X305866Y236905D01*
X305537Y237125D01*
X305150Y237202D01*
X298511D01*
X298238Y237589D01*
X298238Y237702D01*
Y243120D01*
X296397D01*
Y247047D01*
Y251270D01*
X297746D01*
Y255291D01*
X297746Y255550D01*
X297773Y255566D01*
X297783Y255573D01*
X298146Y255791D01*
Y255791D01*
X298146Y255828D01*
X298146Y255832D01*
X298146Y255836D01*
Y255836D01*
Y255841D01*
X298146Y255842D01*
X298146Y255852D01*
Y255853D01*
Y255859D01*
Y255860D01*
Y255861D01*
Y255861D01*
D01*
X298146Y256332D01*
Y257866D01*
X292406D01*
Y255861D01*
X292406Y255861D01*
X292406D01*
Y255861D01*
Y255791D01*
X292778Y255566D01*
X292778Y255566D01*
X292784Y255563D01*
X292806Y255550D01*
X292806Y255291D01*
Y251270D01*
X294154D01*
Y248169D01*
X278024D01*
X252106Y274087D01*
Y280614D01*
X252552Y280912D01*
X253033Y281632D01*
X253202Y282480D01*
X253033Y283329D01*
X252552Y284048D01*
X251833Y284529D01*
X250984Y284698D01*
X250136Y284529D01*
X249416Y284048D01*
X248936Y283329D01*
X248767Y282480D01*
X248936Y281632D01*
X249416Y280912D01*
X249863Y280614D01*
Y274073D01*
X249363Y273866D01*
X246850Y276378D01*
X246489Y276619D01*
X246063Y276704D01*
X215156D01*
X214745Y277204D01*
X214816Y277559D01*
X214647Y278408D01*
X214470Y278673D01*
X214705Y279114D01*
X222274D01*
X222361Y278679D01*
X222842Y277960D01*
X223561Y277479D01*
X224410Y277310D01*
X225258Y277479D01*
X225977Y277960D01*
X226458Y278679D01*
X226627Y279528D01*
X226458Y280376D01*
X225977Y281096D01*
X225258Y281576D01*
X224410Y281745D01*
X223561Y281576D01*
X222909Y281141D01*
X204256D01*
X203605Y281576D01*
X202756Y281745D01*
X201907Y281576D01*
X201188Y281096D01*
X200707Y280376D01*
X200538Y279528D01*
X200707Y278679D01*
X201188Y277960D01*
X201907Y277479D01*
X202756Y277310D01*
X203605Y277479D01*
X204324Y277960D01*
X204804Y278679D01*
X204891Y279114D01*
X210492D01*
X210727Y278673D01*
X210550Y278408D01*
X210381Y277559D01*
X210511Y276905D01*
X209226Y275620D01*
X171679D01*
X168039Y279260D01*
X167711Y279479D01*
X167323Y279556D01*
X139734D01*
X139363Y280111D01*
X138644Y280592D01*
X137795Y280761D01*
X136947Y280592D01*
X136227Y280111D01*
X135747Y279392D01*
X135578Y278543D01*
X135747Y277695D01*
X136074Y277204D01*
X135827Y276704D01*
X135827Y276704D01*
X135401Y276619D01*
X135281Y276539D01*
X135039Y276378D01*
X135039Y276378D01*
X127165Y268504D01*
X126924Y268143D01*
X126839Y267717D01*
Y252430D01*
X105838Y231429D01*
X101978D01*
Y233671D01*
X94872D01*
Y226959D01*
X101978D01*
Y229201D01*
X106299D01*
X106725Y229286D01*
X107087Y229528D01*
X128740Y251181D01*
X128740Y251181D01*
X128981Y251542D01*
X129066Y251969D01*
Y267255D01*
X136288Y274477D01*
X166862D01*
X176052Y265287D01*
Y245482D01*
X173613D01*
Y238770D01*
X180718D01*
Y245482D01*
X178279D01*
Y265748D01*
X178279Y265748D01*
X178194Y266174D01*
X178114Y266294D01*
X177953Y266535D01*
X177953Y266535D01*
X171395Y273093D01*
X171602Y273593D01*
X209646D01*
X210033Y273670D01*
X210362Y273890D01*
X211677Y275205D01*
X211855Y275160D01*
X212008Y274606D01*
X205906Y268504D01*
X205664Y268143D01*
X205579Y267717D01*
Y252430D01*
X184578Y231429D01*
X180718D01*
Y233671D01*
X173613D01*
Y226959D01*
X180718D01*
Y229201D01*
X185039D01*
X185466Y229286D01*
X185827Y229528D01*
X207480Y251181D01*
X207480Y251181D01*
X207722Y251542D01*
X207806Y251969D01*
Y267255D01*
X209117Y268566D01*
X209617Y268358D01*
Y258828D01*
X209062Y258458D01*
X208581Y257738D01*
X208413Y256890D01*
X208581Y256041D01*
X209062Y255322D01*
X209781Y254841D01*
X210630Y254672D01*
X211478Y254841D01*
X212198Y255322D01*
X212679Y256041D01*
X212847Y256890D01*
X212679Y257738D01*
X212198Y258458D01*
X211643Y258828D01*
Y268281D01*
X214987Y271625D01*
X217421D01*
X217666Y271235D01*
X217434Y270807D01*
X216535D01*
X216106Y270721D01*
X215742Y270478D01*
X215499Y270114D01*
X215414Y269685D01*
Y260941D01*
X213665D01*
Y258866D01*
X219406D01*
Y260941D01*
X217657D01*
Y268564D01*
X235756D01*
X238248Y266071D01*
Y258700D01*
X237953D01*
X237501Y258610D01*
X237118Y258354D01*
X236862Y257971D01*
X236773Y257520D01*
Y256405D01*
X239370D01*
Y255906D01*
X239870D01*
Y253111D01*
X240787D01*
X241095Y253172D01*
X241595Y252883D01*
Y249921D01*
X239916D01*
Y246421D01*
X245516D01*
Y249921D01*
X243838D01*
Y255315D01*
X243753Y255744D01*
X243510Y256108D01*
X243510Y256108D01*
X242919Y256699D01*
X242555Y256942D01*
X242126Y257027D01*
X241968Y257477D01*
Y257520D01*
X241878Y257971D01*
X241622Y258354D01*
X241239Y258610D01*
X240787Y258700D01*
X240492D01*
Y266535D01*
X240492Y266535D01*
X240406Y266965D01*
X240163Y267329D01*
X240163Y267329D01*
X237014Y270478D01*
X236650Y270721D01*
X236221Y270807D01*
X236220Y270807D01*
X221482D01*
X221214Y271307D01*
X221537Y271789D01*
X221706Y272638D01*
X221537Y273486D01*
X221209Y273977D01*
X221476Y274477D01*
X245602D01*
X254792Y265287D01*
Y245482D01*
X252353D01*
Y238770D01*
X259458D01*
Y245482D01*
X257019D01*
Y265294D01*
X257519Y265501D01*
X276766Y246254D01*
X276766Y246254D01*
X277130Y246011D01*
X277559Y245926D01*
X277559Y245926D01*
X294154D01*
Y243120D01*
X292313D01*
Y237702D01*
X292313Y237589D01*
X292040Y237202D01*
X246514D01*
X244811Y238905D01*
X244482Y239125D01*
X244094Y239202D01*
X232703D01*
X230734Y241172D01*
Y242320D01*
X232120D01*
Y249520D01*
X227321D01*
Y242320D01*
X228707D01*
Y240752D01*
X228784Y240364D01*
X229004Y240036D01*
X230888Y238152D01*
X230722Y237610D01*
X230546Y237576D01*
X225531Y242590D01*
Y251504D01*
X228811Y254784D01*
X230881D01*
Y254291D01*
X230940Y253996D01*
X231107Y253745D01*
X231358Y253578D01*
X231653Y253519D01*
X234488D01*
X234784Y253578D01*
X235034Y253745D01*
X235202Y253996D01*
X235261Y254291D01*
Y257520D01*
X235202Y257815D01*
X235034Y258066D01*
X234784Y258233D01*
X234488Y258292D01*
X231653D01*
X231358Y258233D01*
X231107Y258066D01*
X230940Y257815D01*
X230881Y257520D01*
Y257027D01*
X228346D01*
X228346Y257027D01*
X227917Y256942D01*
X227553Y256699D01*
X227553Y256698D01*
X223616Y252762D01*
X223373Y252398D01*
X223288Y251969D01*
X223288Y251968D01*
Y242126D01*
X223288Y242126D01*
X223373Y241697D01*
X223616Y241333D01*
X228906Y236044D01*
X228741Y235502D01*
X228564Y235467D01*
X227126Y236905D01*
X227107Y236918D01*
X227094Y236937D01*
X226766Y237157D01*
X226378Y237234D01*
X219847D01*
X219498Y237589D01*
X219498Y237734D01*
Y243120D01*
X217657D01*
Y244197D01*
X218103Y244495D01*
X218584Y245214D01*
X218753Y246063D01*
X218584Y246912D01*
X218103Y247631D01*
X217657Y247929D01*
Y251270D01*
X219005D01*
Y255291D01*
X219005Y255550D01*
X219033Y255566D01*
X219043Y255573D01*
X219406Y255791D01*
Y255791D01*
X219406Y255828D01*
X219406Y255832D01*
X219406Y255836D01*
Y255836D01*
Y255841D01*
X219406Y255842D01*
X219406Y255852D01*
Y255853D01*
Y255859D01*
Y255860D01*
Y255861D01*
Y255861D01*
D01*
X219406Y256332D01*
Y257866D01*
X213665D01*
Y255861D01*
X213665Y255861D01*
X213665D01*
Y255861D01*
Y255791D01*
X214038Y255566D01*
X214038Y255566D01*
X214044Y255563D01*
X214065Y255550D01*
X214065Y255291D01*
Y251270D01*
X215414D01*
Y247929D01*
X214967Y247631D01*
X214487Y246912D01*
X214318Y246063D01*
X214487Y245214D01*
X214967Y244495D01*
X215414Y244197D01*
Y243120D01*
X213573D01*
Y237734D01*
X213573Y237589D01*
X213224Y237234D01*
X198819D01*
X198431Y237157D01*
X198102Y236937D01*
X180683Y219517D01*
X173648D01*
X172273Y220892D01*
Y232283D01*
X172196Y232671D01*
X171976Y233000D01*
X166071Y238905D01*
X165742Y239125D01*
X165354Y239202D01*
X153963D01*
X151994Y241172D01*
Y242320D01*
X153380D01*
Y249520D01*
X148580D01*
Y242320D01*
X149967D01*
Y240752D01*
X150044Y240364D01*
X150264Y240036D01*
X152147Y238152D01*
X151982Y237610D01*
X151806Y237576D01*
X146791Y242590D01*
Y251504D01*
X150071Y254784D01*
X152141D01*
Y254291D01*
X152200Y253996D01*
X152367Y253745D01*
X152618Y253578D01*
X152913Y253519D01*
X155748D01*
X156044Y253578D01*
X156294Y253745D01*
X156462Y253996D01*
X156520Y254291D01*
Y257520D01*
X156462Y257815D01*
X156294Y258066D01*
X156044Y258233D01*
X155748Y258292D01*
X152913D01*
X152618Y258233D01*
X152367Y258066D01*
X152200Y257815D01*
X152141Y257520D01*
Y257027D01*
X149606D01*
X149606Y257027D01*
X149177Y256942D01*
X148813Y256699D01*
X148813Y256698D01*
X144876Y252762D01*
X144633Y252398D01*
X144548Y251969D01*
X144548Y251968D01*
Y242126D01*
X144548Y242126D01*
X144633Y241697D01*
X144876Y241333D01*
X150165Y236044D01*
X150000Y235502D01*
X149824Y235467D01*
X148386Y236905D01*
X148367Y236918D01*
X148354Y236937D01*
X148026Y237157D01*
X147638Y237234D01*
X141107D01*
X140758Y237589D01*
X140758Y237734D01*
Y243120D01*
X138917D01*
Y245033D01*
X139363Y245332D01*
X139844Y246051D01*
X140013Y246900D01*
X139844Y247748D01*
X139363Y248468D01*
X138917Y248766D01*
Y251270D01*
X140265D01*
Y255291D01*
X140265Y255550D01*
X140293Y255566D01*
X140303Y255573D01*
X140665Y255791D01*
Y255791D01*
X140665Y255828D01*
X140665Y255832D01*
X140665Y255836D01*
Y255836D01*
Y255841D01*
X140665Y255842D01*
X140665Y255852D01*
Y255853D01*
Y255859D01*
Y255860D01*
Y255861D01*
Y255861D01*
D01*
X140665Y256332D01*
Y257866D01*
X134925D01*
Y255861D01*
X134925Y255861D01*
X134925D01*
Y255861D01*
Y255791D01*
X135298Y255566D01*
X135298Y255566D01*
X135304Y255563D01*
X135325Y255550D01*
X135325Y255291D01*
Y251270D01*
X136674D01*
Y248766D01*
X136227Y248468D01*
X135747Y247748D01*
X135578Y246900D01*
X135747Y246051D01*
X136227Y245332D01*
X136674Y245033D01*
Y243120D01*
X134833D01*
Y237734D01*
X134833Y237589D01*
X134484Y237234D01*
X120079D01*
X119691Y237157D01*
X119362Y236937D01*
X101943Y219517D01*
X94908D01*
X93533Y220892D01*
Y232283D01*
X93456Y232671D01*
X93236Y233000D01*
X87331Y238905D01*
X87002Y239125D01*
X86614Y239202D01*
X75223D01*
X73253Y241172D01*
Y242320D01*
X74640D01*
Y249520D01*
X69840D01*
Y242320D01*
X71227D01*
Y240752D01*
X71304Y240364D01*
X71524Y240036D01*
X73407Y238152D01*
X73242Y237610D01*
X73066Y237576D01*
X68051Y242590D01*
Y251504D01*
X71331Y254784D01*
X73401D01*
Y254291D01*
X73460Y253996D01*
X73627Y253745D01*
X73878Y253578D01*
X74173Y253519D01*
X77008D01*
X77303Y253578D01*
X77554Y253745D01*
X77721Y253996D01*
X77780Y254291D01*
Y257520D01*
X77721Y257815D01*
X77554Y258066D01*
X77303Y258233D01*
X77008Y258292D01*
X74173D01*
X73878Y258233D01*
X73627Y258066D01*
X73460Y257815D01*
X73401Y257520D01*
Y257027D01*
X70866D01*
X70866Y257027D01*
X70437Y256942D01*
X70073Y256699D01*
X70073Y256698D01*
X66136Y252762D01*
X65893Y252398D01*
X65808Y251969D01*
X65808Y251968D01*
Y242126D01*
X65808Y242126D01*
X65893Y241697D01*
X66136Y241333D01*
X71425Y236044D01*
X71260Y235502D01*
X71084Y235467D01*
X69646Y236905D01*
X69317Y237125D01*
X68929Y237202D01*
X62291D01*
X62017Y237589D01*
Y243120D01*
X60177D01*
Y247047D01*
Y251270D01*
X61525D01*
Y255291D01*
X61525Y255550D01*
X61553Y255566D01*
X61563Y255573D01*
X61925Y255791D01*
Y255791D01*
X61925Y255828D01*
X61925Y255832D01*
X61925Y255836D01*
Y255836D01*
Y255841D01*
X61925Y255842D01*
X61925Y255852D01*
Y255853D01*
Y255859D01*
Y255860D01*
Y255861D01*
Y255861D01*
D01*
X61925Y256332D01*
Y257866D01*
X59055D01*
Y258866D01*
X61925D01*
Y260941D01*
X60177D01*
Y268564D01*
X78276D01*
X80768Y266071D01*
Y258700D01*
X80472D01*
X80021Y258610D01*
X79638Y258354D01*
X79382Y257971D01*
X79292Y257520D01*
Y256405D01*
X81890D01*
Y255906D01*
X82390D01*
Y253111D01*
X83307D01*
X83615Y253172D01*
X84115Y252883D01*
Y249921D01*
X82436D01*
Y246421D01*
X88036D01*
Y249921D01*
X86358D01*
Y255315D01*
X86272Y255744D01*
X86029Y256108D01*
X86029Y256108D01*
X85439Y256699D01*
X85075Y256942D01*
X84646Y257027D01*
X84487Y257477D01*
Y257520D01*
X84397Y257971D01*
X84142Y258354D01*
X83759Y258610D01*
X83307Y258700D01*
X83011D01*
Y266535D01*
X83011Y266535D01*
X82926Y266965D01*
X82683Y267329D01*
X82683Y267329D01*
X79533Y270478D01*
X79169Y270721D01*
X78740Y270807D01*
X78740Y270807D01*
X59055D01*
X58626Y270721D01*
X58262Y270478D01*
X58019Y270114D01*
X57934Y269685D01*
Y261295D01*
X57580Y260941D01*
X56631D01*
X56185Y260941D01*
X56131Y261419D01*
Y287966D01*
X58491Y290325D01*
X212125D01*
X212463Y289943D01*
X212350Y289370D01*
X212518Y288522D01*
X212999Y287802D01*
X213718Y287321D01*
X214567Y287153D01*
X215416Y287321D01*
X216135Y287802D01*
X216616Y288522D01*
X216784Y289370D01*
X216616Y290219D01*
X216135Y290938D01*
X215416Y291419D01*
X214567Y291587D01*
X213913Y291457D01*
X213576Y291794D01*
X213783Y292294D01*
X405512D01*
X405899Y292371D01*
X406228Y292591D01*
X408197Y294559D01*
X408416Y294888D01*
X408494Y295276D01*
Y311024D01*
X408416Y311411D01*
X408197Y311740D01*
X402291Y317646D01*
X401963Y317865D01*
X401575Y317942D01*
X390183D01*
X388214Y319912D01*
Y321061D01*
X389601D01*
Y328261D01*
X384801D01*
Y321061D01*
X386188D01*
Y319492D01*
X386265Y319104D01*
X386484Y318776D01*
X388368Y316892D01*
X388203Y316350D01*
X388026Y316316D01*
X383011Y321331D01*
Y330244D01*
X386291Y333524D01*
X388362D01*
Y333032D01*
X388420Y332736D01*
X388588Y332485D01*
X388838Y332318D01*
X389134Y332259D01*
X391968D01*
X392264Y332318D01*
X392515Y332485D01*
X392682Y332736D01*
X392741Y333032D01*
Y336260D01*
X392682Y336555D01*
X392515Y336806D01*
X392264Y336973D01*
X391968Y337032D01*
X389134D01*
X388838Y336973D01*
X388588Y336806D01*
X388420Y336555D01*
X388362Y336260D01*
Y335767D01*
X385827D01*
X385827Y335767D01*
X385398Y335682D01*
X385034Y335439D01*
X385034Y335439D01*
X381097Y331502D01*
X380854Y331138D01*
X380768Y330709D01*
X380768Y330709D01*
Y320866D01*
X380768Y320866D01*
X380854Y320437D01*
X381097Y320073D01*
X386386Y314784D01*
X386221Y314242D01*
X386044Y314207D01*
X384606Y315646D01*
X384278Y315865D01*
X383890Y315942D01*
X377251D01*
X376978Y316329D01*
X376978Y316442D01*
Y321860D01*
X375137D01*
Y323921D01*
X375584Y324219D01*
X376064Y324939D01*
X376233Y325787D01*
X376064Y326636D01*
X375584Y327355D01*
X375137Y327654D01*
Y330010D01*
X376486D01*
Y334032D01*
X376486Y334290D01*
X376513Y334307D01*
X376523Y334313D01*
X376886Y334531D01*
Y334531D01*
X376886Y334568D01*
X376886Y334572D01*
X376886Y334576D01*
Y334576D01*
Y334581D01*
X376886Y334582D01*
X376886Y334593D01*
Y334594D01*
Y334599D01*
Y334600D01*
Y334601D01*
Y334601D01*
D01*
X376886Y335072D01*
Y336606D01*
X371146D01*
Y334601D01*
X371146Y334601D01*
X371146D01*
Y334601D01*
Y334531D01*
X371518Y334307D01*
X371518Y334307D01*
X371524Y334303D01*
X371546Y334290D01*
X371546Y334032D01*
Y330010D01*
X372894D01*
Y327654D01*
X372448Y327355D01*
X371967Y326636D01*
X371798Y325787D01*
X371967Y324939D01*
X372448Y324219D01*
X372894Y323921D01*
Y321860D01*
X371054D01*
Y316442D01*
X371054Y316329D01*
X370780Y315942D01*
X325254D01*
X323551Y317646D01*
X323222Y317865D01*
X322835Y317942D01*
X311443D01*
X309474Y319912D01*
Y321061D01*
X310861D01*
Y328261D01*
X306061D01*
Y321061D01*
X307448D01*
Y319492D01*
X307525Y319104D01*
X307744Y318776D01*
X309628Y316892D01*
X309462Y316350D01*
X309286Y316316D01*
X304271Y321331D01*
Y330244D01*
X307551Y333524D01*
X309621D01*
Y333032D01*
X309680Y332736D01*
X309848Y332485D01*
X310098Y332318D01*
X310394Y332259D01*
X313228D01*
X313524Y332318D01*
X313774Y332485D01*
X313942Y332736D01*
X314001Y333032D01*
Y336260D01*
X313942Y336555D01*
X313774Y336806D01*
X313524Y336973D01*
X313228Y337032D01*
X310394D01*
X310098Y336973D01*
X309848Y336806D01*
X309680Y336555D01*
X309621Y336260D01*
Y335767D01*
X307087D01*
X307087Y335767D01*
X306657Y335682D01*
X306294Y335439D01*
X306294Y335439D01*
X302357Y331502D01*
X302113Y331138D01*
X302028Y330709D01*
X302028Y330709D01*
Y320866D01*
X302028Y320866D01*
X302113Y320437D01*
X302357Y320073D01*
X307646Y314784D01*
X307481Y314242D01*
X307304Y314207D01*
X305866Y315646D01*
X305537Y315865D01*
X305150Y315942D01*
X298511D01*
X298238Y316329D01*
X298238Y316442D01*
Y321860D01*
X296397D01*
Y325787D01*
Y330010D01*
X297746D01*
Y334032D01*
X297746Y334290D01*
X297773Y334307D01*
X297783Y334313D01*
X298146Y334531D01*
Y334531D01*
X298146Y334568D01*
X298146Y334572D01*
X298146Y334576D01*
Y334576D01*
Y334581D01*
X298146Y334582D01*
X298146Y334593D01*
Y334594D01*
Y334599D01*
Y334600D01*
Y334601D01*
Y334601D01*
D01*
X298146Y335072D01*
Y336606D01*
X292406D01*
Y334601D01*
X292406Y334601D01*
X292406D01*
Y334601D01*
Y334531D01*
X292778Y334307D01*
X292778Y334307D01*
X292784Y334303D01*
X292806Y334290D01*
X292806Y334032D01*
Y330010D01*
X294154D01*
Y326801D01*
X271624D01*
X271253Y327355D01*
X270534Y327836D01*
X269685Y328005D01*
X268836Y327836D01*
X268117Y327355D01*
X267636Y326636D01*
X267468Y325787D01*
X267636Y324939D01*
X268117Y324219D01*
X268836Y323739D01*
X269685Y323570D01*
X270534Y323739D01*
X271253Y324219D01*
X271624Y324774D01*
X294154D01*
Y321860D01*
X292313D01*
Y316442D01*
X292313Y316329D01*
X292040Y315942D01*
X246514D01*
X244811Y317646D01*
X244482Y317865D01*
X244094Y317942D01*
X232703D01*
X230734Y319912D01*
Y321061D01*
X232120D01*
Y328261D01*
X227321D01*
Y321061D01*
X228707D01*
Y319492D01*
X228784Y319104D01*
X229004Y318776D01*
X230888Y316892D01*
X230722Y316350D01*
X230546Y316316D01*
X225531Y321331D01*
Y330244D01*
X228811Y333524D01*
X230881D01*
Y333032D01*
X230940Y332736D01*
X231107Y332485D01*
X231358Y332318D01*
X231653Y332259D01*
X234488D01*
X234784Y332318D01*
X235034Y332485D01*
X235202Y332736D01*
X235261Y333032D01*
Y336260D01*
X235202Y336555D01*
X235034Y336806D01*
X234784Y336973D01*
X234488Y337032D01*
X231653D01*
X231358Y336973D01*
X231107Y336806D01*
X230940Y336555D01*
X230881Y336260D01*
Y335767D01*
X228346D01*
X228346Y335767D01*
X227917Y335682D01*
X227553Y335439D01*
X227553Y335439D01*
X223616Y331502D01*
X223373Y331138D01*
X223288Y330709D01*
X223288Y330709D01*
Y320866D01*
X223288Y320866D01*
X223373Y320437D01*
X223059Y320008D01*
X222441Y320131D01*
X221714Y319986D01*
X221648Y320030D01*
X221260Y320108D01*
X219498D01*
Y321860D01*
X217657D01*
Y330010D01*
X219005D01*
Y334032D01*
X219005Y334290D01*
X219033Y334307D01*
X219043Y334313D01*
X219406Y334531D01*
Y334531D01*
X219406Y334568D01*
X219406Y334572D01*
X219406Y334576D01*
Y334576D01*
Y334581D01*
X219406Y334582D01*
X219406Y334593D01*
Y334594D01*
Y334599D01*
Y334600D01*
Y334601D01*
Y334601D01*
D01*
X219406Y335072D01*
Y336606D01*
X213665D01*
Y334601D01*
X213665Y334601D01*
X213665D01*
Y334601D01*
Y334531D01*
X214038Y334307D01*
X214038Y334307D01*
X214044Y334303D01*
X214065Y334290D01*
X214065Y334032D01*
Y330010D01*
X215414D01*
Y321860D01*
X213573D01*
Y316329D01*
X213224Y315974D01*
X198819D01*
X198431Y315897D01*
X198102Y315677D01*
X180683Y298257D01*
X173648D01*
X172273Y299632D01*
Y311024D01*
X172196Y311411D01*
X171976Y311740D01*
X166071Y317646D01*
X165742Y317865D01*
X165354Y317942D01*
X153963D01*
X151994Y319912D01*
Y321061D01*
X153380D01*
Y328261D01*
X148580D01*
Y321061D01*
X149967D01*
Y319492D01*
X150044Y319104D01*
X150264Y318776D01*
X152147Y316892D01*
X151982Y316350D01*
X151806Y316316D01*
X146791Y321331D01*
Y330244D01*
X150071Y333524D01*
X152141D01*
Y333032D01*
X152200Y332736D01*
X152367Y332485D01*
X152618Y332318D01*
X152913Y332259D01*
X155748D01*
X156044Y332318D01*
X156294Y332485D01*
X156462Y332736D01*
X156520Y333032D01*
Y336260D01*
X156462Y336555D01*
X156294Y336806D01*
X156044Y336973D01*
X155748Y337032D01*
X152913D01*
X152618Y336973D01*
X152367Y336806D01*
X152200Y336555D01*
X152141Y336260D01*
Y335767D01*
X149606D01*
X149606Y335767D01*
X149177Y335682D01*
X148813Y335439D01*
X148813Y335439D01*
X144876Y331502D01*
X144633Y331138D01*
X144548Y330709D01*
X144548Y330709D01*
Y320866D01*
X144548Y320866D01*
X144633Y320437D01*
X144876Y320073D01*
X150165Y314784D01*
X150000Y314242D01*
X149824Y314207D01*
X148354Y315677D01*
X148026Y315897D01*
X147638Y315974D01*
X141107D01*
X140758Y316329D01*
X140758Y316474D01*
Y321860D01*
X138917D01*
Y323921D01*
X139363Y324219D01*
X139844Y324939D01*
X140013Y325787D01*
X139844Y326636D01*
X139363Y327355D01*
X138917Y327654D01*
Y330010D01*
X140265D01*
Y334032D01*
X140265Y334290D01*
X140293Y334307D01*
X140303Y334313D01*
X140665Y334531D01*
Y334531D01*
X140665Y334568D01*
X140665Y334572D01*
X140665Y334576D01*
Y334576D01*
Y334581D01*
X140665Y334582D01*
X140665Y334593D01*
Y334594D01*
Y334599D01*
Y334600D01*
Y334601D01*
Y334601D01*
D01*
X140665Y335072D01*
Y336606D01*
X134925D01*
Y334601D01*
X134925Y334601D01*
X134925D01*
Y334601D01*
Y334531D01*
X135298Y334307D01*
X135298Y334307D01*
X135304Y334303D01*
X135325Y334290D01*
X135325Y334032D01*
Y330010D01*
X136674D01*
Y327654D01*
X136227Y327355D01*
X135747Y326636D01*
X135578Y325787D01*
X135747Y324939D01*
X136227Y324219D01*
X136674Y323921D01*
Y321860D01*
X134833D01*
Y316474D01*
X134833Y316329D01*
X134484Y315974D01*
X120079D01*
X119691Y315897D01*
X119362Y315677D01*
X101943Y298257D01*
X94908D01*
X93533Y299632D01*
Y311024D01*
X93456Y311411D01*
X93236Y311740D01*
X87331Y317646D01*
X87002Y317865D01*
X86614Y317942D01*
X75223D01*
X73253Y319912D01*
Y321061D01*
X74640D01*
Y328261D01*
X69840D01*
Y321061D01*
X71227D01*
Y319492D01*
X71304Y319104D01*
X71524Y318776D01*
X73407Y316892D01*
X73242Y316350D01*
X73066Y316316D01*
X68051Y321331D01*
Y330244D01*
X71331Y333524D01*
X73401D01*
Y333032D01*
X73460Y332736D01*
X73627Y332485D01*
X73878Y332318D01*
X74173Y332259D01*
X77008D01*
X77303Y332318D01*
X77554Y332485D01*
X77721Y332736D01*
X77780Y333032D01*
Y336260D01*
X77721Y336555D01*
X77554Y336806D01*
X77303Y336973D01*
X77008Y337032D01*
X74173D01*
X73878Y336973D01*
X73627Y336806D01*
X73460Y336555D01*
X73401Y336260D01*
Y335767D01*
X70866D01*
X70866Y335767D01*
X70437Y335682D01*
X70073Y335439D01*
X70073Y335439D01*
X66136Y331502D01*
X65893Y331138D01*
X65808Y330709D01*
X65808Y330709D01*
Y320866D01*
X65808Y320866D01*
X65893Y320437D01*
X66136Y320073D01*
X71425Y314784D01*
X71260Y314242D01*
X71084Y314207D01*
X69646Y315646D01*
X69317Y315865D01*
X68929Y315942D01*
X62291D01*
X62017Y316329D01*
X62017Y316442D01*
Y321860D01*
X60177D01*
Y323822D01*
X60771Y324219D01*
X61251Y324939D01*
X61420Y325787D01*
X61251Y326636D01*
X60771Y327355D01*
X60177Y327752D01*
Y330010D01*
X61525D01*
Y334032D01*
X61525Y334290D01*
X61553Y334307D01*
X61563Y334313D01*
X61925Y334531D01*
Y334531D01*
X61925Y334568D01*
X61925Y334572D01*
X61925Y334576D01*
Y334576D01*
Y334581D01*
X61925Y334582D01*
X61925Y334593D01*
Y334594D01*
Y334599D01*
Y334600D01*
Y334601D01*
Y334601D01*
D01*
X61925Y335072D01*
Y336606D01*
X56185D01*
Y334601D01*
X56185Y334601D01*
X56185D01*
Y334601D01*
Y334531D01*
X56558Y334307D01*
X56558Y334307D01*
X56564Y334303D01*
X56585Y334290D01*
X56585Y334032D01*
Y330010D01*
X57934D01*
Y327555D01*
X57635Y327355D01*
X57154Y326636D01*
X56985Y325787D01*
X57154Y324939D01*
X57635Y324219D01*
X57934Y324020D01*
Y321860D01*
X56093D01*
Y316442D01*
X56093Y316329D01*
X55977Y316165D01*
X55387Y316124D01*
X54163Y317349D01*
Y363754D01*
X59475Y369066D01*
X194747D01*
X194917Y368566D01*
X194639Y368353D01*
X194142Y367705D01*
X193830Y366951D01*
X193724Y366142D01*
X193830Y365333D01*
X194142Y364578D01*
X194639Y363931D01*
X195287Y363434D01*
X196041Y363122D01*
X196850Y363015D01*
X197660Y363122D01*
X198414Y363434D01*
X199061Y363931D01*
X199558Y364578D01*
X199871Y365333D01*
X199977Y366142D01*
X199871Y366951D01*
X199558Y367705D01*
X199061Y368353D01*
X198784Y368566D01*
X198954Y369066D01*
X266732D01*
X267120Y369143D01*
X267449Y369362D01*
X268736Y370650D01*
X269726D01*
X269821Y370159D01*
X269101Y369678D01*
X268621Y368959D01*
X268452Y368110D01*
X268621Y367262D01*
X269101Y366542D01*
X269656Y366172D01*
Y359222D01*
X269101Y358851D01*
X268621Y358132D01*
X268452Y357283D01*
X268621Y356435D01*
X269101Y355715D01*
X269821Y355235D01*
X270669Y355066D01*
X271518Y355235D01*
X272237Y355715D01*
X272718Y356435D01*
X272887Y357283D01*
X272718Y358132D01*
X272237Y358851D01*
X271683Y359222D01*
Y366172D01*
X272237Y366542D01*
X272718Y367262D01*
X272887Y368110D01*
X272718Y368959D01*
X272237Y369678D01*
X271518Y370159D01*
X271613Y370650D01*
X316791D01*
X317027Y370209D01*
X316849Y369943D01*
X316680Y369094D01*
X316849Y368246D01*
X317330Y367527D01*
X317884Y367156D01*
Y357254D01*
X317330Y356883D01*
X316849Y356164D01*
X316680Y355315D01*
X316849Y354466D01*
X317330Y353747D01*
X318049Y353266D01*
X318898Y353098D01*
X319746Y353266D01*
X320466Y353747D01*
X320946Y354466D01*
X321115Y355315D01*
X320946Y356164D01*
X320466Y356883D01*
X319911Y357254D01*
Y367156D01*
X320466Y367527D01*
X320946Y368246D01*
X321115Y369094D01*
X320946Y369943D01*
X320769Y370209D01*
X321004Y370650D01*
X321815D01*
X323102Y369362D01*
X323431Y369143D01*
X323819Y369066D01*
X403543D01*
X403931Y369143D01*
X404260Y369362D01*
X408197Y373299D01*
X408416Y373628D01*
X408494Y374016D01*
Y389764D01*
X408416Y390152D01*
X408197Y390480D01*
X404556Y394121D01*
X404808Y394576D01*
X405512Y394436D01*
X406360Y394605D01*
X407080Y395086D01*
X407560Y395805D01*
X407713Y396570D01*
X409134Y397991D01*
X409833D01*
Y396250D01*
X416939D01*
Y402962D01*
X409833D01*
Y401222D01*
X408465D01*
X407846Y401099D01*
X407322Y400748D01*
X405428Y398854D01*
X404663Y398702D01*
X403944Y398221D01*
X403463Y397502D01*
X403294Y396654D01*
X403434Y395950D01*
X402979Y395697D01*
X402291Y396386D01*
X401963Y396605D01*
X401575Y396683D01*
X390183D01*
X388214Y398652D01*
Y399801D01*
X389601D01*
Y407001D01*
X384801D01*
Y399801D01*
X386188D01*
Y398232D01*
X386265Y397845D01*
X386484Y397516D01*
X388368Y395632D01*
X388203Y395090D01*
X388026Y395056D01*
X383011Y400071D01*
Y408984D01*
X386291Y412264D01*
X388362D01*
Y411772D01*
X388420Y411476D01*
X388588Y411226D01*
X388838Y411058D01*
X389134Y410999D01*
X391968D01*
X392264Y411058D01*
X392515Y411226D01*
X392682Y411476D01*
X392741Y411772D01*
Y415000D01*
X392682Y415296D01*
X392515Y415546D01*
X392264Y415714D01*
X391968Y415772D01*
D02*
G37*
G36*
X317610Y412886D02*
X315513D01*
Y411772D01*
X315603Y411320D01*
X315858Y410937D01*
X316241Y410681D01*
X316693Y410592D01*
X317610D01*
Y412886D01*
D02*
G37*
G36*
X396350D02*
X394253D01*
Y411772D01*
X394343Y411320D01*
X394599Y410937D01*
X394981Y410681D01*
X395433Y410592D01*
X396350D01*
Y412886D01*
D02*
G37*
G36*
X275091Y420760D02*
X271670D01*
X271740Y420228D01*
X272138Y419266D01*
X272771Y418441D01*
X273597Y417807D01*
X274559Y417409D01*
X275091Y417339D01*
Y420760D01*
D02*
G37*
G36*
Y425181D02*
X274559Y425111D01*
X273597Y424713D01*
X272771Y424079D01*
X272138Y423253D01*
X271740Y422292D01*
X271670Y421760D01*
X275091D01*
Y425181D01*
D02*
G37*
G36*
X276091D02*
Y421760D01*
X279512D01*
X279442Y422292D01*
X279043Y423253D01*
X278410Y424079D01*
X277584Y424713D01*
X276622Y425111D01*
X276091Y425181D01*
D02*
G37*
G36*
X197350D02*
Y421760D01*
X200771D01*
X200701Y422292D01*
X200303Y423253D01*
X199670Y424079D01*
X198844Y424713D01*
X197882Y425111D01*
X197350Y425181D01*
D02*
G37*
G36*
X279512Y420760D02*
X276091D01*
Y417339D01*
X276622Y417409D01*
X277584Y417807D01*
X278410Y418441D01*
X279043Y419266D01*
X279442Y420228D01*
X279512Y420760D01*
D02*
G37*
G36*
X196350Y425181D02*
X195818Y425111D01*
X194857Y424713D01*
X194031Y424079D01*
X193398Y423253D01*
X192999Y422292D01*
X192929Y421760D01*
X196350D01*
Y425181D01*
D02*
G37*
G36*
X157480Y428287D02*
X157480Y428287D01*
X137795D01*
X137366Y428201D01*
X137002Y427958D01*
X136759Y427595D01*
X136674Y427165D01*
Y418421D01*
X134925D01*
Y416347D01*
X140665D01*
Y418421D01*
X138917D01*
Y426044D01*
X157016D01*
X159508Y423551D01*
Y416180D01*
X159213D01*
X158761Y416090D01*
X158378Y415835D01*
X158122Y415452D01*
X158032Y415000D01*
Y413886D01*
X160630D01*
Y413386D01*
X161130D01*
Y410592D01*
X162047D01*
X162355Y410653D01*
X162855Y410364D01*
Y407401D01*
X161176D01*
Y403901D01*
X166776D01*
Y407401D01*
X165098D01*
Y412795D01*
X165013Y413225D01*
X164769Y413588D01*
X164769Y413588D01*
X164179Y414179D01*
X163815Y414422D01*
X163386Y414507D01*
X163227Y414957D01*
Y415000D01*
X163138Y415452D01*
X162882Y415835D01*
X162499Y416090D01*
X162047Y416180D01*
X161751D01*
Y424016D01*
X161751Y424016D01*
X161666Y424445D01*
X161423Y424809D01*
X161423Y424809D01*
X158273Y427958D01*
X157910Y428201D01*
X157480Y428287D01*
D02*
G37*
G36*
X236221D02*
X236220Y428287D01*
X216535D01*
X216106Y428201D01*
X215742Y427958D01*
X215499Y427595D01*
X215414Y427165D01*
Y418421D01*
X213665D01*
Y416347D01*
X219406D01*
Y418421D01*
X217657D01*
Y426044D01*
X235756D01*
X238248Y423551D01*
Y416180D01*
X237953D01*
X237501Y416090D01*
X237118Y415835D01*
X236862Y415452D01*
X236773Y415000D01*
Y413886D01*
X239370D01*
Y413386D01*
X239870D01*
Y410592D01*
X240787D01*
X241095Y410653D01*
X241595Y410364D01*
Y407401D01*
X239916D01*
Y403901D01*
X245516D01*
Y407401D01*
X243838D01*
Y412795D01*
X243753Y413225D01*
X243510Y413588D01*
X243510Y413588D01*
X242919Y414179D01*
X242555Y414422D01*
X242126Y414507D01*
X241968Y414957D01*
Y415000D01*
X241878Y415452D01*
X241622Y415835D01*
X241239Y416090D01*
X240787Y416180D01*
X240492D01*
Y424016D01*
X240492Y424016D01*
X240406Y424445D01*
X240163Y424809D01*
X240163Y424809D01*
X237014Y427958D01*
X236650Y428201D01*
X236221Y428287D01*
D02*
G37*
G36*
X79134D02*
X79134Y428287D01*
X51181D01*
X50752Y428201D01*
X50388Y427958D01*
X50388Y427958D01*
X42514Y420084D01*
X42271Y419721D01*
X42186Y419291D01*
X42186Y419291D01*
Y393701D01*
X42186Y393701D01*
X42271Y393272D01*
X42514Y392908D01*
X44975Y390447D01*
X44975Y390447D01*
X45338Y390204D01*
X45768Y390119D01*
X45768Y390119D01*
X46343D01*
Y388665D01*
X48713D01*
Y391240D01*
X49213D01*
Y391740D01*
X52083D01*
Y393745D01*
X52083Y393745D01*
X52083D01*
Y393745D01*
Y393815D01*
X51710Y394040D01*
X51710Y394040D01*
X51704Y394043D01*
X51683Y394056D01*
X51683Y394315D01*
Y398336D01*
X50226D01*
Y401155D01*
X51601Y402530D01*
X53121D01*
Y378937D01*
X53198Y378549D01*
X53417Y378221D01*
X58939Y372699D01*
X59267Y372480D01*
X59655Y372403D01*
X80109D01*
X80496Y372480D01*
X80825Y372699D01*
X83394Y375268D01*
X83613Y375596D01*
X83690Y375984D01*
Y377953D01*
X83613Y378341D01*
X83394Y378669D01*
X79753Y382309D01*
Y389764D01*
X79676Y390152D01*
X79457Y390480D01*
X78859Y391078D01*
X78989Y391732D01*
X78820Y392581D01*
X78340Y393300D01*
X77620Y393781D01*
X76772Y393950D01*
X75923Y393781D01*
X75204Y393300D01*
X74723Y392581D01*
X74554Y391732D01*
X74723Y390884D01*
X75204Y390164D01*
X75923Y389684D01*
X76772Y389515D01*
X77345Y389629D01*
X77727Y389290D01*
Y381890D01*
X77804Y381502D01*
X78024Y381173D01*
X81664Y377533D01*
Y376576D01*
X81357Y376327D01*
X80856Y376496D01*
X80789Y376833D01*
X80308Y377552D01*
X79589Y378033D01*
X78740Y378202D01*
X77892Y378033D01*
X77172Y377552D01*
X76874Y377106D01*
X73362D01*
Y380455D01*
X74640D01*
Y387655D01*
X69840D01*
Y380455D01*
X71119D01*
Y377106D01*
X66082D01*
Y405047D01*
X69691Y408656D01*
X69691Y408656D01*
X69934Y409020D01*
X70019Y409449D01*
Y410953D01*
X71331Y412264D01*
X73401D01*
Y411772D01*
X73460Y411476D01*
X73627Y411226D01*
X73878Y411058D01*
X74173Y410999D01*
X77008D01*
X77303Y411058D01*
X77554Y411226D01*
X77721Y411476D01*
X77780Y411772D01*
Y415000D01*
X77721Y415296D01*
X77554Y415546D01*
X77303Y415714D01*
X77008Y415772D01*
X74173D01*
X73878Y415714D01*
X73627Y415546D01*
X73460Y415296D01*
X73401Y415000D01*
Y414507D01*
X70866D01*
X70437Y414422D01*
X70073Y414179D01*
X70073Y414179D01*
X68105Y412210D01*
X67931Y411951D01*
X67446Y412125D01*
X67570Y413386D01*
X67406Y415047D01*
X66922Y416644D01*
X66135Y418117D01*
X65076Y419407D01*
X63786Y420466D01*
X62314Y421253D01*
X60716Y421737D01*
X59055Y421901D01*
X57394Y421737D01*
X55797Y421253D01*
X54324Y420466D01*
X53034Y419407D01*
X51975Y418117D01*
X51188Y416644D01*
X50704Y415047D01*
X50540Y413386D01*
X50704Y411725D01*
X51188Y410127D01*
X51975Y408655D01*
X53034Y407365D01*
X54324Y406306D01*
X55797Y405519D01*
X57394Y405034D01*
X59055Y404871D01*
X60716Y405034D01*
X62314Y405519D01*
X63495Y406150D01*
X63563Y406117D01*
X63896Y405798D01*
X63839Y405512D01*
X63839Y405512D01*
Y379345D01*
X63377Y379154D01*
X60177Y382354D01*
Y386802D01*
X62017D01*
Y392332D01*
X56093D01*
Y386802D01*
X57934D01*
Y381890D01*
X57934Y381890D01*
X58019Y381461D01*
X58262Y381097D01*
X64168Y375191D01*
X64168Y375191D01*
X64531Y374948D01*
X64628Y374929D01*
X64578Y374429D01*
X60075D01*
X55147Y379357D01*
Y402530D01*
X56667D01*
X58042Y401155D01*
Y400600D01*
X56093D01*
Y395069D01*
X62017D01*
Y400600D01*
X60068D01*
Y401575D01*
X59991Y401963D01*
X59772Y402291D01*
X57803Y404260D01*
X57474Y404479D01*
X57087Y404557D01*
X51181D01*
X50793Y404479D01*
X50465Y404260D01*
X48496Y402291D01*
X48276Y401963D01*
X48199Y401575D01*
Y398336D01*
X46742D01*
Y394315D01*
X46742Y394056D01*
X46715Y394040D01*
X46705Y394034D01*
X46343Y393815D01*
Y393815D01*
X46343Y393778D01*
X46343Y393774D01*
X46343Y393771D01*
Y393771D01*
Y393765D01*
X46343Y393764D01*
X46343Y393754D01*
Y393753D01*
Y393747D01*
Y393746D01*
Y393745D01*
Y393745D01*
D01*
X46343Y393274D01*
Y392959D01*
X45842Y392752D01*
X44429Y394165D01*
Y418827D01*
X51646Y426044D01*
X78669D01*
X80768Y423945D01*
Y416180D01*
X80472D01*
X80021Y416090D01*
X79638Y415835D01*
X79382Y415452D01*
X79292Y415000D01*
Y413886D01*
X81890D01*
Y413386D01*
X82390D01*
Y410592D01*
X83307D01*
X83615Y410653D01*
X84115Y410364D01*
Y407401D01*
X82436D01*
Y403901D01*
X88036D01*
Y407401D01*
X86358D01*
Y412795D01*
X86272Y413225D01*
X86029Y413588D01*
X86029Y413588D01*
X85439Y414179D01*
X85075Y414422D01*
X84646Y414507D01*
X84487Y414957D01*
Y415000D01*
X84397Y415452D01*
X84142Y415835D01*
X83759Y416090D01*
X83307Y416180D01*
X83011D01*
Y424409D01*
X83011Y424409D01*
X82926Y424839D01*
X82683Y425203D01*
X82683Y425203D01*
X79927Y427958D01*
X79563Y428201D01*
X79134Y428287D01*
D02*
G37*
G36*
X399697Y402901D02*
X397397D01*
Y399401D01*
X399697D01*
Y402901D01*
D02*
G37*
G36*
X402997D02*
X400697D01*
Y399401D01*
X402997D01*
Y402901D01*
D02*
G37*
G36*
X314961Y428287D02*
X314961Y428287D01*
X295276D01*
X294846Y428201D01*
X294482Y427958D01*
X294239Y427595D01*
X294154Y427165D01*
Y418421D01*
X292406D01*
Y416347D01*
X298146D01*
Y418421D01*
X296397D01*
Y426044D01*
X314496D01*
X316989Y423551D01*
Y416180D01*
X316693D01*
X316241Y416090D01*
X315858Y415835D01*
X315603Y415452D01*
X315513Y415000D01*
Y413886D01*
X318110D01*
Y413386D01*
X318610D01*
Y410592D01*
X319528D01*
X319835Y410653D01*
X320335Y410364D01*
Y407401D01*
X318657D01*
Y403901D01*
X324257D01*
Y407401D01*
X322578D01*
Y412795D01*
X322493Y413225D01*
X322250Y413588D01*
X322250Y413588D01*
X321659Y414179D01*
X321295Y414422D01*
X320866Y414507D01*
X320708Y414957D01*
Y415000D01*
X320618Y415452D01*
X320362Y415835D01*
X319979Y416090D01*
X319528Y416180D01*
X319232D01*
Y424016D01*
X319232Y424016D01*
X319146Y424445D01*
X318903Y424809D01*
X318903Y424809D01*
X315754Y427958D01*
X315390Y428201D01*
X314961Y428287D01*
D02*
G37*
G36*
X160130Y412886D02*
X158032D01*
Y411772D01*
X158122Y411320D01*
X158378Y410937D01*
X158761Y410681D01*
X159213Y410592D01*
X160130D01*
Y412886D01*
D02*
G37*
G36*
X238870D02*
X236773D01*
Y411772D01*
X236862Y411320D01*
X237118Y410937D01*
X237501Y410681D01*
X237953Y410592D01*
X238870D01*
Y412886D01*
D02*
G37*
G36*
X81390D02*
X79292D01*
Y411772D01*
X79382Y411320D01*
X79638Y410937D01*
X80021Y410681D01*
X80472Y410592D01*
X81390D01*
Y412886D01*
D02*
G37*
G36*
X393701Y428287D02*
X393701Y428287D01*
X374016D01*
X373587Y428201D01*
X373223Y427958D01*
X372980Y427595D01*
X372894Y427165D01*
Y418421D01*
X371146D01*
Y416347D01*
X376886D01*
Y418421D01*
X375137D01*
Y426044D01*
X393236D01*
X395729Y423551D01*
Y416180D01*
X395433D01*
X394981Y416090D01*
X394599Y415835D01*
X394343Y415452D01*
X394253Y415000D01*
Y413886D01*
X396850D01*
Y413386D01*
X397350D01*
Y410592D01*
X398268D01*
X398575Y410653D01*
X399075Y410364D01*
Y407401D01*
X397397D01*
Y403901D01*
X402997D01*
Y407401D01*
X401318D01*
Y412795D01*
X401233Y413225D01*
X400990Y413588D01*
X400990Y413588D01*
X400399Y414179D01*
X400035Y414422D01*
X399606Y414507D01*
X399448Y414957D01*
Y415000D01*
X399358Y415452D01*
X399102Y415835D01*
X398719Y416090D01*
X398268Y416180D01*
X397972D01*
Y424016D01*
X397972Y424016D01*
X397887Y424445D01*
X397643Y424809D01*
X397643Y424809D01*
X394494Y427958D01*
X394130Y428201D01*
X393701Y428287D01*
D02*
G37*
G36*
X413386Y421901D02*
X411725Y421737D01*
X410127Y421253D01*
X408655Y420466D01*
X407365Y419407D01*
X406306Y418117D01*
X405519Y416644D01*
X405034Y415047D01*
X404871Y413386D01*
X405034Y411725D01*
X405519Y410127D01*
X406306Y408655D01*
X407365Y407365D01*
X408655Y406306D01*
X410127Y405519D01*
X411725Y405034D01*
X413386Y404871D01*
X415047Y405034D01*
X416644Y405519D01*
X418117Y406306D01*
X419407Y407365D01*
X420466Y408655D01*
X421253Y410127D01*
X421737Y411725D01*
X421901Y413386D01*
X421737Y415047D01*
X421253Y416644D01*
X420466Y418117D01*
X419407Y419407D01*
X418117Y420466D01*
X416644Y421253D01*
X415047Y421737D01*
X413386Y421901D01*
D02*
G37*
G36*
X159441Y363181D02*
X156020D01*
X156090Y362649D01*
X156488Y361688D01*
X157122Y360862D01*
X157948Y360228D01*
X158909Y359830D01*
X159441Y359760D01*
Y363181D01*
D02*
G37*
G36*
X374016Y291587D02*
X373167Y291419D01*
X372448Y290938D01*
X372077Y290383D01*
X260827D01*
X260439Y290306D01*
X260110Y290087D01*
X259513Y289489D01*
X258858Y289619D01*
X258010Y289450D01*
X257290Y288969D01*
X256810Y288250D01*
X256641Y287402D01*
X256810Y286553D01*
X257290Y285834D01*
X258010Y285353D01*
X258858Y285184D01*
X259707Y285353D01*
X260426Y285834D01*
X260907Y286553D01*
X261076Y287402D01*
X260962Y287975D01*
X261300Y288357D01*
X372077D01*
X372448Y287802D01*
X373167Y287321D01*
X374016Y287153D01*
X374864Y287321D01*
X375584Y287802D01*
X376064Y288522D01*
X376233Y289370D01*
X376064Y290219D01*
X375584Y290938D01*
X374864Y291419D01*
X374016Y291587D01*
D02*
G37*
G36*
X416939Y312411D02*
X409833D01*
Y305699D01*
X412373D01*
Y303120D01*
X411818Y302749D01*
X411337Y302030D01*
X411168Y301181D01*
X411337Y300332D01*
X411818Y299613D01*
X412537Y299132D01*
X413386Y298964D01*
X414234Y299132D01*
X414954Y299613D01*
X415435Y300332D01*
X415603Y301181D01*
X415435Y302030D01*
X414954Y302749D01*
X414399Y303120D01*
Y305699D01*
X416939D01*
Y312411D01*
D02*
G37*
G36*
X222441Y286863D02*
X221592Y286694D01*
X220873Y286214D01*
X220502Y285659D01*
X207451D01*
X207080Y286214D01*
X206360Y286694D01*
X205512Y286863D01*
X204663Y286694D01*
X203944Y286214D01*
X203463Y285494D01*
X203294Y284646D01*
X203463Y283797D01*
X203944Y283078D01*
X204663Y282597D01*
X205512Y282428D01*
X206360Y282597D01*
X207080Y283078D01*
X207451Y283632D01*
X220502D01*
X220873Y283078D01*
X221592Y282597D01*
X222441Y282428D01*
X223289Y282597D01*
X224009Y283078D01*
X224490Y283797D01*
X224658Y284646D01*
X224490Y285494D01*
X224009Y286214D01*
X223289Y286694D01*
X222441Y286863D01*
D02*
G37*
G36*
X47728Y284433D02*
X47196Y284363D01*
X46235Y283964D01*
X45409Y283331D01*
X44776Y282505D01*
X44377Y281544D01*
X44307Y281012D01*
X47728D01*
Y284433D01*
D02*
G37*
G36*
X269685Y284698D02*
X268836Y284529D01*
X268117Y284048D01*
X267746Y283493D01*
X258828D01*
X258458Y284048D01*
X257738Y284529D01*
X256890Y284698D01*
X256041Y284529D01*
X255322Y284048D01*
X254841Y283329D01*
X254672Y282480D01*
X254841Y281632D01*
X255322Y280912D01*
X256041Y280432D01*
X256890Y280263D01*
X257738Y280432D01*
X258458Y280912D01*
X258828Y281467D01*
X267746D01*
X268117Y280912D01*
X268836Y280432D01*
X269685Y280263D01*
X270534Y280432D01*
X271253Y280912D01*
X271734Y281632D01*
X271902Y282480D01*
X271734Y283329D01*
X271253Y284048D01*
X270534Y284529D01*
X269685Y284698D01*
D02*
G37*
G36*
X338198Y312411D02*
X331093D01*
Y305699D01*
X333632D01*
Y304104D01*
X333078Y303733D01*
X332597Y303014D01*
X332428Y302165D01*
X332597Y301317D01*
X333078Y300597D01*
X333797Y300117D01*
X334646Y299948D01*
X335494Y300117D01*
X336214Y300597D01*
X336694Y301317D01*
X336863Y302165D01*
X336694Y303014D01*
X336214Y303733D01*
X335659Y304104D01*
Y305699D01*
X338198D01*
Y312411D01*
D02*
G37*
G36*
X135827Y355444D02*
X135401Y355360D01*
X135281Y355279D01*
X135039Y355118D01*
X135039Y355118D01*
X127165Y347244D01*
X126924Y346883D01*
X126839Y346457D01*
Y331170D01*
X105838Y310169D01*
X101978D01*
Y312411D01*
X94872D01*
Y305699D01*
X101978D01*
Y307942D01*
X106299D01*
X106725Y308026D01*
X107087Y308268D01*
X128740Y329921D01*
X128740Y329921D01*
X128981Y330282D01*
X129066Y330709D01*
Y345995D01*
X136288Y353217D01*
X166862D01*
X176052Y344027D01*
Y324222D01*
X173613D01*
Y317510D01*
X180718D01*
Y324222D01*
X178279D01*
Y344488D01*
X178279Y344488D01*
X178194Y344914D01*
X178114Y345034D01*
X177953Y345276D01*
X177953Y345276D01*
X168110Y355118D01*
X167749Y355360D01*
X167323Y355444D01*
X135827D01*
X135827Y355444D01*
D02*
G37*
G36*
X324803Y346706D02*
X323955Y346537D01*
X323235Y346056D01*
X322755Y345337D01*
X322586Y344488D01*
X322755Y343640D01*
X323235Y342920D01*
X323955Y342440D01*
X324803Y342271D01*
X325458Y342401D01*
X333632Y334226D01*
Y324222D01*
X331093D01*
Y317510D01*
X338198D01*
Y324222D01*
X335659D01*
Y334646D01*
X335582Y335033D01*
X335362Y335362D01*
X326890Y343834D01*
X327021Y344488D01*
X326852Y345337D01*
X326371Y346056D01*
X325652Y346537D01*
X324803Y346706D01*
D02*
G37*
G36*
X89567Y345721D02*
X88718Y345553D01*
X87999Y345072D01*
X87518Y344353D01*
X87349Y343504D01*
X87518Y342655D01*
X87999Y341936D01*
X88718Y341455D01*
X89483Y341303D01*
X96810Y333977D01*
Y330237D01*
X96377Y329589D01*
X96208Y328740D01*
X96377Y327892D01*
X96810Y327243D01*
Y324222D01*
X94872D01*
Y317510D01*
X101978D01*
Y324222D01*
X100040D01*
Y327243D01*
X100474Y327892D01*
X100643Y328740D01*
X100474Y329589D01*
X100040Y330237D01*
Y334646D01*
X99918Y335264D01*
X99567Y335788D01*
X91768Y343587D01*
X91615Y344353D01*
X91135Y345072D01*
X90416Y345553D01*
X89567Y345721D01*
D02*
G37*
G36*
X259458Y312411D02*
X252353D01*
Y305699D01*
X254892D01*
Y305088D01*
X254338Y304718D01*
X253857Y303998D01*
X253688Y303150D01*
X253857Y302301D01*
X254338Y301582D01*
X255057Y301101D01*
X255906Y300932D01*
X256754Y301101D01*
X257473Y301582D01*
X257954Y302301D01*
X258123Y303150D01*
X257954Y303998D01*
X257473Y304718D01*
X256919Y305088D01*
Y305699D01*
X259458D01*
Y312411D01*
D02*
G37*
G36*
X199803Y312257D02*
X198955Y312088D01*
X198235Y311607D01*
X197755Y310888D01*
X197586Y310039D01*
X197755Y309191D01*
X198235Y308471D01*
X198955Y307991D01*
X199803Y307822D01*
X200458Y307952D01*
X204992Y303417D01*
X205321Y303198D01*
X205709Y303121D01*
X210660D01*
X211031Y302566D01*
X211750Y302085D01*
X212598Y301916D01*
X213447Y302085D01*
X214166Y302566D01*
X214647Y303285D01*
X214816Y304134D01*
X214647Y304982D01*
X214166Y305702D01*
X213447Y306183D01*
X212598Y306351D01*
X211750Y306183D01*
X211031Y305702D01*
X210660Y305147D01*
X206128D01*
X201890Y309385D01*
X202021Y310039D01*
X201852Y310888D01*
X201371Y311607D01*
X200652Y312088D01*
X199803Y312257D01*
D02*
G37*
G36*
X396350Y255405D02*
X394253D01*
Y254291D01*
X394343Y253840D01*
X394599Y253457D01*
X394981Y253201D01*
X395433Y253111D01*
X396350D01*
Y255405D01*
D02*
G37*
G36*
X257874Y275839D02*
X257026Y275671D01*
X256306Y275190D01*
X255825Y274471D01*
X255657Y273622D01*
X255825Y272774D01*
X256306Y272054D01*
X257026Y271573D01*
X257874Y271405D01*
X258401Y271509D01*
X260683Y269227D01*
X260578Y268701D01*
X260747Y267852D01*
X261227Y267133D01*
X261947Y266652D01*
X262795Y266483D01*
X263644Y266652D01*
X264363Y267133D01*
X264844Y267852D01*
X265013Y268701D01*
X264844Y269549D01*
X264363Y270269D01*
X263644Y270749D01*
X262795Y270918D01*
X262269Y270813D01*
X259987Y273095D01*
X260091Y273622D01*
X259923Y274471D01*
X259442Y275190D01*
X258723Y275671D01*
X257874Y275839D01*
D02*
G37*
G36*
X317610Y255405D02*
X315513D01*
Y254291D01*
X315603Y253840D01*
X315858Y253457D01*
X316241Y253201D01*
X316693Y253111D01*
X317610D01*
Y255405D01*
D02*
G37*
G36*
X160130D02*
X158032D01*
Y254291D01*
X158122Y253840D01*
X158378Y253457D01*
X158761Y253201D01*
X159213Y253111D01*
X160130D01*
Y255405D01*
D02*
G37*
G36*
X238870D02*
X236773D01*
Y254291D01*
X236862Y253840D01*
X237118Y253457D01*
X237501Y253201D01*
X237953Y253111D01*
X238870D01*
Y255405D01*
D02*
G37*
G36*
X420760Y275091D02*
X417339D01*
X417409Y274559D01*
X417807Y273597D01*
X418441Y272771D01*
X419266Y272138D01*
X420228Y271740D01*
X420760Y271670D01*
Y275091D01*
D02*
G37*
G36*
X47728Y280012D02*
X44307D01*
X44377Y279480D01*
X44776Y278518D01*
X45409Y277693D01*
X46235Y277059D01*
X47196Y276661D01*
X47728Y276591D01*
Y280012D01*
D02*
G37*
G36*
X267717Y279777D02*
X266868Y279608D01*
X266149Y279127D01*
X265850Y278681D01*
X256787D01*
X256489Y279127D01*
X255770Y279608D01*
X254921Y279777D01*
X254073Y279608D01*
X253353Y279127D01*
X252873Y278408D01*
X252704Y277559D01*
X252873Y276711D01*
X253353Y275991D01*
X254073Y275510D01*
X254921Y275342D01*
X255770Y275510D01*
X256489Y275991D01*
X256787Y276437D01*
X265850D01*
X266149Y275991D01*
X266868Y275510D01*
X267717Y275342D01*
X268565Y275510D01*
X269285Y275991D01*
X269765Y276711D01*
X269934Y277559D01*
X269765Y278408D01*
X269285Y279127D01*
X268565Y279608D01*
X267717Y279777D01*
D02*
G37*
G36*
X421760Y279512D02*
Y276091D01*
X425181D01*
X425111Y276622D01*
X424713Y277584D01*
X424079Y278410D01*
X423253Y279043D01*
X422292Y279442D01*
X421760Y279512D01*
D02*
G37*
G36*
X425181Y275091D02*
X421760D01*
Y271670D01*
X422292Y271740D01*
X423253Y272138D01*
X424079Y272771D01*
X424713Y273597D01*
X425111Y274559D01*
X425181Y275091D01*
D02*
G37*
G36*
X420760Y279512D02*
X420228Y279442D01*
X419266Y279043D01*
X418441Y278410D01*
X417807Y277584D01*
X417409Y276622D01*
X417339Y276091D01*
X420760D01*
Y279512D01*
D02*
G37*
G36*
X413386Y335879D02*
X412537Y335710D01*
X411818Y335229D01*
X411337Y334510D01*
X411168Y333661D01*
X411337Y332813D01*
X411818Y332094D01*
X412373Y331723D01*
Y324222D01*
X409833D01*
Y317510D01*
X416939D01*
Y324222D01*
X414399D01*
Y331723D01*
X414954Y332094D01*
X415435Y332813D01*
X415603Y333661D01*
X415435Y334510D01*
X414954Y335229D01*
X414234Y335710D01*
X413386Y335879D01*
D02*
G37*
G36*
X393701Y349547D02*
X393701Y349547D01*
X374016D01*
X373587Y349461D01*
X373223Y349218D01*
X372980Y348854D01*
X372894Y348425D01*
Y339681D01*
X371146D01*
Y337606D01*
X376886D01*
Y339681D01*
X375137D01*
Y347304D01*
X393236D01*
X395729Y344811D01*
Y337440D01*
X395433D01*
X394981Y337350D01*
X394599Y337094D01*
X394343Y336712D01*
X394253Y336260D01*
Y335146D01*
X396850D01*
Y334646D01*
X397350D01*
Y331851D01*
X398268D01*
X398575Y331912D01*
X399075Y331623D01*
Y328661D01*
X397397D01*
Y325161D01*
X402997D01*
Y328661D01*
X401318D01*
Y334055D01*
X401233Y334484D01*
X400990Y334848D01*
X400990Y334848D01*
X400399Y335439D01*
X400035Y335682D01*
X399606Y335767D01*
X399448Y336217D01*
Y336260D01*
X399358Y336712D01*
X399102Y337094D01*
X398719Y337350D01*
X398268Y337440D01*
X397972D01*
Y345275D01*
X397972Y345276D01*
X397887Y345705D01*
X397643Y346069D01*
X397643Y346069D01*
X394494Y349218D01*
X394130Y349461D01*
X393701Y349547D01*
D02*
G37*
G36*
X81390Y334146D02*
X79292D01*
Y333032D01*
X79382Y332580D01*
X79638Y332197D01*
X80021Y331941D01*
X80472Y331851D01*
X81390D01*
Y334146D01*
D02*
G37*
G36*
X314961Y349547D02*
X314961Y349547D01*
X295276D01*
X294846Y349461D01*
X294482Y349218D01*
X294239Y348854D01*
X294154Y348425D01*
Y339681D01*
X292406D01*
Y337606D01*
X298146D01*
Y339681D01*
X296397D01*
Y347304D01*
X314496D01*
X316989Y344811D01*
Y337440D01*
X316693D01*
X316241Y337350D01*
X315858Y337094D01*
X315603Y336712D01*
X315513Y336260D01*
Y335146D01*
X318110D01*
Y334646D01*
X318610D01*
Y331851D01*
X319528D01*
X319835Y331912D01*
X320335Y331623D01*
Y328661D01*
X318657D01*
Y325161D01*
X324257D01*
Y328661D01*
X322578D01*
Y334055D01*
X322493Y334484D01*
X322250Y334848D01*
X322250Y334848D01*
X321659Y335439D01*
X321295Y335682D01*
X320866Y335767D01*
X320708Y336217D01*
Y336260D01*
X320618Y336712D01*
X320362Y337094D01*
X319979Y337350D01*
X319528Y337440D01*
X319232D01*
Y345275D01*
X319232Y345276D01*
X319146Y345705D01*
X318903Y346069D01*
X318903Y346069D01*
X315754Y349218D01*
X315390Y349461D01*
X314961Y349547D01*
D02*
G37*
G36*
X157480D02*
X157480Y349547D01*
X137795D01*
X137366Y349461D01*
X137002Y349218D01*
X136759Y348854D01*
X136674Y348425D01*
Y339681D01*
X134925D01*
Y337606D01*
X140665D01*
Y339681D01*
X138917D01*
Y347304D01*
X157016D01*
X159508Y344811D01*
Y337440D01*
X159213D01*
X158761Y337350D01*
X158378Y337094D01*
X158122Y336712D01*
X158032Y336260D01*
Y335146D01*
X160630D01*
Y334646D01*
X161130D01*
Y331851D01*
X162047D01*
X162355Y331912D01*
X162855Y331623D01*
Y328661D01*
X161176D01*
Y325161D01*
X166776D01*
Y328661D01*
X165098D01*
Y334055D01*
X165013Y334484D01*
X164769Y334848D01*
X164769Y334848D01*
X164179Y335439D01*
X163815Y335682D01*
X163386Y335767D01*
X163227Y336217D01*
Y336260D01*
X163138Y336712D01*
X162882Y337094D01*
X162499Y337350D01*
X162047Y337440D01*
X161751D01*
Y345275D01*
X161751Y345276D01*
X161666Y345705D01*
X161423Y346069D01*
X161423Y346069D01*
X158273Y349218D01*
X157910Y349461D01*
X157480Y349547D01*
D02*
G37*
G36*
X236221D02*
X236220Y349547D01*
X216535D01*
X216106Y349461D01*
X215742Y349218D01*
X215499Y348854D01*
X215414Y348425D01*
Y339681D01*
X213665D01*
Y337606D01*
X219406D01*
Y339681D01*
X217657D01*
Y347304D01*
X235756D01*
X238248Y344811D01*
Y337440D01*
X237953D01*
X237501Y337350D01*
X237118Y337094D01*
X236862Y336712D01*
X236773Y336260D01*
Y335146D01*
X239370D01*
Y334646D01*
X239870D01*
Y331851D01*
X240787D01*
X241095Y331912D01*
X241595Y331623D01*
Y328661D01*
X239916D01*
Y325161D01*
X245516D01*
Y328661D01*
X243838D01*
Y334055D01*
X243753Y334484D01*
X243510Y334848D01*
X243510Y334848D01*
X242919Y335439D01*
X242555Y335682D01*
X242126Y335767D01*
X241968Y336217D01*
Y336260D01*
X241878Y336712D01*
X241622Y337094D01*
X241239Y337350D01*
X240787Y337440D01*
X240492D01*
Y345275D01*
X240492Y345276D01*
X240406Y345705D01*
X240163Y346069D01*
X240163Y346069D01*
X237014Y349218D01*
X236650Y349461D01*
X236221Y349547D01*
D02*
G37*
G36*
X160130Y334146D02*
X158032D01*
Y333032D01*
X158122Y332580D01*
X158378Y332197D01*
X158761Y331941D01*
X159213Y331851D01*
X160130D01*
Y334146D01*
D02*
G37*
G36*
X196850Y357457D02*
X196041Y357351D01*
X195287Y357038D01*
X194639Y356542D01*
X194143Y355894D01*
X193830Y355140D01*
X193724Y354331D01*
X193830Y353521D01*
X194143Y352767D01*
X194639Y352120D01*
X195287Y351623D01*
X196041Y351310D01*
X196850Y351204D01*
X197660Y351310D01*
X198414Y351623D01*
X199061Y352120D01*
X199558Y352767D01*
X199871Y353521D01*
X199977Y354331D01*
X199871Y355140D01*
X199558Y355894D01*
X199061Y356542D01*
X198414Y357038D01*
X197660Y357351D01*
X196850Y357457D01*
D02*
G37*
G36*
X245079Y362234D02*
X219488D01*
X219100Y362157D01*
X218772Y361937D01*
X215289Y358454D01*
X214746Y358618D01*
X214647Y359116D01*
X214166Y359836D01*
X213447Y360316D01*
X212598Y360485D01*
X211750Y360316D01*
X211031Y359836D01*
X210660Y359281D01*
X204695D01*
X204324Y359836D01*
X203605Y360316D01*
X202756Y360485D01*
X201907Y360316D01*
X201188Y359836D01*
X200707Y359116D01*
X200538Y358268D01*
X200707Y357419D01*
X201188Y356700D01*
X201907Y356219D01*
X202756Y356050D01*
X203605Y356219D01*
X204324Y356700D01*
X204695Y357255D01*
X210660D01*
X211031Y356700D01*
X211750Y356219D01*
X212248Y356120D01*
X212412Y355577D01*
X200368Y343533D01*
X199786D01*
X199558Y344083D01*
X199061Y344731D01*
X198414Y345228D01*
X197660Y345540D01*
X196850Y345646D01*
X196041Y345540D01*
X195287Y345228D01*
X194639Y344731D01*
X194143Y344083D01*
X193830Y343329D01*
X193724Y342520D01*
X193830Y341710D01*
X194143Y340956D01*
X194639Y340309D01*
X195287Y339812D01*
X196041Y339499D01*
X196850Y339393D01*
X197660Y339499D01*
X198414Y339812D01*
X199061Y340309D01*
X199558Y340956D01*
X199786Y341507D01*
X200787D01*
X201175Y341584D01*
X201504Y341803D01*
X205118Y345417D01*
X205579Y345226D01*
Y331170D01*
X184578Y310169D01*
X180718D01*
Y312411D01*
X173613D01*
Y305699D01*
X180718D01*
Y307942D01*
X185039D01*
X185466Y308026D01*
X185827Y308268D01*
X197136Y319578D01*
X197679Y319413D01*
X197755Y319033D01*
X198235Y318314D01*
X198955Y317833D01*
X199803Y317665D01*
X200652Y317833D01*
X201371Y318314D01*
X201742Y318869D01*
X207677D01*
X208065Y318946D01*
X208394Y319165D01*
X211944Y322716D01*
X212598Y322586D01*
X213447Y322755D01*
X214166Y323235D01*
X214647Y323955D01*
X214816Y324803D01*
X214647Y325652D01*
X214166Y326371D01*
X213447Y326852D01*
X212598Y327021D01*
X211750Y326852D01*
X211031Y326371D01*
X210550Y325652D01*
X210381Y324803D01*
X210511Y324149D01*
X207258Y320895D01*
X201742D01*
X201371Y321450D01*
X200652Y321931D01*
X200272Y322006D01*
X200108Y322549D01*
X207480Y329921D01*
X207480Y329921D01*
X207722Y330282D01*
X207806Y330709D01*
Y345712D01*
X215311Y353217D01*
X245602D01*
X254792Y344027D01*
Y324222D01*
X252353D01*
Y317510D01*
X259458D01*
Y324222D01*
X257019D01*
Y344488D01*
X257019Y344488D01*
X256934Y344914D01*
X256854Y345034D01*
X256693Y345276D01*
X256693Y345276D01*
X246850Y355118D01*
X246489Y355360D01*
X246063Y355444D01*
X215798D01*
X215607Y355906D01*
X219908Y360207D01*
X244659D01*
X257755Y347111D01*
X257625Y346457D01*
X257794Y345608D01*
X258275Y344889D01*
X258994Y344408D01*
X259842Y344239D01*
X260691Y344408D01*
X261410Y344889D01*
X261891Y345608D01*
X262060Y346457D01*
X261891Y347305D01*
X261410Y348025D01*
X260691Y348505D01*
X259842Y348674D01*
X259188Y348544D01*
X245795Y361937D01*
X245466Y362157D01*
X245079Y362234D01*
D02*
G37*
G36*
X396350Y334146D02*
X394253D01*
Y333032D01*
X394343Y332580D01*
X394599Y332197D01*
X394981Y331941D01*
X395433Y331851D01*
X396350D01*
Y334146D01*
D02*
G37*
G36*
X238870D02*
X236773D01*
Y333032D01*
X236862Y332580D01*
X237118Y332197D01*
X237501Y331941D01*
X237953Y331851D01*
X238870D01*
Y334146D01*
D02*
G37*
G36*
X317610D02*
X315513D01*
Y333032D01*
X315603Y332580D01*
X315858Y332197D01*
X316241Y331941D01*
X316693Y331851D01*
X317610D01*
Y334146D01*
D02*
G37*
G36*
X166776Y324161D02*
X164476D01*
Y320661D01*
X166776D01*
Y324161D01*
D02*
G37*
G36*
X242216D02*
X239916D01*
Y320661D01*
X242216D01*
Y324161D01*
D02*
G37*
G36*
X163476D02*
X161176D01*
Y320661D01*
X163476D01*
Y324161D01*
D02*
G37*
G36*
X84736D02*
X82436D01*
Y320661D01*
X84736D01*
Y324161D01*
D02*
G37*
G36*
X88036D02*
X85736D01*
Y320661D01*
X88036D01*
Y324161D01*
D02*
G37*
G36*
X245516D02*
X243216D01*
Y320661D01*
X245516D01*
Y324161D01*
D02*
G37*
G36*
X402997D02*
X400697D01*
Y320661D01*
X402997D01*
Y324161D01*
D02*
G37*
G36*
X78740Y349547D02*
X78740Y349547D01*
X59055D01*
X58626Y349461D01*
X58262Y349218D01*
X58019Y348854D01*
X57934Y348425D01*
Y339681D01*
X56185D01*
Y337606D01*
X61925D01*
Y339681D01*
X60177D01*
Y347304D01*
X78276D01*
X80768Y344811D01*
Y337440D01*
X80472D01*
X80021Y337350D01*
X79638Y337094D01*
X79382Y336712D01*
X79292Y336260D01*
Y335146D01*
X81890D01*
Y334646D01*
X82390D01*
Y331851D01*
X83307D01*
X83615Y331912D01*
X84115Y331623D01*
Y328661D01*
X82436D01*
Y325161D01*
X88036D01*
Y328661D01*
X86358D01*
Y334055D01*
X86272Y334484D01*
X86029Y334848D01*
X86029Y334848D01*
X85439Y335439D01*
X85075Y335682D01*
X84646Y335767D01*
X84487Y336217D01*
Y336260D01*
X84397Y336712D01*
X84142Y337094D01*
X83759Y337350D01*
X83307Y337440D01*
X83011D01*
Y345275D01*
X83011Y345276D01*
X82926Y345705D01*
X82683Y346069D01*
X82683Y346069D01*
X79533Y349218D01*
X79169Y349461D01*
X78740Y349547D01*
D02*
G37*
G36*
X399697Y324161D02*
X397397D01*
Y320661D01*
X399697D01*
Y324161D01*
D02*
G37*
G36*
X320957D02*
X318657D01*
Y320661D01*
X320957D01*
Y324161D01*
D02*
G37*
G36*
X324257D02*
X321957D01*
Y320661D01*
X324257D01*
Y324161D01*
D02*
G37*
%LPD*%
D10*
X72240Y384055D02*
D03*
X85236D02*
D03*
X72240Y403401D02*
D03*
X85236D02*
D03*
X387201Y69095D02*
D03*
X400197D02*
D03*
X387201Y88440D02*
D03*
X400197D02*
D03*
X308461Y69095D02*
D03*
X321457D02*
D03*
X308461Y88440D02*
D03*
X321457D02*
D03*
X229720Y69095D02*
D03*
X242717D02*
D03*
X229720Y88440D02*
D03*
X242717D02*
D03*
X150980Y69095D02*
D03*
X163976D02*
D03*
X150980Y88440D02*
D03*
X163976D02*
D03*
X72240Y69095D02*
D03*
X85236D02*
D03*
X72240Y88440D02*
D03*
X85236D02*
D03*
X387201Y147835D02*
D03*
X400197D02*
D03*
X387201Y167180D02*
D03*
X400197D02*
D03*
X308461Y147835D02*
D03*
X321457D02*
D03*
X308461Y167180D02*
D03*
X321457D02*
D03*
X229720Y147835D02*
D03*
X242717D02*
D03*
X229720Y167180D02*
D03*
X242717D02*
D03*
X150980Y147835D02*
D03*
X163976D02*
D03*
X150980Y167180D02*
D03*
X163976D02*
D03*
X72240Y147835D02*
D03*
X85236D02*
D03*
X72240Y167180D02*
D03*
X85236D02*
D03*
X387201Y226575D02*
D03*
X400197D02*
D03*
X387201Y245920D02*
D03*
X400197D02*
D03*
X308461Y226575D02*
D03*
X321457D02*
D03*
X308461Y245920D02*
D03*
X321457D02*
D03*
X229720Y226575D02*
D03*
X242717D02*
D03*
X229720Y245920D02*
D03*
X242717D02*
D03*
X150980Y226575D02*
D03*
X163976D02*
D03*
X150980Y245920D02*
D03*
X163976D02*
D03*
X72240Y226575D02*
D03*
X85236D02*
D03*
X72240Y245920D02*
D03*
X85236D02*
D03*
X387201Y305315D02*
D03*
X400197D02*
D03*
X387201Y324661D02*
D03*
X400197D02*
D03*
X308461Y305315D02*
D03*
X321457D02*
D03*
X308461Y324661D02*
D03*
X321457D02*
D03*
X229720Y305315D02*
D03*
X242717D02*
D03*
X229720Y324661D02*
D03*
X242717D02*
D03*
X150980Y305315D02*
D03*
X163976D02*
D03*
X150980Y324661D02*
D03*
X163976D02*
D03*
X72240Y305315D02*
D03*
X85236D02*
D03*
X72240Y324661D02*
D03*
X85236D02*
D03*
X387201Y384055D02*
D03*
X400197D02*
D03*
X387201Y403401D02*
D03*
X400197D02*
D03*
X308461Y384055D02*
D03*
X321457D02*
D03*
X308461Y403401D02*
D03*
X321457D02*
D03*
X229720Y384055D02*
D03*
X242717D02*
D03*
X229720Y403401D02*
D03*
X242717D02*
D03*
X150980Y384055D02*
D03*
X163976D02*
D03*
X150980Y403401D02*
D03*
X163976D02*
D03*
D11*
X75590Y413386D02*
D03*
X81890D02*
D03*
X390551Y98425D02*
D03*
X396850D02*
D03*
X311811D02*
D03*
X318110D02*
D03*
X233071D02*
D03*
X239370D02*
D03*
X154331D02*
D03*
X160630D02*
D03*
X75590D02*
D03*
X81890D02*
D03*
X390551Y177165D02*
D03*
X396850D02*
D03*
X311811D02*
D03*
X318110D02*
D03*
X233071D02*
D03*
X239370D02*
D03*
X154331D02*
D03*
X160630D02*
D03*
X75590D02*
D03*
X81890D02*
D03*
X390551Y255906D02*
D03*
X396850D02*
D03*
X311811D02*
D03*
X318110D02*
D03*
X233071D02*
D03*
X239370D02*
D03*
X154331D02*
D03*
X160630D02*
D03*
X75590D02*
D03*
X81890D02*
D03*
X390551Y334646D02*
D03*
X396850D02*
D03*
X311811D02*
D03*
X318110D02*
D03*
X233071D02*
D03*
X239370D02*
D03*
X154331D02*
D03*
X160630D02*
D03*
X75590D02*
D03*
X81890D02*
D03*
X390551Y413386D02*
D03*
X396850D02*
D03*
X311811D02*
D03*
X318110D02*
D03*
X233071D02*
D03*
X239370D02*
D03*
X154331D02*
D03*
X160630D02*
D03*
D12*
X98425Y399606D02*
D03*
Y387795D02*
D03*
X413386Y84646D02*
D03*
Y72835D02*
D03*
X334646Y84646D02*
D03*
Y72835D02*
D03*
X255906Y84646D02*
D03*
Y72835D02*
D03*
X177165Y84646D02*
D03*
Y72835D02*
D03*
X98425Y84646D02*
D03*
Y72835D02*
D03*
X413386Y163386D02*
D03*
Y151575D02*
D03*
X334646Y163386D02*
D03*
Y151575D02*
D03*
X255906Y163386D02*
D03*
Y151575D02*
D03*
X177165Y163386D02*
D03*
Y151575D02*
D03*
X98425Y163386D02*
D03*
Y151575D02*
D03*
X413386Y242126D02*
D03*
Y230315D02*
D03*
X334646Y242126D02*
D03*
Y230315D02*
D03*
X255906Y242126D02*
D03*
Y230315D02*
D03*
X177165Y242126D02*
D03*
Y230315D02*
D03*
X98425Y242126D02*
D03*
Y230315D02*
D03*
X413386Y320866D02*
D03*
Y309055D02*
D03*
X334646Y320866D02*
D03*
Y309055D02*
D03*
X255906Y320866D02*
D03*
Y309055D02*
D03*
X177165Y320866D02*
D03*
Y309055D02*
D03*
X98425Y320866D02*
D03*
Y309055D02*
D03*
X413386Y399606D02*
D03*
Y387795D02*
D03*
X334646Y399606D02*
D03*
Y387795D02*
D03*
X255906Y399606D02*
D03*
Y387795D02*
D03*
X177165Y399606D02*
D03*
Y387795D02*
D03*
D13*
X59055Y389567D02*
D03*
Y397835D02*
D03*
X374016Y74606D02*
D03*
Y82874D02*
D03*
X295276Y74606D02*
D03*
Y82874D02*
D03*
X216535Y74606D02*
D03*
Y82874D02*
D03*
X137795Y74606D02*
D03*
Y82874D02*
D03*
X59055Y74606D02*
D03*
Y82874D02*
D03*
X374016Y153347D02*
D03*
Y161614D02*
D03*
X295276Y153347D02*
D03*
Y161614D02*
D03*
X216535Y153347D02*
D03*
Y161614D02*
D03*
X137795Y153347D02*
D03*
Y161614D02*
D03*
X59055Y153347D02*
D03*
Y161614D02*
D03*
X374016Y232087D02*
D03*
Y240354D02*
D03*
X295276Y232087D02*
D03*
Y240354D02*
D03*
X216535Y232087D02*
D03*
Y240354D02*
D03*
X137795Y232087D02*
D03*
Y240354D02*
D03*
X59055Y232087D02*
D03*
Y240354D02*
D03*
X374016Y310827D02*
D03*
Y319094D02*
D03*
X295276Y310827D02*
D03*
Y319094D02*
D03*
X216535Y310827D02*
D03*
Y319094D02*
D03*
X137795Y310827D02*
D03*
Y319094D02*
D03*
X59055Y310827D02*
D03*
Y319094D02*
D03*
X374016Y389567D02*
D03*
Y397835D02*
D03*
X295276Y389567D02*
D03*
Y397835D02*
D03*
X216535Y389567D02*
D03*
Y397835D02*
D03*
X137795Y389567D02*
D03*
Y397835D02*
D03*
D14*
X374016Y100886D02*
D03*
Y95965D02*
D03*
X295276Y100886D02*
D03*
Y95965D02*
D03*
X216535Y100886D02*
D03*
Y95965D02*
D03*
X137795Y100886D02*
D03*
Y95965D02*
D03*
X59055Y100886D02*
D03*
Y95965D02*
D03*
X374016Y179626D02*
D03*
Y174705D02*
D03*
X295276Y179626D02*
D03*
Y174705D02*
D03*
X216535Y179626D02*
D03*
Y174705D02*
D03*
X137795Y179626D02*
D03*
Y174705D02*
D03*
X59055Y179626D02*
D03*
Y174705D02*
D03*
X374016Y258366D02*
D03*
Y253445D02*
D03*
X295276Y258366D02*
D03*
Y253445D02*
D03*
X216535Y258366D02*
D03*
Y253445D02*
D03*
X137795Y258366D02*
D03*
Y253445D02*
D03*
X59055Y258366D02*
D03*
Y253445D02*
D03*
X374016Y337106D02*
D03*
Y332185D02*
D03*
X295276Y337106D02*
D03*
Y332185D02*
D03*
X216535Y337106D02*
D03*
Y332185D02*
D03*
X137795Y337106D02*
D03*
Y332185D02*
D03*
X59055Y337106D02*
D03*
Y332185D02*
D03*
X374016Y415846D02*
D03*
Y410925D02*
D03*
X295276Y415846D02*
D03*
Y410925D02*
D03*
X216535Y415846D02*
D03*
Y410925D02*
D03*
X137795Y415846D02*
D03*
Y410925D02*
D03*
X49213Y391240D02*
D03*
Y396161D02*
D03*
D15*
X137795Y89567D02*
Y95965D01*
Y82874D02*
Y89567D01*
X59055Y325787D02*
Y332185D01*
Y325640D02*
Y325787D01*
X223425Y218504D02*
X248031D01*
X216535D02*
X223425D01*
X67913Y211614D02*
X266732D01*
X216535Y269685D02*
X236221D01*
X216535Y258366D02*
Y269685D01*
X225394Y174213D02*
X228346Y177165D01*
X224409Y173228D02*
X225394Y174213D01*
X286417Y95473D02*
Y119095D01*
X216535Y375984D02*
X244094D01*
X248031D02*
Y387795D01*
X244094Y375984D02*
X248031D01*
X137795Y246900D02*
Y253445D01*
Y240354D02*
Y246900D01*
X59055Y247047D02*
Y253445D01*
Y240354D02*
Y247047D01*
Y258366D02*
Y269685D01*
X78740D01*
X66929Y251969D02*
X70866Y255906D01*
X66929Y242126D02*
Y251969D01*
X374016Y325787D02*
Y332185D01*
Y319094D02*
Y325787D01*
X295276D02*
Y332185D01*
Y319094D02*
Y325787D01*
X216535Y297244D02*
X222441D01*
X295276Y167323D02*
Y174705D01*
Y161614D02*
Y167323D01*
X374016Y168159D02*
Y174705D01*
Y161614D02*
Y168159D01*
X326772Y218504D02*
Y230315D01*
X314961Y218504D02*
X326772D01*
X320866Y236221D02*
X326772Y230315D01*
X295276Y190945D02*
X314961D01*
X318110Y187795D01*
Y177165D02*
Y187795D01*
Y177165D02*
X320866D01*
X321457Y176575D01*
Y167180D02*
Y176575D01*
X303150Y173228D02*
X307087Y177165D01*
X303150Y163386D02*
Y173228D01*
X137795Y168307D02*
Y174705D01*
Y161614D02*
Y168307D01*
X216535Y190945D02*
X236221D01*
X216535Y179626D02*
Y190945D01*
Y168159D02*
Y174705D01*
Y161614D02*
Y168159D01*
X59055Y90551D02*
Y95965D01*
Y82874D02*
Y90551D01*
X216535Y89567D02*
Y95965D01*
Y82874D02*
Y89567D01*
X59055Y168307D02*
Y174705D01*
Y161614D02*
Y168307D01*
X250984Y273622D02*
X277559Y247047D01*
X295276D01*
X250984Y273622D02*
Y282480D01*
X258858Y272638D02*
X262795Y268701D01*
X216535Y218504D02*
Y232087D01*
X224409Y242126D02*
X230315Y236221D01*
X242126D01*
X248031Y218504D02*
Y230315D01*
X242126Y236221D02*
X248031Y230315D01*
X374016Y247047D02*
Y253445D01*
Y240354D02*
Y247047D01*
X254921Y277559D02*
X267717D01*
X295276Y247047D02*
Y253445D01*
Y240354D02*
Y247047D01*
X216535Y246063D02*
Y253445D01*
Y240354D02*
Y246063D01*
X249016Y187992D02*
X249016D01*
X243110Y193898D02*
X249016Y187992D01*
X137795Y325787D02*
Y332185D01*
Y319094D02*
Y325787D01*
X286417Y95473D02*
X291339Y90551D01*
X295276D02*
Y95965D01*
Y82874D02*
Y90551D01*
X291339D02*
X295276D01*
X303150Y84646D02*
Y94488D01*
X374016Y89567D02*
Y95965D01*
Y82874D02*
Y89567D01*
X216535Y319094D02*
Y332185D01*
X59055Y319094D02*
Y325640D01*
X59203Y325787D01*
X224409Y320866D02*
X230315Y314961D01*
X374016Y403543D02*
Y410925D01*
Y397835D02*
Y403543D01*
X59055Y381890D02*
X64961Y375984D01*
X59055Y381890D02*
Y389567D01*
X295276Y403543D02*
Y410925D01*
Y397835D02*
Y403543D01*
X216535D02*
Y410925D01*
Y397835D02*
Y403543D01*
Y415846D02*
Y427165D01*
X399606Y393701D02*
X405512Y387795D01*
Y375984D02*
Y387795D01*
X393701Y375984D02*
X405512D01*
X387795Y157480D02*
X399606D01*
X405512Y151575D01*
X381890Y163386D02*
X387795Y157480D01*
X381890Y163386D02*
Y173228D01*
X374016Y179626D02*
Y190945D01*
X385827Y177165D02*
X390551D01*
X381890Y173228D02*
X385827Y177165D01*
X216535Y139764D02*
X236221D01*
X381890Y84646D02*
X387795Y78740D01*
X381890Y84646D02*
Y94488D01*
X385827Y98425D02*
X390551D01*
X381890Y94488D02*
X385827Y98425D01*
X137795Y375984D02*
X157480D01*
X137795D02*
Y389567D01*
X326772Y375984D02*
Y387795D01*
X314961Y375984D02*
X326772D01*
X157480Y427165D02*
X160630Y424016D01*
X137795Y427165D02*
X157480D01*
X137795Y415846D02*
Y427165D01*
X160630Y413386D02*
Y424016D01*
X137795Y297244D02*
Y310827D01*
X150980Y297839D02*
Y305315D01*
X151575Y314961D02*
X163386D01*
X169291Y309055D01*
Y297244D02*
Y309055D01*
X137795Y297244D02*
X157480D01*
X169291D01*
X216535Y112205D02*
X236221D01*
X64961Y375984D02*
X78740D01*
X64961D02*
Y405512D01*
X68898Y409449D01*
X51181Y427165D02*
X79134D01*
X157480Y375984D02*
X169291D01*
X295276D02*
X314961D01*
X374016D02*
X393701D01*
Y297244D02*
X405512D01*
X374016D02*
X393701D01*
X314961D02*
X326772D01*
X295276D02*
X314961D01*
X222441D02*
X248031D01*
X78740D02*
X90551D01*
X59055D02*
X78740D01*
Y218504D02*
X90551D01*
X59055D02*
X78740D01*
X157480D02*
X169291D01*
X137795D02*
X157480D01*
X295276D02*
X314961D01*
X393701D02*
X405512D01*
X374016D02*
X393701D01*
Y139764D02*
X405512D01*
X374016D02*
X393701D01*
X314961D02*
X326772D01*
X295276D02*
X314961D01*
X236221D02*
X248031D01*
X157480D02*
X169291D01*
X137795D02*
X157480D01*
X78740D02*
X90551D01*
X59055D02*
X78740D01*
X216535Y100886D02*
Y112205D01*
X393701Y61024D02*
X401575D01*
X374016D02*
X393701D01*
X314961D02*
X326772D01*
X295276D02*
X314961D01*
X236221D02*
X248031D01*
X216535D02*
X236221D01*
X78740D02*
X90551D01*
X70866D02*
X78740D01*
X157480D02*
X169291D01*
X137795D02*
X157480D01*
X68898Y96457D02*
X70866Y98425D01*
X66929Y94488D02*
X68898Y96457D01*
X63861Y68029D02*
X70866Y61024D01*
X61892Y68029D02*
X63861D01*
X59055Y70866D02*
X61892Y68029D01*
X59055Y70866D02*
Y74606D01*
X405512Y64961D02*
Y72835D01*
X401575Y61024D02*
X405512Y64961D01*
X396850Y98425D02*
Y109055D01*
X393701Y112205D02*
X396850Y109055D01*
X374016Y100886D02*
Y112205D01*
X393701D01*
X374016Y61024D02*
Y74606D01*
X387201Y61618D02*
Y69095D01*
X387795Y78740D02*
X399606D01*
X396850Y98425D02*
X399606D01*
X400197Y97835D01*
Y88440D02*
Y97835D01*
X318110Y98425D02*
Y109055D01*
X314961Y112205D02*
X318110Y109055D01*
X295276Y100886D02*
Y112205D01*
X314961D01*
X295276Y61024D02*
Y74606D01*
X308461Y61618D02*
Y69095D01*
X326772Y61024D02*
Y72835D01*
X320866Y78740D02*
X326772Y72835D01*
X309055Y78740D02*
X320866D01*
X303150Y84646D02*
X309055Y78740D01*
X303150Y94488D02*
X307087Y98425D01*
X311811D01*
X318110D02*
X320866D01*
X321457Y97835D01*
Y88440D02*
Y97835D01*
X239370Y98425D02*
Y109055D01*
X236221Y112205D02*
X239370Y109055D01*
X216535Y61024D02*
Y74606D01*
X229720Y61618D02*
Y69095D01*
X248031Y61024D02*
Y72835D01*
X242126Y78740D02*
X248031Y72835D01*
X230315Y78740D02*
X242126D01*
X224409Y84646D02*
X230315Y78740D01*
X224409Y84646D02*
Y94488D01*
X228346Y98425D01*
X233071D01*
X239370D02*
X242126D01*
X242717Y97835D01*
Y88440D02*
Y97835D01*
X137795Y112205D02*
X157480D01*
X160630Y98425D02*
Y109055D01*
X157480Y112205D02*
X160630Y109055D01*
X137795Y100886D02*
Y112205D01*
Y61024D02*
Y74606D01*
X150980Y61618D02*
Y69095D01*
X169291Y61024D02*
Y72835D01*
X163386Y78740D02*
X169291Y72835D01*
X151575Y78740D02*
X163386D01*
X145669Y84646D02*
X151575Y78740D01*
X145669Y84646D02*
Y94488D01*
X149606Y98425D01*
X154331D01*
X160630D02*
X163386D01*
X163976Y97835D01*
Y88440D02*
Y97835D01*
X81890Y98425D02*
Y109055D01*
X78740Y112205D02*
X81890Y109055D01*
X59055Y100886D02*
Y112205D01*
X78740D01*
X72240Y61618D02*
Y69095D01*
X90551Y61024D02*
Y72835D01*
X84646Y78740D02*
X90551Y72835D01*
X72835Y78740D02*
X84646D01*
X66929Y84646D02*
X72835Y78740D01*
X66929Y84646D02*
Y94488D01*
X70866Y98425D02*
X75590D01*
X81890D02*
X84646D01*
X85236Y97835D01*
Y88440D02*
Y97835D01*
X137795Y190945D02*
X157480D01*
X81890Y177165D02*
Y187795D01*
X78740Y190945D02*
X81890Y187795D01*
X59055Y179626D02*
Y190945D01*
X78740D01*
X59055Y139764D02*
Y153347D01*
X72240Y140358D02*
Y147835D01*
X90551Y139764D02*
Y151575D01*
X84646Y157480D02*
X90551Y151575D01*
X72835Y157480D02*
X84646D01*
X66929Y163386D02*
X72835Y157480D01*
X66929Y163386D02*
Y173228D01*
X70866Y177165D01*
X75590D01*
X81890D02*
X84646D01*
X85236Y176575D01*
Y167180D02*
Y176575D01*
X160630Y177165D02*
Y187795D01*
X157480Y190945D02*
X160630Y187795D01*
X137795Y179626D02*
Y190945D01*
Y139764D02*
Y153347D01*
X150980Y140358D02*
Y147835D01*
X169291Y139764D02*
Y151575D01*
X163386Y157480D02*
X169291Y151575D01*
X151575Y157480D02*
X163386D01*
X145669Y163386D02*
X151575Y157480D01*
X145669Y163386D02*
Y173228D01*
X149606Y177165D01*
X154331D01*
X160630D02*
X163386D01*
X163976Y176575D01*
Y167180D02*
Y176575D01*
X239370Y177165D02*
Y187795D01*
X236221Y190945D02*
X239370Y187795D01*
X216535Y139764D02*
Y153347D01*
X229720Y140358D02*
Y147835D01*
X248031Y139764D02*
Y151575D01*
X242126Y157480D02*
X248031Y151575D01*
X230315Y157480D02*
X242126D01*
X224409Y163386D02*
X230315Y157480D01*
X224409Y163386D02*
Y173228D01*
X228346Y177165D02*
X233071D01*
X239370D02*
X242126D01*
X242717Y176575D01*
Y167180D02*
Y176575D01*
X295276Y179626D02*
Y190945D01*
Y139764D02*
Y153347D01*
X308461Y140358D02*
Y147835D01*
X326772Y139764D02*
Y151575D01*
X320866Y157480D02*
X326772Y151575D01*
X309055Y157480D02*
X320866D01*
X303150Y163386D02*
X309055Y157480D01*
X307087Y177165D02*
X311811D01*
X396850D02*
Y187795D01*
X393701Y190945D02*
X396850Y187795D01*
X374016Y190945D02*
X393701D01*
X374016Y139764D02*
Y153347D01*
X387201Y140358D02*
Y147835D01*
X405512Y139764D02*
Y151575D01*
X396850Y177165D02*
X399606D01*
X400197Y176575D01*
Y167180D02*
Y176575D01*
X396850Y255906D02*
Y266535D01*
X393701Y269685D02*
X396850Y266535D01*
X374016Y258366D02*
Y269685D01*
X393701D01*
X374016Y218504D02*
Y232087D01*
X387201Y219098D02*
Y226575D01*
X405512Y218504D02*
Y230315D01*
X399606Y236221D02*
X405512Y230315D01*
X387795Y236221D02*
X399606D01*
X381890Y242126D02*
X387795Y236221D01*
X381890Y242126D02*
Y251969D01*
X385827Y255906D01*
X390551D01*
X396850D02*
X399606D01*
X400197Y255315D01*
Y245920D02*
Y255315D01*
X318110Y255906D02*
Y266535D01*
X314961Y269685D02*
X318110Y266535D01*
X295276Y258366D02*
Y269685D01*
X314961D01*
X295276Y218504D02*
Y232087D01*
X308461Y219098D02*
Y226575D01*
X309055Y236221D02*
X320866D01*
X303150Y242126D02*
X309055Y236221D01*
X303150Y242126D02*
Y251969D01*
X307087Y255906D01*
X311811D01*
X318110D02*
X320866D01*
X321457Y255315D01*
Y245920D02*
Y255315D01*
X239370Y255906D02*
Y266535D01*
X236221Y269685D02*
X239370Y266535D01*
X229720Y219098D02*
Y226575D01*
X224409Y242126D02*
Y251969D01*
X228346Y255906D01*
X233071D01*
X239370D02*
X242126D01*
X242717Y255315D01*
Y245920D02*
Y255315D01*
X137795Y269685D02*
X157480D01*
X160630Y255906D02*
Y266535D01*
X157480Y269685D02*
X160630Y266535D01*
X137795Y258366D02*
Y269685D01*
Y218504D02*
Y232087D01*
X150980Y219098D02*
Y226575D01*
X169291Y218504D02*
Y230315D01*
X163386Y236221D02*
X169291Y230315D01*
X151575Y236221D02*
X163386D01*
X145669Y242126D02*
X151575Y236221D01*
X145669Y242126D02*
Y251969D01*
X149606Y255906D01*
X154331D01*
X160630D02*
X163386D01*
X163976Y255315D01*
Y245920D02*
Y255315D01*
X81890Y255906D02*
Y266535D01*
X78740Y269685D02*
X81890Y266535D01*
X59055Y218504D02*
Y232087D01*
X72240Y219098D02*
Y226575D01*
X90551Y218504D02*
Y230315D01*
X84646Y236221D02*
X90551Y230315D01*
X72835Y236221D02*
X84646D01*
X66929Y242126D02*
X72835Y236221D01*
X70866Y255906D02*
X75590D01*
X81890D02*
X84646D01*
X85236Y255315D01*
Y245920D02*
Y255315D01*
X137795Y348425D02*
X157480D01*
X81890Y334646D02*
Y345276D01*
X78740Y348425D02*
X81890Y345276D01*
X59055Y337106D02*
Y348425D01*
X78740D01*
X59055Y297244D02*
Y310827D01*
X72240Y297839D02*
Y305315D01*
X90551Y297244D02*
Y309055D01*
X84646Y314961D02*
X90551Y309055D01*
X72835Y314961D02*
X84646D01*
X66929Y320866D02*
X72835Y314961D01*
X66929Y320866D02*
Y330709D01*
X70866Y334646D01*
X75590D01*
X81890D02*
X84646D01*
X85236Y334055D01*
Y324661D02*
Y334055D01*
X160630Y334646D02*
Y345276D01*
X157480Y348425D02*
X160630Y345276D01*
X137795Y337106D02*
Y348425D01*
X145669Y320866D02*
Y330709D01*
X149606Y334646D01*
X154331D01*
X160630D02*
X163386D01*
X163976Y334055D01*
Y324661D02*
Y334055D01*
X239370Y334646D02*
Y345276D01*
X236221Y348425D02*
X239370Y345276D01*
X216535Y337106D02*
Y348425D01*
X236221D01*
X216535Y297244D02*
Y310827D01*
X229720Y297839D02*
Y305315D01*
X248031Y297244D02*
Y309055D01*
X242126Y314961D02*
X248031Y309055D01*
X230315Y314961D02*
X242126D01*
X224409Y320866D02*
Y330709D01*
X228346Y334646D01*
X233071D01*
X239370D02*
X242126D01*
X242717Y334055D01*
Y324661D02*
Y334055D01*
X396850Y334646D02*
Y345276D01*
X393701Y348425D02*
X396850Y345276D01*
X374016Y348425D02*
X393701D01*
X374016Y297244D02*
Y310827D01*
X387201Y297839D02*
Y305315D01*
X405512Y297244D02*
Y309055D01*
X399606Y314961D02*
X405512Y309055D01*
X387795Y314961D02*
X399606D01*
X385827Y334646D02*
X390551D01*
X396850D02*
X399606D01*
X400197Y334055D01*
Y324661D02*
Y334055D01*
X318110Y334646D02*
Y345276D01*
X314961Y348425D02*
X318110Y345276D01*
X295276Y337106D02*
Y348425D01*
X314961D01*
X295276Y297244D02*
Y310827D01*
X308461Y297839D02*
Y305315D01*
X326772Y297244D02*
Y309055D01*
X320866Y314961D02*
X326772Y309055D01*
X309055Y314961D02*
X320866D01*
X303150Y320866D02*
X309055Y314961D01*
X303150Y320866D02*
Y330709D01*
X307087Y334646D01*
X311811D01*
X318110D02*
X320866D01*
X321457Y334055D01*
Y324661D02*
Y334055D01*
X396850Y413386D02*
X399606D01*
X321457Y403401D02*
Y412795D01*
X320866Y413386D02*
X321457Y412795D01*
X318110Y413386D02*
X320866D01*
X242717Y403401D02*
Y412795D01*
X242126Y413386D02*
X242717Y412795D01*
X239370Y413386D02*
X242126D01*
X163976Y403401D02*
Y412795D01*
X163386Y413386D02*
X163976Y412795D01*
X160630Y413386D02*
X163386D01*
X387201Y376579D02*
Y384055D01*
X385827Y413386D02*
X390551D01*
X381890Y409449D02*
X385827Y413386D01*
X381890Y399606D02*
Y409449D01*
X307087Y413386D02*
X311811D01*
X303150Y409449D02*
X307087Y413386D01*
X303150Y399606D02*
Y409449D01*
Y399606D02*
X309055Y393701D01*
X320866D01*
X326772Y387795D01*
X228346Y413386D02*
X233071D01*
X224409Y409449D02*
X228346Y413386D01*
X224409Y399606D02*
Y409449D01*
Y399606D02*
X230315Y393701D01*
X242126D01*
X248031Y387795D01*
X169291Y375984D02*
Y387795D01*
X163386Y393701D02*
X169291Y387795D01*
X151575Y393701D02*
X163386D01*
X145669Y399606D02*
X151575Y393701D01*
X145669Y399606D02*
Y409449D01*
X149606Y413386D01*
X154331D01*
X216535Y375984D02*
Y389567D01*
X229720Y376579D02*
Y384055D01*
X308461Y376579D02*
Y384055D01*
X295276Y375984D02*
Y389567D01*
X374016Y375984D02*
Y389567D01*
X150980Y376579D02*
Y384055D01*
X79134Y427165D02*
X81890Y424409D01*
X216535Y427165D02*
X236221D01*
X239370Y424016D01*
Y413386D02*
Y424016D01*
X295276Y427165D02*
X314961D01*
X295276Y415846D02*
Y427165D01*
X314961D02*
X318110Y424016D01*
Y413386D02*
Y424016D01*
X374016Y427165D02*
X393701D01*
X374016Y415846D02*
Y427165D01*
X393701D02*
X396850Y424016D01*
Y413386D02*
Y424016D01*
X43307Y419291D02*
X51181Y427165D01*
X43307Y393701D02*
Y419291D01*
X68898Y411417D02*
X70866Y413386D01*
X68898Y409449D02*
Y411417D01*
X43307Y393701D02*
X45768Y391240D01*
X49213D01*
X81890Y413386D02*
Y424409D01*
X70866Y413386D02*
X75590D01*
X72240Y376177D02*
Y384055D01*
X81890Y413386D02*
X84646D01*
X85236Y412795D01*
Y403401D02*
Y412795D01*
X399606Y78740D02*
X405512Y72835D01*
X399606Y413386D02*
X400197Y412795D01*
Y403401D02*
Y412795D01*
X145669Y320866D02*
X151575Y314961D01*
X381890Y399606D02*
X387795Y393701D01*
X399606D01*
X381890Y320866D02*
X387795Y314961D01*
X381890Y330709D02*
X385827Y334646D01*
X381890Y320866D02*
Y330709D01*
X374016Y337106D02*
Y348425D01*
D16*
X59068Y370079D02*
X266732D01*
X59062Y370085D02*
X59068Y370079D01*
X53150Y364173D02*
X59062Y370085D01*
X53150Y316929D02*
Y364173D01*
X323819Y370079D02*
X403543D01*
X322235Y371663D02*
X323819Y370079D01*
X268317Y371663D02*
X322235D01*
X266732Y370079D02*
X268317Y371663D01*
X403543Y370079D02*
X407480Y374016D01*
X80109Y373416D02*
X82677Y375984D01*
X59655Y373416D02*
X80109D01*
X54134Y378937D02*
X59655Y373416D01*
X245079Y361221D02*
X259842Y346457D01*
X270669Y357283D02*
Y368110D01*
X198622Y196653D02*
X208465D01*
X202756Y200787D02*
X224410D01*
X57087Y214567D02*
X405512D01*
X214567Y272638D02*
X219488D01*
X210630Y268701D02*
X214567Y272638D01*
X210630Y256890D02*
Y268701D01*
X224410Y175197D02*
X225394Y174213D01*
X224410Y175197D02*
Y178150D01*
X221457Y173081D02*
Y187992D01*
X137795Y278543D02*
X167323D01*
X171260Y274606D01*
X209646D01*
X212598Y277559D01*
X203356Y280128D02*
X223809D01*
X224410Y279528D01*
X202756D02*
X203356Y280128D01*
X212598Y291339D02*
X214567Y289370D01*
X57087Y293307D02*
X405512D01*
X53150Y289370D02*
X57087Y293307D01*
X58071Y291339D02*
X212598D01*
X260827Y289370D02*
X374016D01*
X55118Y288386D02*
X58071Y291339D01*
X55118Y249016D02*
Y288386D01*
Y249016D02*
X57087Y247047D01*
X59055D01*
X53150Y238189D02*
Y289370D01*
Y238189D02*
X55150Y236189D01*
X258858Y287402D02*
X260827Y289370D01*
X269685Y325787D02*
X295276D01*
X256890Y282480D02*
X269685D01*
X256890Y206693D02*
X269685D01*
X274606Y211614D01*
X297244D01*
X251969Y198819D02*
X283465Y167323D01*
X295276D01*
X297244Y211614D02*
X340699Y168159D01*
X53150Y210630D02*
X57087Y214567D01*
X340699Y168159D02*
X374016D01*
X324835Y236189D02*
X383890D01*
X322835Y238189D02*
X324835Y236189D01*
X311024Y238189D02*
X322835D01*
X334646Y222441D02*
Y230315D01*
X198819Y161417D02*
X210630Y173228D01*
Y173228D02*
Y188976D01*
X215551Y193898D01*
X198819Y157480D02*
X226378D01*
X215551Y193898D02*
X232283D01*
X205512Y205906D02*
X222441D01*
X216535Y168159D02*
X221457Y173081D01*
X60039Y126969D02*
X64961Y131890D01*
X53150Y131890D02*
X57087Y135827D01*
X53150Y80709D02*
Y131890D01*
Y80709D02*
X55150Y78709D01*
X57087Y135827D02*
X405512D01*
X64961Y131890D02*
X213583D01*
X171260Y119095D02*
X211614D01*
X216535Y115157D02*
X219488D01*
X211614Y110236D02*
X216535Y115157D01*
X211614Y91535D02*
Y110236D01*
Y91535D02*
X213583Y89567D01*
X216535D01*
X173228Y218504D02*
X181102D01*
X171260Y220472D02*
X173228Y218504D01*
X198819Y236221D02*
X226378D01*
X181102Y218504D02*
X198819Y236221D01*
X228378Y234221D02*
X240189D01*
X226409Y236189D02*
X228378Y234221D01*
X232283Y238189D02*
X244094D01*
X229720Y240752D02*
X232283Y238189D01*
X246094Y236189D02*
X305150D01*
X242717Y226575D02*
Y231693D01*
X240189Y234221D02*
X242717Y231693D01*
X244094Y238189D02*
X246094Y236189D01*
X251969Y124016D02*
X253937D01*
X207677Y319882D02*
X212598Y324803D01*
X205709Y304134D02*
X212598D01*
X199803Y310039D02*
X205709Y304134D01*
X199803Y319882D02*
X207677D01*
X198819Y314961D02*
X226378D01*
X248031Y127953D02*
X251969Y124016D01*
X248031Y127953D02*
Y130905D01*
X250984Y133858D01*
X287402D01*
X297244Y124016D01*
X323819D01*
X253937Y129921D02*
X275590D01*
X253937Y118110D02*
X275590D01*
X196850Y342520D02*
X200787D01*
X219488Y361221D01*
X245079D01*
X202756Y358268D02*
X212598D01*
X246094Y157449D02*
X305150D01*
X307118Y155480D01*
X216535Y319094D02*
X221260D01*
X222441Y317913D01*
X324835Y393669D02*
X383890D01*
X322835Y395669D02*
X324835Y393669D01*
X255906Y381890D02*
Y387795D01*
X54134Y403543D02*
X57087D01*
X51181D02*
X54134D01*
Y378937D02*
Y403543D01*
X82677Y375984D02*
Y377953D01*
X78740Y381890D02*
X82677Y377953D01*
X78740Y381890D02*
Y389764D01*
X76772Y391732D02*
X78740Y389764D01*
X137795Y403543D02*
Y410925D01*
Y397835D02*
Y403543D01*
X401575Y395669D02*
X407480Y389764D01*
Y374016D02*
Y389764D01*
X389764Y159449D02*
X401575D01*
X397669Y155480D02*
X400197Y152953D01*
X385858Y155480D02*
X397669D01*
X387201Y162012D02*
X389764Y159449D01*
X383890Y157449D02*
X385858Y155480D01*
X387201Y162012D02*
Y167180D01*
X324835Y157449D02*
X383890D01*
X322835Y159449D02*
X324835Y157449D01*
X255906Y303150D02*
Y309055D01*
Y224410D02*
Y230315D01*
X205512Y284646D02*
X222441D01*
X205512Y127165D02*
X222441D01*
X202756Y122047D02*
X224410D01*
X387201Y88440D02*
X391590D01*
X393701Y90551D01*
X127953Y374016D02*
X129921Y375984D01*
X88583Y374016D02*
X127953D01*
X85236Y377362D02*
X88583Y374016D01*
X102362Y375984D02*
X120079Y393701D01*
X94488Y375984D02*
X102362D01*
X92520Y377953D02*
X94488Y375984D01*
X173228D02*
X181102D01*
X171260Y377953D02*
X173228Y375984D01*
X85236Y377362D02*
Y384055D01*
X255906Y145669D02*
Y151575D01*
X318898Y355315D02*
Y369094D01*
X334646Y375984D02*
Y387795D01*
X86614Y80709D02*
X92520Y74803D01*
X120079Y78740D02*
X147638D01*
X102362Y61024D02*
X120079Y78740D01*
X94488Y61024D02*
X102362D01*
X92520Y62992D02*
X94488Y61024D01*
X92520Y62992D02*
Y74803D01*
X165354Y80709D02*
X171260Y74803D01*
X198819Y78740D02*
X226378D01*
X181102Y61024D02*
X198819Y78740D01*
X173228Y61024D02*
X181102D01*
X171260Y62992D02*
X173228Y61024D01*
X171260Y62992D02*
Y74803D01*
X165354Y159449D02*
X171260Y153543D01*
X181102Y139764D02*
X198819Y157480D01*
X173228Y139764D02*
X181102D01*
X171260Y141732D02*
X173228Y139764D01*
X171260Y141732D02*
Y153543D01*
X86614Y159449D02*
X92520Y153543D01*
X120079Y157480D02*
X147638D01*
X102362Y139764D02*
X120079Y157480D01*
X94488Y139764D02*
X102362D01*
X92520Y141732D02*
X94488Y139764D01*
X92520Y141732D02*
Y153543D01*
X165354Y238189D02*
X171260Y232283D01*
Y220472D02*
Y232283D01*
X86614Y238189D02*
X92520Y232283D01*
X120079Y236221D02*
X147638D01*
X102362Y218504D02*
X120079Y236221D01*
X94488Y218504D02*
X102362D01*
X92520Y220472D02*
X94488Y218504D01*
X92520Y220472D02*
Y232283D01*
X165354Y395669D02*
X171260Y389764D01*
X198819Y393701D02*
X226378D01*
X181102Y375984D02*
X198819Y393701D01*
X171260Y377953D02*
Y389764D01*
X86614Y395669D02*
X92520Y389764D01*
X120079Y393701D02*
X147638D01*
X92520Y377953D02*
Y389764D01*
X165354Y316929D02*
X171260Y311024D01*
X181102Y297244D02*
X198819Y314961D01*
X173228Y297244D02*
X181102D01*
X171260Y299213D02*
X173228Y297244D01*
X171260Y299213D02*
Y311024D01*
X92520Y299213D02*
Y311024D01*
Y299213D02*
X94488Y297244D01*
X102362D01*
X120079Y314961D01*
X147638D01*
X86614Y316929D02*
X92520Y311024D01*
X74803Y316929D02*
X86614D01*
X147638Y314961D02*
X149638Y312961D01*
X161449D01*
X163976Y310433D01*
X153543Y316929D02*
X165354D01*
X163976Y305315D02*
Y310433D01*
X405512Y293307D02*
X407480Y295276D01*
X255906Y66929D02*
Y72835D01*
X153543Y395669D02*
X165354D01*
X150980Y398232D02*
X153543Y395669D01*
X59055Y397835D02*
Y401575D01*
X57087Y403543D02*
X59055Y401575D01*
X49213Y401575D02*
X51181Y403543D01*
X49213Y396161D02*
Y401575D01*
X308461Y83272D02*
X311024Y80709D01*
X308461Y83272D02*
Y88440D01*
X400197Y69095D02*
Y74213D01*
X397669Y76740D02*
X400197Y74213D01*
X383890Y78709D02*
X385858Y76740D01*
X397669D01*
X311024Y80709D02*
X322835D01*
X324835Y78709D01*
X383890D01*
X229720Y83272D02*
X232283Y80709D01*
X229720Y83272D02*
Y88440D01*
X321457Y69095D02*
Y74213D01*
X318929Y76740D02*
X321457Y74213D01*
X305150Y78709D02*
X307118Y76740D01*
X318929D01*
X232283Y80709D02*
X244094D01*
X246094Y78709D01*
X305150D01*
X150980Y83272D02*
X153543Y80709D01*
X150980Y83272D02*
Y88440D01*
X242717Y69095D02*
Y74213D01*
X240189Y76740D02*
X242717Y74213D01*
X226409Y78709D02*
X228378Y76740D01*
X240189D01*
X153543Y80709D02*
X165354D01*
X72240Y83272D02*
X74803Y80709D01*
X72240Y83272D02*
Y88440D01*
X163976Y69095D02*
Y74213D01*
X161449Y76740D02*
X163976Y74213D01*
X147669Y78709D02*
X149638Y76740D01*
X161449D01*
X74803Y80709D02*
X86614D01*
X72240Y162012D02*
X74803Y159449D01*
X72240Y162012D02*
Y167180D01*
X163976Y147835D02*
Y152953D01*
X161449Y155480D02*
X163976Y152953D01*
X147669Y157449D02*
X149638Y155480D01*
X161449D01*
X74803Y159449D02*
X86614D01*
X150980Y162012D02*
X153543Y159449D01*
X150980Y162012D02*
Y167180D01*
X242717Y147835D02*
Y152953D01*
X240189Y155480D02*
X242717Y152953D01*
X226409Y157449D02*
X228378Y155480D01*
X240189D01*
X153543Y159449D02*
X165354D01*
X229720Y162012D02*
X232283Y159449D01*
X229720Y162012D02*
Y167180D01*
X321457Y147835D02*
Y152953D01*
X318929Y155480D02*
X321457Y152953D01*
X307118Y155480D02*
X318929D01*
X232283Y159449D02*
X244094D01*
X246094Y157449D01*
X308461Y162012D02*
X311024Y159449D01*
X308461Y162012D02*
Y167180D01*
X400197Y147835D02*
Y152953D01*
X311024Y159449D02*
X322835D01*
X308461Y240752D02*
X311024Y238189D01*
X308461Y240752D02*
Y245920D01*
X400197Y226575D02*
Y231693D01*
X397669Y234221D02*
X400197Y231693D01*
X383890Y236189D02*
X385858Y234221D01*
X397669D01*
X229720Y240752D02*
Y245920D01*
X321457Y226575D02*
Y231693D01*
X318929Y234221D02*
X321457Y231693D01*
X305150Y236189D02*
X307118Y234221D01*
X318929D01*
X150980Y240752D02*
X153543Y238189D01*
X150980Y240752D02*
Y245920D01*
X153543Y238189D02*
X165354D01*
X72240Y240752D02*
X74803Y238189D01*
X72240Y240752D02*
Y245920D01*
X163976Y226575D02*
Y231693D01*
X161449Y234221D02*
X163976Y231693D01*
X147669Y236189D02*
X149638Y234221D01*
X161449D01*
X74803Y238189D02*
X86614D01*
X72240Y319492D02*
X74803Y316929D01*
X72240Y319492D02*
Y324661D01*
X150980Y319492D02*
X153543Y316929D01*
X150980Y319492D02*
Y324661D01*
X242717Y305315D02*
Y310433D01*
X240189Y312961D02*
X242717Y310433D01*
X226409Y314929D02*
X228378Y312961D01*
X240189D01*
X229720Y319492D02*
X232283Y316929D01*
X229720Y319492D02*
Y324661D01*
X321457Y305315D02*
Y310433D01*
X318929Y312961D02*
X321457Y310433D01*
X305150Y314929D02*
X307118Y312961D01*
X318929D01*
X232283Y316929D02*
X244094D01*
X246094Y314929D01*
X305150D01*
X308461Y319492D02*
X311024Y316929D01*
X308461Y319492D02*
Y324661D01*
X400197Y305315D02*
Y310433D01*
X397669Y312961D02*
X400197Y310433D01*
X383890Y314929D02*
X385858Y312961D01*
X397669D01*
X311024Y316929D02*
X322835D01*
X308461Y398232D02*
X311024Y395669D01*
X308461Y398232D02*
Y403401D01*
X400197Y384055D02*
Y389173D01*
X311024Y395669D02*
X322835D01*
X229720Y398232D02*
X232283Y395669D01*
X229720Y398232D02*
Y403401D01*
X321457Y384055D02*
Y389173D01*
X318929Y391701D02*
X321457Y389173D01*
X305150Y393669D02*
X307118Y391701D01*
X318929D01*
X232283Y395669D02*
X244094D01*
X246094Y393669D01*
X305150D01*
X228378Y391701D02*
X240189D01*
X226410Y393669D02*
X228378Y391701D01*
X74803Y395669D02*
X86614D01*
X149638Y391701D02*
X161449D01*
X147669Y393669D02*
X149638Y391701D01*
X165354Y395669D02*
X167354Y393669D01*
X242717Y384055D02*
Y389173D01*
X240189Y391701D02*
X242717Y389173D01*
X161449Y391701D02*
X163976Y389173D01*
Y384055D02*
Y389173D01*
X150980Y398232D02*
Y403401D01*
X72240Y398232D02*
Y403401D01*
Y398232D02*
X74803Y395669D01*
X405512Y78740D02*
X411417D01*
X413386Y76772D01*
Y72835D02*
Y76772D01*
X334646Y65945D02*
Y72835D01*
Y84646D02*
Y97441D01*
Y144685D02*
Y151575D01*
X413386Y144685D02*
Y151575D01*
Y84646D02*
Y97441D01*
Y222441D02*
Y230315D01*
Y242126D02*
Y254921D01*
Y301181D02*
Y309055D01*
Y320866D02*
Y333661D01*
Y380906D02*
Y387795D01*
X334646Y302165D02*
Y309055D01*
Y242126D02*
Y254921D01*
X383890Y393669D02*
X385858Y391701D01*
X397669D01*
X400197Y389173D01*
X387201Y398232D02*
Y403401D01*
X389764Y395669D02*
X401575D01*
X387201Y398232D02*
X389764Y395669D01*
X85236Y305315D02*
Y310433D01*
X82709Y312961D02*
X85236Y310433D01*
X68929Y314929D02*
X70898Y312961D01*
X82709D01*
X55150Y314929D02*
X68929D01*
X53150Y316929D02*
X55150Y314929D01*
Y236189D02*
X68929D01*
X70898Y234221D02*
X82709D01*
X68929Y236189D02*
X70898Y234221D01*
X82709D02*
X85236Y231693D01*
Y226575D02*
Y231693D01*
X407480Y295276D02*
Y311024D01*
X401575Y316929D02*
X407480Y311024D01*
X387201Y319492D02*
X389764Y316929D01*
X401575D01*
X387201Y319492D02*
Y324661D01*
X53150Y159449D02*
Y210630D01*
Y159449D02*
X55150Y157449D01*
X68929D01*
X70898Y155480D02*
X82709D01*
X68929Y157449D02*
X70898Y155480D01*
X82709D02*
X85236Y152953D01*
Y147835D02*
Y152953D01*
X405512Y214567D02*
X407480Y216535D01*
Y232283D01*
X401575Y238189D02*
X407480Y232283D01*
X387201Y240752D02*
X389764Y238189D01*
X401575D01*
X387201Y240752D02*
Y245920D01*
X55150Y78709D02*
X68929D01*
X70898Y76740D02*
X82709D01*
X68929Y78709D02*
X70898Y76740D01*
X82709D02*
X85236Y74213D01*
Y69095D02*
Y74213D01*
X405512Y135827D02*
X407480Y137795D01*
Y153543D01*
X401575Y159449D02*
X407480Y153543D01*
X322835Y316929D02*
X324835Y314929D01*
X383890D01*
X334646Y320866D02*
Y334646D01*
X324803Y344488D02*
X334646Y334646D01*
D17*
X206693Y188976D02*
X214567Y196850D01*
X206693Y267717D02*
X214567Y275590D01*
X167323D02*
X177165Y265748D01*
X135827Y275590D02*
X167323D01*
X214567D02*
X246063D01*
X206693Y251969D02*
Y267717D01*
X255906Y163386D02*
Y187008D01*
X246063Y196850D02*
X255906Y187008D01*
X167323Y118110D02*
X177165Y108268D01*
X135827Y118110D02*
X167323D01*
X127953Y110236D02*
X135827Y118110D01*
X206693Y110236D02*
X214567Y118110D01*
X206693Y94488D02*
Y110236D01*
X214567Y118110D02*
X246063D01*
Y275590D02*
X255906Y265748D01*
Y242126D02*
Y265748D01*
X177165Y230315D02*
X185039D01*
X206693Y251969D01*
X214850Y354331D02*
X246063D01*
X206693Y346174D02*
X214850Y354331D01*
X206693Y330709D02*
Y346174D01*
X185039Y309055D02*
X206693Y330709D01*
X212598Y431102D02*
X248031D01*
X206693Y425197D02*
X212598Y431102D01*
X248031D02*
X255906Y423228D01*
X405512Y163386D02*
X413386D01*
X413386Y163386D01*
X334646D02*
X366142D01*
X135827Y354331D02*
X167323D01*
X170276Y430118D02*
X177165Y423228D01*
X132874Y430118D02*
X170276D01*
X127953Y425197D02*
X132874Y430118D01*
X98425Y72835D02*
X106299D01*
X127953Y94488D01*
Y110236D01*
X177165Y84646D02*
Y108268D01*
Y72835D02*
X185039D01*
X206693Y94488D01*
X246063Y118110D02*
X255906Y108268D01*
Y84646D02*
Y108268D01*
X177165Y151575D02*
X185039D01*
X206693Y173228D01*
Y188976D01*
X214567Y196850D02*
X246063D01*
X98425Y151575D02*
X106299D01*
X127953Y173228D01*
Y188976D01*
X135827Y196850D01*
X167323D01*
X177165Y187008D01*
Y163386D02*
Y187008D01*
X98425Y230315D02*
X106299D01*
X127953Y251969D01*
Y267717D01*
X135827Y275590D01*
X177165Y242126D02*
Y265748D01*
X177165Y387795D02*
X185039D01*
X206693Y409449D01*
Y425197D01*
X255906Y399606D02*
Y423228D01*
X98425Y387795D02*
X106299D01*
X127953Y409449D01*
Y425197D01*
X177165Y399606D02*
Y423228D01*
Y309055D02*
X185039D01*
X246063Y354331D02*
X255906Y344488D01*
Y320866D02*
Y344488D01*
X177165Y320866D02*
Y344488D01*
X167323Y354331D02*
X177165Y344488D01*
X127953Y346457D02*
X135827Y354331D01*
X127953Y330709D02*
Y346457D01*
X106299Y309055D02*
X127953Y330709D01*
X98425Y309055D02*
X106299D01*
D18*
X405512Y396654D02*
X408465Y399606D01*
X413386D01*
X334646D02*
Y413386D01*
X98425Y399606D02*
Y413386D01*
X89567Y343504D02*
X98425Y334646D01*
Y242126D02*
Y250984D01*
Y320866D02*
Y328740D01*
Y334646D01*
Y163386D02*
Y172244D01*
Y84646D02*
Y93504D01*
D19*
X413386Y59055D02*
D03*
X59055D02*
D03*
Y413386D02*
D03*
X413386D02*
D03*
D20*
X259842Y346457D02*
D03*
X270669Y357283D02*
D03*
X198622Y196653D02*
D03*
X208465D02*
D03*
X219488Y272638D02*
D03*
X210630Y256890D02*
D03*
X224410Y178150D02*
D03*
X286417Y119095D02*
D03*
X244094Y375984D02*
D03*
X137795Y246900D02*
D03*
X137795Y278543D02*
D03*
X212598Y277559D02*
D03*
X202756Y279528D02*
D03*
X224410D02*
D03*
X214567Y289370D02*
D03*
X374016D02*
D03*
Y325787D02*
D03*
X269685D02*
D03*
Y282480D02*
D03*
X256890D02*
D03*
X258858Y287402D02*
D03*
X222441Y297244D02*
D03*
X256890Y206693D02*
D03*
X251969Y198819D02*
D03*
X223425Y218504D02*
D03*
X334646Y222441D02*
D03*
X198819Y161417D02*
D03*
X137795Y168307D02*
D03*
X232283Y193898D02*
D03*
X222441Y205906D02*
D03*
X221457Y187992D02*
D03*
X59055Y90551D02*
D03*
X60039Y126969D02*
D03*
X213583Y131890D02*
D03*
X137795Y89567D02*
D03*
X171260Y119095D02*
D03*
X211614D02*
D03*
X219488Y115157D02*
D03*
X262795Y268701D02*
D03*
X266732Y211614D02*
D03*
X67913D02*
D03*
X59055Y168307D02*
D03*
X267717Y277559D02*
D03*
X254921D02*
D03*
X374016Y247047D02*
D03*
X250984Y282480D02*
D03*
X257874Y273622D02*
D03*
X216535Y246063D02*
D03*
X249016Y187992D02*
D03*
X243110Y193898D02*
D03*
X253937Y124016D02*
D03*
X212598Y324803D02*
D03*
Y304134D02*
D03*
X199803Y310039D02*
D03*
X137795Y325787D02*
D03*
X323819Y124016D02*
D03*
X253937Y129921D02*
D03*
Y118110D02*
D03*
X374016Y89567D02*
D03*
X199803Y319882D02*
D03*
X59203Y325787D02*
D03*
X222441Y317913D02*
D03*
X374016Y403543D02*
D03*
X270669Y368110D02*
D03*
X255906Y381890D02*
D03*
X76772Y391732D02*
D03*
X137795Y403543D02*
D03*
X295276D02*
D03*
X216535D02*
D03*
X255906Y303150D02*
D03*
Y224410D02*
D03*
X222441Y284646D02*
D03*
X205512D02*
D03*
X224410Y200787D02*
D03*
X202756D02*
D03*
X205512Y205906D02*
D03*
X202756Y358268D02*
D03*
X212598D02*
D03*
X205512Y127165D02*
D03*
X202756Y122047D02*
D03*
X222441Y127165D02*
D03*
X224410Y122047D02*
D03*
X393701Y90551D02*
D03*
X129921Y375984D02*
D03*
X255906Y145669D02*
D03*
X318898Y355315D02*
D03*
Y369094D02*
D03*
X334646Y375984D02*
D03*
X255906Y66929D02*
D03*
X78740Y375984D02*
D03*
X157480D02*
D03*
X314961D02*
D03*
X393701D02*
D03*
Y297244D02*
D03*
X314961D02*
D03*
X157480D02*
D03*
X78740D02*
D03*
Y218504D02*
D03*
X157480D02*
D03*
X314961D02*
D03*
X393701D02*
D03*
Y139764D02*
D03*
X314961D02*
D03*
X236221D02*
D03*
X157480D02*
D03*
X78740D02*
D03*
X393701Y61024D02*
D03*
X314961D02*
D03*
X236221D02*
D03*
X78740D02*
D03*
X157480D02*
D03*
X68898Y96457D02*
D03*
X405512Y78740D02*
D03*
X334646Y65945D02*
D03*
Y97441D02*
D03*
Y144685D02*
D03*
X413386Y144685D02*
D03*
Y97441D02*
D03*
Y222441D02*
D03*
Y254921D02*
D03*
Y301181D02*
D03*
Y333661D02*
D03*
Y380906D02*
D03*
X405512Y396654D02*
D03*
X334646Y413386D02*
D03*
X98425D02*
D03*
X334646Y302165D02*
D03*
Y254921D02*
D03*
X89567Y343504D02*
D03*
X98425Y328740D02*
D03*
Y250984D02*
D03*
Y172244D02*
D03*
Y93504D02*
D03*
X324803Y344488D02*
D03*
D21*
X275590Y106299D02*
D03*
X196850Y342520D02*
D03*
Y354331D02*
D03*
X196850Y366142D02*
D03*
X196850Y377953D02*
D03*
X275590Y118110D02*
D03*
Y129921D02*
D03*
Y141732D02*
D03*
D22*
X405512Y163386D02*
D03*
X366142Y163386D02*
D03*
D23*
X396161Y363681D02*
D03*
X159941D02*
D03*
X48228Y280512D02*
D03*
X48228Y201772D02*
D03*
X421260Y275590D02*
D03*
Y196850D02*
D03*
X275590Y51181D02*
D03*
X196850D02*
D03*
Y421260D02*
D03*
X275590D02*
D03*
M02*
