G04 Layer_Color=20142*
%FSLAX25Y25*%
%MOIN*%
G70*
G01*
G75*
%ADD22C,0.03937*%
%ADD37R,0.04387X0.06787*%
G04:AMPARAMS|DCode=38|XSize=39.37mil|YSize=43.31mil|CornerRadius=5.51mil|HoleSize=0mil|Usage=FLASHONLY|Rotation=0.000|XOffset=0mil|YOffset=0mil|HoleType=Round|Shape=RoundedRectangle|*
%AMROUNDEDRECTD38*
21,1,0.03937,0.03228,0,0,0.0*
21,1,0.02835,0.04331,0,0,0.0*
1,1,0.01102,0.01417,-0.01614*
1,1,0.01102,-0.01417,-0.01614*
1,1,0.01102,-0.01417,0.01614*
1,1,0.01102,0.01417,0.01614*
%
%ADD38ROUNDEDRECTD38*%
%ADD39R,0.06693X0.06299*%
%ADD40R,0.05512X0.05118*%
%ADD41R,0.04528X0.03937*%
%ADD42C,0.16535*%
%ADD43C,0.05787*%
%ADD44C,0.04724*%
%ADD45C,0.06693*%
D22*
X259842Y346457D02*
D03*
X270669Y357283D02*
D03*
X198622Y196653D02*
D03*
X208465D02*
D03*
X219488Y272638D02*
D03*
X210630Y256890D02*
D03*
X224410Y178150D02*
D03*
X286417Y119095D02*
D03*
X244094Y375984D02*
D03*
X137795Y246900D02*
D03*
X137795Y278543D02*
D03*
X212598Y277559D02*
D03*
X202756Y279528D02*
D03*
X224410D02*
D03*
X214567Y289370D02*
D03*
X374016D02*
D03*
Y325787D02*
D03*
X269685D02*
D03*
Y282480D02*
D03*
X256890D02*
D03*
X258858Y287402D02*
D03*
X222441Y297244D02*
D03*
X256890Y206693D02*
D03*
X251969Y198819D02*
D03*
X223425Y218504D02*
D03*
X334646Y222441D02*
D03*
X198819Y161417D02*
D03*
X137795Y168307D02*
D03*
X232283Y193898D02*
D03*
X222441Y205906D02*
D03*
X221457Y187992D02*
D03*
X59055Y90551D02*
D03*
X60039Y126969D02*
D03*
X213583Y131890D02*
D03*
X137795Y89567D02*
D03*
X171260Y119095D02*
D03*
X211614D02*
D03*
X219488Y115157D02*
D03*
X262795Y268701D02*
D03*
X266732Y211614D02*
D03*
X67913D02*
D03*
X59055Y168307D02*
D03*
X267717Y277559D02*
D03*
X254921D02*
D03*
X374016Y247047D02*
D03*
X250984Y282480D02*
D03*
X257874Y273622D02*
D03*
X216535Y246063D02*
D03*
X249016Y187992D02*
D03*
X243110Y193898D02*
D03*
X253937Y124016D02*
D03*
X212598Y324803D02*
D03*
Y304134D02*
D03*
X199803Y310039D02*
D03*
X137795Y325787D02*
D03*
X323819Y124016D02*
D03*
X253937Y129921D02*
D03*
Y118110D02*
D03*
X374016Y89567D02*
D03*
X199803Y319882D02*
D03*
X59203Y325787D02*
D03*
X222441Y317913D02*
D03*
X374016Y403543D02*
D03*
X270669Y368110D02*
D03*
X255906Y381890D02*
D03*
X76772Y391732D02*
D03*
X137795Y403543D02*
D03*
X295276D02*
D03*
X216535D02*
D03*
X255906Y303150D02*
D03*
Y224410D02*
D03*
X222441Y284646D02*
D03*
X205512D02*
D03*
X224410Y200787D02*
D03*
X202756D02*
D03*
X205512Y205906D02*
D03*
X202756Y358268D02*
D03*
X212598D02*
D03*
X205512Y127165D02*
D03*
X202756Y122047D02*
D03*
X222441Y127165D02*
D03*
X224410Y122047D02*
D03*
X393701Y90551D02*
D03*
X129921Y375984D02*
D03*
X255906Y145669D02*
D03*
X318898Y355315D02*
D03*
Y369094D02*
D03*
X334646Y375984D02*
D03*
X255906Y66929D02*
D03*
X78740Y375984D02*
D03*
X157480D02*
D03*
X314961D02*
D03*
X393701D02*
D03*
Y297244D02*
D03*
X314961D02*
D03*
X157480D02*
D03*
X78740D02*
D03*
Y218504D02*
D03*
X157480D02*
D03*
X314961D02*
D03*
X393701D02*
D03*
Y139764D02*
D03*
X314961D02*
D03*
X236221D02*
D03*
X157480D02*
D03*
X78740D02*
D03*
X393701Y61024D02*
D03*
X314961D02*
D03*
X236221D02*
D03*
X78740D02*
D03*
X157480D02*
D03*
X68898Y96457D02*
D03*
X405512Y78740D02*
D03*
X334646Y65945D02*
D03*
Y97441D02*
D03*
Y144685D02*
D03*
X413386Y144685D02*
D03*
Y97441D02*
D03*
Y222441D02*
D03*
Y254921D02*
D03*
Y301181D02*
D03*
Y333661D02*
D03*
Y380906D02*
D03*
X405512Y396654D02*
D03*
X334646Y413386D02*
D03*
X98425D02*
D03*
X334646Y302165D02*
D03*
Y254921D02*
D03*
X89567Y343504D02*
D03*
X98425Y328740D02*
D03*
Y250984D02*
D03*
Y172244D02*
D03*
Y93504D02*
D03*
X324803Y344488D02*
D03*
D37*
X72240Y384055D02*
D03*
X85236D02*
D03*
X72240Y403401D02*
D03*
X85236D02*
D03*
X387201Y69095D02*
D03*
X400197D02*
D03*
X387201Y88440D02*
D03*
X400197D02*
D03*
X308461Y69095D02*
D03*
X321457D02*
D03*
X308461Y88440D02*
D03*
X321457D02*
D03*
X229720Y69095D02*
D03*
X242717D02*
D03*
X229720Y88440D02*
D03*
X242717D02*
D03*
X150980Y69095D02*
D03*
X163976D02*
D03*
X150980Y88440D02*
D03*
X163976D02*
D03*
X72240Y69095D02*
D03*
X85236D02*
D03*
X72240Y88440D02*
D03*
X85236D02*
D03*
X387201Y147835D02*
D03*
X400197D02*
D03*
X387201Y167180D02*
D03*
X400197D02*
D03*
X308461Y147835D02*
D03*
X321457D02*
D03*
X308461Y167180D02*
D03*
X321457D02*
D03*
X229720Y147835D02*
D03*
X242717D02*
D03*
X229720Y167180D02*
D03*
X242717D02*
D03*
X150980Y147835D02*
D03*
X163976D02*
D03*
X150980Y167180D02*
D03*
X163976D02*
D03*
X72240Y147835D02*
D03*
X85236D02*
D03*
X72240Y167180D02*
D03*
X85236D02*
D03*
X387201Y226575D02*
D03*
X400197D02*
D03*
X387201Y245920D02*
D03*
X400197D02*
D03*
X308461Y226575D02*
D03*
X321457D02*
D03*
X308461Y245920D02*
D03*
X321457D02*
D03*
X229720Y226575D02*
D03*
X242717D02*
D03*
X229720Y245920D02*
D03*
X242717D02*
D03*
X150980Y226575D02*
D03*
X163976D02*
D03*
X150980Y245920D02*
D03*
X163976D02*
D03*
X72240Y226575D02*
D03*
X85236D02*
D03*
X72240Y245920D02*
D03*
X85236D02*
D03*
X387201Y305315D02*
D03*
X400197D02*
D03*
X387201Y324661D02*
D03*
X400197D02*
D03*
X308461Y305315D02*
D03*
X321457D02*
D03*
X308461Y324661D02*
D03*
X321457D02*
D03*
X229720Y305315D02*
D03*
X242717D02*
D03*
X229720Y324661D02*
D03*
X242717D02*
D03*
X150980Y305315D02*
D03*
X163976D02*
D03*
X150980Y324661D02*
D03*
X163976D02*
D03*
X72240Y305315D02*
D03*
X85236D02*
D03*
X72240Y324661D02*
D03*
X85236D02*
D03*
X387201Y384055D02*
D03*
X400197D02*
D03*
X387201Y403401D02*
D03*
X400197D02*
D03*
X308461Y384055D02*
D03*
X321457D02*
D03*
X308461Y403401D02*
D03*
X321457D02*
D03*
X229720Y384055D02*
D03*
X242717D02*
D03*
X229720Y403401D02*
D03*
X242717D02*
D03*
X150980Y384055D02*
D03*
X163976D02*
D03*
X150980Y403401D02*
D03*
X163976D02*
D03*
D38*
X75590Y413386D02*
D03*
X81890D02*
D03*
X390551Y98425D02*
D03*
X396850D02*
D03*
X311811D02*
D03*
X318110D02*
D03*
X233071D02*
D03*
X239370D02*
D03*
X154331D02*
D03*
X160630D02*
D03*
X75590D02*
D03*
X81890D02*
D03*
X390551Y177165D02*
D03*
X396850D02*
D03*
X311811D02*
D03*
X318110D02*
D03*
X233071D02*
D03*
X239370D02*
D03*
X154331D02*
D03*
X160630D02*
D03*
X75590D02*
D03*
X81890D02*
D03*
X390551Y255906D02*
D03*
X396850D02*
D03*
X311811D02*
D03*
X318110D02*
D03*
X233071D02*
D03*
X239370D02*
D03*
X154331D02*
D03*
X160630D02*
D03*
X75590D02*
D03*
X81890D02*
D03*
X390551Y334646D02*
D03*
X396850D02*
D03*
X311811D02*
D03*
X318110D02*
D03*
X233071D02*
D03*
X239370D02*
D03*
X154331D02*
D03*
X160630D02*
D03*
X75590D02*
D03*
X81890D02*
D03*
X390551Y413386D02*
D03*
X396850D02*
D03*
X311811D02*
D03*
X318110D02*
D03*
X233071D02*
D03*
X239370D02*
D03*
X154331D02*
D03*
X160630D02*
D03*
D39*
X98425Y399606D02*
D03*
Y387795D02*
D03*
X413386Y84646D02*
D03*
Y72835D02*
D03*
X334646Y84646D02*
D03*
Y72835D02*
D03*
X255906Y84646D02*
D03*
Y72835D02*
D03*
X177165Y84646D02*
D03*
Y72835D02*
D03*
X98425Y84646D02*
D03*
Y72835D02*
D03*
X413386Y163386D02*
D03*
Y151575D02*
D03*
X334646Y163386D02*
D03*
Y151575D02*
D03*
X255906Y163386D02*
D03*
Y151575D02*
D03*
X177165Y163386D02*
D03*
Y151575D02*
D03*
X98425Y163386D02*
D03*
Y151575D02*
D03*
X413386Y242126D02*
D03*
Y230315D02*
D03*
X334646Y242126D02*
D03*
Y230315D02*
D03*
X255906Y242126D02*
D03*
Y230315D02*
D03*
X177165Y242126D02*
D03*
Y230315D02*
D03*
X98425Y242126D02*
D03*
Y230315D02*
D03*
X413386Y320866D02*
D03*
Y309055D02*
D03*
X334646Y320866D02*
D03*
Y309055D02*
D03*
X255906Y320866D02*
D03*
Y309055D02*
D03*
X177165Y320866D02*
D03*
Y309055D02*
D03*
X98425Y320866D02*
D03*
Y309055D02*
D03*
X413386Y399606D02*
D03*
Y387795D02*
D03*
X334646Y399606D02*
D03*
Y387795D02*
D03*
X255906Y399606D02*
D03*
Y387795D02*
D03*
X177165Y399606D02*
D03*
Y387795D02*
D03*
D40*
X59055Y389567D02*
D03*
Y397835D02*
D03*
X374016Y74606D02*
D03*
Y82874D02*
D03*
X295276Y74606D02*
D03*
Y82874D02*
D03*
X216535Y74606D02*
D03*
Y82874D02*
D03*
X137795Y74606D02*
D03*
Y82874D02*
D03*
X59055Y74606D02*
D03*
Y82874D02*
D03*
X374016Y153347D02*
D03*
Y161614D02*
D03*
X295276Y153347D02*
D03*
Y161614D02*
D03*
X216535Y153347D02*
D03*
Y161614D02*
D03*
X137795Y153347D02*
D03*
Y161614D02*
D03*
X59055Y153347D02*
D03*
Y161614D02*
D03*
X374016Y232087D02*
D03*
Y240354D02*
D03*
X295276Y232087D02*
D03*
Y240354D02*
D03*
X216535Y232087D02*
D03*
Y240354D02*
D03*
X137795Y232087D02*
D03*
Y240354D02*
D03*
X59055Y232087D02*
D03*
Y240354D02*
D03*
X374016Y310827D02*
D03*
Y319094D02*
D03*
X295276Y310827D02*
D03*
Y319094D02*
D03*
X216535Y310827D02*
D03*
Y319094D02*
D03*
X137795Y310827D02*
D03*
Y319094D02*
D03*
X59055Y310827D02*
D03*
Y319094D02*
D03*
X374016Y389567D02*
D03*
Y397835D02*
D03*
X295276Y389567D02*
D03*
Y397835D02*
D03*
X216535Y389567D02*
D03*
Y397835D02*
D03*
X137795Y389567D02*
D03*
Y397835D02*
D03*
D41*
X374016Y100886D02*
D03*
Y95965D02*
D03*
X295276Y100886D02*
D03*
Y95965D02*
D03*
X216535Y100886D02*
D03*
Y95965D02*
D03*
X137795Y100886D02*
D03*
Y95965D02*
D03*
X59055Y100886D02*
D03*
Y95965D02*
D03*
X374016Y179626D02*
D03*
Y174705D02*
D03*
X295276Y179626D02*
D03*
Y174705D02*
D03*
X216535Y179626D02*
D03*
Y174705D02*
D03*
X137795Y179626D02*
D03*
Y174705D02*
D03*
X59055Y179626D02*
D03*
Y174705D02*
D03*
X374016Y258366D02*
D03*
Y253445D02*
D03*
X295276Y258366D02*
D03*
Y253445D02*
D03*
X216535Y258366D02*
D03*
Y253445D02*
D03*
X137795Y258366D02*
D03*
Y253445D02*
D03*
X59055Y258366D02*
D03*
Y253445D02*
D03*
X374016Y337106D02*
D03*
Y332185D02*
D03*
X295276Y337106D02*
D03*
Y332185D02*
D03*
X216535Y337106D02*
D03*
Y332185D02*
D03*
X137795Y337106D02*
D03*
Y332185D02*
D03*
X59055Y337106D02*
D03*
Y332185D02*
D03*
X374016Y415846D02*
D03*
Y410925D02*
D03*
X295276Y415846D02*
D03*
Y410925D02*
D03*
X216535Y415846D02*
D03*
Y410925D02*
D03*
X137795Y415846D02*
D03*
Y410925D02*
D03*
X49213Y391240D02*
D03*
Y396161D02*
D03*
D42*
X413386Y59055D02*
D03*
X59055D02*
D03*
Y413386D02*
D03*
X413386D02*
D03*
D43*
X275590Y106299D02*
D03*
X196850Y342520D02*
D03*
Y354331D02*
D03*
X196850Y366142D02*
D03*
X196850Y377953D02*
D03*
X275590Y118110D02*
D03*
Y129921D02*
D03*
Y141732D02*
D03*
D44*
X405512Y163386D02*
D03*
X366142Y163386D02*
D03*
D45*
X396161Y363681D02*
D03*
X159941D02*
D03*
X48228Y280512D02*
D03*
X48228Y201772D02*
D03*
X421260Y275590D02*
D03*
Y196850D02*
D03*
X275590Y51181D02*
D03*
X196850D02*
D03*
Y421260D02*
D03*
X275590D02*
D03*
M02*
